<svg width="77" height="81" viewBox="0 0 77 81" fill="none" xmlns="http://www.w3.org/2000/svg">
<g id="Group">
<path id="Vector" d="M51.337 14.7392C50.4301 14.7248 49.6098 14.9989 48.9654 15.6588L38.9309 25.9329L29.1941 15.3447C27.9435 13.9847 25.8589 13.8559 24.478 15.2697L12.1421 27.9004C10.8532 29.22 10.7311 31.4196 12.0711 32.8767C13.3216 34.2366 15.4983 34.2713 16.7871 32.9517L26.8216 22.6775L36.5584 33.2657C37.809 34.6257 39.8936 34.7546 41.2745 33.3407L51.309 23.0665L61.0457 33.6547C62.2963 35.0147 64.3809 35.1436 65.7618 33.7297C67.0507 32.4101 67.1727 30.2104 65.8328 28.7533L53.8628 15.7366C53.1454 15.1509 52.244 14.7536 51.337 14.7392Z" fill="#89B5E0"/>
<path id="Vector_2" d="M51.1627 33.4038C50.2558 33.3894 49.4355 33.6635 48.791 34.3233L38.7566 44.5975L29.1091 34.1064C27.8585 32.7464 25.6819 32.7118 24.3931 34.0315L12.0571 46.6621C10.7683 47.9817 10.6462 50.1813 11.9861 51.6384C13.2367 52.9984 15.3212 53.1272 16.7021 51.7133L26.7366 41.4391L36.4734 52.0274C37.724 53.3874 39.9006 53.422 41.1895 52.1023L51.224 41.8282L60.9608 52.4164C62.2114 53.7764 64.2959 53.9052 65.6768 52.4914C66.9656 51.1717 67.0878 48.9721 65.7479 47.515L53.7778 34.4982C52.7898 33.8125 51.9776 33.5124 51.1627 33.4038Z" fill="#89B5E0"/>
</g>
</svg>
