<svg width="246" height="213" viewBox="0 0 246 213" fill="none" xmlns="http://www.w3.org/2000/svg">
<path d="M1.03486 200.212C1.95156 197.722 49.1364 139.998 52.2953 138.933C52.6546 138.789 72.8837 153.325 72.8837 153.325C73.7013 154.438 112.896 147.254 112.896 147.254L112.302 192.765L41.2455 189.879C41.2455 189.879 31.5211 195.148 22.6515 199.41C22.6391 199.41 22.6267 199.41 22.6267 199.41C17.1637 202.056 12.3325 204.283 10.9575 204.595C7.3774 205.409 0.105784 202.703 1.03486 200.224V200.212Z" fill="#AD6359"/>
<path d="M10.9451 204.583C12.3201 204.271 17.1513 202.044 22.6143 199.398C22.6143 199.398 22.6391 199.398 22.6515 199.398C31.5211 195.136 41.2455 189.867 41.2455 189.867L57.0646 190.514L82.6577 152.391C77.2071 153.217 73.1315 153.684 72.8714 153.337C72.8714 153.337 52.6546 138.801 52.2953 138.945C49.1364 140.01 1.95156 197.734 1.03486 200.224C0.105784 202.703 7.3774 205.409 10.9575 204.595L10.9451 204.583Z" fill="#ECF7F4"/>
<path d="M0.614264 200.272C1.56812 197.722 48.9636 140.034 52.2092 138.933C53.4356 138.514 63.3458 144.704 72.8719 153.313L42.2742 190.466C42.2742 190.466 14.4885 203.984 10.797 204.822C7.11783 205.648 -0.351979 202.823 0.614264 200.272Z" fill="#00747A"/>
<path d="M3.67421 201.278C11.8625 191.795 43.9715 152.81 51.3175 142.836C51.3794 142.752 51.3175 142.716 51.2555 142.788C42.931 152.02 11.144 191.256 3.50079 201.158C3.33975 201.362 3.50079 201.482 3.66183 201.278H3.67421Z" fill="#1B1B2E"/>
<path d="M15.9877 202.763C17.9697 200.548 18.6882 197.435 18.2918 195.1C17.9202 192.861 16.8548 190.358 14.7241 188.838C14.6622 188.79 14.5755 188.897 14.625 188.957C18.0812 192.513 18.7006 198.596 15.8514 202.667C15.7895 202.751 15.9134 202.834 15.9753 202.763H15.9877Z" fill="#1B1B2E"/>
<path d="M38.7806 192.741C42.0138 188.909 44.2932 183.342 42.9925 178.421C42.9429 178.229 42.658 178.301 42.6332 178.469C41.6298 183.402 40.2796 187.796 38.2356 192.43C38.0869 192.753 38.5453 193.016 38.7806 192.741Z" fill="#1B1B2E"/>
<path d="M35.1141 194.8C38.3473 190.969 40.6266 185.401 39.3259 180.48C39.2763 180.289 38.9914 180.36 38.9667 180.528C37.9633 185.461 36.613 189.855 34.569 194.489C34.4204 194.812 34.8911 195.076 35.1141 194.8Z" fill="#1B1B2E"/>
<path d="M31.4598 196.86C34.693 193.028 36.9723 187.461 35.6716 182.54C35.622 182.348 35.3371 182.42 35.3124 182.588C34.309 187.521 32.9587 191.915 30.9147 196.549C30.7661 196.872 31.2368 197.135 31.4598 196.86Z" fill="#1B1B2E"/>
<path d="M27.7924 198.931C31.0256 195.1 33.3049 189.532 32.0042 184.611C31.9547 184.419 31.6697 184.491 31.645 184.659C30.6416 189.592 29.2913 193.986 27.2473 198.62C27.0987 198.943 27.557 199.207 27.7924 198.931Z" fill="#1B1B2E"/>
<path d="M58.7992 152.594C62.3545 148.236 55.3555 142.896 51.8002 147.254C48.2449 151.613 55.2316 156.953 58.7992 152.594Z" fill="#1B1B2E"/>
<path d="M46.0275 205.121C49.3226 204.451 49.7067 200.727 48.951 198.177C47.737 194.046 44.8754 189.664 41.6051 186.802C41.5184 186.73 41.444 186.766 41.3945 186.838C41.0352 186.706 40.5273 186.838 40.5026 187.281C40.2053 191.556 39.3505 196.081 40.4282 200.308C41.06 202.775 42.9306 205.756 46.0399 205.121H46.0275ZM41.4193 193.842C41.506 191.735 41.7042 189.652 41.7166 187.544C43.1412 189.772 44.6649 191.915 45.8541 194.285C46.4239 195.411 46.9938 196.584 47.3902 197.77C48.0219 199.626 48.2449 205.995 43.5747 203.038C40.9981 201.41 41.3078 196.357 41.4069 193.842H41.4193Z" fill="#1B1B2E"/>
<path d="M48.0096 176.05C44.702 179.008 42.8439 183.246 40.6512 186.97C40.4283 187.353 40.7627 187.748 41.1467 187.82C41.1467 187.904 41.1963 187.976 41.3078 187.964C45.6683 187.317 50.5614 185.174 53.9309 182.384C56.012 180.66 57.8082 177.343 55.4546 175.032C53.2124 172.853 49.9544 174.338 48.0219 176.062L48.0096 176.05ZM52.209 175.463C57.7959 175.475 53.9804 180.672 52.3948 181.893C51.379 182.671 50.2393 183.342 49.1244 183.989C46.7832 185.318 44.2932 186.311 41.8281 187.401C43.0173 185.641 44.0455 183.797 45.1604 181.989C46.4982 179.834 49.1244 175.463 52.209 175.463Z" fill="#1B1B2E"/>
<path d="M115.201 136.418L147.248 133.976C147.248 133.976 193.528 121.008 220.273 127.797C250.933 135.58 255.269 170.207 224.089 184.084C193.243 197.818 57.4614 192.753 57.4614 192.753L86.5726 151.086C86.5726 151.086 131.28 140.932 170.413 142.992L115.002 149.158L115.201 136.406V136.418Z" fill="#1B1B2E"/>
<path d="M115.523 145.231C120.292 144.476 125.111 144.093 129.93 143.662C134.774 143.231 139.642 142.884 144.498 142.597C154.198 142.01 163.934 141.818 173.646 142.166C174.551 142.202 175.467 142.249 176.372 142.297C176.57 142.237 176.768 142.213 176.966 142.166C177.437 142.07 177.895 141.962 178.378 141.89C179.258 141.747 180.15 141.639 181.029 141.531C182.875 141.292 184.721 141.148 186.554 140.849C186.666 140.837 186.703 140.992 186.592 141.016C184.746 141.375 182.925 141.854 181.079 142.202C180.546 142.297 180.014 142.405 179.481 142.501C183.036 142.752 186.592 143.088 190.134 143.471C190.246 143.483 190.246 143.65 190.134 143.638C185.303 143.267 180.435 143.135 175.579 143.112C170.76 143.088 165.954 143.1 161.147 143.267C151.423 143.614 141.686 144.261 131.986 145.039C126.548 145.482 121.085 146.021 115.622 146.129C115.09 146.129 114.978 145.303 115.511 145.219L115.523 145.231Z" fill="#ECF7F4"/>
<path d="M71.373 191.795C73.1692 189.137 74.7177 186.299 76.3653 183.569C78.0252 180.816 79.6728 178.074 81.3451 175.332C84.6527 169.86 96.5201 151.457 97.6846 150.176C97.7589 150.092 97.9076 150.188 97.8704 150.283C97.3006 151.708 89.8803 163.909 88.1708 166.627C84.7518 172.063 81.1841 177.391 77.6536 182.743C76.6502 184.276 75.6096 185.785 74.5814 187.305C73.5656 188.826 72.4755 190.322 71.534 191.891C71.4721 191.987 71.3235 191.891 71.3854 191.795H71.373Z" fill="#1B1B2E"/>
<path d="M230.778 208.606C229.985 206.079 185.687 146.26 182.577 145.051C182.218 144.895 161.308 158.485 161.308 158.485C160.428 159.551 121.63 150.583 121.63 150.583L119.995 196.069L191.113 196.429C191.113 196.429 200.564 202.128 209.223 206.798C209.236 206.798 209.248 206.798 209.248 206.798C214.575 209.695 219.295 212.126 220.645 212.509C224.175 213.479 231.571 211.108 230.766 208.594L230.778 208.606Z" fill="#AD6359"/>
<path d="M220.658 212.509C219.295 212.138 214.588 209.695 209.261 206.798C209.261 206.798 209.236 206.798 209.224 206.798C200.565 202.128 191.113 196.417 191.113 196.417L175.281 196.345L151.583 157.084C156.997 158.15 161.035 158.821 161.308 158.473C161.308 158.473 182.218 144.884 182.565 145.039C185.675 146.248 229.973 206.067 230.766 208.594C231.571 211.108 224.176 213.479 220.645 212.509H220.658Z" fill="#ECF7F4"/>
<path d="M231.199 208.689C230.369 206.103 185.848 146.308 182.664 145.063C181.462 144.584 171.255 150.319 161.32 158.473L190.072 196.991C190.072 196.991 217.164 211.766 220.806 212.772C224.448 213.766 232.041 211.288 231.199 208.689Z" fill="#00747A"/>
<path d="M228.09 209.552C220.373 199.709 190.209 159.287 183.358 148.99C183.296 148.906 183.358 148.87 183.42 148.942C191.286 158.545 221.116 199.195 228.264 209.432C228.412 209.647 228.264 209.755 228.09 209.552Z" fill="#1B1B2E"/>
<path d="M215.714 210.474C213.844 208.163 213.286 205.026 213.782 202.715C214.265 200.488 215.442 198.045 217.647 196.62C217.709 196.585 217.796 196.692 217.734 196.74C214.104 200.141 213.2 206.187 215.838 210.378C215.888 210.462 215.776 210.546 215.702 210.474H215.714Z" fill="#1B1B2E"/>
<path d="M193.442 199.41C190.394 195.435 188.4 189.771 189.936 184.91C189.998 184.719 190.27 184.803 190.295 184.97C191.063 189.939 192.191 194.393 193.999 199.123C194.123 199.458 193.652 199.697 193.442 199.41Z" fill="#1B1B2E"/>
<path d="M196.997 201.637C193.949 197.662 191.955 191.999 193.491 187.137C193.553 186.946 193.826 187.03 193.85 187.197C194.618 192.166 195.746 196.62 197.554 201.35C197.678 201.685 197.207 201.924 196.997 201.637Z" fill="#1B1B2E"/>
<path d="M200.552 203.876C197.505 199.901 195.51 194.238 197.046 189.377C197.108 189.185 197.381 189.269 197.406 189.436C198.174 194.405 199.301 198.859 201.11 203.589C201.233 203.924 200.763 204.164 200.552 203.876Z" fill="#1B1B2E"/>
<path d="M204.108 206.103C201.06 202.128 199.066 196.465 200.602 191.603C200.664 191.412 200.936 191.496 200.961 191.663C201.729 196.632 202.857 201.086 204.665 205.816C204.789 206.151 204.318 206.391 204.108 206.103Z" fill="#1B1B2E"/>
<path d="M175.405 158.401C172.072 153.887 179.319 148.871 182.651 153.385C185.984 157.898 178.737 162.915 175.405 158.401Z" fill="#1B1B2E"/>
<path d="M191.435 206.905C192.711 202.727 192.079 198.165 191.992 193.89C191.992 193.447 191.485 193.28 191.125 193.399C191.076 193.328 191.001 193.292 190.915 193.352C187.508 196.069 184.436 200.308 183.011 204.379C182.132 206.893 182.342 210.629 185.588 211.455C188.66 212.234 190.692 209.336 191.435 206.905ZM188.14 209.48C183.321 212.222 183.866 205.876 184.585 204.044C185.043 202.87 185.675 201.733 186.294 200.631C187.607 198.332 189.23 196.249 190.766 194.094C190.679 196.201 190.766 198.285 190.766 200.392C190.754 202.906 190.803 207.959 188.152 209.48H188.14Z" fill="#1B1B2E"/>
<path d="M177.66 180.947C175.183 183.151 176.818 186.539 178.812 188.359C182.045 191.304 186.815 193.663 191.138 194.513C191.249 194.537 191.299 194.465 191.299 194.382C191.683 194.322 192.042 193.951 191.832 193.555C189.825 189.736 188.177 185.425 185.018 182.312C183.173 180.504 179.989 178.864 177.648 180.947H177.66ZM187.583 188.371C188.611 190.227 189.552 192.119 190.655 193.927C188.252 192.717 185.811 191.616 183.532 190.179C182.442 189.496 181.352 188.766 180.361 187.94C178.837 186.659 175.282 181.295 180.856 181.534C183.928 181.666 186.344 186.156 187.57 188.371H187.583Z" fill="#1B1B2E"/>
<path d="M119.871 136.574L87.9724 135.76C87.9724 135.76 55.0334 119.404 27.9786 124.96C-3.02791 131.33 -7.99538 168.639 14.6742 182.456C43.3889 199.961 173.336 200.045 173.336 200.045L146.529 153.337C146.529 153.337 103.593 143.447 64.3985 143.71L119.45 152.403L119.883 136.574H119.871Z" fill="#1B1B2E"/>
<path d="M148.313 156.354C148.313 156.354 148.276 156.187 148.263 156.115C148.251 156.055 148.239 155.983 148.214 155.923C148.177 155.767 148.14 155.624 148.102 155.48C148.016 155.169 147.917 154.869 147.805 154.57C147.694 154.271 147.57 153.971 147.433 153.684C147.297 153.385 147.111 153.133 146.926 152.858C146.913 152.834 146.876 152.822 146.851 152.81C146.839 152.798 146.814 152.786 146.802 152.774C146.777 152.774 146.765 152.75 146.727 152.75C146.703 152.75 146.69 152.726 146.653 152.726C141.933 151.744 109.787 146.464 104.993 145.806C100.174 145.147 95.3307 144.584 90.4871 144.07C80.837 143.04 71.1127 142.393 61.4007 142.309C60.484 142.309 59.5797 142.309 58.6754 142.309C58.4896 142.238 58.2789 142.202 58.0807 142.154C57.6224 142.034 57.1517 141.914 56.6933 141.807C55.8262 141.627 54.9467 141.471 54.0671 141.328C52.2337 141.004 50.4004 140.777 48.5794 140.394C48.4679 140.37 48.4183 140.537 48.5298 140.561C50.3632 141.004 52.147 141.567 53.9804 141.998C54.5131 142.118 55.0334 142.25 55.566 142.369C51.9984 142.453 48.4431 142.633 44.8754 142.848C44.7639 142.848 44.7516 143.028 44.8754 143.016C49.719 142.86 54.5874 142.956 59.431 143.16C64.2375 143.363 69.0439 143.591 73.8379 143.974C83.5375 144.764 93.2248 145.854 102.875 147.075C108.288 147.769 141.066 153.253 146.517 153.612C146.542 153.612 146.566 153.612 146.579 153.612C146.616 153.732 146.665 153.852 146.715 153.971C146.851 154.259 147 154.546 147.149 154.834C147.297 155.109 147.446 155.372 147.619 155.636C147.706 155.767 147.793 155.899 147.879 156.019C147.929 156.079 147.966 156.151 148.016 156.211C148.053 156.27 148.127 156.354 148.152 156.414C148.189 156.534 148.375 156.462 148.313 156.354Z" fill="#ECF7F4"/>
<path d="M163.277 196.992C161.617 194.262 160.205 191.352 158.694 188.539C157.17 185.713 155.659 182.899 154.123 180.085C151.075 174.47 140.125 155.54 139.034 154.211C138.96 154.127 138.811 154.211 138.849 154.319C139.344 155.779 146.17 168.292 147.743 171.081C150.89 176.661 154.197 182.145 157.467 187.664C158.396 189.245 159.363 190.802 160.317 192.37C161.258 193.939 162.274 195.483 163.141 197.088C163.191 197.183 163.352 197.088 163.29 197.004L163.277 196.992Z" fill="#ECF7F4"/>
<path d="M58.5882 8.62631L63.469 44.0555C63.7292 45.1092 63.1098 45.8755 62.0816 45.7557L43.6982 43.7203C42.67 43.6125 41.6294 42.6546 41.3693 41.601L36.4885 6.17179C36.2284 5.11813 36.8478 4.35182 37.8759 4.47155L56.2593 6.50704C57.2875 6.62678 58.3281 7.57266 58.5882 8.62631Z" fill="#1B1B2E"/>
<path d="M56.4086 8.36313L61.2893 43.7924C61.5495 44.846 60.9301 45.6123 59.9019 45.4926L41.5185 43.4571C40.4903 43.3374 39.4498 42.3915 39.1896 41.3378L34.3088 5.90861C34.0487 4.85495 34.6681 4.08864 35.6963 4.20837L54.0797 6.24386C55.1079 6.36359 56.1484 7.30947 56.4086 8.36313Z" fill="#FFD476"/>
<path d="M51.1807 9.38072C51.1064 10.2189 51.7382 10.9612 52.6053 11.033C53.4725 11.1049 54.2405 10.4943 54.3148 9.65612C54.3892 8.81798 53.7574 8.07563 52.8902 8.00379C52.0231 7.93195 51.2551 8.54258 51.1807 9.38072Z" fill="#1B1B2E"/>
<path d="M111.831 64.9612C99.0715 85.3279 72.3388 110.58 62.7259 111.478C58.1177 111.909 49.8303 112.088 44.3425 106.365C32.3883 93.8649 23.7045 71.4029 22.8002 58.9626C22.4782 54.5324 45.3707 47.3604 48.2075 51.2278C54.8597 60.2796 61.8712 77.4375 63.2214 77.4734C68.2137 77.6171 86.8448 65.0929 102.045 56.2326C119.994 45.7679 116.91 56.8552 111.831 64.9732V64.9612Z" fill="#AD6359"/>
<path d="M24.7329 36.4645C28.0157 27.8796 30.2207 26.1674 29.0067 17.4987C28.2139 11.8114 31.6205 8.88986 35.2005 13.751C41.0476 21.7014 39.2266 33.6388 37.356 37.59L24.7329 36.4645Z" fill="#AD6359"/>
<path d="M23.4699 62.8539C23.4699 62.8539 20.7446 50.1502 23.2965 40.6672C25.0679 34.1178 30.5557 20.2647 50.6734 14.721C55.4426 13.4039 63.2097 14.8048 56.2231 19.6899C51.2556 23.1622 47.0314 23.9046 44.529 26.4309C44.529 26.4309 54.1915 29.3404 55.3683 34.0101C55.8886 36.0934 57.1893 41.8287 57.5486 46.4264C57.5486 46.4264 56.5328 46.7737 55.1825 47.0251C55.1825 47.0251 56.1364 51.4313 52.2094 57.1426L23.4823 62.8419L23.4699 62.8539Z" fill="#AD6359"/>
<path d="M26.0212 34.6807C29.0562 32.6811 35.5597 28.5503 42.1005 26.9579C49.3597 25.1858 63.8533 23.6772 65.1416 28.8736C66.0955 32.6811 60.6077 33.7348 60.6077 33.7348C60.6077 33.7348 66.7273 34.3335 66.814 37.9494C66.8883 41.2541 62.6022 41.8168 62.6022 41.8168C62.6022 41.8168 66.2565 42.7986 65.6867 45.9836C65.0054 49.827 57.4736 47.145 53.299 50.4616C52.3575 51.2039 26.0088 34.6807 26.0088 34.6807H26.0212Z" fill="#AD6359"/>
<path d="M42.7571 34.6805C45.9284 33.2556 54.0052 31.7949 60.5211 33.6149C60.6698 33.6508 60.7193 33.7824 60.5707 33.7705C52.9522 33.2436 45.7921 34.1656 42.7819 34.7403C42.7447 34.7403 42.7323 34.6924 42.7695 34.6685L42.7571 34.6805Z" fill="#1B1B2E"/>
<path d="M44.8132 41.721C47.6871 40.7632 56.0736 39.6257 62.6019 41.6851C62.7506 41.733 62.7878 41.8647 62.6391 41.8527C54.711 40.9787 47.8605 41.3977 44.8132 41.7929C44.776 41.7929 44.7636 41.733 44.8008 41.721H44.8132Z" fill="#1B1B2E"/>
<path d="M95.7396 87.2794L68.7344 74.4201C68.7344 74.4201 94.5256 58.0884 106.517 53.2272C119.016 48.1625 123.203 50.9283 112.983 65.2006C102.702 79.5566 95.752 87.2914 95.752 87.2914L95.7396 87.2794Z" fill="#23C0AD"/>
<path d="M100.348 81.7957L100.237 81.9393C98.651 80.9934 97.0158 80.0954 95.3311 79.3052C93.6959 78.5269 91.9988 77.8684 90.2273 77.4254C90.1035 77.3895 89.9672 77.3655 89.8309 77.3296C89.6575 77.2817 89.4717 77.2458 89.2859 77.2098C87.1923 76.7788 85.0245 76.683 82.9186 77.0662C81.1843 77.3775 79.512 78.0001 77.9139 78.7903L77.5547 78.6107C79.2394 77.7846 81.0109 77.1141 82.869 76.7908C85.0121 76.4077 87.2295 76.5154 89.3478 76.9704C89.5832 77.0183 89.8309 77.0781 90.0663 77.138C90.2026 77.1739 90.3264 77.2099 90.4627 77.2338C92.1846 77.7008 93.8446 78.3593 95.4302 79.1256C97.1149 79.9278 98.7501 80.8258 100.348 81.7957ZM116.873 57.9088C114.966 58.9026 113.182 60.1358 111.646 61.6205C110.097 63.1052 108.809 64.8174 107.756 66.6494C106.653 68.5651 105.799 70.5886 105.055 72.648C105.018 72.7198 104.994 72.7917 104.969 72.8755C104.325 74.6595 103.755 76.4795 103.16 78.2755C103.371 78.0001 103.594 77.7247 103.804 77.4373C104.3 75.9287 104.783 74.4201 105.328 72.9354C105.34 72.8635 105.378 72.7797 105.402 72.7079C106.133 70.6844 106.976 68.6968 108.053 66.817C109.094 64.997 110.37 63.3088 111.881 61.848C113.392 60.3753 115.139 59.154 117.01 58.1483C117.158 58.0644 117.307 57.9926 117.456 57.9208C117.518 57.7891 117.579 57.6454 117.641 57.5137C117.381 57.6454 117.121 57.7771 116.873 57.9088ZM105.402 72.7079C105.402 72.7079 105.34 72.6839 105.303 72.6839C105.217 72.6839 105.142 72.66 105.055 72.648C102.999 72.3247 100.868 72.3247 98.8244 72.7677C96.6937 73.2347 94.7117 74.1567 92.8535 75.2223C91.8749 75.797 90.9458 76.4316 90.0663 77.138C89.992 77.1979 89.9053 77.2577 89.8309 77.3296C89.1248 77.8923 88.4435 78.5149 87.7993 79.1615C86.8455 80.1313 85.9907 81.1731 85.1979 82.2507L85.4704 82.3823C86.2509 81.3287 87.1056 80.323 88.0347 79.3771C88.7284 78.6826 89.4593 78.036 90.2273 77.4254C90.3017 77.3535 90.376 77.2937 90.4627 77.2338C91.2803 76.5992 92.1351 76.0125 93.027 75.4857C94.8604 74.4201 96.8176 73.4981 98.8987 73.0431C100.868 72.6001 102.937 72.5762 104.969 72.8755C105.068 72.8875 105.167 72.9114 105.266 72.9234C105.291 72.9234 105.303 72.9354 105.328 72.9354C105.885 73.0312 106.443 73.1389 107 73.2826C107.062 73.2107 107.112 73.1509 107.161 73.0791C106.579 72.9354 105.997 72.8037 105.402 72.7079Z" fill="#ECF7F4"/>
<path d="M96.2107 81.9155C95.6037 81.5443 94.9348 81.2449 94.303 80.9217C93.6464 80.5864 92.9899 80.2631 92.3333 79.9279C91.0078 79.2574 89.67 78.5989 88.3197 77.9523C85.6316 76.6592 82.9558 75.366 80.2553 74.1208C79.512 73.7736 78.7688 73.4383 78.0131 73.115C77.2203 72.7798 76.4027 72.4924 75.6099 72.1452C75.5603 72.1213 75.5356 72.1931 75.5851 72.217C76.2417 72.5523 76.861 72.9474 77.5176 73.2946C78.1865 73.6419 78.8679 73.9891 79.5368 74.3244C80.8747 74.9829 82.2126 75.6295 83.5628 76.264C86.2138 77.5093 88.8648 78.7785 91.5405 79.9758C92.2838 80.311 93.0394 80.6343 93.7827 80.9696C94.5631 81.3168 95.3436 81.7119 96.1611 81.9993C96.1983 82.0112 96.2355 81.9514 96.1983 81.9274L96.2107 81.9155Z" fill="#1B1B2E"/>
<path opacity="0.1" d="M112.971 65.1769C102.689 79.5329 95.7397 87.2797 95.7397 87.2797L83.7607 81.5684L117.047 51.1082C120.082 52.1139 119.177 56.5321 112.971 65.1769Z" fill="#1B1B2E"/>
<path d="M81.6425 136.263C82.745 137.532 156.712 136.706 157.121 136.263C158.211 135.089 145.278 73.4145 132.284 54.6043C127.898 48.2585 113.95 46.9653 109.081 53.1196C95.108 70.7923 80.6887 135.149 81.6425 136.263Z" fill="#23C0AD"/>
<path d="M146.752 90.4766C146.752 90.4766 146.727 90.5125 146.715 90.5125C145.29 91.7936 143.705 92.8712 142.008 93.7692C140.112 94.775 138.056 95.5173 135.963 96.0202C133.857 96.5351 131.652 96.6428 129.496 96.4632C127.341 96.2717 125.21 95.8167 123.178 95.0983C121.147 94.3918 119.177 93.5178 117.282 92.524C115.188 91.4224 113.169 90.2012 111.175 88.932C111.063 88.8721 110.964 88.8003 110.853 88.7285C109.341 87.7706 107.855 86.7887 106.356 85.8189C104.882 84.8491 103.395 83.8792 101.884 82.9333C101.785 82.8854 101.698 82.8136 101.587 82.7537C99.9018 81.712 98.1923 80.7182 96.4085 79.8322C96.4209 79.7723 96.4456 79.7005 96.4704 79.6406C98.2542 80.5386 99.9637 81.5324 101.648 82.5861C101.748 82.646 101.847 82.7178 101.946 82.7777C103.469 83.7236 104.956 84.7174 106.443 85.6992C107.941 86.693 109.428 87.6868 110.952 88.6446C111.063 88.7284 111.162 88.7883 111.274 88.8482C111.447 88.9679 111.633 89.0876 111.806 89.1954C113.615 90.3209 115.461 91.3985 117.344 92.3923C119.251 93.3861 121.209 94.2482 123.24 94.9306C125.26 95.649 127.378 96.092 129.521 96.2597C131.652 96.4273 133.819 96.3076 135.901 95.7927C137.969 95.2779 140.001 94.5355 141.871 93.5178C143.432 92.6916 144.919 91.6858 146.244 90.5005C146.319 90.4526 146.393 90.3808 146.467 90.297C146.529 90.261 146.591 90.2012 146.653 90.1293C146.666 90.1892 146.69 90.2371 146.703 90.297C146.715 90.3568 146.74 90.4167 146.752 90.4766ZM133.064 55.8017C131.85 55.5143 130.611 55.3227 129.372 55.215C129.162 55.191 128.939 55.179 128.716 55.179C128.567 55.1551 128.406 55.1551 128.245 55.1551C126.461 55.0833 124.653 55.215 122.918 55.646C120.812 56.1489 118.768 56.8912 116.873 57.909C114.965 58.9028 113.181 60.136 111.645 61.6207C110.097 63.1054 108.809 64.8176 107.756 66.6496C106.653 68.5653 105.798 70.5888 105.055 72.6482C105.018 72.72 104.993 72.7919 104.968 72.8757C104.312 74.6837 103.742 76.5276 103.135 78.3475C102.677 79.7604 102.194 81.1852 101.648 82.5861C101.624 82.634 101.599 82.6938 101.587 82.7537C100.608 85.1843 99.4311 87.5311 97.8207 89.6145C96.7925 90.9435 95.5909 92.1528 94.2406 93.1825C94.1415 93.2664 94.0424 93.3382 93.9309 93.422C93.7079 93.5896 93.4726 93.7572 93.2372 93.9129C92.6798 94.2841 92.0975 94.6313 91.5029 94.9426C91.4534 95.1103 91.4038 95.2779 91.3543 95.4575C92.0851 95.0743 92.7789 94.6672 93.4602 94.2122C93.7947 93.9847 94.1167 93.7573 94.4264 93.5058C94.5379 93.422 94.6494 93.3382 94.7485 93.2544C96.0121 92.2486 97.1394 91.0872 98.118 89.83C99.7408 87.7227 100.918 85.3639 101.884 82.9333C101.909 82.8854 101.921 82.8376 101.946 82.7777C102.516 81.3529 102.999 79.8921 103.482 78.4553C104.089 76.6114 104.659 74.7555 105.328 72.9356C105.34 72.8637 105.377 72.7799 105.402 72.7081C106.133 70.6846 106.975 68.697 108.053 66.8172C109.094 64.9972 110.369 63.309 111.881 61.8482C113.392 60.3755 115.139 59.1542 117.009 58.1485C118.88 57.1307 120.899 56.3884 122.98 55.8855C124.615 55.4664 126.325 55.3108 128.022 55.3467C128.183 55.3467 128.344 55.3586 128.493 55.3586C128.79 55.3706 129.075 55.3826 129.36 55.4065C130.648 55.5143 131.949 55.7179 133.212 56.0292C133.163 55.9454 133.113 55.8735 133.064 55.8017ZM130.97 53.1196C130.004 53.7183 129.1 54.4008 128.245 55.1551C128.171 55.215 128.096 55.2749 128.022 55.3467C127.638 55.6939 127.266 56.0531 126.907 56.4243C125.421 57.9689 124.219 59.7409 123.24 61.6087C121.295 65.3684 120.28 69.4753 119.152 73.4863C118.744 74.9231 118.322 76.3599 117.827 77.7728C117.814 77.8327 117.802 77.8925 117.777 77.9404C116.923 80.4189 115.857 82.8136 114.334 84.9568C113.367 86.3218 112.228 87.567 110.952 88.6446C110.927 88.6805 110.89 88.7045 110.853 88.7285C110.555 88.9799 110.258 89.2193 109.948 89.4468C108.239 90.704 106.331 91.6739 104.361 92.4641C102.379 93.2304 100.224 93.5417 98.0932 93.5417C96.9783 93.5178 95.851 93.422 94.7485 93.2544C94.5751 93.2424 94.414 93.2065 94.2406 93.1825C93.5469 93.0748 92.8532 92.9431 92.1595 92.7874C92.1347 92.8712 92.1099 92.955 92.0851 93.0508C92.6921 93.1825 93.3115 93.3142 93.9309 93.422C94.092 93.4459 94.253 93.4819 94.4264 93.5058C95.6404 93.6974 96.8544 93.8291 98.0932 93.8531C100.261 93.865 102.454 93.5657 104.485 92.7874C106.504 91.9972 108.437 91.0154 110.171 89.7342C110.518 89.4828 110.853 89.2074 111.175 88.932C111.212 88.908 111.249 88.8721 111.274 88.8482C112.55 87.7586 113.677 86.5134 114.631 85.1604C116.167 82.9932 117.245 80.5985 118.099 78.132C118.099 78.0841 118.137 78.0242 118.149 77.9644C118.657 76.5156 119.078 75.0429 119.499 73.5821C120.614 69.5591 121.63 65.4761 123.55 61.7644C124.504 59.9085 125.705 58.1724 127.155 56.6398C127.576 56.1848 128.022 55.7538 128.493 55.3586C128.567 55.2868 128.641 55.215 128.716 55.179C129.496 54.4846 130.326 53.862 131.193 53.3112C131.119 53.2394 131.045 53.1675 130.97 53.1196ZM146.752 90.4766C146.752 90.4766 146.715 90.3568 146.703 90.297C146.628 90.3089 146.542 90.3089 146.467 90.297H146.294C144.151 90.2131 142.008 89.8539 139.964 89.2313C137.907 88.6207 135.901 87.8424 133.968 86.9444C132.036 86.0224 130.14 85.0287 128.282 83.975C126.424 82.9094 124.603 81.8078 122.77 80.6943C121.246 79.7723 119.71 78.8504 118.149 77.9644C118.05 77.8925 117.938 77.8327 117.827 77.7728C115.771 76.6114 113.677 75.5098 111.484 74.5759C109.527 73.7378 107.508 73.0673 105.402 72.7081C105.365 72.6961 105.34 72.6841 105.303 72.6841C105.216 72.6841 105.142 72.6602 105.055 72.6482C103.073 72.3369 101.017 72.3249 99.0347 72.732C98.9975 72.8398 98.948 72.9356 98.9108 73.0433C100.88 72.6003 102.949 72.5764 104.968 72.8757C105.067 72.8877 105.167 72.9116 105.266 72.9236C105.29 72.9236 105.303 72.9356 105.328 72.9356C107.409 73.2828 109.453 73.9533 111.398 74.7675C113.59 75.6894 115.709 76.779 117.777 77.9404C117.889 78.0003 118 78.0721 118.099 78.132C119.648 79.0061 121.172 79.9041 122.695 80.814C126.362 82.9932 130.016 85.2202 133.906 87.0641C135.839 87.9861 137.845 88.7763 139.914 89.399C141.958 90.0335 144.101 90.4047 146.244 90.5005H146.281C146.43 90.5005 146.566 90.5125 146.715 90.5125H146.765C146.765 90.5125 146.765 90.4885 146.752 90.4766ZM151.596 108.389C149.601 109.047 147.731 110.005 146.009 111.155C142.417 113.537 139.481 116.662 136.495 119.644C135.43 120.709 134.34 121.775 133.2 122.793C133.15 122.841 133.101 122.876 133.064 122.912C131.069 124.684 128.939 126.277 126.535 127.45C124.628 128.384 122.571 129.019 120.465 129.33C120.416 129.342 120.366 129.342 120.317 129.354C118.248 129.629 116.13 129.594 114.061 129.366C112.376 129.163 110.753 128.66 109.217 127.965C109.069 127.905 108.932 127.845 108.796 127.774C108.548 127.654 108.288 127.522 108.041 127.39C106.182 126.361 104.473 125.08 102.887 123.679C100.137 121.284 97.6349 118.626 94.7981 116.303C94.7361 116.243 94.6618 116.195 94.5999 116.135C94.2035 115.812 93.7947 115.501 93.3859 115.19C91.6764 113.92 89.8306 112.795 87.8238 111.993C87.5636 111.885 87.2911 111.789 87.0186 111.693C86.969 111.669 86.9195 111.645 86.8575 111.633C86.8451 111.669 86.8451 111.693 86.8328 111.729C86.8451 111.741 86.8699 111.741 86.8823 111.753C87.1796 111.861 87.4769 111.981 87.7742 112.1C89.7563 112.915 91.5773 114.064 93.2744 115.333C93.6708 115.633 94.0548 115.932 94.4388 116.243C94.5008 116.303 94.5751 116.363 94.637 116.411C97.449 118.758 99.9514 121.44 102.701 123.882C104.287 125.295 105.997 126.6 107.88 127.654L108.437 127.941C108.573 128.013 108.722 128.085 108.858 128.145C110.481 128.923 112.215 129.486 114.011 129.713C116.167 129.965 118.36 130.001 120.515 129.689H120.54C120.54 129.689 120.626 129.677 120.676 129.665C122.77 129.33 124.814 128.696 126.709 127.762C129.137 126.576 131.268 124.984 133.25 123.224C133.299 123.188 133.349 123.14 133.386 123.104C134.55 122.062 135.665 120.973 136.743 119.883C139.741 116.89 142.652 113.789 146.195 111.43C147.904 110.304 149.738 109.359 151.683 108.712C151.658 108.604 151.633 108.496 151.596 108.389ZM139.258 133.09C138.155 131.294 137.115 129.474 136.062 127.654C135.182 126.133 134.303 124.601 133.386 123.104C133.324 122.996 133.262 122.9 133.2 122.793C131.974 120.805 130.685 118.865 129.224 117.021C128.109 115.597 126.87 114.244 125.47 113.082C125.383 112.986 125.297 112.915 125.21 112.855C125.061 112.723 124.913 112.603 124.764 112.484C123.079 111.167 121.147 110.125 119.053 109.538C116.96 108.951 114.755 108.832 112.599 108.904C110.431 108.987 108.264 109.359 106.207 110.005C105.489 110.221 104.795 110.472 104.101 110.759C103.99 110.783 103.866 110.831 103.754 110.891C100.571 112.184 97.6348 114.028 94.8352 115.968C94.7609 116.028 94.6742 116.076 94.5999 116.135C94.5503 116.171 94.4884 116.207 94.4388 116.243C91.057 118.578 87.799 121.08 84.1446 122.96C84.1198 122.96 84.1075 122.984 84.0827 122.996C84.0703 123.044 84.0579 123.104 84.0331 123.152C84.0331 123.176 84.0331 123.212 84.0207 123.236C84.0455 123.224 84.0579 123.212 84.0827 123.2L84.2313 123.128C87.9476 121.236 91.2428 118.722 94.637 116.411C94.6866 116.375 94.7485 116.339 94.7981 116.303C94.86 116.255 94.9219 116.219 94.9839 116.171C97.8578 114.196 100.88 112.34 104.138 111.059C104.25 111.011 104.361 110.963 104.473 110.927C105.067 110.7 105.674 110.484 106.294 110.304C108.35 109.682 110.469 109.311 112.612 109.215C114.742 109.131 116.923 109.239 118.967 109.802C121.023 110.364 122.931 111.382 124.603 112.675C124.739 112.783 124.888 112.891 125.024 113.022C125.111 113.082 125.21 113.154 125.297 113.25C126.696 114.399 127.935 115.728 129.063 117.153C130.524 118.985 131.825 120.925 133.064 122.912C133.126 123.008 133.188 123.116 133.25 123.224C134.166 124.708 135.058 126.217 135.938 127.714C137.709 130.731 139.456 133.772 141.413 136.682H141.587C140.781 135.496 140.001 134.299 139.258 133.09ZM122.522 132.491C121.89 131.557 121.283 130.611 120.676 129.665C120.602 129.558 120.527 129.45 120.465 129.33C119.995 128.612 119.549 127.905 119.09 127.187C118.137 125.702 117.195 124.217 116.216 122.757C116.142 122.661 116.08 122.553 116.006 122.457C114.705 120.53 113.33 118.638 111.794 116.854C110.419 115.249 108.883 113.741 107.124 112.508C106.294 111.909 105.402 111.382 104.473 110.927C104.349 110.867 104.225 110.819 104.101 110.759C103.197 110.352 102.255 110.029 101.289 109.802C99.1709 109.299 96.9783 109.275 94.8105 109.43C92.655 109.598 90.5119 110.053 88.4803 110.783C87.9477 110.975 87.4274 111.179 86.9195 111.394C86.8947 111.478 86.8823 111.55 86.8575 111.633C86.8451 111.669 86.8451 111.693 86.8328 111.729C86.8328 111.741 86.8328 111.765 86.8328 111.777C86.8575 111.765 86.8699 111.753 86.8947 111.753C86.9442 111.717 86.9814 111.705 87.031 111.693C87.5512 111.466 88.0715 111.262 88.6042 111.083C90.611 110.376 92.7169 109.921 94.86 109.742C96.9907 109.562 99.1586 109.586 101.24 110.065C102.107 110.269 102.949 110.544 103.767 110.891C103.891 110.939 104.027 110.999 104.151 111.059C105.142 111.514 106.096 112.065 106.988 112.699C108.722 113.92 110.258 115.393 111.633 116.986C113.181 118.758 114.569 120.637 115.907 122.577C115.969 122.673 116.031 122.781 116.105 122.876C117.084 124.325 118.037 125.798 118.979 127.259C119.425 127.953 119.883 128.66 120.329 129.354C120.404 129.474 120.478 129.582 120.552 129.689C122.125 132.132 123.736 134.551 125.52 136.861H125.693C124.591 135.437 123.538 133.976 122.534 132.491H122.522ZM151.41 107.622C149.936 106.964 148.375 106.449 146.777 106.186C144.634 105.826 142.454 105.695 140.298 105.886C138.13 106.042 135.987 106.473 133.956 107.227C131.924 107.97 130.029 109.035 128.295 110.292C127.204 111.083 126.189 111.945 125.21 112.855C125.148 112.903 125.086 112.963 125.024 113.022C122.943 114.962 121.072 117.093 119.165 119.177C118.137 120.29 117.096 121.404 116.006 122.457C115.969 122.493 115.932 122.541 115.894 122.577C113.974 124.421 111.918 126.109 109.564 127.378C109.316 127.51 109.056 127.642 108.796 127.774C108.685 127.833 108.561 127.893 108.437 127.941C106.901 128.66 105.253 129.198 103.581 129.51C101.475 129.905 99.3196 129.953 97.1889 129.809C95.0582 129.653 92.9895 129.007 91.0817 128.085C89.174 127.139 87.415 125.918 85.7674 124.589C85.1976 124.134 84.6401 123.667 84.0827 123.2C84.0703 123.176 84.0455 123.164 84.0331 123.152C84.0331 123.176 84.0331 123.212 84.0207 123.236C84.0083 123.308 83.996 123.379 83.9712 123.439C84.5039 123.894 85.0489 124.349 85.594 124.792C87.2416 126.145 89.0006 127.378 90.9331 128.36C92.8656 129.306 94.9715 129.977 97.1517 130.156C99.3196 130.324 101.5 130.264 103.643 129.869C105.452 129.522 107.211 128.947 108.858 128.145C108.982 128.085 109.094 128.025 109.217 127.965C109.403 127.881 109.577 127.786 109.75 127.69C112.129 126.409 114.197 124.708 116.093 122.876C116.142 122.841 116.179 122.793 116.216 122.757C117.331 121.667 118.397 120.542 119.425 119.404C121.345 117.309 123.228 115.166 125.297 113.25C125.359 113.178 125.408 113.13 125.47 113.082C126.436 112.184 127.44 111.346 128.505 110.568C130.215 109.311 132.085 108.269 134.08 107.527C136.074 106.772 138.18 106.341 140.323 106.162C142.454 105.97 144.622 106.078 146.727 106.425C148.375 106.688 149.961 107.203 151.472 107.886C151.46 107.802 151.435 107.706 151.41 107.622Z" fill="#ECF7F4"/>
<path d="M140.1 58.0885C170.76 83.2565 197.827 116.746 194.519 126.828C191.026 137.496 168.096 148.344 148.35 149.673C144.312 149.948 133.646 120.793 137.845 119.715C141.116 118.877 155.919 115.716 157.777 113.896C159.066 112.627 137.412 83.4361 131.045 66.9727C124.392 49.743 131.887 51.3474 140.1 58.0885Z" fill="#AD6359"/>
<path d="M146.158 119.344C146.158 119.344 133.832 119.823 125.792 120.506C121.308 120.889 113.677 122.206 110.506 123.942C105.774 126.54 87.6999 140.334 91.057 144.632C94.1044 148.535 99.4063 142.944 99.4063 142.944C99.4063 142.944 93.0142 148.523 97.2632 151.493C101.549 154.486 107.731 146.56 107.731 146.56C107.731 146.56 100.521 152.032 105.365 154.785C109.577 157.18 117.715 148.787 117.715 148.787C117.715 148.787 109.49 153.72 113.553 156.581C118.05 159.742 131.887 148.655 131.887 148.655C142.305 150.391 148.796 150.08 156.316 148.499C157.691 148.212 146.145 119.332 146.145 119.332L146.158 119.344Z" fill="#AD6359"/>
<path d="M105.786 148.439C106.294 147.841 106.826 147.242 107.347 146.643C108.35 145.458 109.353 144.321 110.493 143.255C111.608 142.237 112.76 141.255 113.937 140.321C115.188 139.328 116.551 138.454 117.777 137.436C117.876 137.352 118 137.496 117.889 137.568C116.637 138.513 115.535 139.687 114.408 140.752C113.293 141.818 112.19 142.896 111.088 143.973C110.01 145.027 108.87 146.009 107.768 147.027C107.223 147.541 106.69 148.068 106.157 148.607C105.662 149.11 105.204 149.685 104.621 150.104C104.559 150.14 104.497 150.068 104.522 150.02C104.832 149.433 105.34 148.93 105.773 148.427L105.786 148.439Z" fill="#1B1B2E"/>
<path d="M98.1177 144.141C98.7742 142.992 102.738 138.753 103.816 137.736C105.897 135.76 108.177 133.952 110.629 132.419C110.716 132.371 110.815 132.479 110.741 132.551C108.66 134.539 106.554 136.502 104.435 138.478C103.407 139.436 98.861 143.938 98.3283 144.357C98.2044 144.453 98.031 144.273 98.1053 144.153L98.1177 144.141Z" fill="#1B1B2E"/>
<path d="M112.884 152.678C113.566 151.612 117.319 147.673 118.36 146.751C119.338 145.877 123.81 142.776 125.247 142.082C125.334 142.034 125.445 142.153 125.359 142.213C123.191 143.925 121.011 145.602 118.93 147.422C117.914 148.308 114.086 152.055 113.045 152.822C112.946 152.894 112.822 152.762 112.884 152.666V152.678Z" fill="#1B1B2E"/>
<path d="M142.33 91.9853L171.478 84.6695C171.478 84.6695 149.639 63.6323 138.911 56.5321C127.725 49.1326 123.054 51.0243 130.078 66.9968C137.152 83.0651 142.342 91.9972 142.342 91.9972L142.33 91.9853Z" fill="#23C0AD"/>
<path d="M145.204 61.2015C144.027 60.4831 142.826 59.8006 141.599 59.1541C139.704 58.1483 137.734 57.2743 135.703 56.5678C133.671 55.8494 131.528 55.3944 129.372 55.2148C129.162 55.1909 128.939 55.1789 128.716 55.1789C128.567 55.155 128.406 55.155 128.245 55.155C127.762 55.131 127.267 55.131 126.783 55.143C126.771 55.2148 126.771 55.2867 126.771 55.3705C127.192 55.3465 127.613 55.3346 128.022 55.3466C128.183 55.3466 128.344 55.3585 128.493 55.3585C128.79 55.3705 129.075 55.3825 129.36 55.4064C131.491 55.586 133.621 56.029 135.641 56.7355C137.66 57.4299 139.629 58.292 141.525 59.2738C142.999 60.0521 144.448 60.8782 145.873 61.7283C145.65 61.5487 145.427 61.3691 145.204 61.2015ZM131.615 52.7124C130.413 53.4188 129.286 54.233 128.245 55.155C128.171 55.2148 128.096 55.2747 128.022 55.3466C127.638 55.6938 127.267 56.053 126.907 56.4242C126.87 56.4601 126.833 56.508 126.796 56.5439C126.796 56.6876 126.821 56.8432 126.845 56.9989C126.932 56.8792 127.044 56.7594 127.155 56.6397C127.576 56.1847 128.022 55.7536 128.493 55.3585C128.567 55.2867 128.642 55.2148 128.716 55.1789C129.719 54.2929 130.809 53.5146 131.961 52.8321C131.838 52.7842 131.726 52.7483 131.615 52.7124ZM166.164 79.6285C165.384 80.8857 164.492 82.0711 163.476 83.1487C162.026 84.6693 160.342 85.9744 158.508 87.052C157.319 87.7704 156.056 88.3691 154.743 88.86L156.44 88.4409C157.195 88.0937 157.939 87.7106 158.657 87.2915C160.515 86.2139 162.249 84.9088 163.724 83.3642C164.739 82.2986 165.644 81.1132 166.412 79.868C166.325 79.7962 166.251 79.7124 166.164 79.6285Z" fill="#ECF7F4"/>
<path d="M156.576 70.8762C156.278 71.6904 156.006 72.5046 155.733 73.3307C154.432 77.282 153.243 81.3409 151.125 85.0168C150.072 86.8487 148.784 88.5728 147.235 90.0456C147.136 90.1413 147.037 90.2371 146.938 90.309C147.793 90.3209 148.635 90.2851 149.477 90.1893L148.226 90.5006C147.731 90.5245 147.223 90.5245 146.715 90.5125C146.517 90.7041 146.318 90.8717 146.12 91.0274L145.389 91.219C145.687 91.0034 145.972 90.764 146.244 90.5006C144.497 90.4167 142.751 90.1533 141.066 89.7223C141.041 89.6505 140.992 89.5786 140.955 89.5068C142.701 89.9618 144.497 90.2252 146.294 90.297H146.467C146.653 90.1533 146.826 89.9857 147 89.8181C148.511 88.3573 149.787 86.6691 150.815 84.8611C152.909 81.2212 154.098 77.1862 155.399 73.223C155.684 72.3609 155.969 71.4868 156.291 70.6248C156.39 70.7086 156.476 70.7924 156.576 70.8762Z" fill="#ECF7F4"/>
<path d="M142.999 86.6452C143.668 86.3938 144.386 86.2381 145.08 86.0466C145.786 85.855 146.504 85.6515 147.211 85.4599C148.647 85.0648 150.097 84.6816 151.546 84.3105C154.445 83.5681 157.344 82.8257 160.242 82.1313C161.048 81.9397 161.84 81.7482 162.646 81.5805C163.488 81.4009 164.355 81.2812 165.198 81.1016C165.247 81.1016 165.259 81.1615 165.21 81.1734C164.504 81.377 163.798 81.6404 163.092 81.8439C162.361 82.0595 161.63 82.263 160.899 82.4546C159.45 82.8377 158 83.2089 156.551 83.5681C153.689 84.2745 150.84 84.9929 147.966 85.6395C147.161 85.8191 146.356 85.9987 145.563 86.1783C144.721 86.3699 143.878 86.6093 143.023 86.7171C142.974 86.7171 142.949 86.6572 142.999 86.6452Z" fill="#1B1B2E"/>
<path d="M132.246 74.8152C132.246 74.8152 132.296 74.7194 132.333 74.7553C133.114 75.5935 133.807 76.5154 134.439 77.4613C134.216 76.9944 133.981 76.5154 133.77 76.0485C133.064 74.5159 132.395 72.9833 131.689 71.4507C131.664 71.3908 131.751 71.3549 131.776 71.4028C133.188 73.9771 134.724 76.5034 136.062 79.1256C137.4 81.7478 138.738 84.37 140.026 87.0041C140.744 88.4649 141.5 90.3087 142.219 91.7695C143.098 91.6737 144.163 91.3624 145.105 91.2427C145.192 91.2427 145.192 91.3624 145.105 91.3864C144.151 91.6258 143.049 92.0928 142.008 92.2604C141.872 92.2843 137.053 82.9571 134.91 78.4551C133.981 77.2578 133.076 76.0485 132.234 74.8032L132.246 74.8152Z" fill="#1B1B2E"/>
<path d="M113.379 64.4703C117.554 65.6677 125.173 59.8007 128.331 54.8916C128.542 54.5564 128.208 50.8686 128.009 46.3666C127.898 43.6367 127.848 40.5954 128.009 37.8176C128.047 37.2429 109.725 41.0864 109.725 41.0864C109.725 41.0864 111.162 47.0132 110.852 51.8504C110.828 52.2575 110.753 52.6287 110.667 52.9879C110.667 53.0358 110.642 53.1076 110.629 53.1795C110.134 55.3227 109.353 63.3089 113.379 64.4703Z" fill="#AD6359"/>
<path d="M126.895 37.8296C125.792 42.4872 122.113 53.6823 112.475 53.371C111.806 53.3471 111.187 53.2872 110.629 53.1795C110.629 53.0956 110.654 53.0477 110.667 52.9879C110.753 52.6287 110.828 52.2575 110.865 51.8624C111.174 47.0132 109.725 41.0863 109.725 41.0863C109.725 41.0863 122.943 38.3205 126.895 37.8296Z" fill="#1B1B2E"/>
<path d="M130.4 17.2833C132.048 23.5574 127.799 41.278 123.054 45.0496C116.179 50.5214 105.34 50.5813 100.632 42.6908C96.0738 35.0398 102.032 12.039 107.297 8.65053C115.052 3.65763 127.96 8.01593 130.4 17.2833Z" fill="#AD6359"/>
<path d="M130.4 17.2833C132.048 23.5574 127.799 41.278 123.054 45.0496C116.179 50.5214 105.34 50.5813 100.632 42.6908C96.0738 35.0398 102.032 12.039 107.297 8.65053C115.052 3.65763 127.96 8.01593 130.4 17.2833Z" fill="#AD6359"/>
<path d="M111.485 27.5923C111.485 27.5923 111.571 27.6761 111.559 27.724C111.237 28.9093 111.076 30.3222 112.104 30.9568C112.141 30.9807 112.116 31.0406 112.079 31.0167C110.754 30.5377 110.989 28.6579 111.485 27.5923Z" fill="#1B1B2E"/>
<path d="M112.884 26.5866C114.903 26.874 114.16 30.7653 112.289 30.49C110.444 30.2265 111.199 26.3352 112.884 26.5866Z" fill="#1B1B2E"/>
<path d="M104.51 26.3708C104.51 26.3708 104.399 26.4068 104.399 26.4547C104.201 27.664 103.779 29.017 102.565 29.2205C102.528 29.2205 102.516 29.2924 102.565 29.2924C103.978 29.3522 104.535 27.5442 104.51 26.3708Z" fill="#1B1B2E"/>
<path d="M103.63 24.9223C101.661 24.4194 100.756 28.2749 102.577 28.7418C104.374 29.2088 105.278 25.3534 103.63 24.9223Z" fill="#1B1B2E"/>
<path d="M115.312 23.5213C114.755 23.3776 114.272 23.1621 113.727 22.9705C113.12 22.755 112.624 22.6353 112.228 22.1084C112.017 21.8211 112.104 21.3182 112.376 21.1027C112.996 20.5758 113.801 20.6716 114.544 20.8991C115.349 21.1505 115.895 21.5457 116.353 22.2282C116.799 22.8867 116.056 23.7009 115.312 23.5213Z" fill="#1B1B2E"/>
<path d="M102.379 22.8748C102.949 22.8867 103.481 22.8029 104.051 22.767C104.695 22.7191 105.216 22.743 105.736 22.336C106.021 22.1204 106.07 21.6056 105.885 21.3182C105.439 20.6597 104.633 20.528 103.853 20.5519C103.011 20.5879 102.366 20.8153 101.735 21.3541C101.128 21.881 101.611 22.8508 102.366 22.8628L102.379 22.8748Z" fill="#1B1B2E"/>
<path d="M111.41 39.1588C111.063 39.3863 110.679 39.7216 110.221 39.6737C109.775 39.6258 109.304 39.3504 108.945 39.1349C108.907 39.1109 108.858 39.1349 108.883 39.1828C109.118 39.6976 109.737 40.1167 110.344 40.1167C110.927 40.1167 111.298 39.6976 111.534 39.2307C111.571 39.1588 111.472 39.1229 111.422 39.1588H111.41Z" fill="#1B1B2E"/>
<path d="M110.803 35.315C109.898 36.2369 108.771 36.6201 107.619 36.6321C107.111 36.6321 106.579 36.5602 106.083 36.4285C105.984 36.4046 105.885 36.3806 105.798 36.3447C105.711 36.3208 105.625 36.2968 105.538 36.2609C105.402 36.213 105.34 36.0813 105.34 35.9496C105.34 35.9496 105.352 35.8658 105.377 35.8179L105.402 35.6982C105.55 34.7642 105.922 33.3753 105.922 33.3753C105.538 33.4831 103.605 33.9381 103.729 33.4591C104.745 29.496 105.885 25.0778 107.768 21.3421C107.817 21.2104 108.028 21.2822 107.991 21.4139C107.173 25.2574 105.649 28.9452 104.758 32.8006C105.365 32.6928 106.368 32.4773 106.876 32.5731C107 32.633 106.12 35.2552 106.083 35.6742C106.083 35.6742 106.083 35.6862 106.083 35.7221C107.656 36.213 108.957 35.9615 110.728 35.1953C110.84 35.1474 110.914 35.2432 110.828 35.327L110.803 35.315Z" fill="#1B1B2E"/>
<path d="M106.728 36.0575C106.728 36.0575 107.359 37.3147 108.449 37.9254C108.846 38.1529 109.304 38.2966 109.812 38.2606C110.853 38.1888 111.051 37.3028 111.014 36.5245C110.989 35.878 110.791 35.2913 110.791 35.2913C110.791 35.2913 109.081 36.3449 106.728 36.0695V36.0575Z" fill="#1B1B2E"/>
<path d="M108.461 37.9255C108.858 38.153 109.316 38.2967 109.824 38.2608C110.865 38.1889 111.063 37.3029 111.026 36.5246C109.936 36.4408 108.746 36.9437 108.461 37.9375V37.9255Z" fill="#FF6F55"/>
<path opacity="0.2" d="M129.657 30.37C128.48 29.9031 126.56 25.2454 125.718 23.3776C124.826 21.4379 126.263 12.865 126.622 10.9253C128.456 12.6135 129.831 14.7089 130.487 17.1634C131.243 20.0131 130.809 25.1736 129.67 30.37H129.657Z" fill="#302638"/>
<path d="M109.787 14.4216C110.877 16.3014 112.884 17.5586 115.126 17.6424C117.307 17.7382 119.71 16.7444 120.887 14.9125C120.924 14.8526 121.01 14.9125 120.973 14.9604C119.71 16.912 117.567 18.3009 115.114 18.1453C112.81 18.0016 110.617 16.5169 109.651 14.4934C109.614 14.4096 109.738 14.3258 109.787 14.4216Z" fill="#1B1B2E"/>
<path d="M119.561 0.628247C123.216 1.43046 126.152 4.06462 126.982 6.74666C127.477 8.37503 127.291 9.88365 126.721 11.3564C126.697 11.4162 126.573 11.3803 126.585 11.3205C127.304 8.9617 126.66 5.99232 124.368 3.77725C122.15 1.65796 118.868 0.484576 115.709 0.975484C114.061 1.22693 112.612 1.92136 111.732 2.9391C111.633 3.05883 111.373 2.91516 111.46 2.79542C112.922 0.783897 116.266 -0.102129 119.561 0.628247Z" fill="#1B1B2E"/>
<path d="M96.6315 4.07676C97.5854 2.44838 99.1586 1.20315 100.967 0.556585C103.507 -0.341418 106.009 0.365012 108.474 1.11933C108.536 1.14328 108.511 1.23905 108.437 1.21511C106.331 0.580517 104.163 0.0656854 101.971 0.640407C100.187 1.11934 98.564 2.17301 97.4986 3.64573C95.2936 6.69894 95.8139 11.1291 98.725 13.5836C100.373 14.9725 102.627 15.655 104.795 15.4275C104.882 15.4275 104.919 15.5472 104.832 15.5592C100.843 16.086 96.8049 13.5717 95.8634 9.74017C95.3927 7.84838 95.6281 5.76499 96.6191 4.06477L96.6315 4.07676Z" fill="#1B1B2E"/>
<path d="M130.933 20.9232C130.933 20.9232 135.739 15.2597 133.596 11.0212C132.382 8.61453 126.845 7.82431 126.845 7.82431C126.845 7.82431 125.718 4.43585 121.382 2.55603C117.009 0.652265 111.026 2.17287 111.026 2.17287C111.026 2.17287 107.173 -1.08388 102.627 0.376869C96.2844 2.41234 95.2563 10.9254 100.422 14.721C104.052 17.391 110.221 15.0203 110.221 15.0203C110.729 15.1879 115.448 19.3666 120.478 15.5232C120.478 15.5232 123.191 19.0074 126.56 17.5946C126.56 17.5946 127.464 20.7675 130.933 20.9351V20.9232Z" fill="#302638"/>
<path d="M125.743 31.6634C125.743 31.6634 130.314 26.1676 132.928 27.772C135.541 29.3885 131.813 37.5543 128.555 38.4882C125.297 39.4221 124.331 36.5246 124.331 36.5246L125.73 31.6514L125.743 31.6634Z" fill="#AD6359"/>
<path d="M131.801 30.0947C131.801 30.0947 131.862 30.1666 131.801 30.1785C129.509 30.9089 128.196 32.8247 127.229 34.8482C127.948 34.0939 128.877 33.7107 129.93 34.5488C129.98 34.5967 129.93 34.6805 129.856 34.6566C128.951 34.4052 128.282 34.5129 127.613 35.1834C127.143 35.6504 126.796 36.273 126.449 36.8238C126.325 37.0153 125.978 36.8836 126.065 36.6681C126.065 36.6561 126.077 36.6322 126.09 36.6202C126.226 33.8663 128.704 30.1666 131.776 30.0828L131.801 30.0947Z" fill="#1B1B2E"/>
<path d="M130.487 56.2328C128.393 58.5197 126.386 60.8426 124.045 62.89C121.852 64.7938 119.239 66.506 116.278 66.7454C113.416 66.9729 110.555 66.3863 109.539 62.9858C108.721 60.2918 108.895 57.5379 109.415 54.1016C109.44 53.9459 109.229 53.91 109.204 54.0657C108.511 58.4838 107.755 65.3326 111.905 66.9011C116.55 68.6612 121.134 66.3743 124.441 63.2971C126.684 61.2137 128.851 58.831 130.573 56.2927C130.611 56.2448 130.536 56.173 130.487 56.2208V56.2328Z" fill="#1B1B2E"/>
</svg>
