<svg width="60" height="58" viewBox="0 0 60 58" fill="none" xmlns="http://www.w3.org/2000/svg">
<g id="Group ">
<ellipse id="Ellipse " cx="26.86" cy="28.2556" rx="26.86" ry="27.7639" fill="#23C0AD"/>
<g id="Group">
<path id="Vector" d="M51.9004 41.4788C51.9004 43.6683 53.6653 45.4473 55.8376 45.4473C58.0099 45.4473 59.7749 43.6683 59.7749 41.4788C59.7749 39.2892 58.0099 37.5103 55.8376 37.5103C53.6653 37.5103 51.9004 39.2892 51.9004 41.4788Z" fill="#FFD476"/>
<path id="Vector_2" d="M40.5639 41.4788C40.5639 43.6683 42.329 45.4473 44.5012 45.4473C46.6735 45.4473 48.4385 43.6683 48.4385 41.4788C48.4385 39.2892 46.6735 37.5103 44.5012 37.5103C42.329 37.5103 40.5639 39.2892 40.5639 41.4788Z" fill="#FFD476"/>
<path id="Vector_3" d="M51.9004 53.1109C51.9004 55.3004 53.6653 57.0794 55.8376 57.0794C58.0099 57.0794 59.7749 55.3004 59.7749 53.1109C59.7749 50.9213 58.0099 49.1423 55.8376 49.1423C53.6653 49.2108 51.9004 50.9213 51.9004 53.1109Z" fill="#FFD476"/>
<path id="Vector_4" d="M40.5639 53.1109C40.5639 55.3004 42.329 57.0794 44.5012 57.0794C46.6735 57.0794 48.4385 55.3004 48.4385 53.1109C48.4385 50.9213 46.6735 49.1423 44.5012 49.1423C42.329 49.2108 40.5639 50.9213 40.5639 53.1109Z" fill="#FFD476"/>
</g>
</g>
</svg>
