<svg width="152" height="181" viewBox="0 0 152 181" fill="none" xmlns="http://www.w3.org/2000/svg">
<g id="hibou">
<path id="HIDE" fill-rule="evenodd" clip-rule="evenodd" d="M141.963 6.22999C145.278 4.15214 148.566 2.09093 151.773 0L151.777 0.00428342C150.972 18.3624 143.495 34.9569 127.659 47.5999C127.629 47.6226 127.598 47.647 127.568 47.6709C127.549 47.6854 127.531 47.6998 127.514 47.7135C127.614 47.9192 127.715 48.127 127.811 48.3371C129.05 50.9685 130.085 53.7093 130.899 56.54C131.941 60.1636 132.618 63.9287 132.888 67.8052C133.469 76.1839 132.419 84.7918 130.732 92.5533C129.256 99.3506 127.293 105.499 125.512 110.279L123.616 110.599C115.781 111.004 100.942 113.416 88.6394 124.922C82.8472 130.337 78.3429 137.012 75.2228 144.78C72.1649 137.175 67.6627 130.386 61.8191 124.922C49.5168 113.416 34.6773 111.004 26.8429 110.599L26.4358 110.532C24.9893 106.675 23.41 101.898 22.0707 96.5905C19.8593 87.8519 18.28 77.671 18.9657 67.8052C19.1457 65.1973 19.5121 62.6344 20.05 60.1336C20.7336 56.9579 21.6936 53.8764 22.9043 50.9214C22.99 50.7071 23.0779 50.4971 23.1679 50.2849C21.955 49.5028 20.7807 48.6992 19.6535 47.8721C6.02051 37.8905 -1.28887 24.6432 0.187573 5.70221C8.86197 15.8916 18.9742 20.8417 31.0858 22.556C34.9473 23.1024 37.6966 25.0332 40.4074 27.7825C41.691 29.0812 42.9659 30.5633 44.3459 32.1677C45.5231 33.5362 46.7767 34.9936 48.1775 36.5019C52.4333 41.0855 57.8719 47.5656 63.4734 56.1907C64.0413 57.0629 64.6091 57.9565 65.177 58.8736C65.2049 58.9164 65.2296 58.9561 65.2553 58.998C65.2386 58.9702 65.2231 58.943 65.2075 58.9153C65.2017 58.9051 65.1958 58.8948 65.1899 58.8843C64.9564 58.4743 64.722 58.0647 64.4875 57.6552C64.2527 57.2451 64.0178 56.835 63.7841 56.4243C61.2147 51.9363 58.6465 47.4476 56.0786 42.9594C53.9371 39.2164 51.7957 35.4737 49.6539 31.7318C67.7935 23.5417 85.6823 24.161 104.327 30.774C100.553 36.792 96.7794 42.8126 93.0063 48.8328C91.9643 50.4955 90.9222 52.1582 89.8802 53.8207C90.1373 53.6364 90.3966 53.4543 90.6645 53.27C96.5531 44.8592 103.935 35.319 111.639 27.9368C114.011 25.6589 116.418 23.5867 118.82 21.8167C118.909 21.7511 119.014 21.673 119.136 21.5829C121.094 20.1313 127.231 15.5818 135.215 10.4851C137.465 9.04955 139.72 7.63596 141.963 6.22999Z" fill="#ECF7F4"/>
<path id="Vector" d="M74.867 180.982C60.7197 165.962 50.6138 152.245 43.7566 141.992C37.0858 132.017 32.4164 124.954 28.1714 114.893C35.7165 115.504 48.3809 118.103 58.9518 127.988C72.2934 140.464 78.1049 160.487 74.867 180.984V180.982Z" fill="#00969F"/>
<path id="Vector_2" d="M91.5044 127.986C102.778 117.445 116.433 115.188 123.718 114.794C119.463 124.909 114.787 131.984 108.095 141.992C101.644 151.635 92.3208 164.342 79.4635 178.318C80.5307 168.868 79.7849 159.568 77.3613 151.037C77.4749 150.872 77.567 150.688 77.6313 150.488C77.8928 149.661 78.1735 148.836 78.4692 148.032C79.9199 144.07 81.7414 140.402 83.9185 137.052C86.0957 133.705 88.6308 130.673 91.5065 127.986H91.5044Z" fill="#FF8A44"/>
<path id="Vector_3" d="M151.773 0C146.397 3.50576 140.791 6.92795 135.215 10.4851C126.736 15.8981 120.339 20.6938 118.82 21.8167C116.418 23.5867 114.011 25.6589 111.639 27.9368C103.935 35.319 96.5531 44.8592 90.6645 53.27C90.3966 53.4543 90.1373 53.6364 89.8802 53.8207C94.6952 46.1385 99.5103 38.4541 104.327 30.774C85.6823 24.161 67.7935 23.5417 49.6539 31.7318C54.364 39.9605 59.0719 48.1935 63.7841 56.4243C64.2513 57.245 64.7227 58.0636 65.1899 58.8843C65.2156 58.9293 65.2391 58.9722 65.267 59.0172C65.237 58.9679 65.2091 58.9229 65.177 58.8736C64.6091 57.9565 64.0413 57.0629 63.4734 56.1907C57.8719 47.5656 52.4333 41.0855 48.1775 36.5019C45.1346 33.2254 42.786 30.189 40.4074 27.7825C37.6966 25.0332 34.9473 23.1024 31.0858 22.556C18.9742 20.8417 8.86197 15.8916 0.187573 5.70221C-1.28887 24.6432 6.02051 37.8905 19.6535 47.8721C20.7807 48.6992 21.955 49.5028 23.1679 50.2849C23.0779 50.4971 22.99 50.7071 22.9043 50.9214C21.6936 53.8764 20.7336 56.9579 20.05 60.1336C19.5121 62.6344 19.1457 65.1973 18.9657 67.8052C18.28 77.671 19.8593 87.8519 22.0707 96.5905C23.41 101.898 24.9893 106.675 26.4358 110.532L26.8429 110.599C34.6773 111.004 49.5168 113.416 61.8191 124.922C67.6627 130.386 72.1649 137.175 75.2228 144.78C78.3429 137.012 82.8472 130.337 88.6394 124.922C100.942 113.416 115.781 111.004 123.616 110.599L125.512 110.279C127.293 105.499 129.256 99.3506 130.732 92.5533C132.419 84.7918 133.469 76.1839 132.888 67.8052C132.618 63.9287 131.941 60.1636 130.899 56.54C130.085 53.7093 129.05 50.9685 127.811 48.3371C127.715 48.127 127.614 47.9192 127.514 47.7135C127.561 47.6771 127.61 47.6363 127.659 47.5999C143.495 34.9569 150.972 18.3624 151.777 0.00428342L151.773 0ZM44.1724 96.4448C33.8137 96.4448 25.4158 88.0469 25.4158 77.6882C25.4158 67.3295 33.8137 58.9315 44.1724 58.9315C54.5311 58.9315 62.9291 67.3295 62.9291 77.6882C62.9291 88.0469 54.5311 96.4448 44.1724 96.4448ZM84.8101 89.0004C82.0201 92.2576 79.2193 95.5255 76.365 98.8534C75.9493 99.3399 75.0257 99.3249 74.6357 98.8234L66.9835 89.0047C66.3449 88.1861 67.4892 87.2304 68.5799 87.6697C70.217 88.3297 71.8435 89.0026 73.4057 89.7547C75.105 90.5733 76.4357 90.5369 78.1307 89.7697C79.8129 89.009 81.5508 88.3254 83.2972 87.6526C84.388 87.2326 85.4851 88.2097 84.8101 88.9983V89.0004ZM107.645 98.1227C97.286 98.1227 88.8859 89.7247 88.8859 79.366C88.8859 69.0073 97.2838 60.6094 107.645 60.6094C118.006 60.6094 126.401 69.0073 126.401 79.366C126.401 89.7247 118.003 98.1227 107.645 98.1227Z" fill="#00969F"/>
<path id="Vector_4" d="M107.645 91.6684C114.438 91.6684 119.945 86.1615 119.945 79.3683C119.945 72.5751 114.438 67.0681 107.645 67.0681C100.852 67.0681 95.3447 72.5751 95.3447 79.3683C95.3447 86.1615 100.852 91.6684 107.645 91.6684Z" fill="#00969F"/>
<path id="Vector_5" d="M44.1722 89.9883C50.9654 89.9883 56.4724 84.4813 56.4724 77.6881C56.4724 70.8949 50.9654 65.3879 44.1722 65.3879C37.379 65.3879 31.8721 70.8949 31.8721 77.6881C31.8721 84.4813 37.379 89.9883 44.1722 89.9883Z" fill="#00969F"/>
</g>
</svg>
