<svg width="61" height="62" viewBox="0 0 61 62" fill="none" xmlns="http://www.w3.org/2000/svg">
<g id="COCO/Line/Edit">
<path id="Vector" d="M51.9624 18.3295C47.7266 19.7415 42.0789 14.0938 43.4909 9.85797M43.1483 10.2006L34.0226 19.3262C30.0553 23.2935 27.2408 28.2644 25.8801 33.7075L25.4391 35.4713C25.3017 36.0209 25.7995 36.5187 26.3491 36.3813L28.1129 35.9403C33.556 34.5796 38.5269 31.7651 42.4942 27.7978L51.6198 18.6721C52.7432 17.5487 53.3743 16.0251 53.3743 14.4364C53.3743 11.128 50.6924 8.44604 47.384 8.44604C45.7953 8.44604 44.2717 9.07716 43.1483 10.2006Z" stroke="#ECF7F4" stroke-width="4"/>
<path id="Vector_2" d="M30.5 8.44604C27.899 8.44604 25.2981 8.74501 22.749 9.34294C15.6897 10.9988 10.1778 16.5108 8.5219 23.5701C7.32603 28.6682 7.32603 33.9739 8.5219 39.072C10.1778 46.1313 15.6897 51.6433 22.749 53.2992C27.8472 54.495 33.1529 54.495 38.251 53.2992C45.3103 51.6433 50.8222 46.1313 52.4781 39.072C53.076 36.5229 53.375 33.922 53.375 31.321" stroke="#ECF7F4" stroke-width="4" stroke-linecap="round"/>
</g>
</svg>
