<svg width="60" height="61" viewBox="0 0 60 61" fill="none" xmlns="http://www.w3.org/2000/svg">
<g id="COCO/Line/Lock">
<path id="Vector" d="M11.6327 43.3868L9.78019 44.1405L9.78019 44.1405L11.6327 43.3868ZM10.7652 29.3138L12.6958 29.8362L10.7652 29.3138ZM49.2348 29.3138L47.3042 29.8361L49.2348 29.3138ZM48.3672 43.3868L50.2198 44.1405L50.2198 44.1405L48.3672 43.3868ZM35.0911 52.9255L34.7821 50.9495L34.7821 50.9495L35.0911 52.9255ZM24.9088 52.9255L25.2178 50.9495L25.2178 50.9495L24.9088 52.9255ZM21.6405 19.8264L21.2419 17.8665L21.2419 17.8665L21.6405 19.8264ZM38.3595 19.8264L38.7581 17.8665L38.7581 17.8665L38.3595 19.8264ZM23.037 52.6328L22.7279 54.6087L22.7279 54.6087L23.037 52.6328ZM11.865 43.9576L13.7175 43.2039L13.7175 43.2039L11.865 43.9576ZM36.963 52.6328L37.272 54.6087L37.272 54.6087L36.963 52.6328ZM48.135 43.9576L46.2824 43.204L46.2824 43.204L48.135 43.9576ZM39.0498 19.9668L38.6512 21.9266L38.6512 21.9266L39.0498 19.9668ZM20.9502 19.9668L21.3488 21.9266L20.9502 19.9668ZM17.1099 19.3975C17.1099 20.5021 18.0054 21.3975 19.1099 21.3975C20.2145 21.3975 21.1099 20.5021 21.1099 19.3975H17.1099ZM19.1099 18.6403L17.1099 18.6403V18.6403H19.1099ZM40.8899 18.6403L38.8899 18.6403V18.6403H40.8899ZM38.8899 19.3975C38.8899 20.5021 39.7854 21.3975 40.8899 21.3975C41.9945 21.3975 42.8899 20.5021 42.8899 19.3975H38.8899ZM27.1293 8.6742L26.6439 6.73398L26.6439 6.73398L27.1293 8.6742ZM32.8706 8.6742L33.3559 6.73398L33.3559 6.73398L32.8706 8.6742ZM21.3488 21.9266L22.0391 21.7863L21.2419 17.8665L20.5516 18.0069L21.3488 21.9266ZM37.9609 21.7863L38.6512 21.9266L39.4484 18.0069L38.7581 17.8665L37.9609 21.7863ZM36.6539 50.6568L34.7821 50.9495L35.4002 54.9015L37.272 54.6087L36.6539 50.6568ZM25.2178 50.9495L23.346 50.6568L22.7279 54.6087L24.5997 54.9015L25.2178 50.9495ZM46.5147 42.6331L46.2824 43.204L49.9875 44.7113L50.2198 44.1405L46.5147 42.6331ZM13.7175 43.2039L13.4853 42.6331L9.78019 44.1405L10.0124 44.7113L13.7175 43.2039ZM13.4853 42.6331C11.8246 38.5511 11.5493 34.0741 12.6958 29.8362L8.83464 28.7915C7.4588 33.8769 7.79069 39.2503 9.78019 44.1405L13.4853 42.6331ZM47.3042 29.8361C48.4507 34.0741 48.1754 38.5511 46.5147 42.6331L50.2198 44.1405C52.2093 39.2503 52.5412 33.8769 51.1654 28.7915L47.3042 29.8361ZM34.7821 50.9495C31.615 51.4449 28.385 51.4449 25.2178 50.9495L24.5997 54.9015C28.1764 55.4609 31.8235 55.4609 35.4002 54.9015L34.7821 50.9495ZM22.0391 21.7863C27.288 20.7188 32.7121 20.7188 37.9609 21.7863L38.7581 17.8665C32.9832 16.692 27.0169 16.692 21.2419 17.8665L22.0391 21.7863ZM23.346 50.6568C18.9515 49.9695 15.3077 47.1127 13.7175 43.2039L10.0124 44.7113C12.1533 49.9737 17.005 53.7137 22.7279 54.6087L23.346 50.6568ZM37.272 54.6087C42.995 53.7137 47.8466 49.9737 49.9875 44.7113L46.2824 43.204C44.6922 47.1127 41.0484 49.9695 36.6539 50.6568L37.272 54.6087ZM38.6512 21.9266C42.9089 22.7925 46.2343 25.8817 47.3042 29.8361L51.1654 28.7915C49.6823 23.3098 45.1203 19.1604 39.4484 18.0069L38.6512 21.9266ZM20.5516 18.0069C14.8797 19.1604 10.3177 23.3098 8.83464 28.7915L12.6958 29.8362C13.7657 25.8817 17.0912 22.7925 21.3488 21.9266L20.5516 18.0069ZM21.1099 19.3975V18.6403H17.1099V19.3975H21.1099ZM38.8899 18.6403V19.3975H42.8899V18.6403H38.8899ZM27.6146 10.6144C29.1783 10.2233 30.8215 10.2233 32.3852 10.6144L33.3559 6.73398C31.1549 6.1834 28.845 6.1834 26.6439 6.73398L27.6146 10.6144ZM42.8899 18.6403C42.8899 12.9852 38.9203 8.1259 33.3559 6.73398L32.3852 10.6144C36.2669 11.5854 38.8899 14.9192 38.8899 18.6403L42.8899 18.6403ZM21.1099 18.6403C21.1099 14.9192 23.733 11.5854 27.6146 10.6144L26.6439 6.73398C21.0795 8.1259 17.1099 12.9852 17.1099 18.6403L21.1099 18.6403Z" fill="#ECF7F4"/>
<path id="Vector_2" d="M30 34.571L30 39.571" stroke="#ECF7F4" stroke-width="4" stroke-linecap="round"/>
</g>
</svg>
