<svg width="19" height="20" viewBox="0 0 19 20" fill="none" xmlns="http://www.w3.org/2000/svg">
<path d="M1.33327 7.35323C1.94858 4.66865 3.99673 2.57251 6.61985 1.94279C8.51424 1.48802 10.4858 1.48802 12.3801 1.94279C15.0033 2.57251 17.0514 4.66865 17.6667 7.35323C18.1111 9.292 18.1111 11.3097 17.6667 13.2485C17.0514 15.9331 15.0033 18.0292 12.3801 18.6589C10.4858 19.1137 8.51424 19.1137 6.61986 18.6589C3.99673 18.0292 1.94858 15.9331 1.33327 13.2485C0.888909 11.3097 0.888909 9.292 1.33327 7.35323Z" fill="#00969F" fill-opacity="0.1"/>
<path d="M5.57008 1V3.51375M13.4299 1V3.51375M6.55256 13.3174H9.5M6.55256 10.3009H12.4474M1.33327 13.2485C0.888909 11.3097 0.888909 9.292 1.33327 7.35323C1.94858 4.66865 3.99673 2.57251 6.61985 1.94279C8.51424 1.48802 10.4858 1.48802 12.3801 1.94279C15.0033 2.57251 17.0514 4.66865 17.6667 7.35323C18.1111 9.292 18.1111 11.3097 17.6667 13.2485C17.0514 15.9331 15.0033 18.0292 12.3801 18.6589C10.4858 19.1137 8.51424 19.1137 6.61986 18.6589C3.99673 18.0292 1.94858 15.9331 1.33327 13.2485Z" stroke="#00565B" stroke-width="1.5" stroke-linecap="round"/>
</svg>
