<svg width="501" height="500" viewBox="0 0 501 500" fill="none" xmlns="http://www.w3.org/2000/svg">
<path d="M47.481 248.47L183.541 248.47L183.541 40.92L47.481 40.92L47.481 248.47Z" fill="#1B1B2E"/>
<path d="M126.031 141.54H183.541V49.2198H126.031L126.031 141.54Z" fill="#ECF7F4"/>
<path d="M62.2402 141.54H119.75L119.75 49.22H62.2402L62.2402 141.54Z" fill="#ECF7F4"/>
<path d="M126.031 240.15H183.541V147.83H126.031L126.031 240.15Z" fill="#ECF7F4"/>
<path d="M62.2402 240.15H119.75L119.75 147.83H62.2402L62.2402 240.15Z" fill="#ECF7F4"/>
<path d="M99.9702 40.9099H47.4902V337.85H77.8702L56.6602 186.75L99.9702 40.9099Z" fill="#00969F"/>
<path d="M90.8802 48.9397L82.5602 83.4497L74.0902 117.93L57.1402 186.87L57.1502 186.7L64.9902 258.75L68.9102 294.78L72.6602 330.82L68.4202 294.83L64.3302 258.82L56.1702 186.81L56.1602 186.72L56.1802 186.63L73.4502 117.77L82.0902 83.3397L90.8802 48.9397Z" fill="#1B1B2E"/>
<path d="M50.6113 55.03L50.8513 84.81L50.9913 114.59L51.1113 174.15L50.9913 233.7L50.8513 263.48L50.6113 293.26L50.3613 263.48L50.2213 233.7L50.1113 174.15L50.2313 114.59L50.3713 84.81L50.6113 55.03Z" fill="#1B1B2E"/>
<path d="M60.42 60.6101L58.79 92.2601L57.02 123.9L53.46 187.19V187.15C53.81 198.9 54.04 210.66 54.33 222.41L55.16 257.67L55.99 292.93L56.66 328.19L55.49 292.94L54.48 257.68L53.47 222.42C53.15 210.67 52.76 198.92 52.5 187.16V187.14V187.12L56.38 123.85L58.33 92.2201L60.42 60.5901V60.6101Z" fill="#1B1B2E"/>
<path d="M67.2501 323.63L63.8101 289.47L60.4801 255.3C58.3501 232.51 56.1301 209.73 54.0801 186.93V186.86V186.8L63.8101 133.59L68.7501 107L73.7601 80.4197L69.1701 107.07L64.5001 133.71L55.0201 186.97V186.84C57.2001 209.63 59.2201 232.43 61.3101 255.22L64.3301 289.42L67.2401 323.63H67.2501Z" fill="#1B1B2E"/>
<path d="M47.4801 191.19H59.3301V184.27H47.4801V191.19Z" fill="#00969F"/>
<path d="M131.061 40.9099H183.551V337.85H153.171L174.371 186.75L131.061 40.9099Z" fill="#00969F"/>
<path d="M140.151 48.9399L148.941 83.3399L157.581 117.77L174.851 186.63L174.881 186.72L174.871 186.81L166.701 258.82L162.611 294.83L158.371 330.82L162.121 294.78L166.041 258.75L173.881 186.7L173.891 186.87L156.941 117.93L148.471 83.4499L140.151 48.9399Z" fill="#1B1B2E"/>
<path d="M180.42 55.03L180.67 84.81L180.81 114.59L180.92 174.15L180.81 233.7L180.67 263.48L180.42 293.26L180.18 263.48L180.04 233.7L179.92 174.15L180.04 114.59L180.18 84.81L180.42 55.03Z" fill="#1B1B2E"/>
<path d="M170.621 60.6101L172.711 92.2401L174.661 123.87L178.541 187.14V187.16V187.18C178.281 198.93 177.891 210.68 177.571 222.44L176.561 257.7L175.551 292.96L174.381 328.21L175.051 292.95L175.881 257.69L176.711 222.43C177.001 210.68 177.231 198.92 177.581 187.17V187.21L174.021 123.92L172.251 92.2801L170.621 60.6301V60.6101Z" fill="#1B1B2E"/>
<path d="M163.781 323.63L166.691 289.42L169.711 255.22C171.811 232.43 173.821 209.62 176.001 186.84V186.97L166.531 133.71L161.861 107.07L157.271 80.4197L162.281 107L167.221 133.59L176.951 186.8V186.86V186.93C174.901 209.73 172.681 232.51 170.551 255.3L167.221 289.47L163.781 323.63Z" fill="#1B1B2E"/>
<path d="M183.541 184.26H171.691V191.18H183.541V184.26Z" fill="#00969F"/>
<path d="M337.35 269.18V406.45H420.33V269.18H337.35ZM412.8 355.79H344.89V320.06H412.8V355.79ZM412.8 311.55H344.89V275.82H412.8V311.55Z" fill="#1B1B2E"/>
<path d="M453.51 269.18H420.33V406.44H453.51V269.18Z" fill="#00969F"/>
<path d="M361.019 275.81H344.879V311.54H361.019V275.81Z" fill="#00969F"/>
<path d="M413.289 398.33H344.799V363.26H413.289V398.33ZM345.799 397.33H412.289V364.26H345.799V397.33Z" fill="#00969F"/>
<path d="M382.92 373.34H369.52V380.12H382.92V373.34Z" fill="#00969F"/>
<path d="M387.39 380.12H372.98V373.36H387.39V380.12ZM373.98 379.12H386.39V374.36H373.98V379.12Z" fill="#00969F"/>
<path d="M361.019 320.06H344.879V355.79H361.019V320.06Z" fill="#00969F"/>
<path d="M419.41 211.65C428.91 220.95 430.5 235.34 428.5 247.94C428.45 248.23 428.01 248.15 428.01 247.88C428.01 245.01 428.1 242.17 428.09 239.33C428.04 239.2 427.99 239.08 427.94 238.95C425.46 237.15 423.18 235.11 421.77 232.32C420.18 229.2 419.56 225.68 418.35 222.42C418.24 222.11 418.57 222.2 418.79 222.36C424.57 226.62 426.41 231.21 428.07 237.33C427.99 234.15 427.75 230.97 427.06 227.79C425.81 221.97 423.34 216.21 419.16 211.9C419 211.74 419.25 211.48 419.41 211.65Z" fill="#1B1B2E"/>
<path d="M417.62 212.73C415.99 212.79 414.96 215.4 413.69 216.16C413.02 216.57 412.36 216.54 411.89 215.88C410.63 214.12 412.36 211.95 413.99 210.73C412.83 211.21 411.86 212.05 410.6 212.29C409.84 212.43 409.25 212.15 409.07 211.37C408.52 208.97 411.53 207.9 413.6 207.85C412.6 207.15 409.73 205.26 411.25 204.33C412.8 203.4 416.17 206.1 417.26 206.99C418.88 208.3 420.8 210.26 420.87 212.31C420.96 214.7 418.87 213.23 417.62 212.73Z" fill="#00969F"/>
<path d="M418.1 213.13C416.01 212.18 412 213.55 411.66 212.76C410.97 211.15 414.18 210.05 415.91 209.83C414.32 209.4 411.26 208.71 411.35 207.17C411.46 205.29 416.04 206.91 418.35 208.68C421.26 210.92 421.25 213.07 420.76 213.5C420.1 214.09 418.44 213.28 418.1 213.12V213.13Z" fill="#1B1B2E"/>
<path d="M441.04 210.73C431.19 219.66 429.05 233.98 430.58 246.64C430.62 246.93 431.07 246.87 431.08 246.6C431.19 243.73 431.21 240.89 431.33 238.06C431.39 237.93 431.43 237.81 431.49 237.68C434.04 235.97 436.39 234.02 437.91 231.29C439.61 228.23 440.37 224.74 441.71 221.53C441.83 221.22 441.5 221.3 441.27 221.45C435.33 225.49 433.32 230 431.43 236.06C431.63 232.88 431.99 229.72 432.8 226.56C434.27 220.8 436.96 215.13 441.29 210.98C441.45 210.82 441.22 210.56 441.05 210.72L441.04 210.73Z" fill="#1B1B2E"/>
<path d="M442.779 211.88C444.409 212 445.329 214.65 446.579 215.46C447.239 215.89 447.889 215.89 448.389 215.25C449.719 213.54 448.069 211.3 446.489 210.02C447.639 210.54 448.569 211.42 449.809 211.71C450.559 211.88 451.169 211.62 451.369 210.85C452.009 208.47 449.049 207.29 446.979 207.16C448.009 206.5 450.949 204.72 449.459 203.73C447.949 202.74 444.479 205.31 443.349 206.16C441.689 207.41 439.689 209.29 439.539 211.34C439.349 213.73 441.499 212.34 442.779 211.88Z" fill="#00969F"/>
<path d="M442.3 212.26C444.42 211.39 448.38 212.91 448.75 212.13C449.5 210.55 446.34 209.32 444.62 209.04C446.23 208.67 449.31 208.1 449.27 206.56C449.23 204.68 444.6 206.12 442.22 207.8C439.22 209.92 439.16 212.08 439.62 212.53C440.26 213.15 441.94 212.4 442.29 212.26H442.3Z" fill="#1B1B2E"/>
<path d="M430.969 234.31C430.239 239.02 429.339 243.88 427.909 248.43C427.769 248.84 427.159 248.74 427.219 248.29C427.869 243.94 429.049 239.67 429.689 235.32C430.349 230.92 430.699 226.45 430.449 222C430.039 214.67 428.039 206.87 423.259 201.13C423.149 200.99 423.379 200.8 423.489 200.93C433.069 212.1 431.549 225.8 431.539 227.02C432.899 222.4 434.289 217.09 439.419 212.39C439.639 212.19 439.809 212.28 439.779 212.63C438.859 221.21 436.479 225.69 431.509 230.27C431.369 231.63 431.189 232.98 430.979 234.32L430.969 234.31Z" fill="#1B1B2E"/>
<path d="M423.179 202.41C421.459 201.64 419.079 203.84 417.369 203.99C416.469 204.07 415.799 203.72 415.639 202.79C415.219 200.33 418.109 198.94 420.409 198.5C418.959 198.41 417.539 198.8 416.109 198.41C415.249 198.17 414.779 197.58 414.979 196.69C415.609 193.92 419.279 194.33 421.449 195.32C420.759 194.09 418.739 190.68 420.789 190.49C422.859 190.3 424.999 194.8 425.689 196.28C426.709 198.45 427.719 201.45 426.759 203.62C425.649 206.15 424.219 203.57 423.169 202.42L423.179 202.41Z" fill="#00969F"/>
<path d="M423.469 203.07C421.779 201.03 416.929 200.43 416.969 199.44C417.059 197.42 420.949 197.89 422.849 198.54C421.409 197.29 418.589 195.04 419.459 193.49C420.519 191.6 424.449 195.58 425.959 198.58C427.859 202.37 426.749 204.59 426.039 204.8C425.059 205.08 423.749 203.41 423.469 203.07Z" fill="#1B1B2E"/>
<path d="M437.279 236.9L441.499 269.18H415.789C416.319 266.32 421.099 236.86 421.099 236.86L437.269 236.9H437.279Z" fill="#1B1B2E"/>
<path d="M448.809 439.23C448.809 450.51 360.019 459.65 250.499 459.65C140.979 459.65 52.1895 450.51 52.1895 439.23C52.1895 427.95 140.979 418.81 250.499 418.81C360.019 418.81 448.809 427.95 448.809 439.23Z" fill="#ECF7F4"/>
<path d="M47.49 406.45L98.24 406.2L148.99 406.11L250.5 405.95L352.01 406.11L402.76 406.2L453.51 406.45L402.76 406.69L352.01 406.78L250.5 406.94L148.99 406.78L98.24 406.69L47.49 406.45Z" fill="#1B1B2E"/>
<path d="M335.019 61.9197H165.959C156.519 61.9197 148.859 69.7097 148.859 79.3397V427.35C148.859 436.96 156.519 444.77 165.959 444.77H335.019C344.459 444.77 352.139 436.96 352.139 427.35V79.3397C352.139 69.7097 344.459 61.9197 335.019 61.9197ZM341.439 416.59C341.439 425.75 334.579 433.16 326.119 433.16H174.879C166.399 433.16 159.539 425.75 159.539 416.59V92.5297C159.539 73.8697 166.399 72.9597 174.879 72.9597H205.179C206.939 72.9597 208.379 74.9597 208.379 77.4397V78.5097C208.379 84.3197 211.559 84.3397 215.459 84.3397H285.519C289.459 84.3397 292.619 84.3197 292.619 78.5097V77.4397C292.619 74.9597 294.039 72.9597 295.829 72.9597H326.119C334.579 72.9597 341.439 75.4397 341.439 92.5297V416.59Z" fill="#1B1B2E"/>
<path d="M341.439 92.5297V416.59C341.439 425.75 334.579 433.16 326.119 433.16H174.879C166.399 433.16 159.539 425.75 159.539 416.59V92.5297C159.539 73.8697 166.399 72.9597 174.879 72.9597H205.179C206.939 72.9597 208.379 74.9597 208.379 77.4397V78.5097C208.379 84.3197 211.559 84.3397 215.459 84.3397H285.519C289.459 84.3397 292.619 84.3197 292.619 78.5097V77.4397C292.619 74.9597 294.039 72.9597 295.829 72.9597H326.119C334.579 72.9597 341.439 75.4397 341.439 92.5297Z" fill="#FAFAFB"/>
<path d="M341.439 92.5297V228.75H159.539V92.5297C159.539 73.8697 166.399 72.9597 174.879 72.9597H205.179C206.939 72.9597 208.379 74.9597 208.379 77.4397V78.5097C208.379 84.3197 211.559 84.3397 215.459 84.3397H285.519C289.459 84.3397 292.619 84.3197 292.619 78.5097V77.4397C292.619 74.9597 294.039 72.9597 295.829 72.9597H326.119C334.579 72.9597 341.439 75.4397 341.439 92.5297Z" fill="#ECF7F4"/>
<path d="M199.948 80.2399C199.848 80.3399 199.748 80.4299 199.658 80.5299C199.598 80.5899 199.548 80.6399 199.488 80.6999C198.698 79.9399 197.768 79.5299 196.668 79.5299C195.568 79.5299 194.638 79.9399 193.848 80.6999C193.798 80.6499 193.748 80.5899 193.688 80.5399C193.588 80.4399 193.498 80.3499 193.398 80.2499C193.398 80.2499 193.408 80.2299 193.418 80.2299C193.538 80.1199 193.658 80.0099 193.788 79.8999C194.048 79.6799 194.338 79.4999 194.648 79.3499C195.008 79.1699 195.388 79.0399 195.778 78.9699C195.968 78.9399 196.158 78.9199 196.348 78.8899C196.408 78.8899 196.828 78.8899 196.848 78.8899C196.978 78.8899 197.108 78.9099 197.238 78.9199C197.598 78.9599 197.938 79.0499 198.278 79.1699C198.518 79.2599 198.758 79.3699 198.978 79.4999C199.218 79.6399 199.438 79.7899 199.648 79.9699C199.758 80.0599 199.858 80.1599 199.958 80.2499L199.948 80.2399Z" fill="white"/>
<path d="M194.768 81.6199C194.618 81.4699 194.458 81.3199 194.308 81.1599C194.838 80.6399 195.458 80.3099 196.188 80.2199C197.278 80.0699 198.218 80.3999 199.018 81.1599C198.858 81.3199 198.708 81.4699 198.558 81.6199C198.038 81.1099 197.408 80.8399 196.668 80.8399C195.928 80.8399 195.298 81.1099 194.778 81.6299L194.768 81.6199Z" fill="white"/>
<path d="M198.098 82.0799C197.948 82.2299 197.788 82.3799 197.638 82.5399C197.368 82.2799 197.048 82.1399 196.668 82.1399C196.288 82.1399 195.968 82.2799 195.698 82.5399C195.548 82.3899 195.388 82.2299 195.238 82.0799C195.968 81.3099 197.288 81.2499 198.098 82.0799Z" fill="white"/>
<path d="M197.078 82.9599C197.078 83.1899 196.888 83.3799 196.658 83.3799C196.428 83.3799 196.238 83.1899 196.238 82.9599C196.238 82.7299 196.428 82.5399 196.658 82.5399C196.888 82.5399 197.078 82.7299 197.078 82.9599Z" fill="white"/>
<path d="M171.398 81.1199C171.398 80.4499 171.938 79.9099 172.608 79.9099C173.278 79.9099 173.818 80.4499 173.818 81.1199C173.818 81.7899 173.278 82.3299 172.608 82.3299C171.938 82.3299 171.398 81.7899 171.398 81.1199Z" fill="white"/>
<path d="M175.199 81.1199C175.199 80.4499 175.739 79.9099 176.409 79.9099C177.079 79.9099 177.619 80.4499 177.619 81.1199C177.619 81.7899 177.079 82.3299 176.409 82.3299C175.739 82.3299 175.199 81.7899 175.199 81.1199Z" fill="white"/>
<path d="M178.998 81.1199C178.998 80.4499 179.538 79.9099 180.208 79.9099C180.878 79.9099 181.418 80.4499 181.418 81.1199C181.418 81.7899 180.878 82.3299 180.208 82.3299C179.538 82.3299 178.998 81.7899 178.998 81.1199Z" fill="white"/>
<path d="M182.799 81.1199C182.799 80.4499 183.339 79.9099 184.009 79.9099C184.679 79.9099 185.219 80.4499 185.219 81.1199C185.219 81.7899 184.679 82.3299 184.009 82.3299C183.339 82.3299 182.799 81.7899 182.799 81.1199Z" fill="white"/>
<path d="M186.588 81.1199C186.588 80.4499 187.128 79.9099 187.798 79.9099C188.468 79.9099 189.008 80.4499 189.008 81.1199C189.008 81.7899 188.468 82.3299 187.798 82.3299C187.128 82.3299 186.588 81.7899 186.588 81.1199Z" fill="white"/>
<path d="M327.798 83.7499H317.988V79.1999H327.798V83.7499ZM318.488 83.2499H327.298V79.6999H318.488V83.2499Z" fill="white"/>
<path d="M325.129 79.9797H318.799V82.9797H325.129V79.9797Z" fill="white"/>
<path d="M328.669 80.2697H327.799V82.6997H328.669V80.2697Z" fill="white"/>
<path d="M176.778 110.71L171.398 105.67L176.778 100.64L177.608 101.52L173.188 105.67L177.608 109.82L176.778 110.71Z" fill="white"/>
<path d="M271.538 190.94C268.058 193.1 264.188 194.76 259.988 195.77C249.118 198.43 238.218 196.39 229.418 190.92C220.798 185.59 214.178 177 211.578 166.38C206.338 144.88 219.488 123.2 240.988 117.96C262.468 112.7 284.148 125.87 289.408 147.37C293.628 164.67 285.908 182.08 271.548 190.94H271.538Z" fill="white"/>
<path d="M321.98 214.87H179.02V415.37H321.98V214.87Z" fill="white"/>
<path d="M260.05 77.0795H240.94C240.29 77.0795 239.76 76.5495 239.76 75.8995C239.76 75.2495 240.29 74.7195 240.94 74.7195H260.05C260.7 74.7195 261.23 75.2495 261.23 75.8995C261.23 76.5495 260.7 77.0795 260.05 77.0795Z" fill="white"/>
<path d="M340.81 129.43C340.81 129.43 340.66 129.46 340.41 129.53C340.42 129.48 340.45 129.44 340.48 129.41H340.49C340.69 129.43 340.81 129.43 340.81 129.43Z" fill="#1B1B2E"/>
<path d="M352.141 160.83H352.131V167.87H352.141V160.83Z" fill="#00969F"/>
<path d="M352.141 160.83V169.75C352.131 169.64 352.131 169.52 352.131 169.4V160.83H352.141Z" fill="#00969F"/>
<path d="M352.321 418.33C352.261 418.33 352.201 418.34 352.141 418.35V418.22C352.201 418.25 352.261 418.29 352.321 418.33Z" fill="#1B1B2E"/>
<path d="M393.62 426.86C391.42 425.9 343.02 382.1 342.23 379.26C341.92 378.19 347.89 370.77 355.36 362C356.97 360.11 375.8 329.97 375.8 329.97L409.71 356.85L386.65 390.14C386.65 390.14 397.68 415.2 398.21 418.4C398.73 421.6 395.83 427.81 393.63 426.85L393.62 426.86Z" fill="#F0CCA9"/>
<path d="M394.24 407.9C396.29 412.84 398 417.19 398.2 418.41C398.73 421.62 395.82 427.83 393.63 426.86C391.42 425.9 343.02 382.09 342.24 379.26C341.99 378.39 345.86 373.34 351.33 366.78C361.11 378.14 391.94 413.5 394.2 410.21C394.41 409.91 394.4 409.06 394.24 407.89V407.9Z" fill="#1B1B2E"/>
<path d="M358.591 356.35L392.901 384.65C392.901 384.65 440.611 318.22 441.981 293.95C443.031 275.27 415.321 240.49 396.501 210.7C394.681 207.81 395.791 196.85 395.861 195.02L358.571 195.09C358.121 199.29 355.201 220.43 361.481 230.71C374.401 251.87 395.261 282.58 396.061 289.24C396.851 295.85 358.601 356.35 358.601 356.35H358.591Z" fill="#00565B"/>
<path d="M395.1 374.249C389.62 369.609 391.25 370.869 385.73 366.279C383.02 364.039 369.45 352.729 366.58 351.059C366.52 351.019 366.44 351.109 366.49 351.169C368.71 353.639 382.53 364.649 385.27 366.839C390.88 371.319 389.32 369.979 394.98 374.399C395.09 374.479 395.21 374.329 395.11 374.249H395.1Z" fill="#1B1B2E"/>
<path d="M399.35 283.02C398.1 280.57 396.76 278.17 395.36 275.8C392.54 271.02 389.5 266.36 386.5 261.69C383.37 256.81 380.23 251.94 377.1 247.07C374.28 242.69 371.42 238.33 368.97 233.73C366.56 229.19 364.55 224.4 363.55 219.34C362.46 213.79 362.68 208.1 363.16 202.5C363.28 201.1 363.42 199.71 363.55 198.31C363.57 198.07 363.15 198.02 363.13 198.26C362.51 203.74 361.94 209.28 362.34 214.8C362.71 219.9 364.1 224.82 366.16 229.5C368.2 234.14 370.8 238.52 373.5 242.8C376.48 247.53 379.51 252.22 382.53 256.93C385.58 261.69 388.66 266.44 391.66 271.24C393.11 273.57 394.54 275.92 395.9 278.31C397.25 280.67 398.63 283.06 399.7 285.56C400.24 286.81 400.67 288.12 400.75 289.49C400.84 290.9 400.5 292.28 399.99 293.59C399 296.16 397.65 298.62 396.43 301.09C393.99 306.02 391.51 310.93 388.95 315.8C383.81 325.57 369.94 348.57 369.22 349.76C369.17 349.85 369.3 349.92 369.36 349.84C375.26 340.43 382.41 329.47 387.71 319.71C390.36 314.83 392.94 309.92 395.44 304.97C396.69 302.49 397.92 300 399.12 297.51C400.22 295.23 401.48 292.88 401.56 290.29C401.64 287.71 400.49 285.28 399.34 283.03L399.35 283.02Z" fill="#1B1B2E"/>
<path d="M394.551 195.02C392.151 207.34 385.211 242.78 381.411 262.38C374.891 251.96 367.351 240.35 361.471 230.71C355.191 220.42 358.111 199.29 358.561 195.09L394.551 195.02Z" fill="#1B1B2E"/>
<path d="M401.81 451.53C399.52 452.26 334.25 451.34 331.78 449.73C330.84 449.13 330.42 439.61 330.24 428.1C330.2 425.61 330.79 387.73 330.79 387.73L374.45 388.22L372.32 428.57C372.32 428.57 397.15 440.1 399.67 442.15C402.17 444.2 404.1 450.79 401.81 451.52V451.53Z" fill="#F0CCA9"/>
<path d="M389.751 436.88C394.551 439.24 398.711 441.38 399.661 442.16C402.171 444.22 404.101 450.8 401.811 451.53C399.521 452.27 334.241 451.35 331.781 449.74C331.011 449.25 330.591 442.9 330.371 434.37C345.221 436.44 391.721 442.62 391.251 438.66C391.211 438.29 390.641 437.66 389.751 436.89V436.88Z" fill="#1B1B2E"/>
<path d="M395.85 195.09C395.85 195.09 388.46 231.05 388.07 232.24C388.07 232.24 384.01 233.84 377.57 237.46L374.93 420.41L327.85 420.72C327.85 420.72 333.69 323.68 333.53 317.48C333.27 307.5 337.59 239.84 336.99 238.14C330.84 220.78 340.5 195.1 340.5 195.1H395.86L395.85 195.09Z" fill="#00565B"/>
<path d="M373.16 411.72C359.89 411.15 334.2 411.39 330.91 411.95C330.84 411.96 330.84 412.08 330.91 412.1C334.2 412.63 365.41 412.69 373.16 411.93C373.29 411.92 373.29 411.73 373.16 411.72Z" fill="#1B1B2E"/>
<path d="M338.479 365.14C339.229 351.38 340.029 337.62 340.819 323.86C341.609 310.1 342.399 296.34 343.179 282.58C343.569 275.7 343.949 268.82 344.369 261.94C344.579 258.5 344.789 255.06 344.999 251.62C345.209 248.24 345.619 244.78 345.439 241.4C345.249 237.68 343.619 234.4 342.689 230.85C341.809 227.48 341.459 224 341.449 220.52C341.419 213.34 342.909 206.25 344.279 199.23C344.359 198.84 344.959 199.01 344.869 199.4C343.459 205.85 342.179 212.36 342.029 218.99C341.949 222.29 342.189 225.59 342.879 228.82C343.549 231.92 344.889 234.79 345.679 237.85C346.489 241.01 346.129 244.29 345.929 247.51C345.719 250.95 345.549 254.39 345.369 257.83C345.009 264.57 344.609 271.32 344.219 278.06C342.649 305.45 341.129 332.84 339.459 360.22C338.519 375.63 337.769 391.07 336.539 406.46C336.539 406.57 336.359 406.58 336.359 406.46C336.839 392.69 337.739 378.93 338.489 365.17L338.479 365.14Z" fill="#1B1B2E"/>
<path d="M345.58 216.65C346.37 216.33 347.251 216.23 348.071 215.98C348.931 215.72 349.77 215.42 350.58 215.04C352.11 214.33 353.61 213.43 354.9 212.34C356.23 211.21 357.021 209.77 357.661 208.17C358.001 207.32 358.321 206.45 358.661 205.6C358.831 205.18 358.991 204.75 359.161 204.32C359.231 204.15 359.66 203.25 359.74 202.97C359.71 203 359.661 203.01 359.621 202.98C359.601 202.97 359.591 202.95 359.571 202.94C359.541 202.91 359.541 202.87 359.561 202.84C359.611 202.73 359.621 202.72 359.731 202.7C359.781 202.7 359.821 202.7 359.851 202.75C360.021 203.03 359.871 203.3 359.791 203.6C359.661 204.16 359.521 204.73 359.391 205.29C359.151 206.27 358.911 207.25 358.631 208.22C358.101 210.05 357.301 211.73 355.871 213.02C354.471 214.28 352.8 215.22 351.05 215.9C350.15 216.25 349.211 216.53 348.261 216.71C347.401 216.87 346.45 217.08 345.58 216.92C345.43 216.89 345.47 216.69 345.58 216.65Z" fill="#1B1B2E"/>
<path d="M383.609 226.519C383.689 224.869 383.789 223.219 383.909 221.579C384.179 217.829 384.499 214.059 385.099 210.339C385.149 210.049 385.559 210.149 385.539 210.429C385.339 213.349 385.049 216.259 384.829 219.179C384.609 222.069 384.309 224.999 384.309 227.899C384.309 228.769 384.389 230.249 385.469 230.479C386.919 230.779 387.569 228.869 387.889 227.839C388.709 225.239 389.189 222.569 389.559 219.869C389.979 216.809 390.179 213.709 390.419 210.619C390.419 210.509 390.609 210.519 390.619 210.629C390.749 216.739 390.769 223.129 388.579 228.929C388.149 230.059 387.389 231.219 386.089 231.389C386.069 231.389 386.049 231.389 386.029 231.389C386.029 231.419 386.049 231.459 386.049 231.499C386.029 231.669 385.979 231.839 385.959 232.009C385.939 232.149 385.909 232.299 385.879 232.439C385.829 232.739 385.789 233.039 385.719 233.329C385.659 233.599 385.289 233.529 385.279 233.289C385.209 233.259 385.149 233.209 385.149 233.109C385.129 232.519 385.319 231.929 385.519 231.369C384.809 231.259 384.229 230.759 383.919 230.069C383.419 228.969 383.569 227.679 383.629 226.519H383.609Z" fill="#1B1B2E"/>
<path d="M388.11 231.89C383.46 233.83 379.01 236.45 374.78 239.17C374.61 239.28 374.74 239.54 374.93 239.44C379.43 237.16 384.03 234.95 388.4 232.42C388.74 232.22 388.47 231.73 388.12 231.88L388.11 231.89Z" fill="#1B1B2E"/>
<path d="M376.239 327.899C376.239 327.459 376.379 327.289 376.399 327.829C376.499 330.869 376.469 335.229 376.489 338.259C376.529 341.839 376.489 345.409 376.449 348.979C376.389 352.549 376.319 356.129 376.179 359.699L375.959 365.059C375.879 366.289 375.919 368.729 375.839 369.969C375.809 370.519 375.669 370.619 375.619 370.059C375.529 368.269 375.529 366.839 375.469 365.049L375.409 359.689C375.369 356.109 375.409 352.539 375.449 348.969C375.509 345.399 375.579 341.819 375.719 338.249C375.849 334.679 375.969 331.469 376.229 327.899H376.239Z" fill="#1B1B2E"/>
<path d="M399.73 144.31C399.75 144.58 399.6 144.86 399.34 144.9C398.75 144.96 398.03 145.02 397.23 145.1C395.12 139.86 392.9 135.71 393.5 137.34C394.37 139.69 395.08 143.09 395.15 145.28C394.22 145.36 392.06 145.52 390.98 145.6C388.95 136.34 386.56 129.49 386.78 131.62C387.66 140.19 387.3 142.96 386.86 145.92C376.79 146.65 363.59 147.46 354.02 147.83C352.7 142.72 351.51 137.17 351.36 137.57C350.17 140.51 349.99 144.73 350.1 147.97C347.05 148.06 344.62 148.08 343.13 148.01C343.13 148.01 342.24 143.7 342.08 142.28C341.65 138.67 341.88 134.95 342.7 131.43C343.56 127.8 345.19 124.58 346.71 121.28C346.72 121.25 346.73 121.22 346.75 121.21C346.75 121.2 346.75 121.2 346.76 121.18C347.8 118.9 348.56 116.72 349.03 114.42C349.03 114.41 349.04 114.39 349.04 114.37C349.37 112.74 349.56 111.05 349.62 109.2C349.8 102.84 352.92 97.2696 358.43 95.4696C368.53 84.6096 379.27 88.8296 382.79 96.8896C383.13 97.6796 383.46 98.5796 383.8 99.5596V99.5896C385.04 103.23 386.2 107.97 387.25 111.63C387.25 111.64 387.25 111.65 387.25 111.65C387.25 111.66 387.25 111.67 387.26 111.69C387.77 113.44 388.24 114.92 388.69 115.92C391.62 122.48 397.86 126.1 399.73 144.32V144.31Z" fill="#1B1B2E"/>
<path d="M356.08 97.2597C352.5 99.3897 350.38 102.42 350 107.07C349.78 109.78 349.72 112.42 348.86 114.99C347.97 117.64 346.47 119.84 344.93 122.03C342.48 125.52 340.82 128.97 340.6 133.53C340.38 138.16 340.81 143.6 342.45 147.88C342.45 147.9 342.49 147.89 342.48 147.87C341.12 143.53 340.84 137.48 341.38 132.89C341.97 127.84 344.5 124.62 347.07 120.73C349.11 117.64 350.35 114.26 350.65 110.38C350.83 108.08 350.7 105.7 351.47 103.52C352.39 100.92 354.38 99.2297 356.35 97.7297C356.62 97.5297 356.35 97.1096 356.07 97.2696L356.08 97.2597Z" fill="#1B1B2E"/>
<path d="M395.121 122.87C392.391 119.33 389.571 116.33 387.881 111.9C386.331 107.86 385.371 103.58 383.801 99.5499C383.771 99.4799 383.681 99.5099 383.711 99.5799C386.171 106.75 386.891 114.02 391.491 119.98C393.991 123.22 396.491 126.22 398.211 130.14C400.021 134.26 400.901 138.57 401.201 143.13C401.211 143.29 401.401 143.28 401.411 143.13C401.761 135.72 399.411 128.42 395.121 122.87Z" fill="#1B1B2E"/>
<path d="M419.428 103.23L412.948 132.87C412.658 133.74 413.118 134.43 413.968 134.4L429.138 133.92C429.988 133.89 430.908 133.16 431.188 132.29L437.668 102.65C437.958 101.78 437.498 101.09 436.648 101.12L421.478 101.6C420.628 101.63 419.708 102.36 419.418 103.23H419.428Z" fill="#00565B"/>
<path d="M421.229 103.16L414.749 132.8C414.459 133.67 414.919 134.36 415.769 134.33L430.939 133.85C431.789 133.82 432.709 133.09 432.989 132.22L439.469 102.58C439.759 101.71 439.299 101.02 438.449 101.05L423.279 101.53C422.429 101.56 421.509 102.29 421.219 103.16H421.229Z" fill="#1B1B2E"/>
<path d="M425.428 104.37C425.428 105.08 424.858 105.67 424.148 105.67C423.438 105.67 422.848 105.11 422.848 104.39C422.848 103.68 423.408 103.09 424.128 103.09C424.838 103.09 425.428 103.66 425.428 104.37Z" fill="#1B1B2E"/>
<path d="M371.939 149.309C380.949 167.399 400.769 190.709 408.749 190.639C412.549 190.599 419.349 191.359 424.229 186.879C434.879 177.109 443.549 158.699 445.159 148.239C445.729 144.519 427.519 136.899 424.929 139.979C418.859 147.189 411.929 161.219 410.819 161.169C406.729 160.949 390.459 148.019 379.099 138.909C365.309 127.849 368.349 142.099 371.939 149.309Z" fill="#F0CCA9"/>
<path d="M445.168 129.069C443.088 121.589 441.408 119.989 442.998 112.739C444.048 107.989 441.458 105.279 438.198 109.149C432.858 115.479 433.518 125.699 434.758 129.169L445.158 129.069H445.168Z" fill="#F0CCA9"/>
<path d="M444.349 151.479C444.349 151.479 447.469 140.919 446.039 132.729C445.049 127.069 441.529 114.979 425.469 108.929C421.659 107.489 415.209 108.149 420.579 112.749C424.389 116.019 427.799 116.939 429.669 119.249C429.669 119.249 421.569 121.059 420.279 124.929C419.699 126.659 418.239 131.419 417.629 135.289C417.629 135.289 418.439 135.649 419.519 135.959C419.519 135.959 418.659 139.689 421.469 144.789L444.329 151.489L444.349 151.479Z" fill="#F0CCA9"/>
<path d="M444.238 127.469C441.898 125.569 436.868 121.639 431.628 119.849C425.808 117.859 414.078 115.609 412.648 119.909C411.608 123.069 416.008 124.329 416.008 124.329C416.008 124.329 410.958 124.419 410.638 127.479C410.348 130.269 413.818 131.039 413.818 131.039C413.818 131.039 410.768 131.619 411.008 134.359C411.298 137.659 417.648 135.899 420.818 138.979C421.528 139.669 444.228 127.469 444.228 127.469H444.238Z" fill="#F0CCA9"/>
<path d="M430.549 126.349C428.049 124.929 421.559 123.149 416.099 124.249C415.979 124.269 415.929 124.379 416.049 124.379C422.309 124.449 428.099 125.719 430.529 126.399C430.559 126.399 430.579 126.359 430.549 126.349Z" fill="#1B1B2E"/>
<path d="M428.379 132.159C426.099 131.149 419.319 129.619 413.839 130.919C413.719 130.949 413.679 131.059 413.789 131.059C420.329 130.859 425.899 131.679 428.369 132.219C428.399 132.219 428.409 132.179 428.389 132.159H428.379Z" fill="#1B1B2E"/>
<path d="M380.219 165.72L395.199 150.01C395.199 150.01 383.999 139.78 375.779 135.79C367.559 131.8 366.219 137.14 369.629 145.37C373.039 153.6 380.229 165.72 380.229 165.72H380.219Z" fill="#00969F"/>
<path d="M380.219 165.72L395.199 150.01C395.199 150.01 383.999 139.78 375.779 135.79C367.559 131.8 366.219 137.14 369.629 145.37C373.039 153.6 380.229 165.72 380.229 165.72H380.219Z" fill="#ECF7F4"/>
<path d="M394.08 181.38L401.13 214.45C401.13 214.45 346.77 218.83 333.2 218.77C333.2 218.77 340.11 155.63 353.6 138.9C360.35 130.53 368.91 130.56 374.71 135.72C376.18 137.03 394.02 157.64 396.29 165.81C398.28 173.02 394.08 181.38 394.08 181.38Z" fill="#FAFAFB"/>
<path d="M368.71 132.51H362.94C364.9 132.04 366.85 132.06 368.71 132.51Z" fill="#ECF7F4"/>
<path d="M374.65 135.67H356.77C357.02 135.46 357.28 135.26 357.54 135.08H373.94C374.18 135.27 374.42 135.46 374.65 135.67Z" fill="#ECF7F4"/>
<path d="M377.529 138.83H353.659C353.819 138.63 353.989 138.43 354.149 138.24H377.009C377.169 138.43 377.339 138.62 377.529 138.83Z" fill="#ECF7F4"/>
<path d="M380.199 141.989H351.489C351.599 141.789 351.719 141.589 351.849 141.399H379.709C379.869 141.589 380.039 141.789 380.199 141.989Z" fill="#ECF7F4"/>
<path d="M382.79 145.15H349.78C349.87 144.95 349.97 144.75 350.07 144.56H382.31C382.47 144.75 382.63 144.95 382.79 145.15Z" fill="#ECF7F4"/>
<path d="M385.288 148.31H348.338C348.428 148.11 348.508 147.91 348.588 147.72H384.828C384.988 147.92 385.138 148.11 385.288 148.31Z" fill="#ECF7F4"/>
<path d="M387.698 151.47H347.088C347.158 151.27 347.238 151.07 347.308 150.87H387.248L387.698 151.47Z" fill="#ECF7F4"/>
<path d="M389.989 154.63H345.959C346.029 154.42 346.089 154.23 346.159 154.03H389.559C389.709 154.23 389.849 154.43 389.989 154.63Z" fill="#ECF7F4"/>
<path d="M392.138 157.789H344.918C344.988 157.589 345.048 157.389 345.118 157.189H391.738C391.868 157.389 392.008 157.589 392.138 157.789Z" fill="#ECF7F4"/>
<path d="M394.069 160.95H343.979C344.029 160.74 344.089 160.55 344.149 160.35H393.719C393.849 160.55 393.959 160.75 394.069 160.95Z" fill="#ECF7F4"/>
<path d="M395.678 164.11H343.088C343.138 163.91 343.198 163.71 343.248 163.51H395.408C395.508 163.71 395.598 163.91 395.678 164.11Z" fill="#ECF7F4"/>
<path d="M396.608 167.259H342.258C342.308 167.059 342.358 166.869 342.408 166.669H396.488C396.538 166.869 396.578 167.059 396.608 167.259Z" fill="#ECF7F4"/>
<path d="M396.829 169.83C396.829 170.03 396.819 170.23 396.819 170.42H341.479C341.529 170.22 341.579 170.02 341.619 169.83H396.829Z" fill="#ECF7F4"/>
<path d="M396.618 172.99C396.588 173.19 396.558 173.39 396.518 173.58H340.748C340.788 173.39 340.828 173.19 340.878 172.99H396.618Z" fill="#ECF7F4"/>
<path d="M395.969 176.149C395.919 176.349 395.869 176.549 395.809 176.739H340.039C340.079 176.539 340.129 176.349 340.169 176.149H395.969Z" fill="#ECF7F4"/>
<path d="M394.959 179.31C394.879 179.52 394.799 179.72 394.729 179.9H339.379C339.409 179.7 339.449 179.51 339.499 179.31H394.959Z" fill="#ECF7F4"/>
<path d="M394.439 183.06H338.739C338.769 182.86 338.809 182.67 338.859 182.47H394.309L394.439 183.06Z" fill="#ECF7F4"/>
<path d="M395.109 186.219H338.129C338.169 186.019 338.199 185.829 338.239 185.629H394.989L395.109 186.219Z" fill="#ECF7F4"/>
<path d="M395.789 189.38H337.549C337.579 189.18 337.619 188.98 337.649 188.78H395.659L395.789 189.38Z" fill="#ECF7F4"/>
<path d="M396.459 192.539H336.989C337.029 192.339 337.059 192.139 337.089 191.939H396.329L396.459 192.539Z" fill="#ECF7F4"/>
<path d="M397.129 195.7H336.459C336.489 195.5 336.519 195.3 336.559 195.1H396.999L397.129 195.7Z" fill="#ECF7F4"/>
<path d="M397.81 198.86H335.95L336.04 198.26H397.68L397.81 198.86Z" fill="#ECF7F4"/>
<path d="M398.48 202.019H335.45C335.48 201.819 335.52 201.619 335.55 201.419H398.35L398.48 202.019Z" fill="#ECF7F4"/>
<path d="M399.149 205.17H334.979C335.009 204.98 335.039 204.78 335.069 204.58H399.029L399.149 205.17Z" fill="#ECF7F4"/>
<path d="M399.83 208.33H334.53C334.56 208.14 334.59 207.94 334.62 207.74H399.7L399.83 208.33Z" fill="#ECF7F4"/>
<path d="M400.498 211.489H334.098C334.128 211.299 334.158 211.099 334.178 210.899H400.368L400.498 211.489Z" fill="#ECF7F4"/>
<path d="M401.13 214.45C401.13 214.45 400.24 214.52 398.65 214.65H333.7C333.72 214.46 333.74 214.27 333.77 214.06H401.05L401.13 214.45Z" fill="#ECF7F4"/>
<path d="M363.789 217.22C360.709 217.43 357.649 217.63 354.699 217.81H333.309C333.329 217.64 333.349 217.44 333.379 217.22H363.789Z" fill="#ECF7F4"/>
<path d="M395.99 175.74C396.39 173.76 396.6 171.8 396.41 169.79C396.03 165.72 394.4 161.89 392.34 158.39C391.17 156.4 389.77 154.55 388.6 152.56C388.57 152.5 388.64 152.45 388.68 152.5C389.76 153.77 390.73 155.17 391.66 156.58C391.64 156.53 391.61 156.48 391.59 156.44C391.27 155.67 390.94 154.9 390.58 154.14C390.54 154.06 390.68 153.99 390.72 154.07C391.12 154.8 391.5 155.55 391.85 156.3C392.08 156.78 392.26 157.28 392.43 157.78C393.56 159.52 394.59 161.33 395.42 163.24C397.07 167.05 397.81 171.17 396.83 175.24C396.24 177.69 394.89 180.25 394.1 181.41C394.04 181.49 393.92 181.43 393.96 181.34C394.73 179.52 395.58 177.68 395.97 175.75" fill="#1B1B2E"/>
<path d="M362.051 136.369C362.461 137.389 368.591 143.479 373.391 142.499C374.951 142.179 373.581 133.559 373.581 133.559L373.621 132.899L374.231 123.669L362.711 118.569L361.061 117.909C361.061 117.909 361.061 120.449 361.091 123.609C361.091 123.759 361.091 123.899 361.091 124.059C361.091 124.239 361.091 124.409 361.091 124.569C361.091 125.039 361.091 125.519 361.091 125.999C361.091 126.369 361.101 126.719 361.121 127.099C361.131 127.489 361.151 127.859 361.161 128.239C361.351 132.029 361.861 135.919 362.031 136.349L362.051 136.369Z" fill="#F0CCA9"/>
<path d="M361.091 123.619C364.751 130.319 370.871 132.339 373.621 132.909L374.231 123.679L362.711 118.579L361.061 117.919C361.061 117.919 361.061 120.459 361.091 123.619Z" fill="#1B1B2E"/>
<path d="M385.611 109.819C387.301 125.969 377.821 128.799 374.341 129.159C371.181 129.489 360.371 130.199 357.021 114.309C353.671 98.4194 360.641 92.5294 367.841 91.3994C375.031 90.2694 383.931 93.6594 385.621 109.809L385.611 109.819Z" fill="#F0CCA9"/>
<path d="M382.023 106.34C381.643 106.34 381.283 106.27 380.903 106.22C380.473 106.17 380.133 106.18 379.783 105.89C379.603 105.73 379.573 105.38 379.713 105.19C380.023 104.74 380.563 104.67 381.083 104.71C381.643 104.75 382.063 104.93 382.473 105.31C382.873 105.68 382.523 106.35 382.013 106.34H382.023Z" fill="#1B1B2E"/>
<path d="M371.393 107.57C371.763 107.49 372.103 107.35 372.463 107.22C372.873 107.08 373.213 107.02 373.483 106.66C373.633 106.47 373.583 106.12 373.413 105.96C373.013 105.59 372.473 105.63 371.973 105.78C371.433 105.94 371.053 106.2 370.733 106.66C370.423 107.11 370.903 107.68 371.393 107.57Z" fill="#1B1B2E"/>
<path d="M374.242 111.42C374.242 111.42 374.162 111.48 374.172 111.53C374.352 112.62 374.362 113.9 373.422 114.39C373.392 114.41 373.402 114.46 373.442 114.45C374.632 114.12 374.592 112.42 374.252 111.42H374.242Z" fill="#1B1B2E"/>
<path d="M373.113 110.4C371.333 110.49 371.653 114.05 373.303 113.96C374.923 113.87 374.613 110.32 373.113 110.4Z" fill="#1B1B2E"/>
<path d="M372.432 110.65C372.142 110.88 371.872 111.26 371.492 111.33C371.062 111.41 370.702 111.07 370.392 110.74C370.362 110.71 370.332 110.74 370.332 110.79C370.382 111.47 370.712 112.15 371.442 112.18C372.112 112.21 372.542 111.57 372.652 110.87C372.672 110.74 372.542 110.56 372.432 110.66V110.65Z" fill="#1B1B2E"/>
<path d="M380.323 110.589C380.323 110.589 380.413 110.639 380.413 110.679C380.463 111.779 380.713 113.039 381.743 113.319C381.773 113.319 381.773 113.379 381.743 113.379C380.513 113.309 380.203 111.639 380.323 110.579V110.589Z" fill="#1B1B2E"/>
<path d="M381.213 109.359C382.973 109.079 383.403 112.619 381.773 112.879C380.163 113.129 379.733 109.589 381.213 109.359Z" fill="#1B1B2E"/>
<path d="M381.984 109.509C382.284 109.659 382.604 109.969 382.944 109.949C383.334 109.929 383.574 109.509 383.774 109.109C383.794 109.069 383.824 109.099 383.834 109.139C383.934 109.809 383.794 110.549 383.164 110.759C382.584 110.949 382.074 110.419 381.834 109.769C381.784 109.649 381.864 109.449 381.984 109.509Z" fill="#1B1B2E"/>
<path d="M375.133 120.22C375.413 120.47 375.693 120.81 376.093 120.83C376.483 120.85 376.923 120.65 377.263 120.5C377.293 120.48 377.333 120.52 377.313 120.55C377.043 120.99 376.453 121.28 375.933 121.21C375.433 121.14 375.163 120.72 375.023 120.27C375.003 120.21 375.083 120.18 375.123 120.22H375.133Z" fill="#1B1B2E"/>
<path d="M379.332 115.769C379.332 115.769 379.722 117.389 379.802 118.159C379.802 118.229 379.622 118.289 379.362 118.329C379.352 118.329 379.342 118.339 379.332 118.329C377.982 118.679 376.562 118.349 375.612 117.319C375.552 117.249 375.642 117.159 375.712 117.199C376.812 117.849 377.962 117.929 379.172 117.819C379.202 117.599 378.402 115.069 378.532 115.049C378.952 114.969 379.812 115.169 380.332 115.269C379.612 111.869 378.352 108.619 377.682 105.219C377.662 105.099 377.832 105.039 377.882 105.149C379.442 108.469 380.362 112.359 381.202 115.849C381.312 116.279 379.652 115.859 379.332 115.759V115.769Z" fill="#1B1B2E"/>
<path d="M379.173 118.15C379.173 118.15 378.573 119.24 377.623 119.73C377.273 119.91 376.883 120.02 376.453 119.97C375.563 119.86 375.433 119.08 375.503 118.38C375.553 117.81 375.743 117.3 375.743 117.3C375.743 117.3 377.153 118.3 379.183 118.15H379.173Z" fill="#1B1B2E"/>
<path d="M377.623 119.73C377.273 119.91 376.883 120.02 376.453 119.97C375.563 119.86 375.433 119.08 375.503 118.38C376.433 118.35 377.433 118.85 377.633 119.73H377.623Z" fill="#00969F"/>
<path d="M358.251 113.629C361.201 114.119 362.241 107.359 362.241 107.359C362.241 107.359 374.971 105.729 376.461 95.4694C376.461 95.4694 378.361 102.119 384.871 105.359C384.871 105.359 384.881 94.0494 376.021 91.4994C376.021 91.4994 365.081 87.0094 358.481 95.5694C351.881 104.129 356.271 113.299 358.261 113.629H358.251Z" fill="#1B1B2E"/>
<path d="M376.541 94.7094C376.651 96.2894 376.351 97.8894 375.791 99.3894C375.221 100.889 374.371 102.299 373.241 103.449C372.981 103.759 372.651 103.989 372.351 104.269L371.891 104.669C371.731 104.789 371.561 104.899 371.391 105.009C371.051 105.229 370.721 105.459 370.381 105.669C370.021 105.849 369.661 106.029 369.301 106.199C369.121 106.279 368.941 106.379 368.761 106.449L368.191 106.639L367.061 107.019C366.291 107.199 365.511 107.339 364.731 107.469C365.471 107.179 366.221 106.969 366.951 106.679L368.021 106.209L368.551 105.979C368.721 105.889 368.891 105.789 369.051 105.689C369.381 105.489 369.721 105.299 370.051 105.119C370.371 104.909 370.671 104.669 370.991 104.449L371.461 104.119L371.891 103.739C372.161 103.469 372.481 103.249 372.721 102.949C373.811 101.869 374.621 100.559 375.291 99.1694C375.621 98.4694 375.881 97.7394 376.091 96.9994C376.311 96.2594 376.461 95.4894 376.551 94.7094H376.541Z" fill="#1B1B2E"/>
<path d="M360.081 115.039C360.081 115.039 356.451 110.039 354.171 111.339C351.891 112.639 354.691 119.939 357.401 120.899C360.121 121.859 361.051 119.359 361.051 119.359L360.071 115.039H360.081Z" fill="#F0CCA9"/>
<path d="M355.022 113.409C355.022 113.409 354.972 113.469 355.012 113.479C356.922 114.209 357.942 115.949 358.672 117.759C358.092 117.069 357.322 116.699 356.402 117.389C356.352 117.429 356.402 117.499 356.452 117.489C357.222 117.309 357.782 117.429 358.322 118.049C358.702 118.479 358.962 119.029 359.242 119.539C359.332 119.709 359.642 119.609 359.572 119.419C359.572 119.409 359.562 119.389 359.552 119.379C359.552 116.969 357.622 113.619 355.022 113.429V113.409Z" fill="#1B1B2E"/>
<path d="M359.761 95.3896C361.211 94.8496 362.591 86.7396 357.261 82.8796C352.011 79.0696 345.1 83.4296 347.96 90.0796C349.77 94.2796 356.691 96.5396 359.761 95.3996V95.3896Z" fill="#1B1B2E"/>
<path d="M349.8 82.3997C348.17 83.7297 347.13 85.6196 346.73 87.5396C346.32 89.4797 346.91 91.4696 348.35 92.7696C349.75 94.1396 351.68 94.8996 353.65 95.3596C354.64 95.5696 355.67 95.6997 356.69 95.7297C357.72 95.7797 358.76 95.7296 359.76 95.3896C358.86 95.9696 357.76 96.1496 356.71 96.2896C355.64 96.3996 354.56 96.3896 353.49 96.2396C351.37 95.9396 349.19 95.1596 347.55 93.5996C346.74 92.8096 346.08 91.8097 345.79 90.6897C345.5 89.5697 345.54 88.3997 345.85 87.3297C346.45 85.1997 347.91 83.3596 349.8 82.3896V82.3997Z" fill="#1B1B2E"/>
<path d="M352.6 140.18C339.22 160.31 331.67 187.11 332.65 193.01C333.73 199.5 342.89 221.44 352.33 231.11C354.82 233.66 373.68 212.74 371.13 209.91C366.22 204.45 356.47 188.36 356.04 184.69C355.64 181.3 360.58 159.49 361.88 147.09C363.13 135.18 358.82 130.81 352.6 140.18Z" fill="#F0CCA9"/>
<path d="M370.529 209.24C370.529 209.24 380.769 213.74 387.329 217C390.989 218.82 396.989 222.5 399.059 225.06C402.169 228.9 412.709 246.94 408.389 249.59C404.479 251.99 397.389 235.34 397.389 235.34C397.389 235.34 406.029 251.51 400.789 253.53C395.549 255.55 390.039 235.68 390.039 235.68C390.039 235.68 398.549 252.49 392.809 253.72C388.479 254.65 382.469 236.93 382.469 236.93C382.469 236.93 389.679 251.43 385.269 252.58C380.389 253.85 373.819 237.84 373.819 237.84C362.109 238.87 356.109 234.58 352.209 231.01C351.269 230.15 370.509 209.23 370.509 209.23L370.529 209.24Z" fill="#F0CCA9"/>
<path d="M394.769 229.56C395.849 231.42 396.959 233.3 397.879 235.25C398.789 237.2 399.639 239.19 400.369 241.22C402.159 246.2 402.499 249.59 402.449 249.38C401.409 244.47 398.249 237.44 397.329 235.48C396.419 233.53 395.599 231.54 394.689 229.59C394.669 229.54 394.739 229.51 394.769 229.56Z" fill="#1B1B2E"/>
<path d="M387.658 232.74C388.938 235.18 390.298 237.55 391.478 240.05C392.648 242.53 393.538 244.99 394.528 247.55C394.608 247.75 394.478 247.72 394.388 247.53C393.288 245.01 392.088 242.77 390.958 240.27C389.838 237.78 388.808 235.22 387.598 232.77C387.578 232.73 387.638 232.71 387.658 232.74Z" fill="#1B1B2E"/>
<path d="M381.069 234.36C383.219 237.99 384.699 242 386.049 245.98C386.119 246.18 385.949 246.13 385.869 245.93C384.289 242.04 383.069 238.97 380.939 234.44C380.909 234.37 381.019 234.29 381.069 234.37V234.36Z" fill="#1B1B2E"/>
<path d="M339.74 160.83L361.06 164.94C361.06 164.94 363.61 149.99 362.52 140.91C361.43 131.83 356.21 133.59 351.14 140.91C346.07 148.23 339.75 160.83 339.75 160.83H339.74Z" fill="#00969F"/>
<path d="M339.74 160.83L361.06 164.94C361.06 164.94 363.61 149.99 362.52 140.91C361.43 131.83 356.21 133.59 351.14 140.91C346.07 148.23 339.75 160.83 339.75 160.83H339.74Z" fill="#ECF7F4"/>
<path d="M122.099 343.45C120.939 348.38 119.719 353.23 119.479 358.29C119.609 358.54 119.589 359.46 119.439 359.21C119.409 360.02 118.169 359.88 118.169 359.07C118.179 358.55 118.199 358.02 118.219 357.51C115.319 353.91 111.109 351.63 107.709 348.5C104.959 345.97 102.989 342.95 101.949 339.33C99.1293 329.6 101.769 319.29 98.3793 309.59C95.4493 301.22 90.1993 293.95 85.7593 286.37C81.0693 278.35 77.6093 269.93 77.2693 260.54C76.9893 253.35 77.8493 243.77 83.3293 238.38C89.1293 232.66 96.3293 236.95 100.779 242.04C113.669 256.83 119.629 275.52 122.039 294.63C123.369 305.21 124.749 315.85 124.429 326.52C124.249 332.26 123.429 337.87 122.119 343.44L122.099 343.45Z" fill="#00565B"/>
<path d="M119.528 362.18C120.198 352.18 120.148 342.17 119.178 332.22C119.198 332.18 119.228 332.16 119.228 332.11C119.388 324.01 120.038 315.94 119.718 307.84C119.368 299.03 118.078 290.4 116.148 281.8C116.128 281.7 115.968 281.72 115.988 281.83C117.578 290.21 118.498 298.77 118.808 307.29C118.968 311.87 118.938 316.45 118.698 321.02C118.618 322.51 118.478 324.01 118.378 325.51C118.378 325.51 118.378 325.51 118.378 325.5C115.108 302.71 106.698 281.08 94.2784 261.73C94.1084 261.47 93.6384 261.75 93.8084 262.02C102.748 276.62 109.348 292.66 113.418 309.3C107.218 297.82 97.8584 288.38 90.9184 277.35C90.8784 277.29 90.7784 277.35 90.8084 277.41C97.0484 289.69 107.348 299.38 113.918 311.48C115.058 316.41 115.988 321.39 116.688 326.4C117.638 333.28 118.088 340.2 118.178 347.12C114.408 340.06 110.488 333.32 107.398 325.85C107.318 325.65 107.028 325.79 107.098 325.98C109.728 333.73 113.258 342.08 118.198 348.69C118.228 353.6 118.078 358.5 117.788 363.4C117.018 376.48 114.778 389.39 113.748 402.43C113.718 402.82 114.268 402.87 114.348 402.49C117.068 389.33 118.618 375.58 119.508 362.18H119.528Z" fill="#1B1B2E"/>
<path d="M105.639 261.29C105.599 261.19 105.459 261.26 105.489 261.36C107.879 267.97 109.229 274.66 110.959 281.43C111.039 281.74 111.489 281.67 111.449 281.35C110.749 274.48 108.289 267.62 105.639 261.29Z" fill="#1B1B2E"/>
<path d="M166.309 288.99C164.759 292.87 162.839 296.63 160.809 300.28C156.509 308.09 152.019 315.25 151.209 324.35C150.849 328.41 150.719 332.49 149.479 336.41C148.409 339.8 146.669 342.92 144.669 345.85C140.009 352.64 134.179 358.5 129.859 365.55C125.359 372.88 122.049 380.94 120.019 389.28C119.909 389.74 119.189 389.61 119.299 389.16C119.319 389.12 119.319 389.09 119.329 389.06C119.309 389.04 119.289 389.01 119.289 388.96C118.609 369.45 120.159 349.79 126.109 331.1C128.709 322.93 131.919 314.8 135.559 307.03C138.749 300.25 142.719 293.74 148.319 288.68C151.949 285.41 159.829 279.21 164.989 282.49C167.469 284.07 167.289 286.56 166.309 288.99Z" fill="#00565B"/>
<path d="M146.709 333.21C143.359 338.93 139.399 344.25 135.369 349.51C133.479 351.98 131.569 354.42 129.679 356.89C128.789 358.06 127.789 359.22 126.969 360.47C127.489 358.42 127.989 356.36 128.509 354.32C131.029 344.46 133.449 334.52 137.199 325.04C140.859 315.78 145.739 307.08 150.739 298.49C150.869 298.26 150.509 298.1 150.369 298.32C146.249 305.1 142.059 311.87 138.599 319.02C136.659 323.01 135.039 327.12 133.599 331.3C135.289 322.34 137.299 313.74 140.249 305.06C140.279 304.98 140.169 304.93 140.129 305.01C136.539 313.52 133.949 323.08 133.229 332.3C133.229 332.32 133.229 332.33 133.239 332.34C132.399 334.87 131.619 337.43 130.889 340.01C127.819 350.92 125.119 361.95 122.619 373.02C122.659 365.71 123.119 358.54 124.499 351.33C124.529 351.16 124.279 351.13 124.239 351.29C122.429 358.72 121.609 366.53 122.359 374.16C121.409 378.37 120.489 382.58 119.599 386.8C117.679 395.79 115.329 404.94 114.209 414.07C114.179 414.31 114.509 414.36 114.569 414.13C115.909 409.21 116.719 404.11 117.809 399.12C118.909 394.12 120.039 389.13 121.199 384.15C122.889 376.89 124.669 369.65 126.479 362.42C127.689 359.77 130.019 357.42 131.769 355.19C133.689 352.75 135.609 350.31 137.479 347.83C140.959 343.21 144.149 338.41 146.869 333.3C146.929 333.19 146.759 333.12 146.699 333.22L146.709 333.21Z" fill="#1B1B2E"/>
<path d="M147.539 324.87C143.309 330.3 139.469 336.31 136.449 342.5C136.409 342.58 136.529 342.66 136.579 342.59C140.309 336.74 143.979 330.84 147.709 324.99C147.769 324.89 147.609 324.79 147.539 324.88V324.87Z" fill="#1B1B2E"/>
<path d="M64.4993 307.48C67.0293 311.83 69.9093 317.06 68.8293 322.29C68.1393 325.6 65.7193 328.29 65.2793 331.66C64.2993 339.11 71.7293 344.04 77.0993 347.56C90.4893 356.35 108.869 364.18 111.299 382.13C111.389 382.77 112.489 382.61 112.409 381.98C112.409 381.94 112.399 381.9 112.379 381.86C112.409 381.82 112.449 381.81 112.449 381.75C114.179 372.66 114.139 363.39 112.199 354.34C110.199 345.09 106.159 336.78 101.399 328.65C93.3393 314.9 84.7993 300.82 72.6093 290.28C69.2293 287.37 62.3293 282.13 59.6393 288.7C57.0293 295.09 61.3993 302.16 64.4993 307.47V307.48Z" fill="#00565B"/>
<path d="M76.7598 336.64C85.6398 346.25 99.7598 351.64 107.4 362.41C102.87 345.9 95.3698 331.06 83.8498 318.17C83.5498 317.84 84.0198 317.37 84.3398 317.68C92.7798 325.79 99.0298 335.27 103.59 345.56C101.54 338.22 98.6698 331.27 95.2998 324.36C95.1698 324.1 95.5398 323.87 95.6898 324.13C99.9798 331.45 102.84 339.67 104.62 347.95C114.69 372.33 115.63 400.93 113.52 426.64C113.49 427.01 112.93 427.02 112.94 426.64C113.52 406.38 113.19 385.78 108.34 365.99C108.24 365.58 108.13 365.17 108.02 364.76C99.6998 353.17 85.6498 347.79 76.6098 336.79C76.5198 336.68 76.6698 336.53 76.7598 336.64Z" fill="#1B1B2E"/>
<path d="M74.7002 328.38C79.3602 332.66 83.9502 337.03 88.6202 341.31C88.6702 341.35 88.6102 341.44 88.5502 341.4C83.4702 337.96 78.3102 333.42 74.4202 328.66C74.2602 328.47 74.5102 328.21 74.7002 328.38Z" fill="#1B1B2E"/>
<path d="M73.9599 309.85C78.1899 316.64 82.63 323 87.91 329.04C87.98 329.12 87.87 329.23 87.79 329.16C82.13 323.71 77.0999 317.11 73.7099 310C73.6299 309.83 73.8599 309.69 73.9599 309.85Z" fill="#1B1B2E"/>
<path d="M94.9492 444.77H135.789L130.279 389.83H101.239L94.9492 444.77Z" fill="#00969F"/>
<path d="M100.219 398.76H131.179L130.289 389.83H101.239L100.219 398.76Z" fill="#1B1B2E"/>
<path d="M96.2298 392.52H134.51V383.75H96.2298V392.52Z" fill="#00969F"/>
<path d="M213.64 277.64H199.85L200.82 263.86H214.6L213.64 277.64Z" fill="#C7C7C7"/>
<path d="M265.73 265.88H221.08L221.22 263.86H265.88L265.73 265.88Z" fill="#1B1B2E"/>
<path d="M299.64 269.8H221.08L221.22 267.78H299.78L299.64 269.8Z" fill="#C7C7C7"/>
<path d="M299.64 273.72H221.08L221.22 271.7H299.78L299.64 273.72Z" fill="#C7C7C7"/>
<path d="M299.64 277.64H221.08L221.22 275.62H299.78L299.64 277.64Z" fill="#C7C7C7"/>
<path d="M201.4 270.03C201.88 270.45 202.33 270.9 202.78 271.34C203.23 271.78 203.66 272.25 204.1 272.7C204.96 273.62 205.79 274.56 206.61 275.52L205.02 275.62C206.45 273 208.08 270.5 209.84 268.09C210.72 266.89 211.65 265.71 212.63 264.57C213.62 263.43 214.65 262.32 215.8 261.29C215.29 262.73 214.65 264.09 213.97 265.42C213.29 266.75 212.55 268.05 211.77 269.31C210.2 271.84 208.49 274.29 206.6 276.61L205.65 277.77L205.01 276.71C204.36 275.63 203.72 274.55 203.11 273.44C202.82 272.88 202.51 272.33 202.22 271.76C201.93 271.19 201.65 270.62 201.4 270.03Z" fill="#00969F"/>
<path d="M213.64 303.41H199.85L200.82 289.63H214.6L213.64 303.41Z" fill="#C7C7C7"/>
<path d="M265.73 291.65H221.08L221.22 289.63H265.88L265.73 291.65Z" fill="#1B1B2E"/>
<path d="M299.64 295.57H221.08L221.22 293.55H299.78L299.64 295.57Z" fill="#C7C7C7"/>
<path d="M299.64 299.49H221.08L221.22 297.47H299.78L299.64 299.49Z" fill="#C7C7C7"/>
<path d="M299.64 303.41H221.08L221.22 301.39H299.78L299.64 303.41Z" fill="#C7C7C7"/>
<path d="M201.4 295.81C201.88 296.23 202.33 296.68 202.78 297.12C203.23 297.56 203.66 298.03 204.1 298.48C204.96 299.4 205.79 300.34 206.61 301.3L205.02 301.4C206.45 298.78 208.08 296.28 209.84 293.87C210.72 292.67 211.65 291.49 212.63 290.35C213.62 289.21 214.65 288.1 215.8 287.07C215.29 288.51 214.65 289.87 213.97 291.2C213.29 292.53 212.55 293.83 211.77 295.09C210.2 297.62 208.49 300.07 206.6 302.39L205.65 303.55L205.01 302.49C204.36 301.41 203.72 300.33 203.11 299.22C202.82 298.66 202.51 298.11 202.22 297.54C201.93 296.97 201.65 296.4 201.4 295.81Z" fill="#00969F"/>
<path d="M213.64 329.18H199.85L200.82 315.4H214.6L213.64 329.18Z" fill="#C7C7C7"/>
<path d="M265.73 317.42H221.08L221.22 315.4H265.88L265.73 317.42Z" fill="#1B1B2E"/>
<path d="M299.64 321.34H221.08L221.22 319.32H299.78L299.64 321.34Z" fill="#C7C7C7"/>
<path d="M299.64 325.26H221.08L221.22 323.24H299.78L299.64 325.26Z" fill="#C7C7C7"/>
<path d="M299.64 329.18H221.08L221.22 327.16H299.78L299.64 329.18Z" fill="#C7C7C7"/>
<path d="M201.4 321.58C201.88 322 202.33 322.45 202.78 322.89C203.23 323.33 203.66 323.8 204.1 324.25C204.96 325.17 205.79 326.11 206.61 327.07L205.02 327.17C206.45 324.55 208.08 322.05 209.84 319.64C210.72 318.44 211.65 317.26 212.63 316.12C213.62 314.98 214.65 313.87 215.8 312.84C215.29 314.28 214.65 315.64 213.97 316.97C213.29 318.3 212.55 319.6 211.77 320.86C210.2 323.39 208.49 325.84 206.6 328.16L205.65 329.32L205.01 328.26C204.36 327.18 203.72 326.1 203.11 324.99C202.82 324.43 202.51 323.88 202.22 323.31C201.93 322.74 201.65 322.17 201.4 321.58Z" fill="#00969F"/>
<path d="M213.64 354.96H199.85L200.82 341.17H214.6L213.64 354.96Z" fill="#C7C7C7"/>
<path d="M265.73 343.19H221.08L221.22 341.17H265.88L265.73 343.19Z" fill="#1B1B2E"/>
<path d="M299.64 347.12H221.08L221.22 345.1H299.78L299.64 347.12Z" fill="#C7C7C7"/>
<path d="M299.64 351.04H221.08L221.22 349.02H299.78L299.64 351.04Z" fill="#C7C7C7"/>
<path d="M299.64 354.96H221.08L221.22 352.94H299.78L299.64 354.96Z" fill="#C7C7C7"/>
<path d="M213.64 380.73H199.85L200.82 366.95H214.6L213.64 380.73Z" fill="#C7C7C7"/>
<path d="M265.73 368.97H221.08L221.22 366.95H265.88L265.73 368.97Z" fill="#1B1B2E"/>
<path d="M299.64 372.89H221.08L221.22 370.87H299.78L299.64 372.89Z" fill="#C7C7C7"/>
<path d="M299.64 376.81H221.08L221.22 374.79H299.78L299.64 376.81Z" fill="#C7C7C7"/>
<path d="M299.64 380.73H221.08L221.22 378.71H299.78L299.64 380.73Z" fill="#C7C7C7"/>
<path d="M225.829 240.49C226.689 240.49 227.449 240.79 228.029 241.26C228.129 241.35 228.139 241.52 228.049 241.61C227.959 241.73 227.799 241.74 227.709 241.66C227.199 241.24 226.539 240.98 225.809 240.98C224.069 240.98 222.579 242.34 222.459 244.04C222.339 245.7 223.639 247.07 225.379 247.07C226.119 247.07 226.809 246.83 227.359 246.39C227.479 246.31 227.639 246.33 227.699 246.45C227.789 246.54 227.759 246.72 227.649 246.8C227.009 247.27 226.199 247.56 225.349 247.56C223.349 247.56 221.839 245.99 221.969 244.05C222.109 242.07 223.839 240.51 225.839 240.5L225.829 240.49Z" fill="#1B1B2E"/>
<path d="M233.99 244.31H230.41L230.2 247.32C230.2 247.45 230.07 247.56 229.93 247.56C229.8 247.56 229.7 247.45 229.71 247.32L230.16 240.83C230.16 240.7 230.29 240.59 230.42 240.59C230.56 240.59 230.66 240.7 230.65 240.83L230.44 243.84H234.02L234.23 240.83C234.23 240.7 234.36 240.59 234.49 240.59C234.63 240.59 234.73 240.7 234.72 240.83L234.27 247.32C234.27 247.45 234.14 247.56 234 247.56C233.87 247.56 233.77 247.45 233.78 247.32L233.99 244.31Z" fill="#1B1B2E"/>
<path d="M237.219 240.83C237.219 240.7 237.349 240.59 237.479 240.59H241.059C241.199 240.59 241.289 240.7 241.279 240.83C241.279 240.97 241.159 241.08 241.019 241.08H237.689L237.499 243.84H240.419C240.549 243.84 240.649 243.95 240.639 244.09C240.639 244.22 240.509 244.33 240.379 244.33H237.459L237.269 247.08H240.599C240.739 247.08 240.829 247.19 240.819 247.33C240.819 247.46 240.699 247.57 240.559 247.57H236.959C236.839 247.56 236.749 247.46 236.759 247.33L237.209 240.84L237.219 240.83Z" fill="#1B1B2E"/>
<path d="M246.448 240.49C247.308 240.49 248.068 240.79 248.648 241.26C248.748 241.35 248.758 241.52 248.668 241.61C248.578 241.73 248.418 241.74 248.328 241.66C247.818 241.24 247.158 240.98 246.428 240.98C244.688 240.98 243.198 242.34 243.078 244.04C242.958 245.7 244.258 247.07 245.998 247.07C246.738 247.07 247.428 246.83 247.978 246.39C248.098 246.31 248.258 246.33 248.318 246.45C248.408 246.54 248.378 246.72 248.268 246.8C247.628 247.27 246.818 247.56 245.968 247.56C243.968 247.56 242.458 245.99 242.588 244.05C242.728 242.07 244.458 240.51 246.458 240.5L246.448 240.49Z" fill="#1B1B2E"/>
<path d="M250.779 240.86C250.779 240.72 250.909 240.61 251.039 240.61C251.179 240.61 251.279 240.72 251.269 240.86L250.989 244.89L255.489 240.68C255.599 240.59 255.749 240.59 255.829 240.68C255.919 240.77 255.909 240.93 255.809 241.03L252.959 243.7L255.439 247.16C255.509 247.27 255.479 247.41 255.379 247.51C255.329 247.55 255.279 247.56 255.219 247.56C255.149 247.56 255.089 247.54 255.049 247.47L252.589 244.05L250.949 245.58L250.829 247.32C250.829 247.45 250.699 247.56 250.559 247.56C250.429 247.56 250.329 247.45 250.339 247.32L250.789 240.86H250.779Z" fill="#1B1B2E"/>
<path d="M257.678 247.56H257.658C257.528 247.56 257.428 247.45 257.438 247.32L257.888 240.83C257.888 240.7 258.018 240.59 258.148 240.59C258.288 240.59 258.388 240.7 258.378 240.83L257.938 247.07H261.268C261.408 247.07 261.508 247.18 261.498 247.32C261.498 247.45 261.368 247.56 261.228 247.56H257.668H257.678Z" fill="#1B1B2E"/>
<path d="M263.609 240.83C263.609 240.7 263.739 240.59 263.869 240.59C264.009 240.59 264.109 240.7 264.099 240.83L263.649 247.32C263.649 247.45 263.519 247.56 263.379 247.56C263.249 247.56 263.149 247.45 263.159 247.32L263.609 240.83Z" fill="#1B1B2E"/>
<path d="M265.88 246.25C265.97 246.15 266.11 246.14 266.19 246.22C266.68 246.64 267.51 247.13 268.42 247.12C269.03 247.12 269.59 246.94 269.98 246.66C270.39 246.38 270.62 246.01 270.65 245.62C270.68 245.22 270.51 244.92 270.15 244.66C269.79 244.41 269.25 244.22 268.58 244.09H268.56C267.92 243.97 267.37 243.79 266.96 243.5C266.55 243.22 266.29 242.8 266.33 242.29C266.37 241.76 266.69 241.3 267.15 240.99C267.61 240.67 268.21 240.48 268.87 240.48C269.79 240.48 270.44 240.93 270.96 241.29C271.05 241.36 271.08 241.49 271 241.6C270.93 241.7 270.79 241.73 270.7 241.66C270.18 241.3 269.61 240.92 268.84 240.92C268.27 240.92 267.75 241.09 267.39 241.34C267.02 241.6 266.8 241.94 266.78 242.3C266.77 242.65 266.91 242.91 267.24 243.15C267.57 243.39 268.08 243.56 268.7 243.68H268.72C269.41 243.81 270.01 244.01 270.45 244.32C270.89 244.62 271.16 245.08 271.12 245.63C271.08 246.19 270.73 246.68 270.24 247.02C269.75 247.36 269.11 247.57 268.41 247.57C267.35 247.56 266.46 247.02 265.91 246.56C265.83 246.48 265.83 246.34 265.91 246.25H265.88Z" fill="#1B1B2E"/>
<path d="M274.848 241.08H272.748C272.618 241.08 272.518 240.97 272.528 240.83C272.528 240.7 272.658 240.59 272.788 240.59H277.468C277.598 240.59 277.698 240.7 277.688 240.83C277.688 240.97 277.558 241.08 277.428 241.08H275.328L274.888 247.32C274.888 247.45 274.758 247.56 274.628 247.56C274.498 247.56 274.398 247.45 274.408 247.32L274.848 241.08Z" fill="#1B1B2E"/>
</svg>
