<svg width="501" height="500" viewBox="0 0 501 500" fill="none" xmlns="http://www.w3.org/2000/svg">
<path d="M109.661 97.6382C111.264 98.7383 113.074 100.165 114.153 101.599L44.2098 101.49C44.301 101.382 44.4147 101.25 44.5489 101.1C44.9357 100.667 45.4915 100.083 46.167 99.4827C47.5243 98.2758 49.3377 97.0237 51.2181 96.7474L51.3393 96.7296L51.3785 96.6135L51.1891 96.5495C51.3785 96.6135 51.3786 96.6135 51.3786 96.6134L51.3788 96.6127L51.3798 96.6098L51.3838 96.598L51.4001 96.5507C51.4147 96.5088 51.4366 96.4463 51.4657 96.3646C51.5239 96.2014 51.611 95.9614 51.7265 95.6557C51.9575 95.0443 52.3018 94.1701 52.7544 93.1203C53.6599 91.0201 54.9978 88.2201 56.728 85.4171C58.459 82.6129 60.5779 79.8137 63.0428 77.7088C65.5074 75.6043 68.3057 74.2038 71.4013 74.1695C77.1816 74.1055 81.2361 77.5103 83.8573 80.9617C85.1668 82.6861 86.1132 84.4157 86.7323 85.7148C87.0417 86.364 87.2689 86.9051 87.4187 87.2831C87.4935 87.4722 87.549 87.6204 87.5856 87.7211C87.6039 87.7714 87.6175 87.8098 87.6264 87.8354L87.6364 87.8642L87.6388 87.8712L87.6393 87.8728L87.6395 87.8732L87.7505 88.2039L87.9798 87.941L87.9798 87.941L87.9799 87.9409L87.9804 87.9402L87.983 87.9373L87.9941 87.9248C88.0041 87.9137 88.0191 87.8969 88.0392 87.8749C88.0793 87.8311 88.1392 87.7666 88.2174 87.6853C88.3741 87.5226 88.6042 87.2927 88.8966 87.0254C89.4821 86.4903 90.3147 85.8079 91.3055 85.2149C93.2933 84.0252 95.8703 83.221 98.3723 84.6046C100.918 86.0122 102.925 88.7398 104.302 91.1403C104.988 92.3369 105.513 93.4449 105.867 94.2536C106.044 94.6578 106.177 94.987 106.267 95.2147C106.312 95.3285 106.345 95.417 106.368 95.4768C106.379 95.5067 106.387 95.5294 106.393 95.5446L106.399 95.5615L106.4 95.5657L106.401 95.5666L106.401 95.5668L106.426 95.639L106.494 95.6754L106.589 95.4995L106.494 95.6754L106.494 95.6755L106.495 95.6759L106.498 95.6775L106.51 95.6842L106.558 95.7109C106.601 95.7345 106.664 95.7696 106.746 95.8156C106.908 95.9075 107.144 96.0425 107.432 96.2144C108.01 96.5582 108.803 97.0493 109.661 97.6382Z" fill="#FAFAFB" stroke="#1B1B2E" stroke-width="0.4"/>
<path d="M375.419 115.35L375.505 115.53L375.505 115.53L375.504 115.53L375.501 115.532L375.487 115.539L375.432 115.566C375.384 115.59 375.312 115.626 375.221 115.672C375.037 115.766 374.774 115.903 374.455 116.079C373.817 116.429 372.956 116.929 372.064 117.529C371.171 118.13 370.253 118.827 369.496 119.572C368.823 120.234 368.291 120.922 368.013 121.6L456.989 121.739C456.988 121.734 456.988 121.728 456.987 121.722C456.964 121.574 456.919 121.358 456.827 121.094C456.644 120.566 456.274 119.841 455.526 119.077C454.03 117.55 451.002 115.846 444.87 115.279L444.754 115.268L444.706 115.162L444.889 115.08C444.706 115.162 444.706 115.162 444.706 115.161L444.706 115.161L444.704 115.157L444.698 115.144L444.674 115.092C444.653 115.045 444.62 114.976 444.578 114.885C444.492 114.704 444.364 114.439 444.194 114.102C443.855 113.428 443.352 112.467 442.694 111.325C441.377 109.04 439.445 106.03 436.979 103.125C432.037 97.3046 425.004 91.9627 416.527 93.606L416.526 93.606C411.255 94.6258 407.244 98.7614 404.541 102.679C403.192 104.635 402.175 106.526 401.495 107.929C401.155 108.63 400.9 109.209 400.73 109.612C400.645 109.814 400.581 109.971 400.539 110.078C400.518 110.131 400.502 110.172 400.491 110.199L400.48 110.23L400.477 110.238L400.476 110.239L400.476 110.24L400.289 110.17M375.419 115.35L375.609 115.409L375.609 115.409L375.61 115.408L375.612 115.401L375.62 115.375C375.628 115.353 375.639 115.318 375.653 115.274C375.683 115.184 375.727 115.052 375.786 114.882C375.903 114.544 376.079 114.057 376.309 113.466C376.77 112.282 377.452 110.683 378.334 109.014C379.217 107.345 380.298 105.613 381.556 104.162C382.816 102.709 384.242 101.55 385.814 101.009C387.365 100.477 389.026 100.765 390.666 101.525C392.306 102.286 393.903 103.508 395.309 104.809C396.713 106.108 397.918 107.478 398.772 108.523C399.198 109.046 399.537 109.487 399.769 109.797C399.885 109.952 399.974 110.074 400.034 110.157C400.064 110.199 400.087 110.231 400.102 110.252L400.119 110.276L400.123 110.282L400.124 110.284L400.124 110.284L400.289 110.17M375.419 115.35L375.505 115.53L375.583 115.492L375.609 115.41L375.419 115.35ZM400.289 110.17L400.476 110.24L400.342 110.596L400.124 110.284L400.289 110.17Z" fill="#FAFAFB" stroke="#1B1B2E" stroke-width="0.4"/>
<path d="M279.218 42.76L279.218 42.7605L279.218 42.7605L279.447 43.0244L279.559 42.6938L279.559 42.6938L279.559 42.6936L279.559 42.6925L279.561 42.6875L279.568 42.6667C279.575 42.6481 279.585 42.6201 279.598 42.5833C279.625 42.5099 279.666 42.4015 279.722 42.2632C279.832 41.9865 280 41.5904 280.228 41.1149C280.685 40.1635 281.383 38.8973 282.347 37.636C284.277 35.1108 287.251 32.6308 291.477 32.6896C293.737 32.7212 295.781 33.7496 297.582 35.2977C299.385 36.8461 300.933 38.9043 302.198 40.9678C303.462 43.0302 304.438 45.0899 305.098 46.6349C305.428 47.4071 305.679 48.05 305.847 48.4995C305.931 48.7243 305.994 48.9006 306.037 49.0205C306.058 49.0805 306.074 49.1264 306.084 49.1571L306.096 49.1917L306.099 49.2003L306.1 49.2024L306.1 49.2029C306.1 49.2029 306.1 49.203 306.289 49.1396L306.1 49.203L306.139 49.3191L306.26 49.3373C307.625 49.5434 308.946 50.4604 309.94 51.3498C310.433 51.7917 310.84 52.2206 311.122 52.5391C311.187 52.6119 311.245 52.6789 311.296 52.7389L260.082 52.6602C260.877 51.6425 262.166 50.6336 263.317 49.8485C263.948 49.4184 264.53 49.0598 264.955 48.8088C265.167 48.6833 265.34 48.5848 265.459 48.5178C265.519 48.4843 265.566 48.4586 265.597 48.4414L265.632 48.422L265.641 48.4172L265.643 48.4161L265.644 48.4158L265.644 48.4158L265.711 48.3796L265.737 48.3077L265.737 48.3077L265.738 48.3076L265.738 48.3069L265.739 48.304L265.743 48.2917L265.762 48.2423C265.778 48.1987 265.803 48.134 265.836 48.0507C265.903 47.8841 266.002 47.6431 266.133 47.347C266.395 46.7547 266.783 45.9433 267.29 45.0672C268.308 43.308 269.785 41.3178 271.646 40.2949C273.468 39.296 275.34 39.8825 276.792 40.7583C277.516 41.1944 278.123 41.6959 278.551 42.0892C278.764 42.2856 278.932 42.4545 279.046 42.5738C279.103 42.6334 279.146 42.6806 279.176 42.7127C279.19 42.7287 279.201 42.7409 279.208 42.749L279.216 42.758L279.218 42.76Z" fill="#FAFAFB" stroke="#1B1B2E" stroke-width="0.4"/>
<path d="M84.2632 174.336L84.1686 174.159L84.2632 174.336L84.3306 174.299L84.3566 174.228L84.3566 174.228L84.3567 174.227L84.3569 174.227L84.358 174.224L84.3625 174.212L84.381 174.162C84.3976 174.119 84.4225 174.054 84.4556 173.971C84.5218 173.804 84.6209 173.563 84.7518 173.267C85.0137 172.675 85.4024 171.863 85.9092 170.987C86.9269 169.228 88.4042 167.238 90.2648 166.215C92.0867 165.216 93.9589 165.802 95.4116 166.678C96.1349 167.114 96.7425 167.616 97.1699 168.009C97.3833 168.206 97.5511 168.374 97.6651 168.494C97.7221 168.553 97.7656 168.601 97.7947 168.633C97.8011 168.64 97.8068 168.646 97.8118 168.652C97.8181 168.659 97.8233 168.664 97.8273 168.669L97.8352 168.678L97.837 168.68L97.8374 168.68L97.8374 168.68L98.0659 168.944L98.178 168.614L98.178 168.614L98.1781 168.614L98.1784 168.612L98.1802 168.607L98.1874 168.587C98.194 168.568 98.204 168.54 98.2175 168.503C98.2445 168.43 98.2854 168.321 98.3407 168.183C98.4513 167.906 98.6191 167.51 98.8475 167.035C99.3044 166.083 100.002 164.817 100.966 163.556C102.896 161.031 105.871 158.551 110.096 158.609C112.356 158.641 114.4 159.67 116.202 161.218C118.004 162.766 119.552 164.824 120.817 166.888C122.081 168.95 123.057 171.01 123.717 172.555C124.047 173.327 124.298 173.97 124.466 174.419C124.55 174.644 124.613 174.821 124.656 174.94C124.667 174.972 124.676 174.999 124.684 175.023C124.692 175.044 124.698 175.062 124.703 175.077L124.715 175.112L124.718 175.12L124.719 175.122L124.719 175.123C124.719 175.123 124.719 175.123 124.909 175.059L124.719 175.123L124.758 175.239L124.879 175.257C126.244 175.463 127.565 176.38 128.559 177.27C129.053 177.712 129.459 178.141 129.741 178.459C129.806 178.532 129.864 178.599 129.915 178.659L78.7012 178.58C79.4957 177.562 80.7854 176.553 81.9363 175.768C82.5669 175.338 83.1493 174.98 83.5741 174.729C83.7864 174.603 83.9592 174.505 84.0786 174.438C84.1384 174.404 84.1848 174.379 84.2161 174.361L84.2516 174.342L84.2605 174.337L84.2626 174.336L84.2631 174.336L84.2632 174.336Z" fill="#FAFAFB" stroke="#1B1B2E" stroke-width="0.4"/>
<path opacity="0.2" d="M98.52 123.681C152.379 123.681 196.04 119.15 196.04 113.561C196.04 107.972 152.379 103.441 98.52 103.441C44.6612 103.441 1 107.972 1 113.561C1 119.15 44.6612 123.681 98.52 123.681Z" fill="#1B1B2E"/>
<path d="M104.13 36.5411C105.74 37.1411 109.52 44.9311 117.63 56.1311C118.68 57.5811 119.8 59.0811 121 60.6411C124.51 65.2011 128.68 70.1711 133.63 75.3611C128.7 78.3811 120.47 71.6111 113.33 68.4711C108.09 66.1611 103.44 65.8111 101.11 72.7411C100.93 73.2611 100.76 73.7511 100.58 74.2111C96.9101 83.9611 93.4801 80.6611 90.4601 74.8211C89.5401 73.0511 88.6501 71.0411 87.8101 69.0811C87.0201 67.2511 86.2601 65.4811 85.5401 64.0011C83.3601 59.5311 81.9101 61.1411 78.6701 65.4511C77.7601 66.6711 76.7001 68.1011 75.4401 69.6811C72.7601 73.0311 69.1701 77.0111 64.1301 80.8711C55.9301 87.1711 54.3801 83.2911 54.7901 78.1311C59.2601 73.2711 63.6001 68.0611 67.5001 62.6011C68.5801 61.0911 69.6301 59.5511 70.6301 58.0011C73.6001 53.4211 76.2201 48.6811 78.3301 43.8411C78.3301 43.8411 83.5901 32.3711 88.4001 41.1811C92.2801 48.2911 100.23 35.0811 104.12 36.5411H104.13Z" fill="#FAFAFB"/>
<path d="M93.5109 7.82104C112.051 7.82104 127.081 22.851 127.081 41.381C127.081 48.541 124.841 55.191 121.001 60.641C119.801 59.091 118.681 57.581 117.631 56.131C120.261 51.831 121.781 46.791 121.781 41.381C121.781 25.771 109.131 13.111 93.5109 13.111C77.8909 13.111 65.2409 25.771 65.2409 41.381C65.2409 47.591 67.2409 53.331 70.6409 57.991C69.6309 59.541 68.5809 61.081 67.5109 62.591C62.7909 56.811 59.9609 49.421 59.9609 41.381C59.9609 22.841 74.9909 7.82104 93.5209 7.82104H93.5109Z" fill="#ECF7F4"/>
<path d="M113.33 68.461C120.47 71.601 128.7 78.371 133.63 75.351C145.48 87.771 161.78 101.411 184.15 113.461H13.5801C13.5801 113.461 35.4601 99.091 54.7901 78.111C54.3801 83.281 55.9201 87.161 64.1301 80.861C69.1701 76.991 72.7601 73.011 75.4401 69.671C76.7001 68.101 77.7601 66.661 78.6701 65.441C81.9101 61.131 83.3601 59.521 85.5401 63.991C86.2601 65.461 87.0101 67.241 87.8101 69.071C88.6501 71.021 89.5401 73.031 90.4601 74.811C93.4901 80.641 96.9201 83.951 100.58 74.201C100.76 73.741 100.93 73.251 101.11 72.731C103.44 65.811 108.09 66.161 113.33 68.461Z" fill="#ECF7F4"/>
<path opacity="0.2" d="M93.5101 13.1211C109.12 13.1211 121.78 25.7811 121.78 41.3911C121.78 46.7911 120.26 51.8411 117.63 56.1411C109.52 44.9411 105.74 37.1511 104.13 36.5511C100.24 35.0911 92.2901 48.3011 88.4101 41.1911C83.6001 32.3811 78.3401 43.8511 78.3401 43.8511C76.2301 48.6911 73.6101 53.4211 70.6401 58.0111C67.2501 53.3511 65.2401 47.6111 65.2401 41.4011C65.2401 25.7911 77.8901 13.1311 93.5101 13.1311V13.1211Z" fill="#1B1B2E"/>
<path opacity="0.2" d="M184.141 113.471H13.5605C13.5605 113.471 27.4405 104.351 42.8605 90.051C54.3605 98.401 71.4405 106.821 93.4905 106.821C115.541 106.821 135.351 97.641 148.021 88.941C157.831 97.281 169.721 105.701 184.141 113.471Z" fill="#1B1B2E"/>
<path opacity="0.5" d="M136.931 78.721C131.371 84.841 111.441 73.251 108.141 71.521C104.481 69.611 100.991 82.011 96.5406 86.461C92.0906 90.911 83.1906 70.091 83.0306 66.911C82.8706 63.731 75.7206 75.491 63.0006 86.301C54.3706 93.631 51.8206 87.141 51.0706 82.051C52.3206 80.771 53.5706 79.451 54.8106 78.111C54.4006 83.281 55.9406 87.161 64.1506 80.861C69.1906 76.991 72.7806 73.011 75.4606 69.671C76.7206 68.101 77.7806 66.661 78.6906 65.441C81.9306 61.131 83.3806 59.521 85.5606 63.991C86.2806 65.461 87.0306 67.241 87.8306 69.071C88.6706 71.021 89.5606 73.031 90.4806 74.811C93.5106 80.641 96.9406 83.951 100.601 74.201C100.781 73.741 100.951 73.251 101.131 72.731C103.461 65.811 108.111 66.161 113.351 68.461C120.491 71.601 128.721 78.371 133.651 75.351C134.711 76.461 135.811 77.581 136.951 78.711L136.931 78.721Z" fill="#1B1B2E"/>
<path opacity="0.2" d="M421.25 291.621C448.136 291.621 469.93 289.571 469.93 287.041C469.93 284.512 448.136 282.461 421.25 282.461C394.365 282.461 372.57 284.512 372.57 287.041C372.57 289.571 394.365 291.621 421.25 291.621Z" fill="#8DC8D2"/>
<path d="M428.65 186.291H416.67V195.891H428.65V186.291Z" fill="#00969F"/>
<path d="M431.039 181.981V199.151H414.289V181.981H431.039ZM428.659 195.891V186.291H416.679V195.891H428.659Z" fill="#8DC8D2"/>
<path d="M480.33 158.821L472.7 173.261H372.7L365.1 158.871L380.09 166.041H465.23L480.33 158.821Z" fill="#8DC8D2"/>
<path d="M385.79 199.151L385.3 206.551H365V199.151H385.79Z" fill="#8DC8D2"/>
<path d="M480.33 199.151V206.551H460.02L459.54 199.151H480.33Z" fill="#8DC8D2"/>
<path d="M453.539 199.151L453.049 206.551H392.269L391.789 199.151H414.289H431.039H453.539Z" fill="#8DC8D2"/>
<path d="M462.79 248.821L465.23 286.191H447.84L450.28 248.821H462.79Z" fill="#8DC8D2"/>
<path d="M395.04 248.821L397.49 286.191H380.09L382.54 248.821H395.04Z" fill="#8DC8D2"/>
<path d="M472.699 173.261V181.981H458.409H454.659H431.039H414.289H390.669H386.909H372.619V173.261H372.699H472.699Z" fill="#8DC8D2"/>
<path d="M391.791 199.151L392.271 206.551H385.301L385.791 199.151H391.791Z" fill="#8DC8D2"/>
<path d="M459.54 199.151L460.02 206.551H453.05L453.54 199.151H459.54Z" fill="#8DC8D2"/>
<path d="M458.41 181.981L459.54 199.151H453.54L454.66 181.981H458.41Z" fill="#8DC8D2"/>
<path d="M460.02 206.551L462.79 248.821H450.28L453.05 206.551H460.02Z" fill="#8DC8D2"/>
<path d="M390.669 181.981L391.789 199.151H385.789L386.909 181.981H390.669Z" fill="#8DC8D2"/>
<path d="M392.269 206.551L395.039 248.821H382.539L385.299 206.551H392.269Z" fill="#8DC8D2"/>
<path opacity="0.15" d="M431.039 189.381V199.151H414.289V189.061C414.889 189.951 415.669 190.841 416.669 191.591C418.149 192.691 420.119 193.461 422.709 193.461C425.299 193.461 427.159 192.731 428.649 191.701C429.619 191.021 430.409 190.211 431.029 189.381H431.039Z" fill="#1B1B2E"/>
<path opacity="0.1" d="M472.699 173.261H372.619V174.821H472.699V173.261Z" fill="#1B1B2E"/>
<path opacity="0.1" d="M480.33 202.851H365V206.551H480.33V202.851Z" fill="#1B1B2E"/>
<path opacity="0.1" d="M472.699 178.281H372.619V181.981H472.699V178.281Z" fill="#1B1B2E"/>
<path d="M375.39 199.151H371.43V206.551H375.39V199.151Z" fill="#8DC8D2"/>
<path d="M473.89 199.151H469.93V206.551H473.89V199.151Z" fill="#8DC8D2"/>
<g opacity="0.15">
<path d="M397.49 286.191H380.09L382.54 248.811L385.31 206.541H387.74C387.55 219.241 387.86 234.941 389.75 248.811C391.11 258.841 393.3 267.911 396.72 274.191L397.51 286.191H397.49Z" fill="#1B1B2E"/>
<path d="M388.789 181.981C388.789 181.981 388.229 188.911 387.899 199.151H385.789L386.909 181.981H388.789Z" fill="#1B1B2E"/>
</g>
<g opacity="0.15">
<path d="M447.89 286.191H465.29L462.84 248.811L460.07 206.541H457.64C457.83 219.241 457.52 234.941 455.63 248.811C454.27 258.841 452.08 267.911 448.66 274.191L447.87 286.191H447.89Z" fill="#1B1B2E"/>
<path d="M456.59 181.981C456.59 181.981 457.15 188.911 457.48 199.151H459.59L458.47 181.981H456.59Z" fill="#8DC8D2"/>
</g>
<path opacity="0.3" d="M480.329 158.821L472.699 173.261H372.699L365.109 158.871L378.389 170.011H467.059L480.329 158.821Z" fill="#1B1B2E"/>
<path d="M370.3 254.52L370.34 254.57V257.17H370.25L370.17 261.84H370.34V266.8H370.08L370 271.46H370.34V276.43H369.91L369.83 281.09H370.34V286.05H369.74L369.66 290.24H370.34V295.2H369.57L369.5 299.39H370.34V304.35H369.41L369.34 308.53H370.34V313.5H369.25L369.17 317.68H370.34V322.64H369.09L368.3 366.7H49.5801V258.58H83.7401V300.07H92.5401V276.59H135.99V313.78H141.74V166.96H179.5V250.44H198.86V280.26H204.72V261.51H239.05V317.45H249.09V271.98H280.48V237.43H301.83V217.76H326.52V305.02H334.83V209.07L339.75 215.37L342.32 218.67L345.96 223.33L349.83 228.29L353.47 232.96L357.34 237.92L360.98 242.58L364.86 247.55L368.49 252.21L370.3 254.52Z" fill="#ECF7F4"/>
<path d="M59.5495 263.799H53.7695V271.729H59.5495V263.799Z" fill="white"/>
<path d="M69.5595 263.799H63.7795V271.729H69.5595V263.799Z" fill="white"/>
<path d="M79.5788 263.8H73.7988V271.73H79.5788V263.8Z" fill="white"/>
<path d="M59.5495 275.729H53.7695V283.659H59.5495V275.729Z" fill="white"/>
<path d="M69.5595 275.729H63.7795V283.659H69.5595V275.729Z" fill="white"/>
<path d="M79.5788 275.73H73.7988V283.66H79.5788V275.73Z" fill="white"/>
<path d="M59.5495 287.67H53.7695V295.6H59.5495V287.67Z" fill="white"/>
<path d="M69.5595 287.67H63.7795V295.6H69.5595V287.67Z" fill="white"/>
<path d="M79.5788 287.67H73.7988V295.6H79.5788V287.67Z" fill="white"/>
<path d="M59.5495 299.609H53.7695V307.54H59.5495V299.609Z" fill="white"/>
<path d="M69.5595 299.609H63.7795V307.54H69.5595V299.609Z" fill="white"/>
<path d="M79.5788 299.61H73.7988V307.54H79.5788V299.61Z" fill="white"/>
<path d="M259.69 277.639H253.91V284.259H259.69V277.639Z" fill="white"/>
<path d="M269.71 277.64H263.93V284.26H269.71V277.64Z" fill="white"/>
<path d="M279.729 277.639H273.949V284.259H279.729V277.639Z" fill="white"/>
<path d="M259.69 287.599H253.91V294.219H259.69V287.599Z" fill="white"/>
<path d="M269.71 287.599H263.93V294.219H269.71V287.599Z" fill="white"/>
<path d="M279.729 287.599H273.949V294.219H279.729V287.599Z" fill="white"/>
<path d="M259.69 297.559H253.91V304.179H259.69V297.559Z" fill="white"/>
<path d="M269.71 297.559H263.93V304.179H269.71V297.559Z" fill="white"/>
<path d="M279.729 297.559H273.949V304.179H279.729V297.559Z" fill="white"/>
<path d="M259.69 307.519H253.91V314.139H259.69V307.519Z" fill="white"/>
<path d="M269.71 307.52H263.93V314.14H269.71V307.52Z" fill="white"/>
<path d="M279.729 307.519H273.949V314.139H279.729V307.519Z" fill="white"/>
<path d="M259.69 317.719H253.91V324.339H259.69V317.719Z" fill="white"/>
<path d="M269.71 317.719H263.93V324.339H269.71V317.719Z" fill="white"/>
<path d="M279.729 317.719H273.949V324.339H279.729V317.719Z" fill="white"/>
<path d="M259.69 327.929H253.91V334.549H259.69V327.929Z" fill="white"/>
<path d="M269.71 327.929H263.93V334.549H269.71V327.929Z" fill="white"/>
<path d="M279.729 327.929H273.949V334.549H279.729V327.929Z" fill="white"/>
<path d="M259.69 338.13H253.91V344.75H259.69V338.13Z" fill="white"/>
<path d="M269.71 338.13H263.93V344.75H269.71V338.13Z" fill="white"/>
<path d="M279.729 338.13H273.949V344.75H279.729V338.13Z" fill="white"/>
<path d="M259.69 348.34H253.91V354.96H259.69V348.34Z" fill="white"/>
<path d="M269.71 348.339H263.93V354.959H269.71V348.339Z" fill="white"/>
<path d="M279.729 348.34H273.949V354.96H279.729V348.34Z" fill="white"/>
<path d="M130.749 281.67H97.4688V286.63H130.749V281.67Z" fill="white"/>
<path d="M130.749 291.3H97.4688V296.26H130.749V291.3Z" fill="white"/>
<path d="M130.749 300.92H97.4688V305.88H130.749V300.92Z" fill="white"/>
<path d="M130.749 310.55H97.4688V315.51H130.749V310.55Z" fill="white"/>
<path d="M130.749 320.179H97.4688V325.139H130.749V320.179Z" fill="white"/>
<path d="M130.749 329.8H97.4688V334.76H130.749V329.8Z" fill="white"/>
<path d="M130.749 339.429H97.4688V344.389H130.749V339.429Z" fill="white"/>
<path d="M130.749 349.059H97.4688V354.019H130.749V349.059Z" fill="white"/>
<path d="M370.35 213.699H339.75V218.659H370.35V213.699Z" fill="white"/>
<path d="M370.35 223.329H339.75V228.289H370.35V223.329Z" fill="white"/>
<path d="M370.35 232.96H339.75V237.92H370.35V232.96Z" fill="white"/>
<path d="M370.35 242.579H339.75V247.539H370.35V242.579Z" fill="white"/>
<path d="M370.34 252.21H339.75V257.17H370.34V252.21Z" fill="white"/>
<path d="M370.34 261.84H339.75V266.8H370.34V261.84Z" fill="white"/>
<path d="M370.34 271.46H339.75V276.43H370.34V271.46Z" fill="white"/>
<path d="M370.34 281.09H339.75V286.05H370.34V281.09Z" fill="white"/>
<path d="M370.34 290.24H339.75V295.2H370.34V290.24Z" fill="white"/>
<path d="M370.34 299.389H339.75V304.349H370.34V299.389Z" fill="white"/>
<path d="M370.34 308.53H339.75V313.5H370.34V308.53Z" fill="white"/>
<path d="M370.34 317.679H339.75V322.639H370.34V317.679Z" fill="white"/>
<path d="M225.04 265.999H214.76V270.789H225.04V265.999Z" fill="white"/>
<path d="M225.04 275.299H214.76V280.089H225.04V275.299Z" fill="white"/>
<path d="M225.04 284.599H214.76V289.389H225.04V284.599Z" fill="white"/>
<path d="M225.04 293.889H214.76V298.679H225.04V293.889Z" fill="white"/>
<path d="M225.04 303.189H214.76V307.979H225.04V303.189Z" fill="white"/>
<path d="M225.04 312.489H214.76V317.279H225.04V312.489Z" fill="white"/>
<path d="M225.04 321.779H214.76V326.569H225.04V321.779Z" fill="white"/>
<path d="M225.04 331.079H214.76V335.869H225.04V331.079Z" fill="white"/>
<path d="M239.03 265.999H228.75V270.789H239.03V265.999Z" fill="white"/>
<path d="M239.03 275.299H228.75V280.089H239.03V275.299Z" fill="white"/>
<path d="M239.03 284.599H228.75V289.389H239.03V284.599Z" fill="white"/>
<path d="M239.03 293.889H228.75V298.679H239.03V293.889Z" fill="white"/>
<path d="M239.03 303.189H228.75V307.979H239.03V303.189Z" fill="white"/>
<path d="M239.03 312.489H228.75V317.279H239.03V312.489Z" fill="white"/>
<path d="M239.03 321.779H228.75V326.569H239.03V321.779Z" fill="white"/>
<path d="M239.03 331.079H228.75V335.869H239.03V331.079Z" fill="white"/>
<path d="M158.169 171.99H147.459V179.549H158.169V171.99Z" fill="white"/>
<path d="M174.14 171.99H163.43V179.549H174.14V171.99Z" fill="white"/>
<path d="M158.169 183.089H147.459V190.649H158.169V183.089Z" fill="white"/>
<path d="M174.14 183.09H163.43V190.65H174.14V183.09Z" fill="white"/>
<path d="M158.169 194.189H147.459V201.749H158.169V194.189Z" fill="white"/>
<path d="M174.14 194.19H163.43V201.75H174.14V194.19Z" fill="white"/>
<path d="M158.169 205.29H147.459V212.85H158.169V205.29Z" fill="white"/>
<path d="M174.14 205.289H163.43V212.849H174.14V205.289Z" fill="white"/>
<path d="M158.169 216.39H147.459V223.95H158.169V216.39Z" fill="white"/>
<path d="M174.14 216.389H163.43V223.949H174.14V216.389Z" fill="white"/>
<path d="M158.169 227.49H147.459V235.049H158.169V227.49Z" fill="white"/>
<path d="M174.14 227.49H163.43V235.049H174.14V227.49Z" fill="white"/>
<path d="M158.169 238.589H147.459V246.149H158.169V238.589Z" fill="white"/>
<path d="M174.14 238.59H163.43V246.15H174.14V238.59Z" fill="white"/>
<path d="M158.169 249.679H147.459V257.239H158.169V249.679Z" fill="white"/>
<path d="M174.14 249.679H163.43V257.239H174.14V249.679Z" fill="white"/>
<path d="M193.919 253.71H183.209V261.27H193.919V253.71Z" fill="white"/>
<path d="M193.919 264.81H183.209V272.37H193.919V264.81Z" fill="white"/>
<path d="M193.919 275.91H183.209V283.47H193.919V275.91Z" fill="white"/>
<path d="M193.919 287.01H183.209V294.57H193.919V287.01Z" fill="white"/>
<path d="M193.919 298.11H183.209V305.67H193.919V298.11Z" fill="white"/>
<path d="M193.919 309.21H183.209V316.77H193.919V309.21Z" fill="white"/>
<path d="M158.169 260.65H147.459V268.21H158.169V260.65Z" fill="white"/>
<path d="M174.14 260.65H163.43V268.21H174.14V260.65Z" fill="white"/>
<path d="M193.919 320.18H183.209V327.74H193.919V320.18Z" fill="white"/>
<path d="M158.169 271.62H147.459V279.18H158.169V271.62Z" fill="white"/>
<path d="M174.14 271.62H163.43V279.18H174.14V271.62Z" fill="white"/>
<path d="M193.919 331.15H183.209V338.71H193.919V331.15Z" fill="white"/>
<path d="M158.169 282.59H147.459V290.15H158.169V282.59Z" fill="white"/>
<path d="M174.14 282.59H163.43V290.15H174.14V282.59Z" fill="white"/>
<path d="M193.919 342.11H183.209V349.67H193.919V342.11Z" fill="white"/>
<path d="M158.169 293.56H147.459V301.12H158.169V293.56Z" fill="white"/>
<path d="M174.14 293.56H163.43V301.12H174.14V293.56Z" fill="white"/>
<path d="M158.169 304.52H147.459V312.08H158.169V304.52Z" fill="white"/>
<path d="M174.14 304.52H163.43V312.08H174.14V304.52Z" fill="white"/>
<path d="M290.62 242.3H284.84V248.92H290.62V242.3Z" fill="white"/>
<path d="M300.64 242.3H294.859V248.92H300.64V242.3Z" fill="white"/>
<path d="M290.62 252.249H284.84V258.869H290.62V252.249Z" fill="white"/>
<path d="M300.64 252.25H294.859V258.87H300.64V252.25Z" fill="white"/>
<path d="M290.62 262.21H284.84V268.83H290.62V262.21Z" fill="white"/>
<path d="M300.64 262.209H294.859V268.829H300.64V262.209Z" fill="white"/>
<path d="M290.62 272.17H284.84V278.79H290.62V272.17Z" fill="white"/>
<path d="M300.64 272.17H294.859V278.79H300.64V272.17Z" fill="white"/>
<path d="M290.62 282.38H284.84V289H290.62V282.38Z" fill="white"/>
<path d="M300.64 282.38H294.859V289H300.64V282.38Z" fill="white"/>
<path d="M290.62 292.579H284.84V299.199H290.62V292.579Z" fill="white"/>
<path d="M300.64 292.579H294.859V299.199H300.64V292.579Z" fill="white"/>
<path d="M290.62 302.789H284.84V309.409H290.62V302.789Z" fill="white"/>
<path d="M300.64 302.79H294.859V309.41H300.64V302.79Z" fill="white"/>
<path d="M290.62 312.99H284.84V319.609H290.62V312.99Z" fill="white"/>
<path d="M300.64 312.99H294.859V319.609H300.64V312.99Z" fill="white"/>
<path d="M290.62 323.3H284.84V329.92H290.62V323.3Z" fill="white"/>
<path d="M300.64 323.299H294.859V329.919H300.64V323.299Z" fill="white"/>
<path d="M290.62 333.619H284.84V340.239H290.62V333.619Z" fill="white"/>
<path d="M300.64 333.62H294.859V340.24H300.64V333.62Z" fill="white"/>
<path d="M290.62 343.929H284.84V350.549H290.62V343.929Z" fill="white"/>
<path d="M300.64 343.929H294.859V350.549H300.64V343.929Z" fill="white"/>
<path d="M312.05 242.3H306.27V248.92H312.05V242.3Z" fill="white"/>
<path d="M322.069 242.3H316.289V248.92H322.069V242.3Z" fill="white"/>
<path d="M312.05 232.089H306.27V238.709H312.05V232.089Z" fill="white"/>
<path d="M322.069 232.09H316.289V238.71H322.069V232.09Z" fill="white"/>
<path d="M312.05 221.88H306.27V228.5H312.05V221.88Z" fill="white"/>
<path d="M322.069 221.88H316.289V228.5H322.069V221.88Z" fill="white"/>
<path d="M312.05 252.25H306.27V258.87H312.05V252.25Z" fill="white"/>
<path d="M322.069 252.249H316.289V258.869H322.069V252.249Z" fill="white"/>
<path d="M312.05 262.209H306.27V268.829H312.05V262.209Z" fill="white"/>
<path d="M322.069 262.21H316.289V268.83H322.069V262.21Z" fill="white"/>
<path d="M312.05 272.17H306.27V278.79H312.05V272.17Z" fill="white"/>
<path d="M322.069 272.17H316.289V278.79H322.069V272.17Z" fill="white"/>
<path d="M312.05 282.38H306.27V289H312.05V282.38Z" fill="white"/>
<path d="M322.069 282.38H316.289V289H322.069V282.38Z" fill="white"/>
<path d="M312.05 292.579H306.27V299.199H312.05V292.579Z" fill="white"/>
<path d="M322.069 292.579H316.289V299.199H322.069V292.579Z" fill="white"/>
<path d="M312.05 302.79H306.27V309.41H312.05V302.79Z" fill="white"/>
<path d="M322.069 302.789H316.289V309.409H322.069V302.789Z" fill="white"/>
<path d="M312.05 312.99H306.27V319.609H312.05V312.99Z" fill="white"/>
<path d="M322.069 312.99H316.289V319.609H322.069V312.99Z" fill="white"/>
<path d="M312.05 323.299H306.27V329.919H312.05V323.299Z" fill="white"/>
<path d="M322.069 323.3H316.289V329.92H322.069V323.3Z" fill="white"/>
<path d="M312.05 333.62H306.27V340.24H312.05V333.62Z" fill="white"/>
<path d="M322.069 333.619H316.289V340.239H322.069V333.619Z" fill="white"/>
<path d="M312.05 343.929H306.27V350.549H312.05V343.929Z" fill="white"/>
<path d="M322.069 343.929H316.289V350.549H322.069V343.929Z" fill="white"/>
<path d="M250.5 471.62C358.052 471.62 445.24 463.324 445.24 453.09C445.24 442.856 358.052 434.56 250.5 434.56C142.948 434.56 55.76 442.856 55.76 453.09C55.76 463.324 142.948 471.62 250.5 471.62Z" fill="#00565B"/>
<path d="M88.9196 362C88.9196 362 88.0796 358.07 86.3996 357.47C84.7196 356.86 83.6996 358.63 83.6996 358.63C83.6996 358.63 83.2996 354.88 80.9196 353.75C78.5396 352.63 76.7496 354.93 76.7496 354.93C76.7496 354.93 74.9196 350.17 71.6496 350.17C68.3796 350.17 66.7296 357.14 66.7296 357.14C66.7296 357.14 64.7996 355.06 62.8296 356.24C60.8496 357.41 60.8496 362.01 60.8496 362.01H88.9196V362Z" fill="#00565B"/>
<path d="M367.76 362C367.76 362 366.92 358.07 365.24 357.47C363.56 356.86 362.54 358.63 362.54 358.63C362.54 358.63 362.14 354.88 359.76 353.75C357.38 352.63 355.59 354.93 355.59 354.93C355.59 354.93 353.76 350.17 350.49 350.17C347.22 350.17 345.57 357.14 345.57 357.14C345.57 357.14 343.64 355.06 341.67 356.24C339.69 357.41 339.69 362.01 339.69 362.01H367.76V362Z" fill="#1B1B2E"/>
<path d="M163.2 362H133.65C133.65 362 134.62 357.83 136.58 357.54C138.54 357.24 139.45 359.18 139.45 359.18C139.45 359.18 139.36 353.37 143.02 352.38C146.68 351.39 149.75 356.52 149.75 356.52C149.75 356.52 152.04 353.59 155.17 353.78C158.3 353.97 159.09 358.8 159.09 358.8C159.09 358.8 161.94 357.12 163.19 362H163.2Z" fill="#00565B"/>
<path d="M62.6596 362H47.0996C47.0996 362 47.1396 359.68 48.6696 359.07C50.1996 358.46 51.1096 359.65 51.1096 359.65C51.1096 359.65 51.7296 355.39 54.5796 355.39C57.4296 355.39 58.7896 359.06 58.7896 359.06C58.7896 359.06 59.4296 357.95 61.0096 358.16C62.5896 358.37 62.6496 361.99 62.6496 361.99L62.6596 362Z" fill="#1B1B2E"/>
<path d="M175.4 362H159.85C159.85 362 159.89 359.68 161.41 359.07C162.94 358.46 163.85 359.65 163.85 359.65C163.85 359.65 164.47 355.39 167.32 355.39C170.17 355.39 171.53 359.06 171.53 359.06C171.53 359.06 172.17 357.95 173.75 358.16C175.33 358.37 175.39 361.99 175.39 361.99L175.4 362Z" fill="#1B1B2E"/>
<path d="M431.199 362H415.639C415.639 362 415.679 359.68 417.209 359.07C418.739 358.46 419.649 359.65 419.649 359.65C419.649 359.65 420.269 355.39 423.119 355.39C425.969 355.39 427.329 359.06 427.329 359.06C427.329 359.06 427.969 357.95 429.549 358.16C431.129 358.37 431.189 361.99 431.189 361.99L431.199 362Z" fill="#1B1B2E"/>
<path d="M453.89 362H428.25C428.25 362 428.31 358.18 430.83 357.17C433.35 356.16 434.85 358.13 434.85 358.13C434.85 358.13 435.88 351.11 440.58 351.11C445.28 351.11 447.53 357.16 447.53 357.16C447.53 357.16 448.58 355.33 451.19 355.67C453.8 356.01 453.9 361.99 453.9 361.99L453.89 362Z" fill="#00565B"/>
<path d="M459.129 362H41.8594V369.27H459.129V362Z" fill="#ECF7F4"/>
<path d="M71.1194 362C71.5094 363.21 71.5994 364.42 71.6194 365.63C71.6094 366.84 71.5194 368.05 71.1194 369.26C70.7294 368.05 70.6394 366.84 70.6194 365.63C70.6394 364.42 70.7194 363.21 71.1194 362Z" fill="#1B1B2E"/>
<path d="M103.729 362C104.119 363.21 104.209 364.42 104.229 365.63C104.219 366.84 104.129 368.05 103.729 369.26C103.339 368.05 103.249 366.84 103.229 365.63C103.249 364.42 103.329 363.21 103.729 362Z" fill="#1B1B2E"/>
<path d="M136.35 362C136.74 363.21 136.83 364.42 136.85 365.63C136.84 366.84 136.75 368.05 136.35 369.26C135.96 368.05 135.87 366.84 135.85 365.63C135.87 364.42 135.95 363.21 136.35 362Z" fill="#1B1B2E"/>
<path d="M168.959 362C169.349 363.21 169.439 364.42 169.459 365.63C169.449 366.84 169.359 368.05 168.959 369.26C168.569 368.05 168.479 366.84 168.459 365.63C168.479 364.42 168.559 363.21 168.959 362Z" fill="#1B1B2E"/>
<path d="M201.58 362C201.97 363.21 202.06 364.42 202.08 365.63C202.07 366.84 201.98 368.05 201.58 369.26C201.19 368.05 201.1 366.84 201.08 365.63C201.1 364.42 201.18 363.21 201.58 362Z" fill="#1B1B2E"/>
<path d="M234.19 362C234.58 363.21 234.67 364.42 234.69 365.63C234.68 366.84 234.59 368.05 234.19 369.26C233.8 368.05 233.71 366.84 233.69 365.63C233.71 364.42 233.79 363.21 234.19 362Z" fill="#1B1B2E"/>
<path d="M266.809 362C267.199 363.21 267.289 364.42 267.309 365.63C267.299 366.84 267.209 368.05 266.809 369.26C266.419 368.05 266.329 366.84 266.309 365.63C266.329 364.42 266.409 363.21 266.809 362Z" fill="#1B1B2E"/>
<path d="M299.42 362C299.81 363.21 299.9 364.42 299.92 365.63C299.91 366.84 299.82 368.05 299.42 369.26C299.03 368.05 298.94 366.84 298.92 365.63C298.94 364.42 299.02 363.21 299.42 362Z" fill="#1B1B2E"/>
<path d="M332.039 362C332.429 363.21 332.519 364.42 332.539 365.63C332.529 366.84 332.439 368.05 332.039 369.26C331.649 368.05 331.559 366.84 331.539 365.63C331.559 364.42 331.639 363.21 332.039 362Z" fill="#1B1B2E"/>
<path d="M364.649 362C365.039 363.21 365.129 364.42 365.149 365.63C365.139 366.84 365.049 368.05 364.649 369.26C364.259 368.05 364.169 366.84 364.149 365.63C364.169 364.42 364.249 363.21 364.649 362Z" fill="#1B1B2E"/>
<path d="M397.27 362C397.66 363.21 397.75 364.42 397.77 365.63C397.76 366.84 397.67 368.05 397.27 369.26C396.88 368.05 396.79 366.84 396.77 365.63C396.79 364.42 396.87 363.21 397.27 362Z" fill="#1B1B2E"/>
<path d="M429.879 362C430.269 363.21 430.359 364.42 430.379 365.63C430.369 366.84 430.279 368.05 429.879 369.26C429.489 368.05 429.399 366.84 429.379 365.63C429.399 364.42 429.479 363.21 429.879 362Z" fill="#1B1B2E"/>
<path d="M44.9492 369.27L96.3392 369.03L147.729 368.94L250.499 368.77L353.269 368.94L404.659 369.02L456.049 369.27L404.659 369.51L353.269 369.6L250.499 369.77L147.729 369.6L96.3392 369.51L44.9492 369.27Z" fill="#1B1B2E"/>
<path d="M362.82 81.7698H138.19C132.552 81.7698 127.98 86.341 127.98 91.9798V438.02C127.98 443.659 132.552 448.23 138.19 448.23H362.82C368.459 448.23 373.03 443.659 373.03 438.02V91.9798C373.03 86.341 368.459 81.7698 362.82 81.7698Z" fill="#1B1B2E"/>
<path d="M277.109 97.53V96.22C277.109 95.5296 276.55 94.97 275.859 94.97H224.999C224.309 94.97 223.749 95.5296 223.749 96.22V97.53C223.749 98.2203 224.309 98.78 224.999 98.78H275.859C276.55 98.78 277.109 98.2203 277.109 97.53Z" fill="white"/>
<path d="M250.42 442.78C246.61 442.78 243.52 439.69 243.52 435.88C243.52 432.07 246.61 428.98 250.42 428.98C254.23 428.98 257.32 432.07 257.32 435.88C257.32 439.69 254.23 442.78 250.42 442.78Z" fill="white"/>
<path d="M362.681 107.64H138.451V423.06H362.681V107.64Z" fill="#FAFAFB"/>
<path d="M328.872 107.65H241.852V113.14H328.872V107.65Z" fill="#8DC8D2"/>
<path d="M230.921 154.25V208.09H169.801V222.81H138.451V226.55H169.801V282.19L181.061 307.92H142.161V423.07H149.641V397.54H180.841V393.81H149.641V315.4H184.321L193.131 335.53C183.711 339.64 177.101 349.05 177.101 359.97C177.101 373.94 187.901 385.42 201.591 386.51H201.611L219.901 416.4L213.231 423.07H223.811L223.921 422.96L223.991 423.07H232.761L209.981 385.88C221.671 383.06 230.401 372.52 230.401 359.97C230.401 356.64 229.791 353.45 228.661 350.51L280.891 325.67H332.561V388.83L298.331 423.07H303.621L332.561 394.12V423.07H340.041V325.67H362.681V318.19H304.071L260.261 270.57H362.681V266.83H256.821L209.671 215.57H285.921L311.681 188.25L362.681 239.25V228.68L316.821 182.82L340.751 157.44V107.65H333.271V154.47L282.691 208.09H263.241V171.06H270.971V167.32H259.501V208.09H238.401V107.65H230.921V146.77H138.451V154.25H230.921ZM203.751 340.8C214.321 340.8 222.921 349.4 222.921 359.97C222.921 370.54 214.321 379.14 203.751 379.14C193.181 379.14 184.581 370.54 184.581 359.97C184.581 349.4 193.181 340.8 203.751 340.8ZM177.281 280.61V215.57H199.501L293.901 318.19H279.201L225.041 343.95C220.161 337.5 212.441 333.32 203.751 333.32C202.631 333.32 201.511 333.4 200.421 333.53L177.281 280.61Z" fill="#00969F"/>
<path d="M194.561 221.24H183.691V232.109H194.561V221.24Z" fill="#8DC8D2"/>
<path d="M296.692 262.94V241.94H289.052V233.17H275.602V262.94H296.692Z" fill="#8DC8D2"/>
<path d="M241.852 116.57V128.79H248.002V141.65H259.392V116.57H241.852Z" fill="#8DC8D2"/>
<path d="M328.862 116.57H315.482V134.89H328.862V116.57Z" fill="#8DC8D2"/>
<path d="M266.191 204.91V189.3H295.451L279.641 205.11L266.191 204.91Z" fill="#8DC8D2"/>
<path d="M256.552 190.41H241.852V205.11H256.552V190.41Z" fill="#8DC8D2"/>
<path d="M150.262 194.44H138.512V218.88H150.262V194.44Z" fill="#8DC8D2"/>
<path d="M166.712 207.63H153.432V218.88H166.712V207.63Z" fill="#8DC8D2"/>
<path d="M227.411 157.179H209.701V173.459H227.411V157.179Z" fill="#8DC8D2"/>
<path d="M227.411 176.659V205.109H205.751L191.951 191.299V176.659H227.411Z" fill="#8DC8D2"/>
<path d="M188.041 194.44L198.911 205.32H169.881V194.44H188.041Z" fill="#8DC8D2"/>
<path d="M181.202 318.78H153.432V331.87H186.482L181.202 318.78Z" fill="#8DC8D2"/>
<path d="M165.352 338.3H153.432V356.33H165.352V338.3Z" fill="#8DC8D2"/>
<path d="M181.402 388.66V382.36C176.132 376.41 172.602 368.94 171.542 360.68H153.422V388.66H181.402Z" fill="#8DC8D2"/>
<path d="M246.422 328.01L235.042 303.43H221.182L197.512 314.41L203.692 327.92H203.742C212.492 327.92 220.442 331.42 226.222 337.11L246.412 328.01H246.422Z" fill="#8DC8D2"/>
<path d="M292.172 297.4L307.192 313.72H336.702V297.4H292.172Z" fill="#8DC8D2"/>
<path d="M359.271 297.4H340.611V313.73H359.271V297.4Z" fill="#8DC8D2"/>
<path d="M178.252 413.84V423.07H205.592L213.192 415.04L197.672 389.69L189.322 396.7V413.84H178.252Z" fill="#8DC8D2"/>
<path d="M265.902 386.23L243.452 362.82L234.842 369.55C232.292 377.86 226.482 384.76 218.912 388.73L237.692 419.41L265.902 386.22V386.23Z" fill="#8DC8D2"/>
<path d="M241.441 352.49L280.891 332.99H300.561V367.29L269.891 382.43L241.441 352.49Z" fill="#8DC8D2"/>
<path d="M328.381 404.82V421.77H311.441L328.381 404.82Z" fill="#8DC8D2"/>
<path d="M183.691 236.65V279.76L195.721 309.18L217.671 298.31H268.851L211.451 236.65H183.691Z" fill="#ECF7F4"/>
<path d="M308.541 175H266.191V185.61H298.531L308.541 175Z" fill="#8DC8D2"/>
<path d="M166.712 230.89H138.512V261.95H166.712V230.89Z" fill="#8DC8D2"/>
<path d="M166.712 266.94H153.432V280.22H166.712V266.94Z" fill="#8DC8D2"/>
<path d="M166.701 284.25H146.021V304.38H175.391L166.701 284.25Z" fill="#8DC8D2"/>
<path d="M150.262 266.94H138.512V270.95H150.262V266.94Z" fill="#8DC8D2"/>
<path d="M150.262 273.58H138.512V280.22H150.262V273.58Z" fill="#8DC8D2"/>
<path d="M327.642 332.99H306.012V355.42H327.642V332.99Z" fill="#8DC8D2"/>
<path d="M327.642 358.92H306.012V366.79H327.642V358.92Z" fill="#8DC8D2"/>
<path d="M242.902 423.07H292.552L301.292 414.33L270.232 389.69L242.902 423.07Z" fill="#8DC8D2"/>
<path d="M304.012 410.62L316.822 398.33L301.292 384.8V372.63L273.902 386.58L304.012 410.62Z" fill="#ECF7F4"/>
<path d="M327.642 386.86L319.912 394.11L306.012 382.43V370.26H327.642V386.86Z" fill="#8DC8D2"/>
<path d="M172.702 401.82H153.432V423.07H172.702V401.82Z" fill="#8DC8D2"/>
<path d="M184.852 403.58H178.252V410.18H184.852V403.58Z" fill="#8DC8D2"/>
<path d="M362.681 333.09H345.631V360.78H362.681V333.09Z" fill="#8DC8D2"/>
<path d="M345.631 366.89V386.09L362.681 396.5V366.89H345.631Z" fill="#8DC8D2"/>
<path d="M345.531 392.6V411.94H362.681V402.25L345.531 392.6Z" fill="#8DC8D2"/>
<path d="M352.921 415.04H345.531V423.07H352.921V415.04Z" fill="#8DC8D2"/>
<path d="M362.682 415.04H356.652V423.07H362.682V415.04Z" fill="#8DC8D2"/>
<path d="M362.681 107.65H346.361V139.89H362.681V107.65Z" fill="#8DC8D2"/>
<path d="M184.402 117.4V142.28H226.272V107.65H195.012L184.402 117.4Z" fill="#8DC8D2"/>
<path d="M180.851 128.92H156.191V142.27H180.851V128.92Z" fill="#8DC8D2"/>
<path d="M180.851 118.02H156.191V125.48H180.851V118.02Z" fill="#8DC8D2"/>
<path d="M147.942 118.429H153.052V142.279H141.652V125.069L147.942 118.429Z" fill="#8DC8D2"/>
<path d="M141.652 107.65V115.02H183.152L191.012 107.65H141.652Z" fill="#8DC8D2"/>
<path d="M271.272 275.09L289.052 293.77H306.012V275.09H271.272Z" fill="#8DC8D2"/>
<path d="M329.711 285.179H309.541V293.769H329.711V285.179Z" fill="#8DC8D2"/>
<path d="M318.621 275.09H309.541V282.89H318.621V275.09Z" fill="#8DC8D2"/>
<path d="M329.711 275.09H320.881V282.89H329.711V275.09Z" fill="#8DC8D2"/>
<path d="M344.902 275.09H332.162V293.76H344.902V275.09Z" fill="#8DC8D2"/>
<path d="M359.102 293.77H348.072V281L353.352 275.09H359.102V293.77Z" fill="#8DC8D2"/>
<path d="M240.361 303.429H268.851V317.059L250.641 325.329L240.361 303.429Z" fill="#8DC8D2"/>
<path d="M204.827 372.805C211.866 372.215 217.094 366.031 216.504 358.992C215.914 351.953 209.73 346.725 202.691 347.315C195.652 347.904 190.423 354.089 191.013 361.128C191.603 368.167 197.788 373.395 204.827 372.805Z" fill="#ECF7F4"/>
<path d="M159.392 157.18H138.512V192.07H150.262L159.392 180.14V157.18Z" fill="#8DC8D2"/>
<path d="M166.702 184.28H159.392L153.432 192.07V204.36H166.702V184.28Z" fill="#8DC8D2"/>
<path d="M174.671 157.179H163.051V167.009H174.671V157.179Z" fill="#8DC8D2"/>
<path d="M187.723 190.89V157.19H177.283V184.28H169.893V190.89H187.723Z" fill="#8DC8D2"/>
<path d="M206.731 157.179H191.951V172.559H206.731V157.179Z" fill="#8DC8D2"/>
<path d="M174.671 168.89H163.041V181.32H174.671V168.89Z" fill="#8DC8D2"/>
<path d="M325.422 209.81V262.94H361.122V244.88L325.422 209.81Z" fill="#8DC8D2"/>
<path d="M321.841 241.94H299.871V262.94H321.841V241.94Z" fill="#8DC8D2"/>
<path d="M219.672 219.32L242.592 244.25H271.342V219.32H219.672Z" fill="#8DC8D2"/>
<path d="M245.852 247.13L260.392 262.94H271.272V247.13H245.852Z" fill="#8DC8D2"/>
<path d="M289.052 219.32H275.602V229.74H289.052V219.32Z" fill="#8DC8D2"/>
<path d="M321.841 229.3V205.88L311.211 194.44L292.691 214.31V237.03H314.651V229.3H321.841Z" fill="#ECF7F4"/>
<path d="M340.781 162.78L321.951 183.32L343.321 204.2L355.121 191.47L340.781 162.78Z" fill="#8DC8D2"/>
<path d="M345.742 206.86L362.682 223.7V194.58H357.122L345.742 206.86Z" fill="#8DC8D2"/>
<path d="M343.562 159.3L352.883 179.25H362.682V143.04H346.362V156.3L343.562 159.3Z" fill="#8DC8D2"/>
<path d="M362.682 181.69H357.342V191.74H362.682V181.69Z" fill="#8DC8D2"/>
<path d="M328.861 138.31H295.451V171.62H312.231L328.861 153.35V138.31Z" fill="#8DC8D2"/>
<path d="M291.541 150.5H275.211V171.61H291.541V150.5Z" fill="#ECF7F4"/>
<path d="M312.233 134.89V116.57H275.223V147.85H291.543V134.89H312.233Z" fill="#8DC8D2"/>
<path d="M273.101 116.57H261.371V134.45H273.101V116.57Z" fill="#8DC8D2"/>
<path d="M273.112 143.93H241.852V159.3H273.112V143.93Z" fill="#8DC8D2"/>
<path d="M273.101 136.67H261.371V141.66H273.101V136.67Z" fill="#8DC8D2"/>
<path d="M256.542 187.47H248.002L241.852 181.63V164.64H256.542V187.47Z" fill="#8DC8D2"/>
<path d="M283.729 148.99C278.689 143.2 273.959 136.85 274.659 129.85C275.109 125.31 278.239 120.79 283.729 120.79C289.219 120.79 292.349 125.31 292.799 129.85C293.499 136.86 288.769 143.2 283.729 148.99Z" fill="#FAFAFB"/>
<path d="M283.729 148.99C279.799 144.54 275.739 139.71 274.609 133.7C273.319 127.72 276.989 120.41 283.729 120.54C290.469 120.42 294.139 127.72 292.849 133.7C291.709 139.71 287.659 144.54 283.719 148.99H283.729ZM283.729 148.99C287.489 144.47 291.429 139.57 292.479 133.64C293.609 127.91 290.219 120.9 283.729 121.04C277.249 120.9 273.849 127.91 274.989 133.64C276.029 139.57 279.969 144.47 283.729 148.99Z" fill="#1B1B2E"/>
<path d="M287.15 134.61H279.32L277.4 127.66H288.41L288.81 126.05H290.06V126.5H289.17L287.16 134.61H287.15ZM279.67 134.16H286.8L288.3 128.11H278L279.67 134.16Z" fill="#ECF7F4"/>
<path d="M280.42 135.979L280.01 135.809L280.71 134.139H286.03L286.61 135.819L286.18 135.969L285.71 134.599H281.01L280.42 135.979Z" fill="#ECF7F4"/>
<path d="M288.201 129.23H278.201V129.68H288.201V129.23Z" fill="#ECF7F4"/>
<path d="M287.657 130.905L278.617 130.949L278.619 131.399L287.659 131.355L287.657 130.905Z" fill="#ECF7F4"/>
<path d="M287.28 132.679H279.09V133.129H287.28V132.679Z" fill="#ECF7F4"/>
<path d="M283.52 127.91H283.07V134.38H283.52V127.91Z" fill="#ECF7F4"/>
<path d="M281.743 127.912L281.295 127.948L281.813 134.417L282.262 134.381L281.743 127.912Z" fill="#ECF7F4"/>
<path d="M279.79 127.87L279.348 127.951L280.538 134.422L280.98 134.341L279.79 127.87Z" fill="#ECF7F4"/>
<path d="M284.789 127.879L284.27 134.348L284.718 134.384L285.237 127.915L284.789 127.879Z" fill="#ECF7F4"/>
<path d="M286.767 127.865L285.578 134.337L286.021 134.418L287.21 127.947L286.767 127.865Z" fill="#ECF7F4"/>
<path d="M280.22 136.87C279.68 136.87 279.24 136.43 279.24 135.89C279.24 135.35 279.68 134.91 280.22 134.91C280.76 134.91 281.2 135.35 281.2 135.89C281.2 136.43 280.76 136.87 280.22 136.87ZM280.22 135.37C279.93 135.37 279.7 135.61 279.7 135.89C279.7 136.17 279.94 136.41 280.22 136.41C280.5 136.41 280.74 136.17 280.74 135.89C280.74 135.61 280.5 135.37 280.22 135.37Z" fill="#ECF7F4"/>
<path d="M286.37 136.87C285.83 136.87 285.39 136.43 285.39 135.89C285.39 135.35 285.83 134.91 286.37 134.91C286.91 134.91 287.35 135.35 287.35 135.89C287.35 136.43 286.91 136.87 286.37 136.87ZM286.37 135.37C286.08 135.37 285.85 135.61 285.85 135.89C285.85 136.17 286.09 136.41 286.37 136.41C286.65 136.41 286.89 136.17 286.89 135.89C286.89 135.61 286.65 135.37 286.37 135.37Z" fill="#ECF7F4"/>
<path d="M314.44 205.799C309.4 200.009 304.67 193.669 305.37 186.659C305.82 182.119 308.95 177.599 314.44 177.599C319.93 177.599 323.06 182.119 323.51 186.659C324.21 193.669 319.48 200.009 314.44 205.799Z" fill="#FAFAFB"/>
<path d="M314.44 205.8C310.51 201.35 306.45 196.52 305.32 190.51C304.03 184.53 307.7 177.22 314.44 177.35C321.18 177.23 324.85 184.53 323.56 190.51C322.42 196.52 318.37 201.35 314.43 205.8H314.44ZM314.44 205.8C318.2 201.28 322.14 196.38 323.19 190.45C324.32 184.72 320.93 177.71 314.44 177.85C307.96 177.71 304.56 184.72 305.7 190.45C306.74 196.38 310.68 201.28 314.44 205.8Z" fill="#1B1B2E"/>
<path d="M318.55 183.49V193.28H316.66V189.1H312.22V193.28H310.32V183.49H312.22V187.45H316.66V183.49H318.55Z" fill="#ECF7F4"/>
<path d="M211.86 259.94C206.82 254.15 202.09 247.81 202.79 240.8C203.24 236.26 206.37 231.74 211.86 231.74C217.35 231.74 220.48 236.26 220.93 240.8C221.63 247.81 216.9 254.15 211.86 259.94Z" fill="#FAFAFB"/>
<path d="M211.86 259.94C207.93 255.49 203.87 250.66 202.74 244.65C201.45 238.67 205.12 231.36 211.86 231.49C218.6 231.37 222.27 238.67 220.98 244.65C219.84 250.66 215.79 255.49 211.85 259.94H211.86ZM211.86 259.94C215.62 255.42 219.56 250.52 220.61 244.59C221.74 238.86 218.35 231.85 211.86 231.99C205.38 231.85 201.98 238.86 203.12 244.59C204.16 250.52 208.1 255.42 211.86 259.94Z" fill="#1B1B2E"/>
<path d="M213.06 239.26L214.98 240.66C214.98 240.66 215.19 239.65 215.63 239.76C216.07 239.87 216.32 240.58 216.32 241.64L217.55 242.53C217.61 242.58 217.65 242.65 217.66 242.72L217.75 243.64C217.77 243.84 217.57 243.99 217.38 243.92L212.98 242.25C212.88 244.21 212.72 245.98 212.65 246.62C212.63 246.78 212.71 246.94 212.84 247.03L214.07 247.85C214.19 247.93 214.26 248.06 214.26 248.2C214.26 248.28 214.24 248.35 214.21 248.42C214.14 248.56 213.99 248.66 213.82 248.66L209.87 248.64C209.64 248.64 209.44 248.45 209.44 248.22C209.44 248.05 209.51 247.9 209.65 247.82L210.89 247.05C211.04 246.96 211.11 246.8 211.09 246.63C211.01 245.97 210.81 244.2 210.72 242.25C210.71 242.25 210.69 242.25 210.68 242.26L206.31 243.91C206.12 243.98 205.93 243.83 205.94 243.63L206.02 242.66C206.02 242.58 206.07 242.5 206.14 242.46L207.44 241.56C207.44 241.56 207.37 240.15 207.91 239.81C208.45 239.47 208.79 240.64 208.79 240.64L210.69 239.33C210.76 237.32 211 235.44 211.85 235.24C212.86 235.01 213.02 236.81 213.05 239.24L213.06 239.26Z" fill="#ECF7F4"/>
<path d="M301.29 393.24C296.25 387.45 291.52 381.11 292.22 374.1C292.67 369.56 295.8 365.04 301.29 365.04C306.78 365.04 309.909 369.56 310.359 374.1C311.059 381.11 306.33 387.45 301.29 393.24Z" fill="#FAFAFB"/>
<path d="M301.29 393.24C297.36 388.79 293.3 383.96 292.17 377.95C290.88 371.97 294.55 364.66 301.29 364.79C308.03 364.67 311.7 371.97 310.41 377.95C309.27 383.96 305.22 388.79 301.28 393.24H301.29ZM301.29 393.24C305.05 388.72 308.99 383.82 310.04 377.89C311.17 372.16 307.78 365.15 301.29 365.29C294.81 365.15 291.41 372.16 292.55 377.89C293.59 383.82 297.53 388.72 301.29 393.24Z" fill="#1B1B2E"/>
<path d="M297.66 372.039H304.92L305.81 380.089H296.77L297.66 372.039Z" fill="#ECF7F4"/>
<path d="M299.019 372.379C299.009 372.299 298.779 370.349 299.699 369.309C300.079 368.879 300.589 368.659 301.219 368.659C301.849 368.659 302.359 368.879 302.759 369.309C303.719 370.349 303.599 372.279 303.589 372.359L302.699 372.299C302.729 371.849 302.689 370.539 302.099 369.909C301.649 369.429 300.779 369.419 300.359 369.899C299.819 370.519 299.839 371.819 299.899 372.279L299.019 372.389V372.379Z" fill="#ECF7F4"/>
<path d="M206.729 356.04C201.689 350.25 196.959 343.91 197.659 336.9C198.109 332.36 201.239 327.84 206.729 327.84C212.219 327.84 215.349 332.36 215.799 336.9C216.499 343.91 211.769 350.25 206.729 356.04Z" fill="#FAFAFB"/>
<path d="M206.729 356.04C202.789 351.59 198.749 346.76 197.609 340.75C196.319 334.77 199.989 327.46 206.729 327.59C213.469 327.47 217.139 334.77 215.849 340.75C214.709 346.76 210.659 351.59 206.729 356.04ZM206.729 356.04C210.489 351.52 214.429 346.62 215.479 340.69C216.609 334.96 213.219 327.95 206.729 328.09C200.249 327.95 196.849 334.96 197.989 340.69C199.029 346.62 202.969 351.52 206.729 356.04Z" fill="#1B1B2E"/>
<path d="M211.859 336.83C211.859 338.69 210.949 340.9 208.629 341.68C208.609 341.68 208.589 341.7 208.569 341.7C208.029 341.87 207.419 341.97 206.729 341.97C206.039 341.97 205.429 341.87 204.889 341.7C204.869 341.7 204.849 341.68 204.829 341.68C202.509 340.9 201.599 338.69 201.599 336.83C201.599 334.19 203.949 331.67 206.729 331.67C209.509 331.67 211.859 334.18 211.859 336.83Z" fill="#ECF7F4"/>
<path d="M208.569 341.699C208.039 341.899 207.429 342.009 206.729 342.009C206.029 342.009 205.409 341.899 204.889 341.699C205.429 341.869 206.039 341.969 206.729 341.969C207.419 341.969 208.029 341.869 208.569 341.699Z" fill="#00969F"/>
<path d="M206.519 335.09V346.72C206.519 346.98 206.929 346.98 206.929 346.72V335.09C206.929 334.83 206.519 334.83 206.519 335.09Z" fill="#1B1B2E"/>
<path d="M205.059 339.08C205.489 339.88 205.929 340.67 206.359 341.47C206.419 341.58 206.489 341.7 206.549 341.81C206.679 342.04 207.029 341.83 206.899 341.6C206.469 340.8 206.029 340.01 205.599 339.21C205.539 339.1 205.469 338.98 205.409 338.87C205.279 338.64 204.929 338.85 205.059 339.08Z" fill="#1B1B2E"/>
<path d="M205.559 336.22C205.829 336.71 206.099 337.21 206.369 337.7C206.409 337.77 206.449 337.84 206.489 337.91C206.619 338.14 206.969 337.93 206.839 337.7C206.569 337.21 206.299 336.71 206.029 336.22C205.989 336.15 205.949 336.08 205.909 336.01C205.779 335.78 205.429 335.99 205.559 336.22Z" fill="#1B1B2E"/>
<path d="M208.039 336.9C207.609 337.7 207.169 338.49 206.739 339.29L206.549 339.63C206.419 339.86 206.779 340.07 206.899 339.84C207.329 339.04 207.769 338.25 208.199 337.45C208.259 337.34 208.329 337.219 208.389 337.109C208.519 336.879 208.159 336.67 208.039 336.9Z" fill="#1B1B2E"/>
<path d="M152.081 404.44C152.081 404.44 149.471 440.69 149.471 440.72C149.431 447.82 149.531 454.05 149.881 457.26C149.881 457.28 149.881 457.29 149.881 457.31C150.011 458.52 150.181 459.3 150.391 459.51C150.411 459.53 150.411 459.55 150.431 459.55C152.541 460.99 209.271 462.93 211.271 462.34C213.281 461.75 211.721 455.99 209.581 454.16C207.421 452.33 186.041 441.87 186.041 441.87L188.301 405.63L152.071 404.44H152.081Z" fill="#ECF7F4"/>
<path d="M149.471 433.09C149.471 433.09 149.471 440.69 149.471 440.71C149.431 447.81 149.531 454.04 149.881 457.25C149.881 457.27 149.881 457.28 149.881 457.3C150.081 458.5 150.261 459.29 150.391 459.5C150.411 459.52 150.411 459.54 150.431 459.54C152.541 460.98 209.271 462.92 211.271 462.33C213.281 461.74 211.721 455.98 209.581 454.15C207.421 452.32 186.041 441.86 186.041 441.86L186.141 434.12L149.451 433.08L149.471 433.09Z" fill="white"/>
<path d="M211.282 462.34C209.282 462.94 152.552 461 150.442 459.55C149.632 459.01 149.432 450.73 149.482 440.72C149.482 440.62 149.482 440.51 149.482 440.41L186.092 441.25L186.052 441.87C186.052 441.87 207.432 452.33 209.592 454.16C211.732 455.99 213.282 461.75 211.282 462.34Z" fill="#8DC8D2"/>
<path d="M210.711 460.12C201.161 459.56 162.571 458.19 153.081 458.36C153.001 458.36 153.001 458.41 153.081 458.42C162.541 459.18 201.141 460.24 210.711 460.27C210.911 460.27 210.921 460.13 210.711 460.11V460.12Z" fill="#1B1B2E"/>
<path d="M189.122 442.08C185.382 441.25 180.762 441.67 177.792 444.25C177.672 444.35 177.822 444.51 177.942 444.48C181.692 443.44 185.192 442.8 189.082 442.56C189.352 442.54 189.382 442.14 189.112 442.09L189.122 442.08Z" fill="#1B1B2E"/>
<path d="M191.782 443.81C188.042 442.98 183.422 443.4 180.452 445.98C180.332 446.08 180.482 446.24 180.602 446.21C184.352 445.17 187.852 444.53 191.742 444.29C192.012 444.27 192.042 443.87 191.772 443.82L191.782 443.81Z" fill="#1B1B2E"/>
<path d="M194.44 445.54C190.7 444.71 186.08 445.13 183.11 447.71C182.99 447.81 183.14 447.97 183.26 447.94C187.01 446.9 190.51 446.26 194.4 446.02C194.67 446 194.7 445.6 194.43 445.55L194.44 445.54Z" fill="#1B1B2E"/>
<path d="M147.281 442.28L186.991 441.49C186.991 441.49 191.831 370.03 190.931 346.21C189.951 320.33 178.831 243.33 178.831 243.33H145.291C145.291 243.33 153.861 320.63 154.041 346.52C154.211 370.52 147.271 442.28 147.271 442.28H147.281Z" fill="#00565B"/>
<path d="M172.251 243.33L152.101 313.03C149.721 280.04 145.301 243.33 145.301 243.33H172.251Z" fill="#1B1B2E"/>
<path d="M151.672 247.12L153.802 270.1L155.772 293.1C157.032 308.44 158.232 323.78 159.142 339.15C159.362 342.99 159.502 346.85 159.442 350.71C159.362 354.56 159.202 358.41 159.012 362.26C158.612 369.95 158.122 377.63 157.532 385.3C156.952 392.97 156.332 400.64 155.672 408.31L153.532 431.29L155.252 408.27C155.822 400.6 156.372 392.92 156.872 385.25C157.352 377.57 157.882 369.9 158.232 362.22C158.412 358.38 158.552 354.54 158.622 350.7C158.662 346.87 158.512 343.04 158.282 339.2C157.442 323.84 156.232 308.5 155.112 293.16L151.672 247.12Z" fill="#1B1B2E"/>
<path d="M185.342 434.86C179.142 434.81 180.922 434.73 174.722 434.75C171.692 434.75 151.752 434.83 148.922 435.33C148.862 435.34 148.862 435.45 148.922 435.46C151.762 435.9 171.692 435.48 174.732 435.41C180.932 435.28 179.152 435.25 185.342 435.04C185.462 435.04 185.452 434.86 185.342 434.86Z" fill="#1B1B2E"/>
<path d="M87.5305 384.99C87.5305 384.99 68.3705 416.13 68.3605 416.15C65.2505 422.53 62.6305 428.18 61.5605 431.23C61.5605 431.25 61.5405 431.26 61.5405 431.28C61.1305 432.43 60.9505 433.2 61.0505 433.48C61.0505 433.5 61.0505 433.52 61.0705 433.54C62.3405 435.75 112.62 462.1 114.68 462.43C116.75 462.77 117.84 456.91 116.71 454.33C115.56 451.74 100.83 433.05 100.83 433.05L119.66 401.78L87.5305 385V384.99Z" fill="#ECF7F4"/>
<path d="M61.0605 433.49C61.0605 433.49 61.0605 433.53 61.0605 433.55C62.3405 435.76 112.61 462.11 114.68 462.44C116.75 462.78 117.84 456.91 116.71 454.33C115.55 451.74 100.83 433.05 100.83 433.05L104.19 427.47C95.9705 423.09 81.0305 415.4 71.7605 410.63C69.7405 413.91 68.3605 416.15 68.3605 416.16C65.2505 422.54 62.6305 428.19 61.5605 431.24C61.5605 431.26 61.5405 431.28 61.5405 431.3C61.1305 432.45 60.9405 433.22 61.0505 433.5L61.0605 433.49Z" fill="white"/>
<path d="M114.68 462.43C112.61 462.1 62.3405 435.75 61.0605 433.53C60.5605 432.7 63.9705 425.15 68.3605 416.14C68.4105 416.05 68.4505 415.95 68.5005 415.86L101.12 432.5L100.82 433.04C100.82 433.04 115.55 451.73 116.7 454.32C117.83 456.89 116.74 462.76 114.68 462.42V462.43Z" fill="#8DC8D2"/>
<path d="M115.14 460.189C106.77 455.539 72.5898 437.579 63.9698 433.619C63.8998 433.589 63.8798 433.629 63.9398 433.669C72.1298 438.459 106.46 456.149 115.06 460.329C115.24 460.419 115.31 460.289 115.13 460.189H115.14Z" fill="#1B1B2E"/>
<path d="M103.5 434.58C100.49 432.21 96.1398 430.58 92.3498 431.62C92.1998 431.66 92.2598 431.87 92.3898 431.89C96.2198 432.58 99.6498 433.52 103.27 434.99C103.53 435.09 103.72 434.75 103.5 434.58Z" fill="#1B1B2E"/>
<path d="M105.15 437.29C102.14 434.92 97.7904 433.289 94.0004 434.329C93.8504 434.369 93.9104 434.579 94.0404 434.599C97.8704 435.289 101.3 436.23 104.92 437.7C105.18 437.8 105.37 437.46 105.15 437.29Z" fill="#1B1B2E"/>
<path d="M106.801 439.999C103.791 437.629 99.4408 435.999 95.6508 437.039C95.5008 437.079 95.5608 437.289 95.6908 437.309C99.5208 437.999 102.951 438.939 106.571 440.409C106.831 440.509 107.021 440.169 106.801 439.999Z" fill="#1B1B2E"/>
<path d="M175.41 243.3C175.41 243.3 175.41 243.3 175.41 243.33C175.26 244.02 172.92 254.9 170.49 264.25C168.72 271.08 166.9 277.08 165.86 277.7C164.68 278.4 158.92 280.95 156.99 281.75C156.99 281.75 144.04 346.41 137.2 366.46C130.89 384.96 104.78 434.41 104.78 434.41L66.9005 415.27C66.9005 415.27 96.4804 365.08 99.5904 356.08C104.41 342.12 122.48 273.96 122.48 273.96C122.48 273.96 122.34 252.62 129.53 243.3H175.42H175.41Z" fill="#00565B"/>
<path d="M104.21 427.03C98.7995 424.01 100.39 424.8 94.9495 421.83C92.2795 420.38 74.7595 410.87 72.0395 409.95C71.9795 409.93 71.9295 410.02 71.9795 410.06C74.2595 411.81 91.9495 421.01 94.6395 422.41C100.14 425.27 98.5895 424.39 104.13 427.18C104.23 427.23 104.32 427.08 104.21 427.02V427.03Z" fill="#1B1B2E"/>
<path d="M132.189 268.02C133.229 267.75 134.339 267.67 135.389 267.5C136.239 267.36 137.099 267.21 137.939 267.03C139.529 266.68 141.139 266.15 142.439 265.13C143.909 263.99 144.649 262.26 145.359 260.6C145.779 259.61 146.209 258.63 146.649 257.65C146.859 257.18 147.079 256.7 147.299 256.23C147.559 255.68 147.909 255.1 148.099 254.53C148.129 254.45 148.259 254.49 148.229 254.57C148.059 254.95 147.989 255.39 147.869 255.8C147.729 256.28 147.589 256.75 147.439 257.23C147.179 258.08 146.919 258.93 146.639 259.77C146.139 261.28 145.689 262.87 144.839 264.23C143.279 266.72 140.479 267.72 137.679 268.08C136.879 268.18 136.069 268.24 135.259 268.28C134.259 268.34 133.199 268.43 132.209 268.3C132.059 268.28 132.019 268.06 132.179 268.02H132.189Z" fill="#1B1B2E"/>
<path d="M168.909 276.17C164.799 277.58 160.829 279.59 157.039 281.7C156.889 281.78 156.989 282.01 157.149 281.94C161.149 280.22 165.229 278.58 169.129 276.64C169.439 276.49 169.229 276.05 168.909 276.16V276.17Z" fill="#1B1B2E"/>
<path d="M170.119 248.78C170.109 248.64 169.869 248.61 169.869 248.76C169.899 253.51 169.599 257.69 169.199 262.12C169.009 264.18 167.359 275.57 163.779 274.73C163.179 274.59 162.879 274 162.779 273.1C162.669 272.02 163.069 270.69 163.249 269.61C163.649 267.23 163.959 264.84 164.169 262.43C164.549 257.94 164.569 253.44 164.019 248.96C163.999 248.81 163.789 248.82 163.789 248.97C163.789 255.19 163.629 261.4 162.699 267.56C162.249 270.52 160.759 274.98 163.859 275.43C167.009 275.89 169.059 268.43 169.439 266.38C170.509 260.68 170.559 254.53 170.109 248.76L170.119 248.78Z" fill="#1B1B2E"/>
<path d="M163.87 275.04C163.55 275.8 163.29 276.6 163.07 277.4C162.9 278.02 162.67 278.69 162.74 279.34C162.75 279.47 162.92 279.48 162.99 279.39C163.41 278.86 163.59 278.13 163.82 277.5C164.09 276.77 164.38 276.05 164.63 275.31C164.8 274.82 164.08 274.57 163.88 275.04H163.87Z" fill="#1B1B2E"/>
<path d="M77.1095 408.99C82.4995 398.84 88.0595 388.78 93.6395 378.73C96.3895 373.78 99.2595 368.88 101.89 363.86C104.48 358.9 106.24 353.69 107.88 348.35C111.22 337.51 114.38 326.61 117.36 315.67C120.34 304.73 123.13 293.73 125.76 282.7C126.42 279.94 127.14 277.18 127.67 274.39C128.22 271.49 128.06 268.79 127.66 265.89C127.3 263.24 127.19 260.63 127.6 257.97C128 255.35 128.66 252.77 129.45 250.23C129.87 248.9 130.32 247.57 130.78 246.25C130.83 246.1 131.06 246.17 131.01 246.32C129.38 251.66 127.71 257.07 128.06 262.73C128.23 265.45 128.95 268.12 128.9 270.86C128.85 273.58 128.14 276.26 127.53 278.89C124.96 289.99 122.18 301.05 119.23 312.06C116.28 323.07 113.16 334.03 109.85 344.94C108.24 350.24 106.74 355.63 104.46 360.69C102.17 365.76 99.2795 370.55 96.5595 375.4C90.9295 385.41 85.2595 395.39 79.4595 405.31C78.7295 406.57 77.9795 407.82 77.2395 409.07C77.1895 409.15 77.0695 409.07 77.1195 408.99H77.1095Z" fill="#1B1B2E"/>
<path d="M156.539 185.4C162.719 194 195.669 210.43 205.449 210.04C219.239 209.48 237.209 202.07 243.769 198.38C246.629 196.77 239.899 174.1 236.619 175.35C229.609 178.03 208.379 186.84 205.769 187.07C203.159 187.3 182.119 183.7 171.119 180.48C156.359 176.15 153.419 181.05 156.539 185.4Z" fill="#ECF7F4"/>
<path d="M240.518 171.23C244.448 170.62 248.908 169.61 252.988 170.46C257.068 171.31 259.448 177.35 259.158 178.9C258.868 180.45 255.508 189.81 251.408 189.04C247.308 188.27 251.178 181.32 251.188 180.44C251.188 179.56 251.248 178.44 250.458 178.38C249.668 178.31 234.938 182.18 234.938 182.18L240.518 171.23Z" fill="#D8AB80"/>
<path d="M240.669 171.85C240.899 171.89 252.689 169.63 256.769 170.48C260.849 171.33 263.229 177.37 262.939 178.92C262.649 180.47 259.289 189.83 255.189 189.06C251.099 188.29 254.959 181.34 254.969 180.46C254.969 179.58 255.029 178.46 254.239 178.4C253.449 178.33 238.719 182.2 238.719 182.2L240.669 171.85Z" fill="#D8AB80"/>
<path d="M253.899 188.28C253.519 187.54 253.609 186.55 253.669 185.73C253.739 184.84 253.979 183.97 254.309 183.14C254.599 182.42 255.059 181.74 255.229 180.98C255.389 180.28 255.289 179.39 255.069 178.71C254.859 178.08 254.219 178.16 253.669 178.24C252.859 178.37 252.039 178.61 251.249 178.83C250.389 179.07 249.539 179.33 248.689 179.59C247.819 179.85 246.899 180.08 246.069 180.45C246.009 180.48 246.029 180.58 246.099 180.57C246.859 180.46 247.609 180.22 248.349 180.03C249.199 179.81 250.039 179.6 250.889 179.4C251.679 179.21 252.469 178.98 253.269 178.81C253.549 178.75 254.129 178.57 254.409 178.69C254.709 178.82 254.719 179.62 254.739 179.88C254.809 180.71 254.539 181.34 254.179 182.07C253.829 182.77 253.539 183.48 253.329 184.23C253.139 184.92 253.019 185.68 253.099 186.4C253.169 187.09 253.519 187.7 253.739 188.35C253.769 188.44 253.919 188.38 253.879 188.3L253.899 188.28Z" fill="#1B1B2E"/>
<path d="M225.658 180.15C225.658 180.15 238.958 171.94 241.708 170.33C247.218 167.1 268.718 162.71 271.558 162.94C274.398 163.17 274.328 169.06 259.658 172.43C251.928 174.21 249.888 178.06 249.598 180.35C249.308 182.64 250.678 187.27 254.508 187.89C258.338 188.5 261.858 183.41 265.478 183.45C269.098 183.49 265.578 189.48 262.408 192.72C259.238 195.96 254.178 198.18 250.648 198.79C247.118 199.41 236.088 201.88 236.088 201.88L225.668 180.15H225.658Z" fill="#D8AB80"/>
<path d="M259.738 186.1C258.098 186.94 256.198 188.08 254.298 187.79C252.328 187.5 251.298 185.99 250.698 184.23C250.088 182.45 249.898 180.52 250.698 178.77C251.408 177.19 252.668 175.91 254.118 174.99C255.908 173.84 257.898 173.11 259.928 172.53C260.018 172.5 259.968 172.37 259.878 172.39C257.978 172.84 252.098 174.05 250.098 178.66C249.278 180.54 249.538 182.41 250.148 184.23C250.708 185.91 251.658 187.6 253.478 188.1C255.698 188.71 257.978 187.24 259.858 186.18C259.938 186.13 259.838 186.06 259.758 186.11L259.738 186.1Z" fill="#1B1B2E"/>
<path d="M238.44 204.15C238.38 203.57 230.64 175.88 230.64 175.88C230.64 175.88 209.16 185.59 206.06 186.23C202.96 186.87 173.55 180.77 163.7 178.31C153.17 175.69 149.54 183.42 163.63 192.6C177.72 201.78 195.63 210.39 203.91 210.86C211.93 211.31 238.44 204.15 238.44 204.15Z" fill="#00969F"/>
<path d="M213.2 191.07H212.16C211.19 191.07 210.39 190.28 210.39 189.3C210.39 188.52 209.75 187.88 208.97 187.88H207.87V187.53H208.97C209.94 187.53 210.74 188.32 210.74 189.3C210.74 190.08 211.38 190.72 212.16 190.72H213.2V191.07ZM237.83 201.79C237.55 201.61 237.23 201.51 236.88 201.51H235.78V201.86H236.88C237.33 201.86 237.73 202.07 237.99 202.39C237.94 202.2 237.88 202 237.83 201.79ZM174.25 198.68L174.03 198.89C174.35 199.07 174.68 199.25 175 199.43L174.25 198.68ZM216.55 208.21L215.81 207.47C215.26 206.92 215.26 206.01 215.81 205.46C216.5 204.77 216.5 203.65 215.81 202.96L215.03 202.18L214.79 202.42L215.57 203.2C216.12 203.75 216.12 204.66 215.57 205.21C214.88 205.9 214.88 207.02 215.57 207.71L216.31 208.45L216.55 208.21ZM160.49 180.34C159.94 179.79 159.94 178.89 160.49 178.33C160.64 178.19 160.75 178.02 160.83 177.84C160.7 177.83 160.57 177.82 160.45 177.82C160.4 177.92 160.33 178.01 160.25 178.09C159.56 178.78 159.56 179.9 160.25 180.59L160.99 181.33L161.23 181.08L160.49 180.34ZM184.12 192.21C184.67 191.66 185.58 191.66 186.13 192.21C186.46 192.54 186.91 192.73 187.38 192.73C187.85 192.73 188.3 192.55 188.63 192.21L189.41 191.43L189.17 191.19L188.39 191.97C187.84 192.52 186.93 192.52 186.38 191.97C185.69 191.28 184.57 191.28 183.88 191.97L183.14 192.71L183.38 192.95L184.12 192.21ZM223.78 194.99C224.33 194.44 225.24 194.44 225.79 194.99C226.12 195.32 226.57 195.51 227.04 195.51C227.51 195.51 227.96 195.33 228.29 194.99L229.07 194.21L228.83 193.97L228.05 194.75C227.5 195.3 226.59 195.3 226.04 194.75C225.35 194.06 224.23 194.06 223.54 194.75L222.8 195.49L223.04 195.73L223.78 194.99ZM197.3 200.39C197.3 199.61 197.94 198.97 198.72 198.97C199.69 198.97 200.49 198.18 200.49 197.2V196.16H200.14V197.2C200.14 197.98 199.5 198.62 198.72 198.62C197.75 198.62 196.95 199.41 196.95 200.39V201.49H197.3V200.39ZM225.13 184.59C225.13 183.81 225.77 183.17 226.55 183.17C227.52 183.17 228.32 182.38 228.32 181.4V180.36H227.97V181.4C227.97 182.18 227.33 182.82 226.55 182.82C225.58 182.82 224.78 183.61 224.78 184.59V185.69H225.13V184.59ZM171.12 187.26C171.12 186.48 171.76 185.84 172.54 185.84C173.51 185.84 174.31 185.05 174.31 184.07V183.03H173.96V184.07C173.96 184.85 173.32 185.49 172.54 185.49C171.57 185.49 170.77 186.28 170.77 187.26V188.36H171.12V187.26Z" fill="white"/>
<path d="M231.16 203.219C228.08 193.159 226.37 182.109 225.93 180.209C225.91 180.119 226.06 180.099 226.07 180.189C226.4 182.079 229.72 194.489 231.31 203.199C231.33 203.299 231.18 203.319 231.15 203.219H231.16Z" fill="#1B1B2E"/>
<path opacity="0.1" d="M194.999 208.719C185.909 205.529 173.789 199.219 163.639 192.609C153.629 186.089 152.569 180.299 156.559 178.429L194.999 208.719Z" fill="#1B1B2E"/>
<path d="M122.791 248.23C122.921 248.38 180.411 249.38 180.951 248.78C181.701 247.94 173.391 191.73 163.941 178.97C161.581 175.78 153.591 175.03 149.771 177.87C130.831 191.94 122.311 247.67 122.791 248.23Z" fill="#00969F"/>
<path d="M176.491 219.39C176.121 219.07 175.881 218.6 175.881 218.06C175.881 217.28 175.241 216.64 174.451 216.64H173.351V216.29H174.451C175.181 216.29 175.811 216.74 176.081 217.37C176.171 217.58 176.221 217.8 176.221 218.04V218.06C176.221 218.27 176.261 218.46 176.341 218.64L176.491 219.39ZM136.181 201.64C135.581 201.64 135.061 201.26 134.861 200.73C134.801 200.87 134.741 201.01 134.691 201.15C135.001 201.65 135.551 201.99 136.181 201.99H137.231V201.64H136.181ZM163.581 196.86H162.541C161.761 196.86 161.121 196.22 161.121 195.44C161.121 194.47 160.331 193.67 159.351 193.67H158.251V194.02H159.351C160.131 194.02 160.771 194.66 160.771 195.44C160.771 196.41 161.561 197.21 162.541 197.21H163.581V196.86ZM150.291 224.65H149.251C148.471 224.65 147.831 224.01 147.831 223.23C147.831 222.26 147.041 221.46 146.061 221.46H144.961V221.81H146.061C146.841 221.81 147.481 222.45 147.481 223.23C147.481 224.2 148.271 225 149.251 225H150.291V224.65ZM166.831 248.11H165.791C165.011 248.11 164.371 247.47 164.371 246.69C164.371 245.72 163.581 244.92 162.601 244.92H161.501V245.27H162.601C163.381 245.27 164.021 245.91 164.021 246.69C164.021 247.66 164.811 248.46 165.791 248.46H166.831V248.11ZM130.891 246.41H129.851C129.071 246.41 128.431 245.77 128.431 244.99C128.431 244.02 127.641 243.22 126.661 243.22H125.561V243.57H126.661C127.441 243.57 128.081 244.21 128.081 244.99C128.081 245.96 128.871 246.76 129.851 246.76H130.891V246.41ZM165.491 229.9L164.751 229.16C164.201 228.61 164.201 227.7 164.751 227.15C165.081 226.82 165.271 226.37 165.271 225.9C165.271 225.43 165.091 224.98 164.751 224.65L163.971 223.87L163.731 224.11L164.511 224.89C165.061 225.44 165.061 226.35 164.511 226.9C163.821 227.59 163.821 228.71 164.511 229.4L165.251 230.14L165.491 229.9ZM160.481 180.33C159.931 179.78 159.931 178.88 160.481 178.32C160.821 177.99 161.001 177.55 161.001 177.07C161.001 177.02 161.001 176.98 160.991 176.93C160.871 176.88 160.751 176.83 160.621 176.79C160.711 177.24 160.591 177.73 160.241 178.08C159.551 178.77 159.551 179.89 160.241 180.58L160.981 181.32L161.221 181.07L160.481 180.33ZM136.701 218.78L135.961 218.04C135.411 217.49 135.411 216.58 135.961 216.03C136.291 215.7 136.481 215.25 136.481 214.78C136.481 214.31 136.301 213.86 135.961 213.53L135.181 212.75L134.941 212.99L135.721 213.77C136.271 214.32 136.271 215.23 135.721 215.78C135.031 216.47 135.031 217.59 135.721 218.28L136.461 219.02L136.701 218.78ZM171.791 235.88C172.341 235.33 173.251 235.33 173.801 235.88C174.131 236.21 174.581 236.4 175.051 236.4C175.521 236.4 175.971 236.22 176.301 235.88L177.081 235.1L176.841 234.86L176.061 235.64C175.511 236.19 174.601 236.19 174.051 235.64C173.361 234.95 172.241 234.95 171.551 235.64L170.811 236.38L171.051 236.62L171.791 235.88ZM135.191 232.57C135.741 232.02 136.651 232.02 137.201 232.57C137.531 232.9 137.981 233.09 138.451 233.09C138.921 233.09 139.371 232.91 139.701 232.57L140.481 231.79L140.241 231.55L139.461 232.33C138.911 232.88 138.001 232.88 137.451 232.33C136.761 231.64 135.641 231.64 134.951 232.33L134.211 233.07L134.451 233.31L135.191 232.57ZM146.051 207.22C146.601 206.67 147.511 206.67 148.061 207.22C148.751 207.91 149.871 207.91 150.561 207.22L151.341 206.44L151.101 206.2L150.321 206.98C149.771 207.53 148.861 207.53 148.311 206.98C147.621 206.29 146.501 206.29 145.811 206.98L145.071 207.72L145.311 207.96L146.051 207.22ZM141.741 247.48C142.281 246.94 143.211 246.94 143.751 247.48C144.081 247.81 144.531 248 145.001 248C145.471 248 145.921 247.82 146.251 247.48L147.031 246.7L146.791 246.46L146.011 247.24C145.461 247.79 144.551 247.79 144.001 247.24C143.671 246.91 143.221 246.72 142.751 246.72C142.281 246.72 141.831 246.9 141.501 247.24L140.761 247.98L141.001 248.22L141.741 247.48ZM151.281 238.8C151.281 238.02 151.921 237.38 152.701 237.38C153.671 237.38 154.471 236.59 154.471 235.61V234.57H154.121V235.61C154.121 236.39 153.481 237.03 152.701 237.03C151.731 237.03 150.931 237.82 150.931 238.8V239.9H151.281V238.8ZM159.491 213.61C159.491 212.83 160.131 212.19 160.911 212.19C161.881 212.19 162.681 211.4 162.681 210.42V209.38H162.331V210.42C162.331 211.2 161.691 211.84 160.911 211.84C159.941 211.84 159.141 212.63 159.141 213.61V214.71H159.491V213.61ZM146.791 192C146.791 191.22 147.431 190.58 148.211 190.58C149.181 190.58 149.981 189.79 149.981 188.81V187.77H149.631V188.81C149.631 189.59 148.991 190.23 148.211 190.23C147.241 190.23 146.441 191.02 146.441 192V193.1H146.791V192Z" fill="white"/>
<path d="M165.141 240.1L195.921 244.2L207.541 201.42L176.761 197.32L165.141 240.1Z" fill="#00565B"/>
<path d="M166.66 240.3L197.43 244.41L209.05 201.62L178.28 197.52L166.66 240.3Z" fill="#1B1B2E"/>
<path d="M184.921 228.79C183.861 226.85 183.191 225.16 182.751 223.91C182.331 222.7 182.041 221.84 181.871 220.68C182.631 220.95 183.871 221.56 184.701 222.87C185.741 224.52 185.801 226.75 184.911 228.78L184.921 228.79Z" fill="#ECF7F4"/>
<path d="M188.081 223.76C189.531 222.97 191.011 223.11 191.771 223.27C191.061 224.2 190.381 224.81 189.421 225.66C188.491 226.48 187.181 227.55 185.481 228.64C185.851 227.69 186.021 226.71 186.001 225.76C186.021 225.75 186.031 225.73 186.041 225.71C186.091 225.63 186.141 225.55 186.191 225.48C186.451 225.11 186.731 224.78 187.051 224.49C187.371 224.2 187.711 223.96 188.081 223.76Z" fill="#8DC8D2"/>
<path d="M197.771 212.14C197.121 212.36 196.451 212.56 195.771 212.78C194.751 213.11 193.951 213.43 193.771 213.51C193.471 213.63 193.171 213.78 192.861 213.95C191.861 214.51 190.841 215.29 190.001 216C189.971 216.01 189.941 216.02 189.901 216.04C190.611 215.38 191.311 214.71 192.021 214.05C190.271 212.86 188.431 212.31 186.341 212.67C186.601 213.65 186.871 214.63 187.131 215.61C187.161 215.71 187.181 215.81 187.211 215.9C187.211 215.9 187.211 215.91 187.211 215.92C187.211 215.92 187.211 215.91 187.211 215.9C187.181 215.79 187.141 215.68 187.111 215.58C186.761 214.54 186.381 213.72 186.061 213.13C185.831 212.71 185.671 212.33 185.491 212.02C185.281 211.66 185.051 211.39 184.671 211.23C183.461 210.73 182.551 209.94 181.931 208.65C181.271 210.57 181.661 212.14 182.801 213.54C182.891 213.66 182.991 213.77 183.101 213.88C183.081 213.9 183.071 213.92 183.061 213.94C182.851 214.21 182.671 214.51 182.521 214.82C182.401 215.06 182.291 215.32 182.201 215.58C181.861 216.58 181.751 217.68 181.741 218.64C181.741 219.23 181.771 219.76 181.811 220.2L181.851 220.22C182.651 220.47 184.121 221.12 185.081 222.65C185.541 223.37 185.821 224.2 185.931 225.07C186.461 224.35 187.111 223.78 187.861 223.38C189.441 222.52 191.051 222.67 191.871 222.84L192.071 222.86C192.381 222.41 192.751 221.83 193.091 221.17C193.471 220.41 193.821 219.55 193.981 218.67C194.061 218.26 194.091 217.85 194.081 217.45C194.081 217.14 194.041 216.82 193.981 216.52C193.981 216.5 193.981 216.47 193.971 216.45C193.971 216.45 193.981 216.45 193.991 216.45C195.971 215.57 197.191 214.05 197.771 212.18V212.14ZM191.901 218.01C191.901 218.01 191.901 218.01 191.911 218.01H191.901Z" fill="#1B1B2E"/>
<path d="M187.57 219.19C189.31 217.61 191.23 216.89 193.53 217.6C192.84 217.7 192.43 218.18 192.02 218.67C191.29 219.54 190.35 219.6 189.37 219.27C188.95 219.13 188.66 219.2 188.39 219.51C188.02 219.94 187.64 220.36 187.27 220.79C187.21 220.86 187.15 220.94 187.05 221.06C187.01 220.81 186.99 220.62 186.96 220.44C186.9 220.12 186.83 219.8 186.77 219.48C186.66 218.84 186.41 218.44 185.66 218.31C184.62 218.13 183.99 217.43 183.83 216.35C183.75 215.79 183.55 215.28 183.1 214.88C184.16 215.15 185.13 215.59 185.91 216.37C186.69 217.15 187.08 218.16 187.56 219.21L187.57 219.19Z" fill="white"/>
<path d="M141.64 184.92C123.92 203.28 109.17 241.63 117.59 245.31C125.28 248.67 149.77 245.84 159.85 243.52C162.81 242.84 157.05 219.9 153.89 220.62C150.06 221.49 140.29 222.82 139.89 222.79C139.05 222.72 148.28 197.19 151.23 187.39C155.34 173.73 148.3 178.03 141.64 184.93V184.92Z" fill="#D8AB80"/>
<path d="M150.03 223.16C150.03 223.16 157.02 217.63 161.77 214.23C164.42 212.33 169.24 209.49 171.83 208.98C175.69 208.23 192.32 207.54 192.58 211.57C192.81 215.22 178.45 213.99 178.45 213.99C178.45 213.99 193.05 213.94 192.52 218.39C191.99 222.83 175.94 219.29 175.94 219.29C175.94 219.29 190.95 219.58 189.67 224.07C188.71 227.47 174 225.08 174 225.08C174 225.08 186.9 225.42 186.06 228.95C185.13 232.86 171.41 231.5 171.41 231.5C167.77 240.13 162.78 243.09 158.53 244.16C157.54 244.41 150.03 223.15 150.03 223.15V223.16Z" fill="#D8AB80"/>
<path d="M174.081 213.71C184.831 212.86 190.371 215.73 190.211 215.68C186.371 214.58 180.231 214.18 178.521 214.09C176.811 214 175.791 213.85 174.081 213.77C174.041 213.77 174.041 213.71 174.081 213.7V213.71Z" fill="#1B1B2E"/>
<path d="M172.971 219.88C178.031 219.14 183.961 219.97 185.951 220.57C186.111 220.62 186.051 220.67 185.881 220.66C183.701 220.49 175.141 219.99 172.961 219.93C172.931 219.93 172.931 219.88 172.961 219.88H172.971Z" fill="#1B1B2E"/>
<path d="M171.651 225.13C176.231 224.81 178.311 225.13 181.691 225.96C181.851 226 181.761 226.08 181.591 226.07C178.261 225.73 175.651 225.44 171.661 225.25C171.601 225.25 171.581 225.14 171.661 225.13H171.651Z" fill="#1B1B2E"/>
<path d="M140.8 222.05C139.6 221.01 149.39 196.99 152.1 186.03C154.81 175.08 149.74 175.64 141.62 184.41C132.93 193.81 118.43 214.63 114.99 236.18C113.92 242.91 112.5 247.71 128.09 247.57C144.09 247.42 155.16 245.44 155.16 245.44L151.97 220.77C151.97 220.77 141.14 222.36 140.79 222.06L140.8 222.05Z" fill="#00969F"/>
<path d="M137.23 201.99H136.19C135.22 201.99 134.42 201.2 134.42 200.22C134.42 199.44 133.78 198.8 133 198.8H131.9V198.45H133C133.97 198.45 134.77 199.24 134.77 200.22C134.77 201 135.41 201.64 136.19 201.64H137.23V201.99ZM150.3 224.65H149.26C148.48 224.65 147.84 224.01 147.84 223.23C147.84 222.26 147.05 221.46 146.07 221.46H144.97V221.81H146.07C146.85 221.81 147.49 222.45 147.49 223.23C147.49 224.2 148.28 225 149.26 225H150.3V224.65ZM130.9 246.42H129.86C129.08 246.42 128.44 245.78 128.44 245C128.44 244.03 127.65 243.23 126.67 243.23H125.57V243.58H126.67C127.45 243.58 128.09 244.22 128.09 245C128.09 245.97 128.88 246.77 129.86 246.77H130.9V246.42ZM136.71 218.79L135.97 218.05C135.42 217.5 135.42 216.59 135.97 216.04C136.3 215.71 136.49 215.26 136.49 214.79C136.49 214.32 136.31 213.87 135.97 213.54L135.19 212.76L134.95 213L135.73 213.78C136.28 214.33 136.28 215.24 135.73 215.79C135.04 216.48 135.04 217.6 135.73 218.29L136.47 219.03L136.71 218.79ZM117.87 237.76L117.13 237.02C116.58 236.47 116.58 235.56 117.13 235.01C117.46 234.68 117.65 234.23 117.65 233.76C117.65 233.29 117.47 232.84 117.13 232.51L116.35 231.73L116.11 231.97L116.89 232.75C117.44 233.3 117.44 234.21 116.89 234.76C116.2 235.45 116.2 236.57 116.89 237.26L117.63 238L117.87 237.76ZM135.2 232.58C135.75 232.03 136.66 232.03 137.21 232.58C137.54 232.91 137.99 233.1 138.46 233.1C138.93 233.1 139.38 232.92 139.71 232.58L140.49 231.8L140.25 231.56L139.47 232.34C138.92 232.89 138.01 232.89 137.46 232.34C136.77 231.65 135.65 231.65 134.96 232.34L134.22 233.08L134.46 233.32L135.2 232.58ZM125.27 209.61L124.49 210.39C124.25 210.63 123.95 210.77 123.65 210.79L123.47 211.15C123.93 211.16 124.39 210.99 124.74 210.64L125.52 209.86L125.27 209.61ZM141.86 246.98C142.4 246.95 142.91 246.9 143.42 246.86C143.22 246.77 142.99 246.72 142.76 246.72C142.43 246.72 142.13 246.81 141.86 246.98ZM146.8 246.46L146.71 246.55C146.77 246.54 146.82 246.54 146.87 246.53L146.8 246.46ZM153.99 236.24C153.76 236.71 153.28 237.03 152.72 237.03C151.74 237.03 150.95 237.83 150.95 238.8V239.9H151.29V238.8C151.29 238.02 151.93 237.38 152.72 237.38C153.26 237.38 153.74 237.14 154.06 236.75L153.99 236.24ZM146.79 192C146.79 191.22 147.43 190.58 148.21 190.58C149.18 190.58 149.98 189.79 149.98 188.81V187.77H149.63V188.81C149.63 189.59 148.99 190.23 148.21 190.23C147.24 190.23 146.44 191.02 146.44 192V193.1H146.79V192ZM122.72 225.96C122.72 225.18 123.36 224.54 124.14 224.54C125.11 224.54 125.91 223.75 125.91 222.77V221.73H125.56V222.77C125.56 223.55 124.92 224.19 124.14 224.19C123.17 224.19 122.37 224.98 122.37 225.96V227.06H122.72V225.96Z" fill="white"/>
<path d="M149.67 245.19C147.76 235.42 147.23 224.87 147.01 223.04C147 222.95 147.14 222.95 147.15 223.04C147.27 224.85 149.19 236.85 149.83 245.19C149.83 245.29 149.7 245.29 149.68 245.19H149.67Z" fill="#1B1B2E"/>
<path d="M128.93 223.88C129.87 223.58 130.9 223.46 131.87 223.3C132.79 223.15 133.7 222.98 134.62 222.82C135.02 222.75 135.41 222.69 135.81 222.62C135.77 222.62 135.74 222.62 135.7 222.61C135.17 222.53 134.64 222.45 134.11 222.37C133.58 222.29 133.05 222.16 132.52 222.12C132.43 222.12 132.44 221.97 132.52 221.98C133.05 222.06 133.58 222.06 134.11 222.09C134.66 222.13 135.21 222.17 135.76 222.22C136.24 222.26 136.73 222.33 137.21 222.39C138.1 222.25 138.98 222.12 139.87 222C140.27 220.26 140.9 218.53 141.45 216.83C142.03 215.05 142.62 213.27 143.24 211.51C143.85 209.78 144.5 208.06 145.18 206.35C145.52 205.5 147.36 200.24 147.96 198.88C148 198.79 148.11 198.84 148.08 198.94C147.73 200.33 145.85 205.72 145.57 206.59C145.37 207.23 145.16 207.86 144.96 208.5C144.98 208.47 145.01 208.44 145.04 208.4C145.4 207.93 145.76 207.46 146.12 206.99C146.84 206.03 147.56 205.06 148.19 204.03C148.24 203.94 148.37 204.03 148.32 204.11C147.72 205.18 147.15 206.26 146.52 207.3C146.2 207.82 145.87 208.34 145.52 208.83C145.18 209.31 144.84 209.85 144.41 210.24C144.41 210.24 144.4 210.24 144.39 210.24C144.22 210.76 144.06 211.29 143.89 211.81C143.32 213.56 142.75 215.3 142.19 217.05C141.68 218.65 141.23 220.3 140.65 221.88C142.47 221.65 144.29 221.45 146.11 221.25C147.04 221.14 147.97 221.05 148.9 220.95C149.89 220.84 150.94 220.86 151.92 220.69C152.01 220.68 152.04 220.81 151.95 220.82C150.97 220.92 149.98 221.21 149 221.38C148.08 221.53 147.17 221.69 146.25 221.84C144.31 222.15 142.36 222.48 140.41 222.77C138.49 223.05 136.56 223.25 134.63 223.46C133.66 223.56 132.7 223.65 131.73 223.76C130.8 223.86 129.84 224.01 128.91 223.98C128.85 223.98 128.85 223.9 128.91 223.89L128.93 223.88Z" fill="#1B1B2E"/>
<path d="M122.94 247.35C133.4 247.44 147.97 246.32 154.98 245.44C155.08 245.43 155.09 245.56 154.99 245.57C153.43 245.81 139.32 248.58 122.92 247.67C122.71 247.66 122.72 247.34 122.93 247.34L122.94 247.35Z" fill="#1B1B2E"/>
<path d="M162.49 187.07C160.07 187.96 153.96 183.52 152.32 179.45C152.21 179.17 154.53 168.83 154.78 166.73C154.83 166.3 167.55 171.48 167.55 171.48C167.55 171.48 165.74 175.72 165.33 179.38C165.3 179.69 165.3 179.97 165.32 180.25C165.32 180.29 165.32 180.34 165.32 180.39C165.39 182.06 165.18 186.07 162.48 187.06L162.49 187.07Z" fill="#D8AB80"/>
<path d="M155.621 166.9C155.741 170.14 156.711 179.29 163.971 180.32C164.461 180.38 164.911 180.42 165.331 180.4C165.331 180.35 165.331 180.3 165.331 180.25C165.311 179.97 165.321 179.68 165.351 179.38C165.761 175.72 167.571 171.48 167.571 171.48C167.571 171.48 158.491 167.79 155.641 166.9H155.621Z" fill="#1B1B2E"/>
<path d="M153.13 153C151.93 157.8 155.12 171.33 158.64 174.21C163.74 178.38 171.74 178.39 175.2 172.34C178.55 166.47 174.07 148.91 170.17 146.34C164.43 142.55 154.9 145.91 153.13 153.01V153Z" fill="#D8AB80"/>
<path d="M167.13 161.08C167.13 161.08 167.07 161.14 167.08 161.18C167.31 162.08 167.43 163.14 166.68 163.63C166.66 163.65 166.67 163.69 166.7 163.68C167.67 163.31 167.5 161.9 167.13 161.08Z" fill="#1B1B2E"/>
<path d="M166.111 160.32C164.631 160.54 165.181 163.48 166.551 163.28C167.901 163.08 167.351 160.14 166.111 160.32Z" fill="#1B1B2E"/>
<path d="M172.139 160.08C172.139 160.08 172.219 160.11 172.229 160.15C172.369 161.07 172.689 162.09 173.569 162.24C173.599 162.24 173.599 162.29 173.569 162.29C172.539 162.34 172.129 160.97 172.139 160.08Z" fill="#1B1B2E"/>
<path d="M172.769 158.97C174.209 158.58 174.879 161.5 173.539 161.86C172.219 162.21 171.559 159.29 172.769 158.97Z" fill="#1B1B2E"/>
<path d="M164.63 159.68C165.01 159.5 165.33 159.28 165.69 159.07C166.1 158.83 166.44 158.68 166.66 158.24C166.77 158 166.64 157.64 166.42 157.51C165.91 157.2 165.34 157.37 164.84 157.64C164.3 157.93 163.95 158.3 163.72 158.86C163.49 159.41 164.13 159.92 164.64 159.69L164.63 159.68Z" fill="#1B1B2E"/>
<path d="M173.471 156.64C173.051 156.64 172.661 156.59 172.241 156.56C171.771 156.52 171.391 156.54 171.011 156.24C170.801 156.08 170.761 155.69 170.901 155.47C171.231 154.97 171.811 154.87 172.381 154.89C173.001 154.91 173.461 155.09 173.931 155.5C174.381 155.89 174.021 156.63 173.471 156.64Z" fill="#1B1B2E"/>
<path d="M167.58 169.53C167.84 169.7 168.11 169.96 168.45 169.92C168.77 169.89 169.12 169.67 169.39 169.51C169.42 169.49 169.45 169.51 169.44 169.55C169.27 169.94 168.81 170.26 168.38 170.26C167.95 170.26 167.68 169.95 167.51 169.59C167.49 169.54 167.55 169.51 167.59 169.53H167.58Z" fill="#1B1B2E"/>
<path d="M168.02 166.62C168.68 167.32 169.51 167.61 170.35 167.61C170.73 167.61 171.11 167.56 171.48 167.45C171.55 167.43 171.63 167.41 171.69 167.39C171.75 167.37 171.81 167.35 171.88 167.32C171.98 167.28 172.03 167.19 172.02 167.08C172.02 167.08 172.01 167.01 171.99 166.98L171.97 166.89C171.86 166.18 171.59 165.13 171.59 165.13C171.87 165.21 173.29 165.55 173.2 165.19C172.45 162.19 171.62 158.85 170.24 156.03C170.2 155.93 170.05 155.99 170.08 156.08C170.69 158.99 171.8 161.78 172.45 164.69C172 164.61 171.27 164.44 170.9 164.52C170.81 164.57 171.45 166.55 171.48 166.87C171.48 166.87 171.48 166.88 171.48 166.9C170.33 167.27 169.37 167.08 168.08 166.5C168 166.46 167.94 166.54 168.01 166.6L168.02 166.62Z" fill="#1B1B2E"/>
<path d="M171.001 167.18C171.001 167.18 170.541 168.14 169.741 168.6C169.451 168.77 169.121 168.88 168.751 168.85C167.991 168.79 167.841 168.13 167.871 167.53C167.891 167.04 168.031 166.59 168.031 166.59C168.031 166.59 169.281 167.39 171.001 167.17V167.18Z" fill="#1B1B2E"/>
<path d="M169.741 168.6C169.451 168.77 169.121 168.88 168.751 168.85C167.991 168.79 167.841 168.13 167.871 167.53C168.661 167.46 169.541 167.85 169.741 168.59V168.6Z" fill="#00969F"/>
<path d="M154.7 165.4C154.7 165.4 149.47 157.66 149.69 153.02C149.79 150.92 152.56 149.38 152.56 149.38C152.56 149.38 151.58 146.88 153.81 144.56C156.16 142.11 162.16 142.34 162.16 142.34C162.16 142.34 165.75 136.55 171.35 138.5C176.94 140.45 173.68 146.84 173.68 146.84C173.68 146.84 175.83 149.59 171.03 152.07C166.36 154.48 156.47 152.83 156.47 152.83C156.47 152.83 157.51 157.8 156.82 162.96C156.57 164.87 154.69 165.41 154.69 165.41L154.7 165.4Z" fill="#1B1B2E"/>
<path d="M163.12 142.36C161.88 141.9 160.55 141.78 159.23 141.85C158.06 141.91 156.87 142.12 155.79 142.57C153.85 143.38 152.17 144.92 151.95 147.1C151.84 148.2 152.17 149.25 152.87 150.1C152.9 150.13 152.95 150.08 152.92 150.05C151.57 148.54 152.12 146.07 153.36 144.69C154.77 143.13 157 142.45 159.04 142.27C160.4 142.14 161.76 142.29 163.1 142.49C163.18 142.5 163.2 142.4 163.13 142.37L163.12 142.36Z" fill="#1B1B2E"/>
<path d="M175.411 140.94C174.881 139.43 173.511 138.51 172.011 138.11C170.301 137.66 168.451 137.85 166.831 138.55C165.181 139.26 163.801 140.46 162.741 141.91C162.721 141.94 162.771 141.98 162.801 141.95C164.741 139.41 167.901 137.86 171.111 138.38C172.551 138.61 174.011 139.27 174.741 140.6C175.411 141.82 175.361 143.42 174.821 144.68C174.161 146.23 172.841 147.45 171.471 148.39C171.441 148.41 171.471 148.46 171.501 148.44C172.831 147.63 174.071 146.63 174.861 145.27C175.611 143.98 175.901 142.38 175.401 140.95L175.411 140.94Z" fill="#1B1B2E"/>
<path d="M172.24 152.26C170.12 153.3 167.76 153.73 165.41 153.8C162.95 153.87 160.52 153.62 158.11 153.17C156.71 152.9 155.32 152.59 153.93 152.24C153.89 152.23 153.87 152.29 153.91 152.31C156.36 153.17 158.86 153.91 161.45 154.23C163.86 154.53 166.26 154.44 168.61 153.81C169.89 153.47 171.12 152.96 172.27 152.31C172.3 152.29 172.27 152.25 172.24 152.27V152.26Z" fill="#1B1B2E"/>
<path d="M156.601 163.97C156.601 163.97 153.201 159.78 151.281 161.02C149.361 162.26 152.131 168.49 154.541 169.2C156.951 169.91 157.651 167.69 157.651 167.69L156.601 163.97Z" fill="#D8AB80"/>
<path d="M152.121 162.79C152.121 162.79 152.081 162.84 152.121 162.85C153.821 163.4 154.791 164.87 155.511 166.41C154.981 165.84 154.291 165.55 153.511 166.19C153.471 166.22 153.511 166.29 153.561 166.28C154.221 166.09 154.721 166.17 155.211 166.68C155.561 167.04 155.821 167.51 156.081 167.93C156.171 168.07 156.431 167.97 156.361 167.81C156.361 167.8 156.351 167.79 156.341 167.77C156.231 165.67 154.391 162.84 152.121 162.79Z" fill="#1B1B2E"/>
</svg>
