<svg width="501" height="500" viewBox="0 0 501 500" fill="none" xmlns="http://www.w3.org/2000/svg">
<path d="M288.85 379.19H459.36L462.9 309.22H285.3L288.85 379.19Z" fill="#ECF7F4"/>
<path d="M452.84 316.96H378.66L380 341.25H451.28L452.84 316.96ZM379.57 317.82H451.92L450.47 340.39H380.81L379.57 317.82Z" fill="#1B1B2E"/>
<path d="M451.33 347.27H381.69L382.78 369.19H449.96L451.33 347.27ZM382.6 348.13H450.42L449.16 368.33H383.61L382.6 348.13Z" fill="#1B1B2E"/>
<path d="M423.25 325.88H409.76L410.52 331.74H422.5L423.26 325.88H423.25ZM410.74 326.74H422.27L421.74 330.88H411.27L410.74 326.74Z" fill="#1B1B2E"/>
<path d="M423.25 355.3H409.76L410.52 361.16H422.5L423.26 355.3H423.25ZM410.74 356.16H422.27L421.74 360.3H411.27L410.74 356.16Z" fill="#1B1B2E"/>
<path d="M368.99 316.96H294.81L296.15 341.25H367.43L368.99 316.96ZM295.72 317.82H368.07L366.62 340.39H296.96L295.72 317.82Z" fill="#1B1B2E"/>
<path d="M367.48 347.27H297.84L298.93 369.19H366.11L367.48 347.27ZM298.75 348.13H366.57L365.31 368.33H299.76L298.75 348.13Z" fill="#1B1B2E"/>
<path d="M339.4 325.88H325.91L326.67 331.74H338.65L339.41 325.88H339.4ZM326.89 326.74H338.42L337.89 330.88H327.42L326.89 326.74Z" fill="#1B1B2E"/>
<path d="M339.4 355.3H325.91L326.67 361.16H338.65L339.41 355.3H339.4ZM326.89 356.16H338.42L337.89 360.3H327.42L326.89 356.16Z" fill="#1B1B2E"/>
<path d="M304.141 379.18L303.071 386.81L300.921 402.12H296.711V379.18H304.141Z" fill="#ECF7F4"/>
<path d="M304.141 379.18L303.071 386.81H296.711V379.18H304.141Z" fill="#1B1B2E"/>
<path d="M444.07 379.18L445.14 386.81L447.29 402.12H451.5V379.18H444.07Z" fill="#ECF7F4"/>
<path d="M444.07 379.18L445.14 386.81H451.5V379.18H444.07Z" fill="#1B1B2E"/>
<path d="M335.541 309.18V257.6H348.531V309.18H335.541Z" fill="#1B1B2E"/>
<path d="M335.541 260.52V254.85H348.531V260.52H335.541Z" fill="#1B1B2E"/>
<path d="M335.541 269.87V267.77H348.531V269.87H335.541Z" fill="#1B1B2E"/>
<path d="M335.541 302.42V296.75H348.531V302.42H335.541Z" fill="#1B1B2E"/>
<path d="M348.531 309.19V249.02H357.611V309.19H348.531Z" fill="#1B1B2E"/>
<path d="M350.301 277.81V254.67H355.751V277.81H350.301Z" fill="#FF8A44"/>
<path d="M415.902 309.143L373.111 266.842L379.495 260.384L422.286 302.685L415.902 309.143Z" fill="#ECF7F4"/>
<path d="M407.165 297.897L390.709 281.629L394.54 277.753L410.997 294.021L407.165 297.897Z" fill="#1B1B2E"/>
<path d="M357.602 309.21V263.5H373.022V309.21H357.602Z" fill="#1B1B2E"/>
<path d="M357.611 304.35V300.09H373.031V304.35H357.611Z" fill="#ECF7F4"/>
<path d="M357.602 297.29V295.64H373.022V297.29H357.602Z" fill="#ECF7F4"/>
<path d="M308.909 304.999L325.85 265.531L335.636 269.732L318.696 309.2L308.909 304.999Z" fill="#1B1B2E"/>
<path d="M310.698 300.819L312.275 297.143L322.062 301.343L320.484 305.019L310.698 300.819Z" fill="#ECF7F4"/>
<path d="M320.774 277.358L322.352 273.682L332.138 277.883L330.56 281.558L320.774 277.358Z" fill="#ECF7F4"/>
<path d="M319.078 281.3L319.689 279.876L329.476 284.076L328.865 285.501L319.078 281.3Z" fill="#ECF7F4"/>
<path d="M122.37 159.62C130.06 159.76 141.26 160.07 148.85 160.07H149.29V159.62L149.34 148.43V147.93H148.84C140.91 147.97 129.9 148.01 122.08 148.16C122.1 151.55 122.3 156.2 122.36 159.62H122.37ZM122.37 159.62C122.47 156.35 122.57 151.64 122.64 148.43L122.37 148.7C130.03 148.84 141.08 148.91 148.85 148.93L148.35 148.43L148.4 159.62L148.85 159.17C141.36 159.19 129.96 159.46 122.37 159.62Z" fill="#1B1B2E"/>
<path d="M137.139 173.73C144.829 173.87 156.029 174.18 163.619 174.18H164.059V173.73L164.119 162.54V162.04H163.619C155.689 162.08 144.679 162.11 136.859 162.27C136.879 165.66 137.079 170.31 137.139 173.73ZM137.139 173.73C137.239 170.46 137.339 165.75 137.409 162.54L137.139 162.81C144.799 162.95 155.849 163.02 163.619 163.04L163.119 162.54L163.169 173.73L163.619 173.28C156.129 173.3 144.729 173.57 137.139 173.73Z" fill="#1B1B2E"/>
<path d="M107.6 173.73C115.29 173.87 126.49 174.18 134.08 174.18H134.52V173.73L134.58 162.54V162.04H134.08C126.15 162.08 115.14 162.11 107.32 162.27C107.34 165.66 107.54 170.31 107.6 173.73ZM107.6 173.73C107.7 170.46 107.8 165.75 107.87 162.54L107.6 162.81C115.26 162.95 126.31 163.02 134.08 163.04L133.58 162.54L133.63 173.73L134.08 173.28C126.59 173.3 115.19 173.57 107.6 173.73Z" fill="#1B1B2E"/>
<path d="M57.1491 58.2899C64.8391 58.4299 76.0392 58.7399 83.6292 58.7399H84.0692V58.2899L84.1191 47.0999V46.5999H83.6191C75.6891 46.6399 64.6791 46.6799 56.8591 46.8299C56.8791 50.2199 57.0792 54.8699 57.1392 58.2899H57.1491ZM57.1491 58.2899C57.2491 55.0199 57.3492 50.3099 57.4192 47.0999L57.1491 47.3699C64.8091 47.5099 75.8591 47.5799 83.6292 47.5999L83.1292 47.0999L83.1791 58.2899L83.6292 57.8399C76.1392 57.8599 64.7391 58.1299 57.1491 58.2899Z" fill="#1B1B2E"/>
<path d="M42.3794 72.3997C50.0694 72.5397 61.2694 72.8497 68.8594 72.8497H69.2994V72.3997L69.3594 61.2097V60.7097H68.8594C60.9294 60.7497 49.9194 60.7897 42.0994 60.9397C42.1194 64.3297 42.3194 68.9797 42.3794 72.3997ZM42.3794 72.3997C42.4794 69.1297 42.5794 64.4197 42.6494 61.2097L42.3794 61.4797C50.0394 61.6197 61.0894 61.6897 68.8594 61.7097L68.3594 61.2097L68.4094 72.3997L68.8594 71.9497C61.3694 71.9697 49.9694 72.2397 42.3794 72.3997Z" fill="#1B1B2E"/>
<path d="M432.139 58.2999C439.829 58.4399 451.029 58.7499 458.619 58.7499H459.059V58.2999L459.119 47.1099V46.6099H458.619C450.689 46.6499 439.679 46.6799 431.859 46.8399C431.879 50.2299 432.079 54.8799 432.139 58.2999ZM432.139 58.2999C432.239 55.0299 432.339 50.3199 432.409 47.1099L432.139 47.3799C439.799 47.5199 450.849 47.5899 458.619 47.6099L458.119 47.1099L458.169 58.2999L458.619 57.8499C451.129 57.8699 439.729 58.1399 432.139 58.2999Z" fill="#1B1B2E"/>
<path d="M68.8586 318.51C61.1686 318.37 49.9687 318.06 42.3787 318.06H41.9387V318.51L41.8787 329.7V330.2H42.3787C50.3087 330.16 61.3187 330.13 69.1387 329.97C69.1187 326.58 68.9186 321.93 68.8586 318.51ZM68.8586 318.51C68.7586 321.78 68.6587 326.49 68.5887 329.7L68.8586 329.43C61.1986 329.29 50.1487 329.22 42.3787 329.2L42.8787 329.7L42.8286 318.51L42.3787 318.96C49.8687 318.94 61.2686 318.67 68.8586 318.51Z" fill="#1B1B2E"/>
<path d="M77.5605 76.2398V-0.000244141" stroke="#1B1B2E" stroke-miterlimit="10"/>
<path d="M114.23 111.59L111.28 118.07H43.8304L40.8905 111.59L69.6005 91.7097H85.5105L114.23 111.59Z" fill="#FF8A44"/>
<path d="M87.5098 72.5598L85.5098 91.7098H69.5998L67.6097 72.5598H87.5098Z" fill="#1B1B2E"/>
<path d="M114.23 111.59L111.28 118.08H43.8304L40.8905 111.59H114.23Z" fill="#1B1B2E"/>
<path d="M156.301 55.3298V-0.000244141" stroke="#1B1B2E" stroke-miterlimit="10"/>
<path d="M192.961 90.6697L190.021 97.1597H122.571L119.631 90.6697L148.341 70.7997H164.251L192.961 90.6697Z" fill="#FF8A44"/>
<path d="M166.24 51.6497L164.25 70.7998H148.34L146.35 51.6497H166.24Z" fill="#1B1B2E"/>
<path d="M192.961 90.6797L190.011 97.1598H122.561L119.621 90.6797H192.961Z" fill="#1B1B2E"/>
<path d="M250.5 466.16C146.4 466.16 62.01 457.17 62.01 446.08C62.01 434.99 146.4 426 250.5 426C354.6 426 438.99 434.99 438.99 446.08C438.99 457.17 354.6 466.16 250.5 466.16Z" fill="#00969F"/>
<path d="M460.529 402.12L408.019 401.88L355.509 401.79L250.499 401.62L145.489 401.79L92.9793 401.88L40.4693 402.12L92.9793 402.37L145.489 402.45L250.499 402.62L355.509 402.45L408.019 402.36L460.529 402.12Z" fill="#1B1B2E"/>
<path d="M154.131 64.5496H317.301C326.411 64.5496 333.801 72.0696 333.801 81.3596V417.25C333.801 426.53 326.411 434.06 317.301 434.06H154.131C145.021 434.06 137.611 426.52 137.611 417.25V81.3696C137.611 72.0796 145.021 64.5596 154.131 64.5596V64.5496ZM147.931 406.87C147.931 415.71 154.551 422.86 162.721 422.86H308.691C316.871 422.86 323.501 415.71 323.501 406.87V94.0996C323.501 76.0896 316.881 75.2096 308.691 75.2096H279.451C277.751 75.2096 276.361 77.1396 276.361 79.5296V80.5596C276.361 86.1696 273.291 86.1896 269.531 86.1896H201.911C198.111 86.1896 195.061 86.1696 195.061 80.5596V79.5296C195.061 77.1396 193.691 75.2096 191.961 75.2096H162.721C154.551 75.2096 147.931 77.5996 147.931 94.0996V406.87Z" fill="#1B1B2E"/>
<path d="M147.93 94.0997V406.87C147.93 415.71 154.55 422.86 162.72 422.86H308.69C316.87 422.86 323.5 415.71 323.5 406.87V94.0997C323.5 76.0897 316.88 75.2097 308.69 75.2097H279.45C277.75 75.2097 276.36 77.1397 276.36 79.5297V80.5597C276.36 86.1697 273.29 86.1897 269.53 86.1897H201.91C198.11 86.1897 195.06 86.1697 195.06 80.5597V79.5297C195.06 77.1397 193.69 75.2097 191.96 75.2097H162.72C154.55 75.2097 147.93 77.5997 147.93 94.0997Z" fill="white"/>
<path d="M372.37 115.5C371.1 127.61 360.25 136.41 348.14 135.14C343.25 134.63 338.89 132.55 335.52 129.45L324.49 131.07L330.01 121.53C328.67 118.27 328.11 114.64 328.5 110.91C329.77 98.7997 340.62 89.9997 352.73 91.2697C364.84 92.5397 373.64 103.39 372.37 115.5Z" fill="#FAFAFB"/>
<path d="M365.77 97.2897C363.38 94.9497 360.45 93.1497 357.27 92.0797C354.08 91.0197 350.64 90.7197 347.3 91.1597C343.96 91.6097 340.7 92.7997 337.89 94.6897C335.08 96.5797 332.69 99.1097 330.98 102.04C327.55 107.9 326.95 115.4 329.62 121.7L329.65 121.32L324.16 130.88L323.76 131.59L324.56 131.47L335.58 129.78L335.32 129.7C338.37 132.47 342.19 134.36 346.23 135.09C347.24 135.28 348.26 135.38 349.28 135.41C350.3 135.5 351.32 135.41 352.34 135.35C354.36 135.11 356.39 134.73 358.28 133.93C360.17 133.18 361.99 132.21 363.6 130.97C364.45 130.4 365.16 129.67 365.93 129C366.61 128.24 367.35 127.54 367.93 126.7C370.45 123.49 371.92 119.55 372.38 115.52C373.1 108.88 370.65 101.94 365.78 97.3097L365.77 97.2897ZM367.85 126.63C367.27 127.46 366.52 128.16 365.84 128.91C365.07 129.57 364.36 130.29 363.51 130.85C361.9 132.08 360.08 133.01 358.19 133.72C356.31 134.47 354.3 134.81 352.3 135.02C351.29 135.06 350.29 135.13 349.28 135.02C348.27 134.98 347.27 134.86 346.29 134.66C342.34 133.87 338.65 131.96 335.73 129.22L335.62 129.12L335.47 129.14L324.43 130.69L324.82 131.27L330.37 121.75L330.48 121.57L330.4 121.37C329.17 118.34 328.64 115.03 328.85 111.76C329.11 108.5 329.98 105.26 331.65 102.43C333.29 99.5897 335.56 97.1197 338.25 95.2297C340.95 93.3397 344.1 92.1297 347.36 91.6297C350.62 91.1397 354 91.3797 357.17 92.3697C360.33 93.3697 363.26 95.0997 365.67 97.3897C370.54 101.96 373.04 108.86 372.37 115.5C371.88 119.52 370.38 123.45 367.85 126.63Z" fill="#1B1B2E"/>
<path d="M311.853 443.07C313.943 443.75 373.703 443.22 375.963 441.75C376.833 441.21 377.263 432.5 377.473 421.95C377.473 421.84 377.473 421.73 377.473 421.62C377.523 419.45 376.643 383.01 376.643 383.01L337.583 383.25L338.923 421.54L338.943 422.19C338.943 422.19 316.163 432.63 313.843 434.5C311.543 436.37 309.753 442.39 311.853 443.06V443.07Z" fill="#F0CCA9"/>
<path d="M311.851 443.07C313.951 443.75 373.701 443.22 375.971 441.75C376.841 441.2 377.261 432.49 377.481 421.95C377.481 421.84 377.481 421.73 377.481 421.62C377.491 421.21 377.451 418.93 377.411 416.59L338.751 416.67L338.921 421.53L338.941 422.18C338.941 422.18 316.161 432.61 313.841 434.49C311.541 436.36 309.751 442.38 311.841 443.06L311.851 443.07Z" fill="white"/>
<path d="M311.242 443.28C313.372 443.98 374.282 443.58 376.592 442.1C377.472 441.54 377.932 432.67 378.182 421.93L338.912 422.07C338.912 422.07 315.662 432.649 313.292 434.549C310.942 436.449 309.102 442.58 311.232 443.28H311.242Z" fill="#ECF7F4"/>
<path d="M312.101 440.839C322.311 440.519 363.511 440.209 373.631 440.669C373.711 440.669 373.711 440.729 373.631 440.729C363.521 441.269 322.311 441.239 312.101 440.999C311.881 440.999 311.881 440.839 312.101 440.829V440.839Z" fill="#1B1B2E"/>
<path d="M317.212 432.329C319.632 432.219 322.002 433.349 323.332 434.779C324.612 436.159 325.712 438.099 325.652 440.219C325.652 440.279 325.542 440.279 325.532 440.219C324.922 436.229 321.262 432.739 317.212 432.459C317.132 432.459 317.132 432.339 317.212 432.329Z" fill="#1B1B2E"/>
<path d="M334.973 423.11C339.063 423.03 343.803 424.44 346.363 427.76C346.463 427.89 346.273 428.03 346.153 427.97C342.443 426.09 338.923 424.69 334.903 423.61C334.623 423.53 334.673 423.11 334.973 423.11Z" fill="#1B1B2E"/>
<path d="M331.822 424.36C335.912 424.28 340.652 425.69 343.212 429.01C343.312 429.14 343.122 429.28 343.002 429.22C339.292 427.34 335.772 425.94 331.752 424.86C331.472 424.78 331.522 424.36 331.822 424.36Z" fill="#1B1B2E"/>
<path d="M328.672 425.61C332.762 425.53 337.502 426.94 340.062 430.26C340.162 430.39 339.972 430.53 339.852 430.47C336.142 428.59 332.622 427.19 328.602 426.11C328.322 426.03 328.372 425.61 328.672 425.61Z" fill="#1B1B2E"/>
<path d="M325.521 426.86C329.611 426.78 334.351 428.19 336.911 431.51C337.011 431.64 336.821 431.78 336.701 431.72C332.991 429.84 329.471 428.44 325.451 427.36C325.171 427.28 325.221 426.86 325.521 426.86Z" fill="#1B1B2E"/>
<path d="M370.972 430.99C375.562 430.97 375.592 438.1 371.002 438.12C366.422 438.14 366.382 431.01 370.972 430.99Z" fill="white"/>
<path d="M330.483 412.23C332.543 410.5 335.153 412.16 336.443 413.93C338.523 416.8 339.973 420.84 340.223 424.359C340.223 424.45 340.163 424.48 340.093 424.48C340.003 424.77 339.663 425.02 339.363 424.81C336.443 422.82 333.073 421.05 330.843 418.22C329.543 416.57 328.533 413.87 330.483 412.23ZM335.553 420.88C336.963 421.9 338.423 422.84 339.793 423.9C339.053 421.87 338.403 419.819 337.453 417.859C337.003 416.929 336.523 415.979 335.943 415.109C335.043 413.769 331.013 410.38 330.633 414.83C330.423 417.28 333.863 419.67 335.553 420.88Z" fill="#1B1B2E"/>
<path d="M350.381 425.809C346.831 426.379 343.151 425.389 339.651 424.869C339.291 424.819 339.201 424.399 339.341 424.129C339.291 424.089 339.261 424.019 339.331 423.959C341.901 421.549 345.701 419.559 349.181 418.869C351.331 418.439 354.381 418.999 354.711 421.669C355.031 424.189 352.451 425.489 350.381 425.819V425.809ZM352.831 423.469C355.571 419.949 350.311 419.699 348.741 420.079C347.731 420.319 346.731 420.689 345.771 421.069C343.751 421.859 341.871 422.929 339.951 423.919C341.681 424.069 343.391 424.369 345.121 424.579C347.181 424.829 351.321 425.419 352.841 423.469H352.831Z" fill="#1B1B2E"/>
<path opacity="0.1" d="M355.361 443.309C366.561 443.059 375.731 442.659 376.601 442.099C377.331 441.639 377.761 435.539 378.041 427.389C371.631 431.819 360.921 439.379 355.361 443.309Z" fill="#1B1B2E"/>
<path d="M334.661 415.42L379.481 415.31C379.481 415.31 377.291 328.21 377.621 326.46C378.041 324.21 403.441 217.62 403.441 217.62L366.971 217.84C366.971 217.84 337.571 316.74 336.481 326.28C334.711 341.69 334.671 415.42 334.671 415.42H334.661Z" fill="#00565B"/>
<path d="M337.652 407.599C344.402 407.079 372.292 406.969 376.272 407.629C376.342 407.639 376.342 407.749 376.272 407.759C373.262 408.259 349.242 408.479 337.652 407.789C337.532 407.789 337.532 407.609 337.652 407.599Z" fill="#1B1B2E"/>
<path d="M395.212 225.829C394.352 228.449 393.602 231.099 392.812 233.739C392.022 236.379 391.322 239.039 390.552 241.689C389.032 246.929 387.582 252.189 386.122 257.449C383.182 268.069 380.382 278.719 377.642 289.389C376.282 294.669 374.942 299.959 373.622 305.249C372.292 310.549 370.892 315.849 369.712 321.189C369.152 323.709 368.802 326.259 368.962 328.849C369.122 331.489 371.922 403.909 372.842 405.369C372.882 405.439 372.982 405.429 372.982 405.349C372.562 395.599 369.442 327.409 369.782 324.709C370.112 322.069 370.822 319.479 371.452 316.899C372.092 314.279 372.742 311.659 373.392 309.029C374.702 303.739 376.042 298.449 377.392 293.159C380.102 282.539 382.882 271.929 385.722 261.349C388.542 250.809 391.412 240.289 394.302 229.769C394.662 228.469 395.012 227.169 395.332 225.849C395.352 225.769 395.242 225.749 395.212 225.819V225.829Z" fill="#1B1B2E"/>
<path d="M403.441 217.61C403.441 217.61 388.371 280.86 381.271 310.94L369.871 217.81L403.451 217.61H403.441Z" fill="#1B1B2E"/>
<path d="M362.381 451.71C364.481 452.36 424.231 450.9 426.471 449.4C427.331 448.84 427.621 440.13 427.681 429.58C427.681 429.47 427.681 429.36 427.681 429.25C427.701 427.08 426.251 390.65 426.251 390.65L387.201 391.5L389.131 429.76L389.161 430.41C389.161 430.41 366.541 441.2 364.251 443.11C361.981 445.01 360.281 451.06 362.391 451.7L362.381 451.71Z" fill="#F0CCA9"/>
<path d="M362.38 451.72C364.49 452.37 424.23 450.91 426.47 449.41C427.33 448.85 427.62 440.13 427.67 429.59C427.67 429.48 427.67 429.37 427.67 429.26C427.67 428.85 427.6 426.57 427.52 424.24L388.87 424.92L389.12 429.78L389.15 430.43C389.15 430.43 366.53 441.22 364.24 443.13C361.97 445.03 360.28 451.08 362.37 451.73L362.38 451.72Z" fill="white"/>
<path d="M361.781 451.94C363.921 452.6 424.821 451.27 427.111 449.75C427.981 449.18 428.301 440.3 428.391 429.56L389.131 430.31C389.131 430.31 366.041 441.25 363.711 443.18C361.391 445.12 359.641 451.27 361.781 451.94Z" fill="#ECF7F4"/>
<path d="M362.602 449.48C372.802 449.01 414.002 448.05 424.122 448.36C424.202 448.36 424.202 448.42 424.122 448.42C414.022 449.11 372.822 449.73 362.602 449.64C362.382 449.64 362.382 449.48 362.602 449.47V449.48Z" fill="#1B1B2E"/>
<path d="M367.57 440.9C369.99 440.75 372.38 441.85 373.73 443.26C375.03 444.62 376.16 446.54 376.13 448.66C376.13 448.72 376.02 448.72 376.01 448.66C375.34 444.68 371.63 441.25 367.57 441.03C367.49 441.03 367.48 440.91 367.57 440.9Z" fill="#1B1B2E"/>
<path d="M385.19 431.4C389.27 431.25 394.04 432.59 396.66 435.88C396.76 436.01 396.58 436.15 396.46 436.09C392.72 434.27 389.18 432.93 385.14 431.91C384.86 431.84 384.91 431.42 385.2 431.41L385.19 431.4Z" fill="#1B1B2E"/>
<path d="M382.061 432.7C386.141 432.55 390.911 433.89 393.531 437.18C393.631 437.31 393.451 437.45 393.331 437.39C389.591 435.57 386.051 434.23 382.011 433.21C381.721 433.14 381.781 432.72 382.071 432.71L382.061 432.7Z" fill="#1B1B2E"/>
<path d="M378.931 434C383.011 433.85 387.781 435.19 390.401 438.48C390.501 438.61 390.321 438.75 390.201 438.69C386.471 436.87 382.921 435.53 378.881 434.51C378.601 434.44 378.651 434.02 378.941 434.01L378.931 434Z" fill="#1B1B2E"/>
<path d="M375.811 435.3C379.891 435.15 384.661 436.49 387.281 439.78C387.381 439.91 387.201 440.05 387.081 439.99C383.341 438.17 379.801 436.83 375.761 435.81C375.471 435.74 375.531 435.32 375.821 435.31L375.811 435.3Z" fill="#1B1B2E"/>
<path d="M421.301 438.72C425.881 438.63 426.031 445.76 421.441 445.84C416.861 445.93 416.711 438.8 421.301 438.72Z" fill="white"/>
<path d="M380.531 420.6C382.561 418.84 385.201 420.46 386.521 422.21C388.651 425.05 390.161 429.06 390.461 432.58C390.461 432.67 390.401 432.7 390.341 432.7C390.261 432.99 389.921 433.25 389.611 433.05C386.661 431.1 383.261 429.38 380.991 426.59C379.671 424.96 378.611 422.27 380.531 420.61V420.6ZM385.731 429.17C387.161 430.16 388.631 431.08 390.021 432.13C389.251 430.11 388.561 428.07 387.581 426.13C387.111 425.2 386.621 424.26 386.031 423.41C385.111 422.08 381.031 418.75 380.721 423.21C380.551 425.67 384.031 428 385.731 429.18V429.17Z" fill="#1B1B2E"/>
<path d="M400.651 433.87C397.101 434.49 393.411 433.56 389.911 433.1C389.551 433.05 389.461 432.64 389.591 432.36C389.541 432.32 389.511 432.25 389.571 432.19C392.111 429.74 395.881 427.7 399.341 426.95C401.481 426.49 404.541 427 404.921 429.66C405.281 432.18 402.721 433.51 400.651 433.88V433.87ZM403.071 431.49C405.761 427.92 400.491 427.76 398.931 428.16C397.921 428.42 396.931 428.8 395.971 429.2C393.961 430.02 392.101 431.12 390.191 432.14C391.931 432.26 393.641 432.53 395.371 432.72C397.431 432.94 401.591 433.46 403.071 431.5V431.49Z" fill="#1B1B2E"/>
<path d="M366.97 217.79C366.97 217.79 367.3 235.21 371.38 249.01C371.71 250.15 372.06 251.27 372.44 252.35C372.44 252.35 374.02 252.32 380.4 256.18L386.71 423.32L429.74 422.6C429.74 422.6 422.33 334.04 422.35 328.37C422.38 319.25 416.98 257.5 417.5 255.94C422.75 239.95 413.77 217.48 413.77 217.48L366.97 217.79Z" fill="#00565B"/>
<path d="M388.15 415.35C400.27 414.55 423.75 414.22 426.76 414.66C426.83 414.66 426.83 414.78 426.76 414.79C423.76 415.34 395.24 416.06 388.15 415.54C388.03 415.54 388.02 415.36 388.15 415.35Z" fill="#1B1B2E"/>
<path d="M384.93 370.86C385.37 381.67 385.76 392.47 386.27 403.28C386.27 403.44 386.51 403.43 386.51 403.28C386.28 384.01 385.67 364.75 385.03 345.49C384.39 326.33 383.62 307.18 382.72 288.02C382.21 277.22 381.19 267.27 380.5 256.48C380.48 256.1 379.9 256.12 379.91 256.5C380.49 275.76 381.87 294.15 382.62 313.4" fill="#1B1B2E"/>
<path d="M418.84 372.04C417.87 359.48 416.83 346.92 415.82 334.36C414.81 321.8 413.79 309.24 412.79 296.68C412.29 290.4 411.8 284.12 411.27 277.84C411 274.7 410.74 271.56 410.47 268.42C410.21 265.34 409.76 262.18 409.85 259.09C409.95 255.69 411.36 252.65 412.14 249.39C412.87 246.29 413.12 243.1 413.06 239.92C412.93 233.36 411.77 227.74 409.73 220.71C409.63 220.36 409.4 220.33 409.48 220.69C410.91 226.55 412.21 232.48 412.49 238.53C412.63 241.54 412.49 244.57 411.92 247.53C411.38 250.38 410.21 253.03 409.55 255.84C408.87 258.75 409.28 261.73 409.53 264.67C409.79 267.81 410.02 270.95 410.27 274.09C410.75 280.25 411.26 286.4 411.75 292.55C413.77 317.54 415.74 342.54 417.85 367.53C419.03 381.59 420.05 395.68 421.51 409.72C421.52 409.82 421.68 409.82 421.67 409.72C420.94 397.15 419.82 384.59 418.85 372.03L418.84 372.04Z" fill="#1B1B2E"/>
<path d="M407.611 240.94C406.881 240.66 403.761 239.91 403.011 239.58C401.591 238.96 400.211 238.17 399.001 237.2C397.761 236.2 397.011 234.89 396.391 233.45C396.061 232.68 394.491 228.52 394.381 228.5C394.341 228.5 394.301 228.5 394.271 228.55C394.121 228.81 394.611 230.35 394.741 230.86C394.981 231.75 395.221 232.64 395.501 233.52C396.021 235.18 396.791 236.7 398.121 237.84C399.431 238.96 400.971 239.79 402.591 240.37C403.421 240.67 404.281 240.91 405.151 241.05C405.941 241.18 406.811 241.35 407.611 241.18C407.751 241.15 407.711 240.97 407.611 240.93V240.94Z" fill="#1B1B2E"/>
<path d="M374.65 246.32C374.54 244.81 374.42 243.31 374.27 241.81C373.95 238.38 373.57 234.95 372.95 231.56C372.9 231.29 372.53 231.4 372.55 231.65C372.8 234.31 373.12 236.97 373.38 239.63C373.64 242.26 373.98 244.94 374.04 247.59C374.06 248.39 374.01 249.74 373.04 249.97C371.72 250.27 371.09 248.55 370.77 247.6C369.97 245.25 369.47 242.81 369.07 240.36C368.62 237.57 368.37 234.74 368.09 231.93C368.08 231.83 367.91 231.85 367.91 231.95C367.93 237.54 368.04 243.37 370.16 248.63C370.57 249.66 371.29 250.69 372.48 250.83C372.5 250.83 372.52 250.83 372.54 250.83C372.54 250.86 372.52 250.89 372.53 250.93C372.55 251.09 372.6 251.24 372.63 251.4C372.65 251.53 372.68 251.66 372.71 251.79C372.77 252.06 372.81 252.33 372.88 252.6C372.94 252.85 373.28 252.78 373.28 252.55C373.34 252.52 373.39 252.47 373.39 252.39C373.39 251.85 373.21 251.31 373.02 250.81C373.67 250.69 374.18 250.22 374.46 249.59C374.89 248.58 374.73 247.4 374.65 246.34V246.32Z" fill="#1B1B2E"/>
<path d="M370.65 251.32C374.94 253 379.06 255.29 382.99 257.69C383.14 257.78 383.03 258.02 382.86 257.94C378.7 255.95 374.45 254.03 370.4 251.81C370.08 251.64 370.32 251.19 370.65 251.31V251.32Z" fill="#1B1B2E"/>
<path d="M391.98 133.04C391.98 133.04 384.67 125.41 375.44 128.48C363.93 132.31 364.2 163.78 362.97 169.59C361.74 175.4 356.79 176.98 362.55 182.14C368.31 187.3 376.34 188.88 384.5 188.55C392.66 188.22 398.76 184.64 399.94 181.01C400.66 178.79 398.88 176.67 398.53 172.98C398.32 170.81 403.04 134.19 391.99 133.05L391.98 133.04Z" fill="#1B1B2E"/>
<path d="M400.49 176.53C400.38 174.04 399.69 171.67 399.71 169.15C399.72 166.68 400.06 152.22 400.26 149.76C400.77 143.46 400.1 133.73 391.97 133.24C391.81 133.24 391.79 133.46 391.95 133.49C401.97 135.15 399.74 149.32 399.17 163.36C399.04 166.51 399.19 170.66 399.7 173.77C400.41 178.13 399.91 181.94 396.45 185.04C396.37 185.11 396.47 185.23 396.55 185.16C399.13 183 400.65 179.94 400.5 176.54L400.49 176.53Z" fill="#1B1B2E"/>
<path d="M390.39 132.81C386.23 129.38 381.29 126.48 375.7 128.13C370.86 129.56 367.7 133.95 366.1 138.45C363.87 144.73 364.17 163.61 361.7 169.82C360.83 172.01 358.75 174.3 358.85 176.79C358.94 179.01 360.67 179.77 362.6 180.26C362.7 180.29 362.76 180.14 362.66 180.11C357.97 178.73 359.4 175.51 360.99 172.44C362.11 170.28 362.89 168.03 363.44 165.67C364.54 160.97 364.79 144.09 366.24 139.47C367.65 134.98 370.34 130.52 374.99 128.71C380.82 126.44 385.83 129.5 390.33 132.9C390.38 132.94 390.44 132.86 390.39 132.82V132.81Z" fill="#1B1B2E"/>
<path d="M391.36 132.99C393.41 134.53 399.58 133.63 401.86 130.35C405 125.84 399.21 118.45 393.65 121.17C388.09 123.89 389.78 131.81 391.36 132.99Z" fill="#1B1B2E"/>
<path d="M400.489 122.49C401.709 123.85 402.689 125.45 403.089 127.14C403.269 127.99 403.269 128.86 402.969 129.62C402.679 130.39 402.139 131.06 401.459 131.57C400.789 132.1 399.979 132.49 399.169 132.84C398.359 133.2 397.499 133.42 396.629 133.59C394.889 133.88 393.039 133.75 391.359 132.98C392.859 134.06 394.839 134.48 396.719 134.28C397.659 134.18 398.599 133.96 399.479 133.62C400.349 133.26 401.219 132.87 401.999 132.27C402.769 131.68 403.439 130.86 403.759 129.9C404.079 128.94 404.039 127.89 403.759 126.97C403.189 125.11 401.949 123.61 400.499 122.49H400.489Z" fill="#1B1B2E"/>
<path d="M378.499 176.44C372.939 186 348.929 206.82 340.379 207.42C334.189 207.86 313.079 190.91 306.739 183.15C301.669 176.95 320.949 163.65 324.489 166.76C329.499 171.15 340.489 183.83 342.879 184.2C344.559 184.46 356.199 177.3 371.899 170.36C381.239 166.23 381.819 170.72 378.499 176.43V176.44Z" fill="#F0CCA9"/>
<path d="M315.841 162.04C314.101 158.12 308.651 147.28 308.651 147.28C308.651 147.28 305.071 141.09 307.421 139.26C311.461 136.1 322.251 157.41 322.341 159.67C322.571 165.09 316.901 164.43 315.841 162.04Z" fill="#1B1B2E"/>
<path d="M297.12 168.26C298.2 173.06 305.44 182.45 307.72 184.04C310.01 185.64 325.55 175.88 325.83 173.03C326.11 170.18 321.23 154.32 317.32 151.19C313.4 148.06 296 163.29 297.11 168.26H297.12Z" fill="#F0CCA9"/>
<path d="M307.59 172.79L323.87 173.43C324.78 173.47 325.41 172.73 325.28 171.78L320.63 137.61C320.5 136.66 319.66 135.87 318.75 135.83L302.47 135.18C301.56 135.14 300.93 135.88 301.05 136.82L305.7 170.99C305.83 171.93 306.67 172.73 307.58 172.77L307.59 172.79Z" fill="#00565B"/>
<path d="M303.431 135.23L319.711 135.87C320.621 135.91 321.461 136.7 321.591 137.65L326.241 171.82C326.371 172.76 325.741 173.5 324.831 173.47L308.551 172.83C307.641 172.79 306.801 172 306.671 171.05L302.021 136.88C301.891 135.93 302.531 135.2 303.441 135.23H303.431ZM307.551 170.03C307.671 170.93 308.431 171.68 309.251 171.72L323.811 172.3C324.631 172.33 325.191 171.63 325.071 170.73L320.741 138.91C320.491 137.08 319.821 136.96 319.001 136.93L316.081 136.81C315.911 136.81 315.801 136.99 315.831 137.24V137.34C315.921 137.91 315.621 137.9 315.241 137.89L308.491 137.62C308.111 137.6 307.811 137.59 307.731 137.02V136.92C307.681 136.68 307.521 136.47 307.351 136.47L304.431 136.35C303.621 136.32 302.991 136.54 303.221 138.21L307.551 170.03Z" fill="#1B1B2E"/>
<path d="M303.222 138.209L307.552 170.029C307.672 170.929 308.432 171.679 309.252 171.719L323.812 172.299C324.632 172.329 325.192 171.629 325.072 170.729L320.742 138.909C320.492 137.079 319.822 136.959 319.002 136.929L316.082 136.809C315.912 136.809 315.802 136.989 315.832 137.239V137.349C315.922 137.919 315.622 137.909 315.242 137.899L308.492 137.629C308.112 137.609 307.812 137.599 307.732 137.029V136.919C307.682 136.679 307.522 136.469 307.352 136.469L304.432 136.349C303.622 136.319 302.992 136.539 303.222 138.209Z" fill="white"/>
<path d="M323.47 175.91C323.47 175.91 334.13 165.91 328.69 158.42C326.69 155.67 320.27 151.48 318.34 152.85C315.36 154.95 321.67 160.95 323.92 162.31C323.92 162.31 320.87 164.7 321.53 169.96C321.95 173.26 323.46 175.91 323.46 175.91H323.47Z" fill="#F0CCA9"/>
<path d="M313.7 152.439C313.7 152.439 317.88 155.269 317.1 158.039C316.34 160.709 312.53 159.129 312.26 159.019C312.48 159.169 316.26 161.869 315.19 164.569C314.07 167.379 310.52 165.139 310.29 164.989C310.45 165.199 312.56 167.989 311.28 169.859C309.08 173.069 303.49 166.079 300.35 165.859C300.35 165.859 299.37 171.149 299.31 171.289C299.31 171.289 293.86 164.749 294.39 160.519C294.67 158.289 296.8 158.109 296.8 158.109C296.8 158.109 294.81 156.189 295.59 154.039C295.99 152.939 298.12 152.589 298.12 152.589C298.12 152.589 296.59 150.989 297.4 149.119C298.04 147.619 299.88 147.279 300.65 147.389C304.23 147.919 313.7 152.419 313.7 152.419V152.439Z" fill="#F0CCA9"/>
<path d="M300.389 147.47C300.389 147.47 300.349 147.39 300.389 147.4C305.109 147.7 310.199 149.47 313.869 152.5C313.989 152.6 314.199 153.29 314.059 153.19C310.519 150.62 305.269 148.58 300.379 147.47H300.389Z" fill="#1B1B2E"/>
<path d="M298.058 152.56C298.008 152.55 298.028 152.46 298.078 152.46C302.938 152.79 308.618 154.95 312.438 158.93C312.568 159.07 312.548 159.32 312.388 159.17C309.648 156.71 302.458 153.52 298.058 152.55V152.56Z" fill="#1B1B2E"/>
<path d="M310.458 165.37C306.648 161.69 302.038 159.6 296.998 158.13C296.928 158.11 296.968 158.02 297.028 158.02C299.688 158.07 302.808 159.33 305.148 160.53C307.388 161.67 309.178 163.15 310.588 165.24C310.638 165.32 310.538 165.45 310.458 165.37Z" fill="#1B1B2E"/>
<path d="M313.78 152.419C313.92 152.539 313.36 152.659 313.5 152.789C315.02 154.149 317.61 156.709 316.79 158.189C316.13 159.379 314.07 159.309 313.29 158.979L311.33 158.139L312.88 159.619C313.56 160.259 314.18 161.039 314.61 161.859C315.04 162.679 315.25 163.609 314.94 164.389C314.63 165.209 313.93 165.719 313.07 165.629C312.22 165.579 311.3 165.159 310.55 164.659L308.44 163.259L309.97 165.259C310.38 165.799 310.76 166.439 311.02 167.069C311.28 167.709 311.43 168.399 311.3 168.999C311.17 169.589 310.71 170.119 310.15 170.239C309.55 170.369 308.84 170.169 308.19 169.919C306.86 169.379 305.63 168.539 304.36 167.779C303.73 167.389 303.1 166.999 302.45 166.639C301.8 166.289 301.12 165.919 300.37 165.869C301.11 165.989 301.73 166.429 302.35 166.809C302.96 167.219 303.56 167.649 304.16 168.089C305.36 168.959 306.57 169.829 307.95 170.479C308.64 170.779 309.41 171.079 310.29 170.939C311.2 170.789 311.87 170.009 312.06 169.169C312.26 168.309 312.06 167.489 311.78 166.759C311.49 166.029 311.11 165.369 310.64 164.719L310.06 165.319C310.95 165.919 311.89 166.399 313.03 166.499C313.59 166.549 314.23 166.409 314.72 166.059C315.22 165.699 315.55 165.209 315.75 164.669C316.16 163.549 315.83 162.369 315.34 161.459C314.83 160.529 314.18 159.739 313.4 159.019L312.99 159.649C314 160.039 316.29 160.369 317.55 158.659C318.86 156.179 314.62 152.949 313.8 152.409L313.78 152.419Z" fill="#1B1B2E"/>
<path d="M351.009 179.27L363.489 193.76C363.489 193.76 374.349 183.65 379.719 176.44C385.089 169.24 384.159 164.78 371.939 169.59C359.709 174.4 351.009 179.27 351.009 179.27Z" fill="#FF8A44"/>
<path d="M365.26 190.82C363.7 188.63 362.09 186.47 360.42 184.36C359.6 183.32 358.79 182.26 357.95 181.24C357.08 180.18 356.14 179.18 355.27 178.12C355.21 178.04 355.09 178.12 355.15 178.21C355.95 179.27 356.68 180.37 357.47 181.44C358.29 182.53 359.15 183.6 360 184.67C361.67 186.79 363.39 188.87 365.17 190.91C365.22 190.97 365.32 190.91 365.27 190.84L365.26 190.82Z" fill="#1B1B2E"/>
<path opacity="0.1" d="M356.879 186.09L363.489 193.77C363.489 193.77 374.349 183.65 379.729 176.45C382.619 172.58 383.679 169.5 382.149 168.23L356.879 186.09Z" fill="#1B1B2E"/>
<path d="M413.769 217.48L366.959 217.84L366.219 204.22C366.219 204.22 362.159 198.92 362.379 192.97C362.599 186.65 374.499 169.92 375.469 168.98C379.339 165.21 385.759 164.84 388.949 167.45C406.019 181.41 413.769 217.48 413.769 217.48Z" fill="#1B1B2E"/>
<path d="M413.769 217.48L366.959 217.84L366.219 204.22C366.219 204.22 362.159 198.92 362.379 192.97C362.599 186.65 374.499 169.92 375.469 168.98C379.339 165.21 385.759 164.84 388.949 167.45C406.019 181.41 413.769 217.48 413.769 217.48Z" fill="#FF8A44"/>
<path d="M362.379 192.96C362.169 198.91 366.219 204.21 366.219 204.21L366.959 217.82L413.759 217.47C413.759 217.47 411.239 205.74 405.919 193.08C405.009 193.14 398.259 197.55 389.589 192.08C384.369 188.79 384.079 178.67 384.079 178.67L369.989 176.82C366.449 182.34 362.509 189.34 362.379 192.96Z" fill="#00565B"/>
<path d="M381.949 180.2C381.929 180.67 382.299 181.06 382.759 181.07C383.229 181.09 383.619 180.72 383.629 180.26C383.639 179.8 383.279 179.4 382.819 179.39C382.349 179.37 381.959 179.74 381.949 180.2Z" fill="#FF8A44"/>
<path d="M369.74 177.85C369.51 178.26 369.6 178.74 369.93 178.93C370.26 179.12 370.72 178.93 370.95 178.53C371.18 178.12 371.09 177.64 370.76 177.45C370.43 177.26 369.97 177.45 369.74 177.85Z" fill="#FF8A44"/>
<path d="M413.769 217.48C398.409 217.57 382.319 218.22 366.969 217.83C382.519 219.23 398.219 218.58 413.769 217.48Z" fill="#1B1B2E"/>
<path d="M412.65 212.97C397.57 213.03 381.78 213.63 366.71 213.24C381.98 214.64 397.38 214.05 412.65 212.97Z" fill="#1B1B2E"/>
<path d="M409.719 213.09C410.159 214.58 410.389 215.99 410.329 217.53C411.089 216.14 410.779 214.24 409.719 213.09Z" fill="#1B1B2E"/>
<path d="M408.7 213.06C409.14 214.55 409.37 215.96 409.31 217.5C410.07 216.11 409.76 214.21 408.7 213.06Z" fill="#1B1B2E"/>
<path d="M396.379 213.5C396.819 214.99 397.049 216.4 396.989 217.94C397.749 216.55 397.439 214.65 396.379 213.5Z" fill="#1B1B2E"/>
<path d="M395.36 213.46C395.8 214.95 396.03 216.36 395.97 217.9C396.73 216.51 396.42 214.61 395.36 213.46Z" fill="#1B1B2E"/>
<path d="M382.24 218.3C381.8 216.81 381.57 215.4 381.63 213.86C380.87 215.25 381.18 217.15 382.24 218.3Z" fill="#1B1B2E"/>
<path d="M383.259 218.33C382.829 216.84 382.589 215.43 382.649 213.89C381.889 215.28 382.199 217.18 383.259 218.33Z" fill="#1B1B2E"/>
<path d="M372.059 217.939C371.619 216.449 371.389 215.039 371.449 213.499C370.689 214.889 370.999 216.789 372.059 217.939Z" fill="#1B1B2E"/>
<path d="M373.08 217.97C372.65 216.48 372.41 215.07 372.47 213.53C371.71 214.92 372.02 216.82 373.08 217.97Z" fill="#1B1B2E"/>
<path d="M381.02 201.119C378.55 201.219 376.07 201.409 373.63 201.929C372.42 202.189 371.22 202.509 370.02 202.859C369.42 203.039 368.82 203.189 368.22 203.339C367.6 203.489 366.94 203.629 366.31 203.599C366.25 203.599 366.25 203.699 366.31 203.699C366.92 203.769 367.5 203.829 368.12 203.799C368.71 203.769 369.29 203.679 369.87 203.559C371.1 203.309 372.33 202.999 373.56 202.729C376.05 202.199 378.53 201.669 381.04 201.339C381.16 201.329 381.15 201.099 381.03 201.099L381.02 201.119Z" fill="#1B1B2E"/>
<path d="M386.869 204.119C384.879 203.719 382.839 203.429 380.819 203.299C379.799 203.229 378.789 203.239 377.769 203.269C377.279 203.289 376.799 203.309 376.309 203.349C375.769 203.389 375.239 203.509 374.699 203.529C374.639 203.529 374.639 203.629 374.699 203.629C375.209 203.629 375.709 203.709 376.219 203.739C376.729 203.769 377.229 203.789 377.739 203.809C378.759 203.859 379.769 203.929 380.789 203.969C382.819 204.049 384.849 204.159 386.879 204.319C386.989 204.319 386.999 204.149 386.889 204.129L386.869 204.119Z" fill="#1B1B2E"/>
<path d="M391.079 177.13C394.899 182.34 415.239 203.61 415.959 205.62C416.689 207.62 412.179 212.06 412.259 212.88C412.569 216.25 419.939 238.7 422.849 236.41C426.679 233.39 442.889 211.8 440.549 202.49C438.209 193.18 399.389 171.16 393.359 169.24C387.319 167.32 387.299 171.99 391.079 177.14V177.13Z" fill="#F0CCA9"/>
<path d="M405.729 197.13L416.769 181.52C416.769 181.52 404.329 173.43 396.039 169.95C387.749 166.48 383.649 168.46 391.269 179.16C398.889 189.86 405.719 197.13 405.719 197.13H405.729Z" fill="#FF8A44"/>
<path d="M413.479 180.519C411.729 182.559 410.029 184.649 408.379 186.779C407.569 187.829 406.739 188.869 405.949 189.929C405.129 191.029 404.389 192.189 403.569 193.289C403.509 193.369 403.619 193.469 403.689 193.389C404.519 192.359 405.419 191.379 406.259 190.349C407.119 189.289 407.939 188.189 408.779 187.119C410.429 184.989 412.039 182.809 413.579 180.599C413.619 180.539 413.539 180.459 413.489 180.519H413.479Z" fill="#1B1B2E"/>
<path d="M405.748 197.21C404.038 194.96 402.028 192.96 400.188 190.82C398.338 188.68 396.508 186.49 394.758 184.27C394.718 184.22 394.628 184.27 394.668 184.33C395.488 185.48 396.278 186.66 397.128 187.78C397.558 188.34 397.998 188.88 398.448 189.43C398.228 189.26 398.018 189.07 397.798 188.9C397.128 188.39 396.428 187.93 395.708 187.49C395.668 187.47 395.638 187.52 395.668 187.55C396.288 188.12 396.938 188.67 397.608 189.17C398.098 189.53 398.608 189.87 399.108 190.21C399.368 190.52 399.628 190.84 399.888 191.15C401.678 193.31 403.468 195.5 405.638 197.3C405.698 197.35 405.808 197.27 405.748 197.2V197.21Z" fill="#1B1B2E"/>
<path d="M413.329 244.97C410.719 243.21 414.279 241.14 414.279 241.14C414.279 241.14 408.429 242.89 406.429 240.04C404.509 237.29 408.909 234.93 409.219 234.76C408.909 234.85 403.489 236.32 401.779 233.25C400.009 230.05 404.829 228.45 405.139 228.34C404.819 228.34 400.589 228.17 399.819 225.54C398.499 221.02 410.639 220.46 413.249 217.68C413.249 217.68 412.049 211.71 411.959 211.54C411.959 211.54 413.299 213.87 415.419 214.46C418.049 215.19 420.409 215.61 421.479 216.87C423.239 218.94 421.889 220.97 421.889 220.97C421.889 220.97 425.209 220.57 426.629 222.95C427.359 224.17 426.049 226.42 426.049 226.42C426.049 226.42 428.719 226.21 429.849 228.41C430.759 230.16 429.309 232.14 429.309 232.14C429.309 232.14 431.959 233.13 432.309 235.22C433.029 239.43 418.919 248.73 413.319 244.97H413.329Z" fill="#F0CCA9"/>
<path d="M429.14 232.49C429.14 232.49 429.24 232.51 429.2 232.55C425.31 236.74 419.75 240.15 414.1 241.27C413.91 241.31 413.77 241.02 413.97 240.94C419.57 238.68 424.35 236.22 429.13 232.48L429.14 232.49Z" fill="#1B1B2E"/>
<path d="M426.149 226.4C426.199 226.36 426.269 226.44 426.219 226.5C422.189 230.8 415.819 234.47 409.159 234.99C408.929 235.01 408.709 234.8 408.969 234.75C413.369 234.07 421.859 229.79 426.149 226.4Z" fill="#1B1B2E"/>
<path d="M404.669 228.21C411.029 227.46 416.519 224.75 421.749 221.15C421.819 221.1 421.879 221.2 421.829 221.26C419.749 223.72 416.179 225.66 413.269 226.94C410.479 228.16 407.719 228.71 404.699 228.43C404.579 228.42 404.539 228.22 404.669 228.21Z" fill="#1B1B2E"/>
<path d="M429.49 232.12C430.43 230.94 431.06 229.45 430.42 227.97C430.13 227.3 429.59 226.77 428.93 226.45C428.11 226.06 426.99 226.2 426.44 226.23C427.25 224.85 427.54 223.06 426.49 221.73C426 221.11 425.34 220.86 424.56 220.71C424.14 220.63 422.44 220.67 421.97 220.82C422.69 219.99 422.97 218.81 422.71 217.74C422.42 216.5 421.49 215.68 420.36 215.18C419.06 214.6 417.63 214.5 416.25 214.24C415.53 214.11 414.82 213.97 414.15 213.67C413.54 213.4 413.01 213 412.4 212.12C412.32 212 412.33 212.12 412.4 212.23C412.74 212.76 413.01 213.09 413.43 213.46C413.86 213.83 414.34 214.13 414.85 214.38C416.09 214.97 417.46 215.11 418.76 215.51C419.9 215.86 421 216.45 421.71 217.44C422.43 218.47 422.41 219.79 421.83 220.87C421.79 220.92 421.83 221 421.92 220.99C422.49 220.94 423.87 221.13 424.23 221.25C424.84 221.46 425.47 221.73 425.85 222.25C426.72 223.43 426.68 225.1 426.07 226.43C426.05 226.48 427.45 226.46 428.5 227.05C429 227.33 429.39 227.81 429.65 228.32C430.26 229.51 430.1 231.04 429.28 232.1C429.27 232.12 429.27 232.13 429.27 232.15C429.27 232.16 429.27 232.17 429.27 232.18C429.27 232.2 429.28 232.21 429.3 232.22C429.3 232.22 430.15 232.57 430.19 232.57C430.21 232.57 430.21 232.54 430.19 232.52C430.16 232.49 429.61 232.16 429.49 232.12Z" fill="#1B1B2E"/>
<path d="M384.089 178.67L389.789 168.03L388.959 167.44L383.059 178.54L384.089 178.67Z" fill="#00565B"/>
<path d="M371.289 177L377.349 167.59L376.069 168.03L370.299 176.87L371.289 177Z" fill="#00565B"/>
<path d="M387.54 168.289C387.19 169.209 381.84 174.809 377.51 174.039C376.1 173.789 377.14 166.029 377.14 166.029L377.09 165.439L376.34 157.179L386.55 152.349L388.02 151.729C388.02 151.729 388.08 153.999 388.12 156.839C388.12 156.969 388.12 157.099 388.12 157.239C388.12 157.399 388.13 157.549 388.13 157.699C388.14 158.119 388.15 158.549 388.15 158.989C388.15 159.319 388.15 159.639 388.15 159.979C388.15 160.329 388.15 160.659 388.14 161.009C388.05 164.409 387.68 167.899 387.54 168.299V168.289Z" fill="#F0CCA9"/>
<path d="M388.111 156.839C384.981 162.929 379.541 164.869 377.081 165.449L376.331 157.189L386.541 152.359L388.011 151.739C388.011 151.739 388.071 154.009 388.111 156.849V156.839Z" fill="#1B1B2E"/>
<path d="M365.759 144.85C363.779 159.27 372.189 162.09 375.299 162.51C378.119 162.89 387.789 163.85 391.249 149.71C394.709 135.57 388.629 130.09 382.219 128.87C375.809 127.65 367.739 130.43 365.759 144.85Z" fill="#F0CCA9"/>
<path d="M368.729 142.62C369.079 142.62 369.399 142.57 369.739 142.54C370.129 142.51 370.439 142.52 370.759 142.27C370.929 142.13 370.959 141.81 370.839 141.64C370.569 141.23 370.079 141.15 369.609 141.17C369.099 141.19 368.709 141.34 368.329 141.68C367.959 142.01 368.259 142.62 368.719 142.62H368.729Z" fill="#1B1B2E"/>
<path d="M378.968 143.67C378.628 143.58 378.338 143.45 378.008 143.33C377.638 143.2 377.338 143.13 377.098 142.8C376.968 142.62 377.028 142.31 377.188 142.17C377.558 141.84 378.048 141.9 378.498 142.04C378.988 142.2 379.318 142.44 379.598 142.87C379.868 143.28 379.418 143.79 378.978 143.68L378.968 143.67Z" fill="#1B1B2E"/>
<path d="M376.479 146.21C376.479 146.21 376.549 146.27 376.539 146.31C376.319 147.29 376.239 148.45 377.069 148.94C377.099 148.96 377.079 149 377.049 148.99C375.989 148.63 376.119 147.1 376.479 146.2V146.21Z" fill="#1B1B2E"/>
<path d="M377.559 145.35C379.169 145.53 378.689 148.73 377.199 148.56C375.739 148.4 376.209 145.2 377.559 145.35Z" fill="#1B1B2E"/>
<path d="M378.159 145.62C378.409 145.84 378.639 146.2 378.969 146.29C379.349 146.39 379.699 146.1 379.999 145.81C380.029 145.78 380.049 145.81 380.049 145.86C379.969 146.47 379.639 147.07 378.969 147.06C378.359 147.06 378.009 146.45 377.949 145.81C377.939 145.69 378.059 145.54 378.159 145.63V145.62Z" fill="#1B1B2E"/>
<path d="M370.529 144.96C370.529 144.96 370.449 145 370.439 145.04C370.359 146.04 370.099 147.17 369.169 147.4C369.139 147.4 369.139 147.46 369.169 147.46C370.289 147.43 370.609 145.92 370.529 144.96Z" fill="#1B1B2E"/>
<path d="M369.75 143.82C368.16 143.52 367.68 146.72 369.15 147C370.6 147.27 371.08 144.07 369.75 143.82Z" fill="#1B1B2E"/>
<path d="M369.049 143.93C368.769 144.06 368.479 144.33 368.169 144.31C367.819 144.28 367.609 143.9 367.439 143.53C367.419 143.49 367.389 143.52 367.389 143.56C367.279 144.17 367.389 144.84 367.959 145.04C368.479 145.23 368.949 144.76 369.189 144.17C369.229 144.06 369.169 143.88 369.059 143.93H369.049Z" fill="#1B1B2E"/>
<path d="M375.049 154.51C374.789 154.73 374.529 155.03 374.169 155.04C373.819 155.04 373.419 154.86 373.109 154.71C373.079 154.7 373.039 154.73 373.059 154.76C373.289 155.16 373.819 155.44 374.289 155.39C374.749 155.34 374.999 154.97 375.139 154.56C375.159 154.5 375.079 154.48 375.049 154.51Z" fill="#1B1B2E"/>
<path d="M371.358 150.38C371.358 150.38 370.958 151.84 370.868 152.54C370.868 152.61 371.028 152.66 371.258 152.7C371.268 152.7 371.278 152.71 371.288 152.7C372.498 153.05 373.798 152.79 374.678 151.88C374.738 151.82 374.658 151.73 374.588 151.77C373.578 152.33 372.538 152.37 371.438 152.25C371.418 152.05 372.198 149.78 372.088 149.75C371.708 149.67 370.918 149.83 370.448 149.9C371.188 146.84 372.408 143.92 373.108 140.87C373.128 140.76 372.978 140.71 372.928 140.8C371.428 143.77 370.498 147.27 369.658 150.41C369.548 150.8 371.058 150.46 371.358 150.38Z" fill="#1B1B2E"/>
<path d="M371.368 152.45C371.368 152.45 371.868 153.49 372.728 153.99C373.048 154.18 373.398 154.3 373.808 154.27C374.638 154.21 374.798 153.49 374.768 152.85C374.748 152.32 374.598 151.83 374.598 151.83C374.598 151.83 373.238 152.69 371.368 152.45Z" fill="#1B1B2E"/>
<path d="M372.728 153.99C373.048 154.18 373.398 154.3 373.808 154.27C374.638 154.21 374.798 153.49 374.768 152.85C373.908 152.78 372.958 153.19 372.728 154V153.99Z" fill="#1B1B2E"/>
<path d="M390.46 149.299C388.1 149.259 388.03 144.289 388.03 144.289C388.03 144.289 383.26 143.849 382.34 136.839C382.34 136.839 382.14 140.039 383.91 142.709C383.91 142.709 375.59 141.019 372.72 133.639C372.72 133.639 373.79 137.359 374.99 138.759C374.99 138.759 371.56 137.439 370.11 134.409C370.11 134.409 368.25 138.329 367.01 139.349C367.01 139.349 368.76 124.669 382.24 127.529C382.24 127.529 390.72 128.909 393.14 135.959C395.56 143.009 390.46 149.299 390.46 149.299Z" fill="#1B1B2E"/>
<path d="M387.98 149.479C387.98 149.479 391.38 145.099 393.38 146.339C395.38 147.569 392.67 154.029 390.2 154.809C387.74 155.589 386.97 153.319 386.97 153.319L387.97 149.479H387.98Z" fill="#F0CCA9"/>
<path d="M392.56 148.17C392.56 148.17 392.6 148.22 392.56 148.24C390.83 148.84 389.86 150.37 389.15 151.97C389.69 151.37 390.39 151.06 391.2 151.7C391.24 151.73 391.2 151.8 391.15 151.79C390.46 151.61 389.96 151.7 389.46 152.23C389.11 152.61 388.86 153.09 388.6 153.54C388.51 153.69 388.24 153.59 388.31 153.42C388.31 153.41 388.32 153.39 388.33 153.38C388.4 151.22 390.23 148.28 392.56 148.17Z" fill="#1B1B2E"/>
<path d="M234.937 308.299C225.689 298.481 219.083 289.516 214.602 282.813C210.242 276.293 207.189 271.676 204.414 265.1C209.347 265.498 217.624 267.198 224.533 273.659C233.254 281.813 237.052 294.902 234.937 308.299Z" fill="#00969F"/>
<path d="M245.812 273.659C253.181 266.768 262.106 265.293 266.868 265.035C264.086 271.648 261.03 276.272 256.656 282.813C252.44 289.117 246.345 297.423 237.941 306.558H237.94C238.639 300.381 238.15 294.302 236.566 288.726C236.639 288.619 236.7 288.498 236.742 288.368C236.912 287.827 237.096 287.287 237.289 286.763C238.237 284.173 239.427 281.775 240.851 279.586C242.274 277.398 243.932 275.417 245.812 273.659V273.659Z" fill="#FF8A44"/>
<path d="M285.208 190C281.694 192.292 278.029 194.528 274.384 196.854C268.842 200.393 264.661 203.528 263.668 204.261C262.098 205.418 260.525 206.772 258.974 208.261C253.938 213.086 249.112 219.322 245.264 224.82C245.089 224.94 244.919 225.059 244.751 225.18C247.899 220.159 251.046 215.136 254.195 210.116C242.007 205.794 230.313 205.388 218.457 210.742C221.535 216.121 224.614 221.502 227.694 226.882C227.999 227.418 228.308 227.953 228.613 228.489C228.63 228.519 228.646 228.547 228.663 228.576C228.644 228.544 228.624 228.514 228.604 228.482C228.233 227.882 227.862 227.298 227.49 226.728C223.829 221.09 220.274 216.854 217.492 213.858C215.503 211.716 213.968 209.731 212.413 208.158C210.642 206.361 208.844 205.099 206.32 204.742C198.403 203.622 191.794 200.386 186.123 193.725C185.158 206.106 189.935 214.765 198.847 221.289C199.584 221.829 200.351 222.355 201.144 222.866C201.085 223.005 201.027 223.143 200.971 223.282C200.18 225.214 199.551 227.228 199.105 229.304C198.753 230.939 198.513 232.613 198.395 234.318C197.948 240.767 198.979 247.421 200.425 253.133C201.301 256.603 202.334 259.725 203.278 262.247L203.544 262.29C208.665 262.555 218.365 264.133 226.407 271.653C230.227 275.225 233.17 279.663 235.169 284.634C237.208 279.556 240.152 275.193 243.938 271.653C251.979 264.133 261.68 262.555 266.8 262.29L268.04 262.082C269.205 258.957 270.488 254.938 271.453 250.495C272.556 245.421 273.241 239.795 272.862 234.318C272.686 231.784 272.243 229.322 271.562 226.955C271.029 225.104 270.353 223.313 269.543 221.593C269.48 221.456 269.414 221.319 269.348 221.185C269.379 221.162 269.412 221.135 269.443 221.111C279.794 212.847 284.681 202 285.208 190ZM214.873 253.042C208.102 253.042 202.613 247.553 202.613 240.781C202.613 234.01 208.102 228.521 214.873 228.521C221.645 228.521 227.134 234.01 227.134 240.781C227.134 247.553 221.645 253.042 214.873 253.042ZM241.436 248.176C239.612 250.305 237.781 252.442 235.916 254.617C235.644 254.936 235.041 254.926 234.786 254.598L229.784 248.18C229.367 247.645 230.114 247.02 230.827 247.307C231.897 247.739 232.96 248.178 233.981 248.671C235.091 249.206 235.961 249.182 237.07 248.681C238.169 248.184 239.306 247.737 240.447 247.297C241.16 247.023 241.878 247.662 241.436 248.176ZM256.362 254.139C249.591 254.139 244.101 248.65 244.101 241.879C244.101 235.107 249.591 229.618 256.362 229.618C263.134 229.618 268.623 235.107 268.623 241.879C268.623 248.65 263.134 254.139 256.362 254.139Z" fill="#00969F"/>
<path d="M256.362 249.919C260.803 249.919 264.402 246.319 264.402 241.879C264.402 237.438 260.803 233.839 256.362 233.839C251.922 233.839 248.322 237.438 248.322 241.879C248.322 246.319 251.922 249.919 256.362 249.919Z" fill="#00969F"/>
<path d="M214.873 248.821C219.314 248.821 222.913 245.222 222.913 240.781C222.913 236.341 219.314 232.741 214.873 232.741C210.433 232.741 206.833 236.341 206.833 240.781C206.833 245.222 210.433 248.821 214.873 248.821Z" fill="#00969F"/>
<path d="M355.635 123.299C351.546 118.959 348.626 114.995 346.645 112.032C344.717 109.15 343.368 107.108 342.141 104.201C344.321 104.377 347.981 105.129 351.035 107.985C354.891 111.59 356.57 117.376 355.635 123.299Z" fill="#00969F"/>
<path d="M360.442 107.985C363.7 104.939 367.646 104.287 369.751 104.173C368.521 107.096 367.17 109.14 365.237 112.032C363.373 114.819 360.678 118.491 356.963 122.53H356.962C357.271 119.799 357.055 117.111 356.355 114.646C356.387 114.599 356.414 114.546 356.433 114.488C356.508 114.249 356.589 114.01 356.674 113.778C357.094 112.633 357.62 111.573 358.249 110.605C358.879 109.638 359.611 108.762 360.442 107.985V107.985Z" fill="#FF8A44"/>
<path d="M377.859 71C376.306 72.0131 374.686 73.0018 373.074 74.0302C370.624 75.5946 368.775 76.9805 368.336 77.3045C367.642 77.816 366.947 78.4147 366.261 79.073C364.035 81.206 361.902 83.9629 360.2 86.3936C360.123 86.4467 360.048 86.4995 359.974 86.553C361.365 84.3329 362.756 82.1126 364.148 79.8933C358.761 77.9824 353.591 77.8031 348.349 80.17C349.71 82.5479 351.071 84.9269 352.433 87.3053C352.568 87.5424 352.704 87.7788 352.839 88.0159C352.846 88.0291 352.853 88.0413 352.861 88.0542C352.852 88.04 352.844 88.0268 352.835 88.0126C352.671 87.7474 352.507 87.4893 352.343 87.2373C350.724 84.7446 349.153 82.872 347.923 81.5474C347.043 80.6006 346.365 79.7231 345.677 79.0276C344.894 78.2331 344.099 77.6753 342.983 77.5173C339.483 77.0221 336.561 75.5916 334.054 72.6467C333.628 78.1204 335.74 81.9485 339.679 84.8326C340.005 85.0714 340.345 85.3038 340.695 85.5301C340.669 85.5913 340.644 85.6522 340.618 85.7137C340.269 86.5678 339.991 87.4581 339.793 88.3759C339.638 89.0987 339.532 89.8388 339.48 90.5925C339.282 93.4437 339.738 96.3856 340.377 98.9107C340.765 100.445 341.221 101.825 341.639 102.94L341.756 102.959C344.02 103.076 348.308 103.774 351.864 107.098C353.552 108.677 354.854 110.639 355.737 112.837C356.639 110.592 357.94 108.663 359.614 107.098C363.169 103.774 367.458 103.076 369.721 102.959L370.27 102.867C370.784 101.486 371.352 99.7087 371.778 97.7444C372.266 95.5013 372.569 93.0141 372.401 90.5925C372.323 89.4725 372.127 88.384 371.826 87.3374C371.591 86.5195 371.292 85.7276 370.934 84.9668C370.906 84.9063 370.877 84.8461 370.848 84.7869C370.861 84.7764 370.876 84.7646 370.89 84.7541C375.466 81.1005 377.626 76.305 377.859 71ZM346.765 98.8704C343.771 98.8704 341.344 96.4437 341.344 93.4501C341.344 90.4565 343.771 88.0298 346.765 88.0298C349.758 88.0298 352.185 90.4565 352.185 93.4501C352.185 96.4437 349.758 98.8704 346.765 98.8704ZM358.508 96.7194C357.701 97.6605 356.892 98.6052 356.068 99.5669C355.947 99.7076 355.681 99.7032 355.568 99.5585L353.356 96.7208C353.172 96.4843 353.503 96.208 353.818 96.3352C354.291 96.5259 354.761 96.7201 355.212 96.9379C355.703 97.1747 356.088 97.1639 356.578 96.9423C357.064 96.7228 357.566 96.5253 358.071 96.3308C358.386 96.2093 358.703 96.4918 358.508 96.7194ZM365.107 99.3555C362.113 99.3555 359.686 96.9288 359.686 93.9352C359.686 90.9416 362.113 88.5149 365.107 88.5149C368.1 88.5149 370.527 90.9416 370.527 93.9352C370.527 96.9288 368.1 99.3555 365.107 99.3555Z" fill="#00969F"/>
<path d="M365.107 97.4897C367.07 97.4897 368.661 95.8983 368.661 93.9352C368.661 91.9721 367.07 90.3807 365.107 90.3807C363.144 90.3807 361.552 91.9721 361.552 93.9352C361.552 95.8983 363.144 97.4897 365.107 97.4897Z" fill="#00969F"/>
<path d="M346.765 97.0046C348.728 97.0046 350.319 95.4132 350.319 93.4501C350.319 91.487 348.728 89.8957 346.765 89.8957C344.802 89.8957 343.21 91.487 343.21 93.4501C343.21 95.4132 344.802 97.0046 346.765 97.0046Z" fill="#00969F"/>
</svg>
