<svg width="26" height="26" viewBox="0 0 26 26" fill="none" xmlns="http://www.w3.org/2000/svg">
<circle cx="13.0267" cy="12.9999" r="12.807" fill="#D2E3E4"/>
<path d="M13.3712 8.14405C13.9111 8.21548 14.3145 8.67579 14.3145 9.22036V9.99385C15.2703 10.3317 16.0278 11.0892 16.3657 12.045H17.1392C17.6837 12.045 18.144 12.4485 18.2155 12.9883C18.2311 13.1065 18.2311 13.2262 18.2155 13.3443C18.144 13.8842 17.6837 14.2876 17.1392 14.2876H16.3657C16.0278 15.2434 15.2703 16.001 14.3145 16.3388V17.1123C14.3145 17.6569 13.9111 18.1172 13.3712 18.1886C13.253 18.2042 13.1333 18.2042 13.0152 18.1886C12.4753 18.1172 12.0719 17.6569 12.0719 17.1123V16.3388C11.1161 16.001 10.3585 15.2434 10.0207 14.2876H9.24722C8.70265 14.2876 8.24233 13.8842 8.1709 13.3443C8.15527 13.2262 8.15527 13.1065 8.1709 12.9883C8.24233 12.4485 8.70265 12.045 9.24722 12.045H10.0207C10.3585 11.0892 11.1161 10.3317 12.0719 9.99385V9.22037C12.0719 8.6758 12.4753 8.21548 13.0152 8.14405C13.1333 8.12842 13.253 8.12842 13.3712 8.14405Z" stroke="#00565B" stroke-width="0.839001" stroke-linecap="round" stroke-linejoin="round"/>
<path d="M11.8882 13.2843C11.8882 12.4984 12.5253 11.8613 13.3112 11.8613C14.0971 11.8613 14.7342 12.4984 14.7342 13.2843C14.7342 14.0702 14.0971 14.7073 13.3112 14.7073C12.5253 14.7073 11.8882 14.0702 11.8882 13.2843Z" stroke="#00565B" stroke-width="0.839001"/>
</svg>
