<svg width="27" height="26" viewBox="0 0 27 26" fill="none" xmlns="http://www.w3.org/2000/svg">
<circle cx="13.641" cy="12.9999" r="12.807" fill="#F97373"/>
<path d="M8.09717 17.0785C7.86611 17.0785 7.67881 17.2658 7.67881 17.4968C7.67881 17.7279 7.86611 17.9152 8.09717 17.9152V17.0785ZM19.2535 17.9152C19.4846 17.9152 19.6719 17.7279 19.6719 17.4968C19.6719 17.2658 19.4846 17.0785 19.2535 17.0785V17.9152ZM9.75512 17.4968C9.75512 15.3597 11.5063 13.62 13.6753 13.62V12.7833C11.0521 12.7833 8.9184 14.8896 8.9184 17.4968H9.75512ZM13.6753 13.62C15.8444 13.62 17.5955 15.3597 17.5955 17.4968H18.4323C18.4323 14.8896 16.2985 12.7833 13.6753 12.7833V13.62ZM12.5442 12.7414C12.5442 12.5125 12.6656 12.2757 12.8911 12.084C13.1174 11.8916 13.4108 11.7792 13.6753 11.7792V10.9425C13.1921 10.9425 12.7107 11.1392 12.3492 11.4465C11.9869 11.7544 11.7075 12.2079 11.7075 12.7414H12.5442ZM13.6753 11.7792C13.9399 11.7792 14.2332 11.8916 14.4595 12.084C14.6851 12.2757 14.8065 12.5125 14.8065 12.7414H15.6432C15.6432 12.2079 15.3637 11.7544 15.0015 11.4465C14.64 11.1392 14.1586 10.9425 13.6753 10.9425V11.7792ZM14.8065 12.7414V13.5084H15.6432V12.7414H14.8065ZM11.7075 12.7414V13.5084H12.5442V12.7414H11.7075ZM8.09717 17.9152H19.2535V17.0785H8.09717V17.9152Z" fill="white"/>
<path d="M13.8119 9.18639V8.61719M16.3733 9.79099L15.8395 10.3248M11.7843 10.3248L11.2505 9.79098" stroke="white" stroke-width="0.836725" stroke-linecap="round" stroke-linejoin="round"/>
</svg>
