<svg width="27" height="26" viewBox="0 0 27 26" fill="none" xmlns="http://www.w3.org/2000/svg">
<circle cx="13.2548" cy="12.9999" r="12.807" fill="#E5E5E5"/>
<path d="M9.43328 9.30002H17.083C17.86 9.30002 18.4087 10.0613 18.163 10.7984L17.2143 13.6444C17.0594 14.1093 16.6244 14.4228 16.1344 14.4228H10.1651M9.43328 9.30002L9.41029 9.13903C9.33017 8.5782 8.84985 8.16162 8.28333 8.16162H7.84766M9.43328 9.30002L10.1651 14.4228M10.1651 14.4228L10.2694 15.153C10.3495 15.7139 10.8299 16.1304 11.3964 16.1304H16.3857M16.3857 16.1304C15.7569 16.1304 15.2473 16.6401 15.2473 17.2688C15.2473 17.8976 15.7569 18.4072 16.3857 18.4072C17.0144 18.4072 17.5241 17.8976 17.5241 17.2688C17.5241 16.6401 17.0144 16.1304 16.3857 16.1304ZM12.9705 17.2688C12.9705 17.8976 12.4608 18.4072 11.8321 18.4072C11.2033 18.4072 10.6937 17.8976 10.6937 17.2688C10.6937 16.6401 11.2033 16.1304 11.8321 16.1304C12.4608 16.1304 12.9705 16.6401 12.9705 17.2688Z" stroke="#1B1B2E" stroke-width="0.84014" stroke-linecap="round" stroke-linejoin="round"/>
</svg>
