<svg width="27" height="26" viewBox="0 0 27 26" fill="none" xmlns="http://www.w3.org/2000/svg">
<circle cx="13.413" cy="12.9999" r="12.807" fill="#FDF2DC"/>
<path d="M18.8208 13.8539C18.8208 12.336 18.5362 11.0079 18.2516 10.8182C18.0692 10.6966 17.1854 10.575 15.9748 10.5033C15.2965 10.4632 16.544 9.30029 13.698 9.30029C10.852 9.30029 12.0995 10.4632 11.4212 10.5033C10.2106 10.575 9.3268 10.6966 9.1444 10.8182C8.8598 11.0079 8.5752 12.336 8.5752 13.8539C8.5752 15.3718 8.8598 16.6999 9.1444 16.8896C9.429 17.0794 11.4212 17.2691 13.698 17.2691C15.9748 17.2691 17.967 17.0794 18.2516 16.8896C18.5362 16.6999 18.8208 15.3718 18.8208 13.8539Z" stroke="#FFD476" stroke-width="0.84014" stroke-linecap="round" stroke-linejoin="round"/>
<path d="M13.698 15.5615C14.6411 15.5615 15.4056 14.797 15.4056 13.8539C15.4056 12.9108 14.6411 12.1463 13.698 12.1463C12.7549 12.1463 11.9904 12.9108 11.9904 13.8539C11.9904 14.797 12.7549 15.5615 13.698 15.5615Z" stroke="#FFD476" stroke-width="0.84014" stroke-linecap="round" stroke-linejoin="round"/>
</svg>
