<svg width="26" height="26" viewBox="0 0 26 26" fill="none" xmlns="http://www.w3.org/2000/svg">
<circle cx="12.7987" cy="12.9999" r="12.807" fill="#ECF7F4"/>
<path d="M17.8672 13.5692C18.0802 13.0752 18.2066 12.5453 18.2066 11.9834C18.2066 9.86936 17.0481 8.73096 15.6191 8.73096C14.9329 8.73096 14.2748 9.01365 13.7896 9.51686L13.4935 9.82391C13.2696 10.056 12.8978 10.056 12.674 9.82391L12.3779 9.51686C11.8927 9.01365 11.2346 8.73096 10.5483 8.73096C9.09934 8.73096 7.96094 9.86936 7.96094 11.9834C7.96094 12.5453 8.0873 13.0752 8.30034 13.5692M17.8672 13.5692C16.7238 16.2204 13.0837 17.8382 13.0837 17.8382C13.0837 17.8382 9.44372 16.2204 8.30034 13.5692M17.8672 13.5692L15.5455 13.5692C15.433 13.5692 15.3311 13.5029 15.2854 13.4002L14.4773 11.5819C14.3779 11.3583 14.0614 11.3561 13.9588 11.5782L12.7627 14.1699C12.6627 14.3866 12.3565 14.3914 12.2497 14.1779L11.6307 12.9399C11.5258 12.7301 11.2265 12.7301 11.1216 12.9399L10.8856 13.4119C10.8374 13.5083 10.7388 13.5692 10.631 13.5692L8.30034 13.5692" stroke="#00969F" stroke-width="0.84014" stroke-linecap="round" stroke-linejoin="round"/>
</svg>
