<svg width="26" height="26" viewBox="0 0 26 26" fill="none" xmlns="http://www.w3.org/2000/svg">
<circle cx="13.1849" cy="12.9999" r="12.807" fill="#E4EFF9"/>
<path d="M11.7342 18.2064C10.1532 17.8355 8.91886 16.6012 8.54803 15.0202C8.28022 13.8785 8.28022 12.6903 8.54803 11.5486C8.91886 9.9677 10.1532 8.73331 11.7342 8.36248C12.8759 8.09467 14.0641 8.09467 15.2058 8.36248C16.7867 8.73331 18.0211 9.9677 18.3919 11.5486C18.6597 12.6903 18.6597 13.8785 18.3919 15.0202C18.0211 16.6012 16.7867 17.8355 15.2058 18.2064C14.0641 18.4742 12.8759 18.4742 11.7342 18.2064Z" stroke="#89B5E0" stroke-width="0.84014"/>
<circle cx="13.4701" cy="15.2767" r="0.569201" fill="#89B5E0"/>
<path d="M12.3315 12.1461V11.8615C12.3315 11.2328 12.8412 10.7231 13.4699 10.7231V10.7231V10.7231C14.0987 10.7231 14.6083 11.2328 14.6083 11.8615V11.9306C14.6083 12.2508 14.4811 12.558 14.2547 12.7844L13.4699 13.5691" stroke="#89B5E0" stroke-width="0.84014" stroke-linecap="round" stroke-linejoin="round"/>
</svg>
