<svg width="390" height="204" viewBox="0 0 390 204" fill="none" xmlns="http://www.w3.org/2000/svg">
<ellipse cx="26.86" cy="174.999" rx="26.86" ry="27.7639" fill="#23C0AD"/>
<path d="M51.9004 188.223C51.9004 190.412 53.6653 192.191 55.8376 192.191C58.0099 192.191 59.7749 190.412 59.7749 188.223C59.7749 186.033 58.0099 184.254 55.8376 184.254C53.6653 184.254 51.9004 186.033 51.9004 188.223Z" fill="#FFD476"/>
<path d="M40.5639 188.223C40.5639 190.412 42.329 192.191 44.5012 192.191C46.6735 192.191 48.4385 190.412 48.4385 188.223C48.4385 186.033 46.6735 184.254 44.5012 184.254C42.329 184.254 40.5639 186.033 40.5639 188.223Z" fill="#FFD476"/>
<path d="M51.9004 199.855C51.9004 202.044 53.6653 203.823 55.8376 203.823C58.0099 203.823 59.7749 202.044 59.7749 199.855C59.7749 197.665 58.0099 195.886 55.8376 195.886C53.6653 195.955 51.9004 197.665 51.9004 199.855Z" fill="#FFD476"/>
<path d="M40.5639 199.855C40.5639 202.044 42.329 203.823 44.5012 203.823C46.6735 203.823 48.4385 202.044 48.4385 199.855C48.4385 197.665 46.6735 195.886 44.5012 195.886C42.329 195.955 40.5639 197.665 40.5639 199.855Z" fill="#FFD476"/>
<path d="M364.337 15.4831C363.43 15.4687 362.61 15.7428 361.965 16.4027L351.931 26.6768L342.194 16.0886C340.943 14.7286 338.859 14.5998 337.478 16.0136L325.142 28.6443C323.853 29.9639 323.731 32.1635 325.071 33.6206C326.322 34.9805 328.498 35.0152 329.787 33.6956L339.822 23.4214L349.558 34.0096C350.809 35.3696 352.894 35.4984 354.274 34.0846L364.309 23.8104L374.046 34.3986C375.296 35.7586 377.381 35.8875 378.762 34.4736C380.051 33.154 380.173 30.9543 378.833 29.4972L366.863 16.4805C366.145 15.8948 365.244 15.4975 364.337 15.4831Z" fill="#89B5E0"/>
<path d="M364.162 34.1477C363.256 34.1333 362.435 34.4074 361.791 35.0672L351.756 45.3414L342.109 34.8503C340.858 33.4903 338.682 33.4557 337.393 34.7754L325.057 47.406C323.768 48.7256 323.646 50.9252 324.986 52.3823C326.236 53.7423 328.321 53.8711 329.702 52.4572L339.736 42.183L349.473 52.7713C350.724 54.1313 352.9 54.1659 354.189 52.8462L364.224 42.5721L373.961 53.1603C375.211 54.5203 377.296 54.6491 378.677 53.2353C379.965 51.9156 380.088 49.716 378.748 48.2589L366.778 35.2421C365.79 34.5564 364.977 34.2563 364.162 34.1477Z" fill="#89B5E0"/>
<circle cx="83.8511" cy="35.6504" r="14.1135" fill="#FF6F55"/>
<circle cx="337.554" cy="193.805" r="8.71718" fill="#FFD476"/>
</svg>
