<svg width="313" height="336" viewBox="0 0 313 336" fill="none" xmlns="http://www.w3.org/2000/svg">
<path d="M305.074 216.008L304.988 216.188L304.988 216.188L304.989 216.189L304.992 216.19L305.006 216.197L305.061 216.224C305.11 216.248 305.181 216.284 305.273 216.33C305.456 216.423 305.72 216.56 306.039 216.735C306.678 217.084 307.54 217.582 308.432 218.18C309.325 218.778 310.245 219.473 311.002 220.214C311.675 220.873 312.207 221.557 312.485 222.232L223.434 222.368C223.435 222.362 223.435 222.357 223.436 222.351C223.459 222.204 223.504 221.99 223.595 221.727C223.778 221.201 224.147 220.48 224.895 219.721C226.391 218.201 229.421 216.506 235.561 215.942L235.677 215.931L235.725 215.825L235.543 215.743C235.725 215.825 235.725 215.825 235.725 215.825L235.726 215.824L235.727 215.821L235.733 215.808L235.757 215.755C235.779 215.709 235.811 215.64 235.854 215.55C235.94 215.37 236.068 215.105 236.238 214.77C236.577 214.099 237.081 213.143 237.739 212.006C239.057 209.731 240.991 206.734 243.46 203.842C248.406 198.046 255.447 192.727 263.937 194.361C269.215 195.379 273.228 199.496 275.932 203.395C277.281 205.34 278.298 207.222 278.977 208.618C279.317 209.316 279.572 209.892 279.742 210.293C279.827 210.493 279.891 210.65 279.933 210.756C279.955 210.809 279.97 210.85 279.981 210.877L279.993 210.907L279.995 210.915L279.996 210.917L279.996 210.917L280.183 210.847M305.074 216.008L304.884 216.068L304.884 216.068L304.883 216.066L304.881 216.06L304.873 216.034C304.865 216.011 304.854 215.977 304.84 215.933C304.81 215.843 304.766 215.712 304.707 215.543C304.589 215.206 304.414 214.722 304.183 214.133C303.722 212.955 303.039 211.363 302.156 209.702C301.273 208.041 300.191 206.317 298.931 204.872C297.671 203.427 296.243 202.273 294.67 201.734C293.117 201.202 291.454 201.488 289.813 202.244C288.172 203 286.573 204.217 285.166 205.511C283.761 206.804 282.556 208.167 281.701 209.208C281.274 209.728 280.935 210.167 280.703 210.476C280.587 210.63 280.498 210.752 280.438 210.835C280.408 210.877 280.385 210.908 280.37 210.93L280.353 210.954L280.349 210.96L280.348 210.961L280.347 210.961L280.183 210.847M305.074 216.008L304.884 216.068L304.91 216.151L304.988 216.188L305.074 216.008ZM280.183 210.847L280.347 210.961L280.13 211.272L279.996 210.917L280.183 210.847Z" fill="#00747A" stroke="#00747A" stroke-width="0.4"/>
<path d="M281.766 37.8494L281.578 37.9197L281.645 38.0976L281.826 38.04L281.826 38.04L281.826 38.0399L281.828 38.0395L281.833 38.0377L281.858 38.0303C281.88 38.0237 281.914 38.0139 281.958 38.0016C282.047 37.9769 282.179 37.9421 282.35 37.9021C282.693 37.8222 283.193 37.7216 283.816 37.6405C285.061 37.4781 286.798 37.3937 288.759 37.7053C292.613 38.3173 297.349 40.4589 300.95 46.5821L237.507 46.6842C237.667 46.5394 237.873 46.3549 238.115 46.1422C238.723 45.6081 239.562 44.8964 240.484 44.1853C241.406 43.4735 242.408 42.7653 243.344 42.236C244.289 41.7017 245.134 41.3688 245.752 41.3688C245.978 41.3688 246.206 41.2698 246.429 41.1196C246.654 40.9678 246.893 40.7505 247.145 40.4839C247.647 39.9507 248.221 39.1954 248.857 38.3025C249.295 37.6887 249.762 37.0091 250.26 36.2866C251.216 34.8966 252.282 33.3482 253.451 31.8056C255.225 29.4643 257.22 27.1595 259.39 25.4904C261.561 23.8212 263.888 22.8022 266.334 22.9951C271.274 23.3887 275.081 27.0885 277.668 30.7389C278.958 32.5593 279.937 34.3559 280.592 35.6978C280.92 36.3686 281.167 36.9251 281.332 37.3135C281.414 37.5077 281.476 37.6599 281.517 37.7631C281.538 37.8148 281.553 37.8542 281.563 37.8806L281.575 37.9102L281.577 37.9175L281.578 37.9193L281.578 37.9196L281.766 37.8494Z" fill="#00747A" stroke="#00747A" stroke-width="0.4"/>
<path d="M158.188 336C231.512 336 290.953 333.169 290.953 329.678C290.953 326.186 231.512 323.356 158.188 323.356C84.8638 323.356 25.4229 326.186 25.4229 329.678C25.4229 333.169 84.8638 336 158.188 336Z" fill="#00C2CC"/>
<path d="M274.529 113.279C274.529 138.159 266.506 161.172 252.896 179.866C252.896 179.866 252.896 179.873 252.889 179.881C232.298 208.165 198.929 226.544 161.265 226.544C98.7047 226.544 48 175.831 48 113.279C48 75.8241 66.1763 42.6133 94.1982 21.9925C112.974 8.17275 136.167 0.0144043 161.265 0.0144043C164.369 0.0144043 167.451 0.13438 170.495 0.389328C188.544 1.84403 205.393 7.52788 220.053 16.4511C231.675 23.5222 241.926 32.6253 250.302 43.2732C252.836 46.49 255.191 49.8418 257.373 53.3211C268.245 70.7176 274.529 91.2635 274.529 113.286V113.279Z" fill="#ECF7F4"/>
<g opacity="0.2">
<path d="M185.725 166.736C184.301 170.546 186.678 170.703 186.835 172.285C186.993 173.875 186.835 176.889 182.231 181.486C177.627 186.09 170.016 185.138 168.426 187.035C166.837 188.939 164.145 197.03 160.336 199.722C156.526 202.422 155.896 200.832 150.498 201.942C145.106 203.051 140.982 210.033 139.392 213.362C137.803 216.691 139.707 222.248 135.905 222.405C132.096 222.562 130.357 214.314 126.862 209.875C123.376 205.436 122.258 201.469 121.148 196.235C120.039 191.001 121.786 180.054 121.148 175.772C120.511 171.49 109.091 163.872 104.967 158.638C100.843 153.404 95.1287 142.936 95.4512 139.442C95.7661 135.955 98.3081 132.146 100.213 130.714C102.117 129.289 101.322 128.494 101.637 127.227C101.952 125.96 103.542 125.637 103.857 124.055C104.172 122.465 102.905 117.711 101.322 116.916C99.7328 116.122 98.623 118.821 97.6707 118.341C96.7184 117.869 93.8615 114.532 92.7517 114.217C91.6419 113.902 91.9569 116.279 90.3747 113.265C88.785 110.25 87.9977 102.639 86.7229 101.365C85.4557 100.097 84.5034 103.584 81.489 101.365C78.4746 99.145 77.2073 94.8633 75.9401 94.2259C74.6728 93.5886 72.9257 94.3834 71.621 91.8489C70.3162 89.3069 72.7682 84.7104 71.621 85.1828C70.4737 85.6552 68.0067 89.3069 67.3693 85.8201C66.732 82.3333 70.5412 70.5907 69.9038 64.247C69.2664 57.9033 71.4935 51.2371 75.9326 45.8457C75.9326 45.8457 76.57 42.3589 77.1999 40.1319C77.8372 37.9123 91.4769 29.0266 93.0666 26.4921C93.7265 25.4349 93.9515 23.7702 94.1839 21.9781C112.96 8.15835 136.153 0 161.25 0C164.355 0 167.437 0.119976 170.481 0.374924C170.586 0.517395 170.691 0.659865 170.796 0.794837C172.168 2.54198 173.653 3.65176 177.672 5.12897C181.691 6.60617 182.644 8.51078 181.796 10.1005C180.949 11.6901 179.577 12.0051 177.987 12.1101C176.397 12.215 174.92 11.3677 173.225 12.425C171.531 13.4823 169.844 19.1886 167.617 19.5111C165.397 19.826 161.483 14.4346 160.635 12.8449C159.788 11.2552 162.54 7.8734 161.243 6.28373C159.946 4.69405 157.674 5.01649 154.082 4.69405C150.49 4.37912 142.137 5.75134 142.452 7.13106C142.767 8.50328 154.719 6.9211 155.034 9.67304C155.349 12.425 146.261 17.074 144.671 16.6541C143.082 16.2342 140.967 13.4823 138.642 13.1673C136.31 12.8524 134.413 14.757 132.951 14.967C131.489 15.1769 129.764 13.3773 127.545 13.8047C125.325 14.2246 124.793 16.1292 123.63 16.8716C122.468 17.6139 119.716 17.6139 119.401 19.3011C119.086 20.9958 122.888 21.9481 123.84 23.0053C124.793 24.0626 122.678 27.6619 123.63 28.3968C124.583 29.1391 130.507 23.9577 131.984 22.6829C133.461 21.4157 134.728 15.9118 137.908 16.0168C141.079 16.1217 142.137 21.5131 143.194 22.0455C144.251 22.5779 146.576 20.7783 150.07 21.5131C153.557 22.2555 155.994 29.8665 156.624 32.1985C157.261 34.523 158.738 36.855 157.471 37.8074C156.204 38.7597 150.49 37.17 149.755 35.6928C149.013 34.2081 153.564 31.9885 153.242 31.4636C152.927 30.9312 150.28 30.1964 148.908 31.0212C147.536 31.8461 146.898 33.5782 145.421 33.9981C143.936 34.418 140.03 29.9789 138.972 31.2462C137.915 32.5134 140.03 36.5326 141.087 37.4849C142.144 38.4372 146.058 38.9621 146.373 40.0194C146.688 41.0767 143.734 43.4012 140.135 43.1913C136.543 42.9813 133.581 40.2294 132.201 41.3916C130.829 42.5539 131.564 45.6208 130.612 46.6781C129.659 47.7353 124.478 46.993 121.943 49.7449C119.409 52.4969 118.239 56.621 115.705 58.9456C113.17 61.2776 112.008 58.3082 108.618 61.5925C105.237 64.8694 104.704 72.1654 104.599 74.7074C104.494 77.2419 104.599 79.2515 103.752 78.9365C102.905 78.6216 101.742 76.402 101.42 75.0223C101.105 73.6501 102.162 71.3181 102.162 70.4782C102.162 69.6384 97.2958 65.2968 94.4389 64.8694C91.5819 64.4495 89.0474 66.774 86.9329 68.4612C84.8183 70.1558 81.0091 69.8409 79.6369 71.2131C78.2571 72.5853 77.1998 84.7479 78.2571 87.6048C79.3144 90.4617 80.6941 90.4617 84.0759 88.977C87.4578 87.4923 85.5531 84.6429 87.5627 85.2728C89.5723 85.9101 90.6296 88.0247 90.6296 89.7119C90.6296 91.399 86.6104 95.4257 87.1428 96.588C87.6752 97.7502 91.162 96.378 92.8567 96.9029C94.5513 97.4353 95.3912 98.4926 94.8663 102.827C94.3339 107.161 94.6563 110.543 97.1908 111.975C99.7253 113.4 101.158 109.913 102.267 110.385C103.377 110.858 104.967 113.4 106.549 113.242C108.139 113.085 107.344 111.652 110.358 110.708C113.373 109.763 112.263 109.118 112.893 107.221C113.53 105.316 115.427 103.734 117.497 104.686C119.559 105.639 118.134 107.063 118.292 108.653C118.449 110.243 122.101 110.4 124.958 111.352C127.815 112.305 129.397 111.352 135.111 113.257C140.824 115.162 141.139 120.868 143.516 121.82C145.893 122.773 153.827 121.183 159.541 125.307C165.255 129.431 163.665 137.05 166.522 139.269C169.379 141.489 180.004 144.503 184.128 145.298C188.252 146.093 188.89 143.236 192.219 144.031C195.548 144.826 197.453 145.778 198.563 150.375C199.538 154.424 187.143 162.905 185.71 166.714L185.725 166.736Z" fill="#00747A"/>
<path d="M100.483 85.6252C100.588 86.5251 103.235 86.8925 106.407 88.6921C109.578 90.4918 110.741 95.7782 112.435 95.6732C114.13 95.5682 113.598 93.1387 114.235 92.5014C114.872 91.864 115.93 90.4918 114.235 89.1195C112.54 87.7473 110.898 84.7854 107.809 84.358C104.719 83.9381 104.187 82.6633 102.815 82.7683C101.443 82.8733 100.28 83.8256 100.49 85.6252H100.483Z" fill="#00747A"/>
<path d="M117.931 94.5032C117.459 95.8004 117.931 96.7227 121.313 97.5701C124.695 98.4174 127.867 96.7228 126.809 96.0329C125.752 95.343 124.162 95.6655 124.8 94.4957C125.437 93.3334 125.22 91.6388 122.468 91.9612C119.723 92.2761 118.344 93.3334 117.924 94.4957L117.931 94.5032Z" fill="#00747A"/>
<path d="M129.779 94.8703C128.624 95.0353 127.979 97.0448 129.142 98.3196C130.304 99.5868 130.304 99.3769 131.676 98.3196C133.048 97.2623 135.163 96.7374 134.638 95.6801C134.106 94.6228 130.934 94.7053 129.772 94.8778L129.779 94.8703Z" fill="#00747A"/>
<path d="M138.979 99.1896C139.497 97.6 142.151 99.1596 143.313 100.854C144.476 102.549 143.951 104.978 143.313 106.778C142.676 108.578 142.256 110.692 140.779 109.845C139.302 108.998 140.884 106.463 140.674 104.978C140.464 103.501 138.559 100.487 138.979 99.1896Z" fill="#00747A"/>
<path d="M184.563 10.9622C184.008 12.2894 186.573 12.7618 188.05 13.6092C189.527 14.4565 190.697 14.9814 191.537 13.6092C192.384 12.2369 191.222 10.6473 190.06 10.3323C188.897 10.0174 185.088 9.69496 184.563 10.9697V10.9622Z" fill="#00747A"/>
<path d="M204.546 23.3351C205.521 24.3624 207.193 24.1824 208.356 25.6596C209.518 27.1368 209.098 29.6788 210.575 30.4212C212.052 31.1635 213.11 30.4212 213.222 29.3639C213.327 28.3066 211.108 25.6596 211.317 25.1347C211.527 24.6023 214.384 25.8771 215.022 27.4593C215.659 29.0489 214.384 31.2685 215.869 31.6884C217.346 32.1083 217.031 30.2112 217.669 29.7838C218.306 29.3639 219.678 29.5738 219.573 28.3066C219.468 27.0394 217.774 24.2874 216.401 23.3351C215.029 22.3828 213.972 21.3255 211.64 20.8006C209.315 20.2682 207.096 20.6956 205.926 21.6479C204.764 22.6003 203.946 22.7052 204.554 23.3426L204.546 23.3351Z" fill="#00747A"/>
<path d="M250.302 43.2664C250.175 43.7913 249.98 44.1812 249.702 44.3762C247.483 45.9659 244.836 40.462 241.769 39.4047C238.702 38.3474 237.33 34.4332 236.692 35.2805C236.055 36.1279 236.265 37.2901 235.313 38.6623C234.36 40.0421 232.988 39.7196 232.351 42.3666C231.713 45.0061 235.313 49.8801 234.465 51.4623C233.618 53.0519 232.561 52.5195 230.866 52.4146C229.171 52.3096 229.494 53.7868 227.274 53.1569C225.055 52.5195 226.952 49.7751 223.465 46.4908C219.978 43.2139 218.809 42.5765 219.558 41.0993C220.308 39.6146 219.236 37.5076 220.826 37.2901C222.415 37.0802 223.683 39.4047 224.74 40.0421C225.797 40.6794 227.177 38.7748 227.274 37.0802C227.379 35.3855 223.57 33.061 222.198 31.7487C220.826 30.429 220.713 25.66 221.246 24.7077C221.778 23.7554 223.36 24.0703 223.78 21.7458C224.027 20.381 221.86 18.094 220.038 16.4443C231.661 23.5154 241.911 32.6186 250.287 43.2664H250.302Z" fill="#00747A"/>
<path d="M266.102 138.077C266.417 134.695 264.73 134.478 266.417 128.239C268.112 122 264.625 115.334 263.35 113.962C262.083 112.582 259.331 113.01 257.111 114.382C254.892 115.754 256.474 116.819 254.997 117.344C253.52 117.876 252.035 117.029 250.663 117.134C249.283 117.239 248.016 120.726 245.054 120.621C242.092 120.516 240.187 116.286 237.968 113.272C235.748 110.258 231.197 108.353 229.719 104.649C228.235 100.952 231.092 95.2382 230.462 90.904C229.824 86.5699 226.975 87.5222 226.442 85.0852C225.918 82.6482 226.87 83.818 227.605 81.486C228.347 79.1614 226.757 77.8942 228.242 73.875C229.727 69.8558 232.366 67.8462 231.729 66.0541C231.092 64.2544 229.089 61.2925 228.977 59.1855C228.872 57.0784 230.987 57.1684 235.006 54.2065C239.025 51.2446 240.082 51.462 243.149 52.5118C246.216 53.5691 248.121 54.1015 249.92 54.4164C251.72 54.7314 254.149 59.3879 254.892 59.178C255.634 58.968 255.739 57.5883 256.054 55.5862C256.189 54.7389 256.759 53.9365 257.374 53.3066C268.247 70.7031 274.53 91.249 274.53 113.272C274.53 138.152 266.507 161.165 252.897 179.859C263.687 163.392 265.78 141.459 266.094 138.077H266.102Z" fill="#00747A"/>
</g>
<path d="M156.981 192.995C156.782 190.996 155.399 189.004 152.976 189.004C150.553 189.004 149.177 190.996 148.978 192.995C148.67 196.082 150.758 198.882 152.976 201.435C155.201 198.882 157.282 196.082 156.981 192.995ZM152.976 195.22C151.764 195.22 150.785 194.241 150.785 193.029C150.785 191.817 151.764 190.839 152.976 190.839C154.188 190.839 155.166 191.817 155.166 193.029C155.166 194.241 154.188 195.22 152.976 195.22Z" fill="#00747A"/>
<path d="M193.535 153.968C193.336 151.969 191.954 149.977 189.53 149.977C187.107 149.977 185.731 151.969 185.533 153.968C185.224 157.055 187.312 159.855 189.53 162.409C191.755 159.855 193.836 157.055 193.535 153.968ZM189.53 156.193C188.319 156.193 187.34 155.214 187.34 154.002C187.34 152.791 188.319 151.812 189.53 151.812C190.742 151.812 191.721 152.791 191.721 154.002C191.721 155.214 190.742 156.193 189.53 156.193Z" fill="#00747A"/>
<path d="M95.6238 83.9592C95.4253 81.9603 94.0425 79.9683 91.6192 79.9683C89.1959 79.9683 87.8199 81.9603 87.6214 83.9592C87.3134 87.0465 89.4012 89.8464 91.6192 92.3997C93.844 89.8464 95.925 87.0465 95.6238 83.9592ZM91.6192 86.184C90.4075 86.184 89.4286 85.2051 89.4286 83.9934C89.4286 82.7818 90.4075 81.8029 91.6192 81.8029C92.8308 81.8029 93.8097 82.7818 93.8097 83.9934C93.8097 85.2051 92.8308 86.184 91.6192 86.184Z" fill="#00747A"/>
<path d="M125.567 124.793C125.368 122.794 123.985 120.802 121.562 120.802C119.139 120.802 117.763 122.794 117.564 124.793C117.256 127.88 119.344 130.68 121.562 133.233C123.787 130.68 125.868 127.88 125.567 124.793ZM121.562 127.018C120.35 127.018 119.371 126.039 119.371 124.827C119.371 123.616 120.35 122.637 121.562 122.637C122.774 122.637 123.753 123.616 123.753 124.827C123.753 126.039 122.774 127.018 121.562 127.018Z" fill="#00747A"/>
<path d="M237.758 75.6416C237.56 73.6427 236.177 71.6506 233.754 71.6506C231.33 71.6506 229.954 73.6427 229.756 75.6416C229.448 78.7289 231.536 81.5287 233.754 84.0821C235.979 81.5287 238.06 78.7289 237.758 75.6416ZM233.754 77.8664C232.542 77.8664 231.563 76.8875 231.563 75.6758C231.563 74.4641 232.542 73.4852 233.754 73.4852C234.965 73.4852 235.951 74.4641 235.951 75.6758C235.951 76.8875 234.972 77.8664 233.754 77.8664Z" fill="#00747A"/>
<path d="M262.936 116.783C262.737 114.785 261.354 112.792 258.931 112.792C256.508 112.792 255.132 114.785 254.933 116.783C254.625 119.871 256.713 122.671 258.931 125.224C261.156 122.671 263.237 119.871 262.936 116.783ZM258.931 119.008C257.719 119.008 256.74 118.029 256.74 116.818C256.74 115.606 257.719 114.627 258.931 114.627C260.143 114.627 261.128 115.606 261.128 116.818C261.128 118.029 260.149 119.008 258.931 119.008Z" fill="#00747A"/>
<path d="M116.461 49.1567C116.262 47.1578 114.88 45.1658 112.456 45.1658C110.033 45.1658 108.657 47.1578 108.459 49.1567C108.151 52.244 110.238 55.0439 112.456 57.5972C114.681 55.0439 116.762 52.244 116.461 49.1567ZM112.456 51.3815C111.245 51.3815 110.266 50.4026 110.266 49.1909C110.266 47.9793 111.245 47.0004 112.456 47.0004C113.668 47.0004 114.647 47.9793 114.647 49.1909C114.647 50.4026 113.668 51.3815 112.456 51.3815Z" fill="#00747A"/>
<path d="M11.1191 137.824L11.2138 138L11.2136 138L11.2126 138.001L11.2084 138.003L11.1916 138.012L11.1248 138.049C11.0661 138.081 10.9793 138.129 10.8677 138.192C10.6445 138.317 10.322 138.501 9.92581 138.736C9.13332 139.204 8.04665 139.874 6.87002 140.677C4.62196 142.211 2.0693 144.217 0.599207 146.229L96.7413 146.087C96.603 145.921 96.4123 145.698 96.1754 145.435C95.6438 144.843 94.88 144.045 93.9515 143.224C92.0881 141.576 89.5882 139.857 86.9866 139.475L86.8656 139.457L86.8263 139.341L87.0157 139.277C86.8263 139.341 86.8263 139.341 86.8262 139.341L86.8259 139.34L86.8245 139.336L86.819 139.32L86.7965 139.255C86.7897 139.235 86.7818 139.213 86.7727 139.187C86.755 139.136 86.733 139.074 86.7066 139.001C86.6268 138.778 86.5073 138.45 86.349 138.033C86.0324 137.199 85.5605 136.007 84.9403 134.575C83.6995 131.711 81.8659 127.891 79.4939 124.067C77.1212 120.242 74.2145 116.419 70.8301 113.543C67.4461 110.667 63.5965 108.747 59.3323 108.698L11.1191 137.824ZM11.1191 137.824L11.3074 137.892L11.3075 137.891L11.308 137.89L11.31 137.884L11.3186 137.861C11.3262 137.84 11.3378 137.809 11.3532 137.768C11.3839 137.686 11.4302 137.565 11.4916 137.41C11.6145 137.098 11.7982 136.649 12.0409 136.097C12.5264 134.992 13.2475 133.48 14.1897 131.846C16.0781 128.571 18.8379 124.839 22.3454 122.913C25.8097 121.01 29.3727 122.123 32.1055 123.75C33.4688 124.561 34.6138 125.495 35.4185 126.226C35.8205 126.592 36.137 126.906 36.3525 127.129C36.4603 127.24 36.5428 127.328 36.5981 127.389C36.6258 127.419 36.6467 127.442 36.6605 127.457L36.6759 127.475L36.6796 127.479L36.6805 127.48L36.6806 127.48L36.9096 127.741L37.0205 127.412L36.831 127.348M11.1191 137.824L11.3073 137.892L11.2814 137.964L11.2139 138L11.1191 137.824ZM11.1191 137.824L36.831 127.348M36.831 127.348L37.0206 127.412L37.0207 127.411L37.0215 127.409L37.0249 127.399L37.0386 127.36C37.051 127.325 37.0697 127.272 37.0949 127.203C37.1452 127.065 37.2213 126.863 37.324 126.605C37.5294 126.089 37.8411 125.35 38.2654 124.464C39.1142 122.692 40.4122 120.332 42.2092 117.978C45.8052 113.269 51.3781 108.611 59.3322 108.698L36.831 127.348Z" fill="#00747A" stroke="#00747A" stroke-width="0.4"/>
<path d="M192.739 94.3936C195.965 92.454 199.651 91.9541 203.397 93.967C207.149 95.9866 210.302 99.3993 208.789 105.898C207.556 111.177 205.343 115.696 203.597 121.468C201.85 127.24 204.323 143.417 191.306 146.85C179.608 149.929 161.479 138.045 164.765 125.181C167.371 114.983 182.674 109.604 185.207 106.031C187.74 102.465 189.193 96.5199 192.732 94.387L192.739 94.3936Z" fill="#304668"/>
<path d="M189.386 98.6929C188.433 101.546 187.093 104.312 184.94 106.605C184.407 107.178 183.747 107.684 183.047 108.098C182.354 108.518 181.647 108.891 180.934 109.257C179.508 109.984 178.095 110.71 176.735 111.497C174.009 113.057 171.489 114.883 169.436 117.103C167.384 119.322 165.857 121.942 164.884 124.788C165.177 123.301 165.684 121.875 166.337 120.502C167.01 119.142 167.863 117.862 168.85 116.669C170.816 114.276 173.402 112.37 176.168 110.764C177.561 109.971 179.001 109.251 180.428 108.538C181.861 107.818 183.294 107.165 184.36 106.125C185.467 105.105 186.373 103.892 187.18 102.625C188.019 101.372 188.719 100.046 189.379 98.6929H189.386Z" fill="#304668"/>
<path d="M207.742 109.438C206.769 112.397 205.656 115.303 204.876 118.296C204.503 119.796 204.163 121.309 204.009 122.848C203.843 124.368 203.929 125.974 203.923 127.567C203.916 129.16 203.863 130.76 203.703 132.34C203.516 133.913 203.216 135.479 202.703 136.972C202.163 138.459 201.403 139.865 200.377 141.105C199.277 142.304 197.884 143.271 196.284 143.931C197.751 143.098 199.024 142.085 199.943 140.831C200.843 139.572 201.496 138.179 201.93 136.712C202.75 133.753 202.903 130.607 202.883 127.441C202.91 125.861 202.823 124.255 203.029 122.648C203.243 121.069 203.603 119.536 204.096 118.049C205.056 115.063 206.355 112.231 207.735 109.438H207.742Z" fill="#304668"/>
<path d="M236.256 316.303C234.676 316.476 192.505 307.211 191.125 305.832C190.592 305.318 191.585 299.093 192.998 291.608C193.011 291.528 193.031 291.455 193.045 291.375C193.331 289.828 200.67 264.46 200.67 264.46L228.897 270.579L220.319 297.047L220.206 297.507C220.206 297.507 234.763 308.271 236.123 309.944C237.469 311.604 237.842 316.13 236.263 316.296L236.256 316.303Z" fill="#F9CFA7"/>
<path d="M191.125 305.832C192.505 307.212 234.677 316.476 236.256 316.303C237.836 316.137 237.469 311.611 236.116 309.951C234.757 308.285 220.2 297.514 220.2 297.514L220.313 297.054L221.293 294.028L193.985 287.829C193.685 288.922 193.078 291.155 193.038 291.381C193.018 291.461 193.005 291.535 192.992 291.615C191.585 299.1 190.585 305.325 191.125 305.832Z" fill="#1B1B2E"/>
<path d="M236.256 316.296C235.442 316.383 223.958 313.99 212.78 311.45C210.534 310.937 208.301 310.424 206.168 309.924C198.203 308.051 191.658 306.358 191.125 305.831C190.598 305.325 191.551 299.273 192.938 291.921C192.958 291.814 192.971 291.714 192.998 291.608C193.011 291.528 193.031 291.448 193.038 291.368H193.071L220.312 297.047L220.205 297.506C220.205 297.506 234.763 308.271 236.116 309.937C237.462 311.604 237.835 316.123 236.256 316.289V316.296Z" fill="#ECF7F4"/>
<path d="M236.135 314.563C229.064 312.823 200.383 306.491 193.264 305.311C193.204 305.305 193.197 305.338 193.257 305.358C200.229 307.231 228.957 313.336 236.115 314.683C236.269 314.71 236.289 314.603 236.142 314.57L236.135 314.563Z" fill="#1B1B2E"/>
<path d="M223.324 297.793C220.644 296.653 217.125 296.333 214.552 297.86C214.452 297.92 214.539 298.06 214.632 298.053C217.585 297.787 220.285 297.8 223.237 298.146C223.444 298.173 223.517 297.88 223.324 297.793Z" fill="#1B1B2E"/>
<path d="M225.078 299.453C222.398 298.313 218.879 297.993 216.306 299.519C216.206 299.579 216.293 299.719 216.386 299.713C219.339 299.446 222.038 299.459 224.991 299.806C225.198 299.833 225.271 299.539 225.078 299.453Z" fill="#1B1B2E"/>
<path d="M226.83 301.119C224.15 299.979 220.631 299.659 218.058 301.186C217.958 301.246 218.045 301.386 218.138 301.379C221.091 301.112 223.79 301.126 226.743 301.472C226.95 301.499 227.023 301.206 226.83 301.119Z" fill="#1B1B2E"/>
<path d="M224.866 292.888L194.245 285.369C194.245 285.369 205.023 235.932 204.776 234.666C204.463 233.04 178.322 158.408 178.322 158.408H204.677C204.677 158.408 233.757 229.267 234.591 236.159C235.937 247.283 224.872 292.888 224.872 292.888H224.866Z" fill="#FFD476"/>
<path d="M224.459 286.162C219.12 284.436 199.518 279.824 197.325 279.664C197.278 279.664 197.258 279.737 197.305 279.757C199.331 280.617 216.174 284.823 224.433 286.296C224.519 286.309 224.553 286.189 224.466 286.162H224.459Z" fill="#1B1B2E"/>
<path d="M209.735 236.213C209.449 234.373 208.689 232.593 208.082 230.84C205.49 223.295 202.877 215.757 200.237 208.225C197.611 200.733 194.965 193.241 192.232 185.789C189.486 178.298 186.713 170.812 183.941 163.327C183.594 162.394 183.221 161.468 182.861 160.534C182.834 160.461 182.714 160.494 182.741 160.568C185.334 168.026 187.987 175.465 190.613 182.917C193.245 190.369 195.845 197.827 198.451 205.286C201.064 212.744 203.643 220.209 206.203 227.688C206.849 229.574 207.489 231.46 208.129 233.353C208.749 235.18 209.216 236.899 208.942 238.845C208.662 240.792 208.202 242.725 207.823 244.651C207.443 246.584 207.069 248.517 206.689 250.456C205.17 258.275 203.657 266.093 202.25 273.932C202.07 274.925 201.904 275.918 201.764 276.911C201.75 276.984 201.857 277.011 201.877 276.938C202.87 273.052 203.61 269.093 204.437 265.167C205.263 261.234 206.063 257.302 206.863 253.363C207.649 249.463 208.436 245.564 209.209 241.658C209.562 239.872 210.022 238.052 209.735 236.219V236.213Z" fill="#1B1B2E"/>
<path d="M204.423 158.415L193.432 201.68C186.254 181.064 178.322 158.415 178.322 158.415H204.423Z" fill="#1B1B2E"/>
<path d="M207.443 327.427C205.923 327.907 162.758 327.114 161.132 326.041C160.505 325.641 160.259 319.349 160.172 311.73C160.172 311.65 160.172 311.57 160.172 311.49C160.152 309.924 161.039 283.603 161.039 283.603L189.26 284.042L188.033 311.697L188.013 312.17C188.013 312.17 204.403 319.862 206.063 321.235C207.709 322.601 208.962 326.961 207.449 327.434L207.443 327.427Z" fill="#F9CFA7"/>
<path d="M160.146 308.471C160.146 309.497 160.159 310.497 160.172 311.49V311.73C160.259 319.342 160.512 325.648 161.139 326.041C162.758 327.121 205.93 327.907 207.449 327.427C208.962 326.954 207.716 322.595 206.063 321.228C204.403 319.862 188.013 312.17 188.013 312.17L188.033 311.697L188.16 308.758C183.194 308.704 168.924 308.564 160.152 308.478L160.146 308.471Z" fill="#1B1B2E"/>
<path d="M207.442 327.427C205.922 327.907 162.758 327.114 161.131 326.041C160.505 325.641 160.258 319.349 160.171 311.73C160.171 311.65 160.171 311.57 160.171 311.49L188.026 311.69L188.006 312.163C188.006 312.163 204.396 319.855 206.056 321.228C207.702 322.595 208.955 326.954 207.442 327.427Z" fill="#ECF7F4"/>
<path d="M206.982 325.741C199.711 325.427 170.343 324.854 163.125 325.101C163.065 325.101 163.065 325.141 163.125 325.147C170.33 325.614 199.697 325.947 206.976 325.861C207.129 325.861 207.129 325.747 206.976 325.741H206.982Z" fill="#1B1B2E"/>
<path d="M191.126 311.824C188.273 311.237 184.76 311.61 182.534 313.61C182.447 313.69 182.561 313.81 182.654 313.783C185.494 312.943 188.146 312.424 191.106 312.184C191.312 312.17 191.326 311.864 191.126 311.824Z" fill="#1B1B2E"/>
<path d="M193.172 313.104C190.319 312.517 186.807 312.89 184.58 314.89C184.494 314.97 184.607 315.09 184.7 315.063C187.54 314.223 190.193 313.704 193.152 313.464C193.359 313.45 193.372 313.144 193.172 313.104Z" fill="#1B1B2E"/>
<path d="M195.212 314.39C192.359 313.803 188.846 314.176 186.62 316.176C186.533 316.256 186.647 316.376 186.74 316.349C189.579 315.51 192.232 314.99 195.192 314.75C195.398 314.736 195.412 314.43 195.212 314.39Z" fill="#1B1B2E"/>
<path d="M203.823 158.415C203.823 158.415 203.216 171.025 200.33 181.01C200.097 181.837 199.657 183.35 199.39 184.129C199.39 184.129 194.398 185.902 193.851 186.236L190.032 307.018L158.938 306.685C158.938 306.685 163.897 242.671 163.857 238.572C163.797 231.98 167.423 187.349 167.044 186.222C163.178 174.691 169.57 158.421 169.57 158.421H203.829L203.823 158.415Z" fill="#FFD476"/>
<path d="M188.953 301.253C180.194 300.726 163.231 300.593 161.052 300.926C161.005 300.933 161.005 301.013 161.052 301.019C163.218 301.406 183.827 301.799 188.953 301.386C189.039 301.379 189.046 301.253 188.953 301.246V301.253Z" fill="#1B1B2E"/>
<path d="M190.892 250.763C191.265 236.919 191.745 223.075 192.305 209.238C192.625 201.433 192.951 194.534 193.405 186.729C193.418 186.456 193.831 186.469 193.825 186.742C193.485 200.659 192.938 213.664 192.485 227.574C192.032 241.418 191.552 255.262 191.072 269.099C190.805 276.911 190.565 284.716 190.245 292.528C190.245 292.641 190.072 292.634 190.072 292.528C190.152 278.611 190.512 264.687 190.885 250.769L190.892 250.763Z" fill="#1B1B2E"/>
<path d="M166.584 270.099C167.23 261.02 167.924 251.942 168.597 242.864C169.27 233.786 169.95 224.708 170.623 215.63C170.956 211.09 171.283 206.551 171.643 202.012C171.823 199.746 171.996 197.473 172.176 195.207C172.349 192.981 172.663 190.695 172.583 188.462C172.496 186.002 171.463 183.816 170.89 181.463C170.343 179.23 170.156 176.924 170.183 174.631C170.25 169.885 171.31 165.22 172.289 160.601C172.343 160.347 172.743 160.461 172.683 160.721C171.676 164.96 170.763 169.246 170.583 173.625C170.496 175.798 170.616 177.984 171.036 180.123C171.443 182.176 172.296 184.089 172.783 186.116C173.282 188.215 173.003 190.375 172.836 192.494C172.656 194.76 172.509 197.033 172.349 199.306C172.029 203.759 171.689 208.204 171.363 212.65C170.016 230.713 168.703 248.783 167.29 266.846C166.497 277.011 165.824 287.195 164.838 297.347C164.831 297.42 164.718 297.42 164.718 297.347C165.191 288.262 165.944 279.184 166.59 270.105L166.584 270.099Z" fill="#1B1B2E"/>
<path d="M172.956 172.125C173.483 171.919 174.063 171.872 174.603 171.712C175.169 171.545 175.729 171.359 176.275 171.119C177.295 170.666 178.295 170.092 179.162 169.386C180.055 168.653 180.588 167.713 181.035 166.66C181.268 166.1 182.288 163.134 182.294 163.114C182.328 163.047 182.461 163.067 182.461 163.141C182.441 163.54 181.868 166.067 181.668 166.706C181.294 167.906 180.755 169.006 179.788 169.839C178.848 170.652 177.735 171.259 176.575 171.685C175.976 171.905 175.356 172.085 174.729 172.192C174.163 172.292 173.529 172.419 172.956 172.299C172.856 172.279 172.89 172.145 172.956 172.119V172.125Z" fill="#1B1B2E"/>
<path d="M198.698 184.136C195.798 185.136 192.992 186.555 190.319 188.042C190.213 188.102 190.286 188.262 190.399 188.215C193.226 187.002 196.098 185.842 198.851 184.476C199.064 184.369 198.924 184.062 198.698 184.136Z" fill="#1B1B2E"/>
<path d="M199.591 164.76C199.584 164.66 199.411 164.64 199.411 164.747C199.431 168.1 199.218 171.046 198.938 174.178C198.804 175.631 197.638 183.67 195.112 183.083C194.692 182.983 194.472 182.57 194.405 181.93C194.325 181.164 194.612 180.224 194.738 179.464C195.018 177.784 195.245 176.091 195.385 174.392C195.652 171.219 195.665 168.046 195.285 164.887C195.272 164.78 195.125 164.794 195.125 164.893C195.125 169.286 195.012 173.665 194.358 178.018C194.045 180.11 192.992 183.256 195.178 183.576C197.405 183.903 198.844 178.631 199.118 177.191C199.877 173.165 199.904 168.826 199.591 164.754V164.76Z" fill="#1B1B2E"/>
<path d="M195.185 183.303C194.958 183.843 194.772 184.403 194.618 184.97C194.498 185.41 194.332 185.883 194.385 186.336C194.392 186.423 194.512 186.436 194.558 186.376C194.852 186.003 194.978 185.49 195.145 185.043C195.338 184.53 195.538 184.017 195.718 183.497C195.838 183.15 195.331 182.97 195.191 183.303H195.185Z" fill="#1B1B2E"/>
<path d="M134.697 241.916L95.198 229.104L71.3522 302.625L110.852 315.437L134.697 241.916Z" fill="#89B5E0"/>
<g opacity="0.1">
<path d="M131.863 250.652L92.364 237.841L92.2201 238.285L131.719 251.096L131.863 250.652Z" fill="#1B1B2E"/>
<path d="M129.287 258.594L89.7876 245.783L89.6437 246.227L129.143 259.038L129.287 258.594Z" fill="#1B1B2E"/>
<path d="M126.715 266.538L87.2156 253.726L87.0716 254.17L126.571 266.981L126.715 266.538Z" fill="#1B1B2E"/>
<path d="M124.136 274.479L84.6365 261.668L84.4925 262.112L123.992 274.923L124.136 274.479Z" fill="#1B1B2E"/>
<path d="M121.557 282.427L82.0579 269.616L81.9139 270.06L121.413 282.871L121.557 282.427Z" fill="#1B1B2E"/>
<path d="M118.978 290.37L79.4785 277.559L79.3346 278.003L118.834 290.814L118.978 290.37Z" fill="#1B1B2E"/>
<path d="M116.399 298.319L76.8992 285.507L76.7552 285.951L116.255 298.762L116.399 298.319Z" fill="#1B1B2E"/>
<path d="M113.821 306.26L74.322 293.449L74.1781 293.893L113.677 306.704L113.821 306.26Z" fill="#1B1B2E"/>
</g>
<path d="M116.469 236.004L113.426 235.017L89.5802 308.538L92.6235 309.525L116.469 236.004Z" fill="#1B1B2E"/>
<path d="M115.265 263.97L111.975 262.903L104.771 285.112L108.062 286.18L115.265 263.97Z" fill="#1B1B2E"/>
<path d="M112.622 309.938L103.137 306.858L97.5518 311.131L110.836 315.443L112.622 309.938Z" fill="#1B1B2E"/>
<path d="M73.1227 297.12L82.6075 300.2L84.6138 306.938L71.3364 302.626L73.1227 297.12Z" fill="#1B1B2E"/>
<path d="M101.97 319.862L105.482 321.002L109.955 315.157L102.37 312.697L103.469 316.703L101.97 319.862Z" fill="#1B1B2E"/>
<path d="M98.0642 320.809C97.1978 323.482 98.6575 326.348 101.33 327.215C104.003 328.081 106.869 326.621 107.736 323.948C108.602 321.276 107.136 318.41 104.47 317.543C101.797 316.677 98.9307 318.143 98.0642 320.809Z" fill="#1B1B2E"/>
<path d="M100.258 321.522C99.7845 322.982 100.584 324.548 102.044 325.028C103.504 325.501 105.07 324.701 105.55 323.242C106.023 321.782 105.223 320.216 103.764 319.736C102.304 319.263 100.738 320.062 100.258 321.522Z" fill="#89B5E0"/>
<path d="M103.371 320.755C103.251 321.135 103.191 321.455 103.251 321.475C103.304 321.495 103.451 321.202 103.578 320.822C103.698 320.442 103.758 320.122 103.698 320.102C103.644 320.082 103.498 320.376 103.371 320.755Z" fill="#1B1B2E"/>
<path d="M104.378 321.562C104.024 321.742 103.758 321.936 103.784 321.989C103.811 322.042 104.124 321.936 104.477 321.756C104.831 321.576 105.097 321.383 105.071 321.329C105.044 321.276 104.731 321.383 104.378 321.562Z" fill="#1B1B2E"/>
<path d="M104.524 322.842C104.144 322.722 103.824 322.662 103.804 322.722C103.784 322.775 104.077 322.922 104.457 323.049C104.837 323.169 105.157 323.229 105.177 323.169C105.197 323.115 104.904 322.969 104.524 322.842Z" fill="#1B1B2E"/>
<path d="M103.724 323.855C103.544 323.502 103.351 323.235 103.297 323.262C103.244 323.288 103.351 323.602 103.53 323.955C103.71 324.308 103.904 324.575 103.957 324.548C104.01 324.521 103.904 324.208 103.724 323.855Z" fill="#1B1B2E"/>
<path d="M102.438 323.995C102.558 323.615 102.618 323.295 102.558 323.275C102.504 323.255 102.358 323.548 102.231 323.928C102.111 324.308 102.051 324.628 102.111 324.648C102.165 324.668 102.311 324.375 102.438 323.995Z" fill="#1B1B2E"/>
<path d="M101.431 323.195C101.784 323.015 102.051 322.822 102.024 322.769C101.997 322.716 101.684 322.822 101.331 323.002C100.978 323.182 100.711 323.375 100.738 323.429C100.764 323.482 101.078 323.375 101.431 323.195Z" fill="#1B1B2E"/>
<path d="M101.284 321.909C101.664 322.029 101.984 322.089 102.004 322.029C102.024 321.976 101.731 321.829 101.351 321.702C100.971 321.582 100.651 321.522 100.631 321.582C100.611 321.636 100.904 321.782 101.284 321.909Z" fill="#1B1B2E"/>
<path d="M102.091 320.902C102.271 321.255 102.464 321.522 102.517 321.495C102.571 321.468 102.464 321.155 102.284 320.802C102.104 320.449 101.911 320.182 101.858 320.209C101.804 320.235 101.911 320.549 102.091 320.902Z" fill="#1B1B2E"/>
<path d="M75.9082 311.41L72.4022 310.271L72.2156 302.912L79.7941 305.372L76.5547 307.971L75.9082 311.41Z" fill="#1B1B2E"/>
<path d="M78.5215 314.47C77.655 317.143 74.7889 318.603 72.1161 317.736C69.4433 316.87 67.9836 314.004 68.8501 311.331C69.7166 308.658 72.5827 307.198 75.2555 308.065C77.9283 308.931 79.388 311.798 78.5215 314.47Z" fill="#1B1B2E"/>
<path d="M76.3293 313.757C75.8561 315.217 74.2897 316.017 72.8234 315.544C71.3636 315.07 70.5638 313.504 71.037 312.038C71.5103 310.578 73.0766 309.778 74.543 310.251C76.0027 310.725 76.8026 312.291 76.3293 313.757Z" fill="#89B5E0"/>
<path d="M74.2564 311.311C74.1365 311.691 73.9898 311.984 73.9298 311.964C73.8765 311.944 73.9298 311.624 74.0498 311.245C74.1698 310.865 74.3164 310.571 74.3764 310.591C74.4297 310.611 74.3764 310.931 74.2564 311.311Z" fill="#1B1B2E"/>
<path d="M72.9692 311.371C73.1491 311.724 73.2558 312.037 73.2024 312.064C73.1491 312.091 72.9625 311.824 72.7759 311.471C72.5959 311.117 72.4892 310.804 72.5426 310.777C72.5959 310.751 72.7825 311.017 72.9692 311.371Z" fill="#1B1B2E"/>
<path d="M72.097 312.324C72.477 312.444 72.7702 312.59 72.7502 312.65C72.7303 312.704 72.4103 312.65 72.0304 312.53C71.6505 312.404 71.3572 312.264 71.3772 312.204C71.3972 312.15 71.7171 312.204 72.097 312.324Z" fill="#1B1B2E"/>
<path d="M72.1566 313.61C72.5098 313.43 72.8231 313.324 72.8498 313.377C72.8764 313.43 72.6098 313.617 72.2566 313.804C71.9033 313.984 71.59 314.09 71.5634 314.037C71.5367 313.984 71.8033 313.797 72.1566 313.61Z" fill="#1B1B2E"/>
<path d="M73.1099 314.483C73.2299 314.104 73.3765 313.81 73.4365 313.83C73.4898 313.85 73.4365 314.17 73.3165 314.55C73.1899 314.93 73.0499 315.223 72.9899 315.203C72.9366 315.183 72.9899 314.863 73.1099 314.483Z" fill="#1B1B2E"/>
<path d="M74.396 314.424C74.216 314.071 74.1094 313.757 74.1627 313.731C74.216 313.704 74.4026 313.971 74.5893 314.324C74.7759 314.677 74.8759 314.99 74.8226 315.017C74.7692 315.044 74.5826 314.777 74.396 314.424Z" fill="#1B1B2E"/>
<path d="M75.2687 313.471C74.8887 313.351 74.5955 313.204 74.6155 313.144C74.6355 313.091 74.9554 313.144 75.3353 313.264C75.7152 313.391 76.0085 313.531 75.9885 313.591C75.9685 313.644 75.6486 313.591 75.2687 313.471Z" fill="#1B1B2E"/>
<path d="M75.2097 312.184C74.8564 312.364 74.5431 312.471 74.5165 312.418C74.4898 312.364 74.7564 312.178 75.1097 311.991C75.463 311.811 75.7762 311.704 75.8029 311.758C75.8296 311.811 75.5629 311.998 75.2097 312.184Z" fill="#1B1B2E"/>
<path d="M125.063 235.134L118.469 232.996L117.396 236.305L123.99 238.444L125.063 235.134Z" fill="#1B1B2E"/>
<path d="M151.564 184.339L148.559 183.365L130.043 240.452L133.049 241.426L151.564 184.339Z" fill="#1B1B2E"/>
<path d="M152.461 183.703L148.188 182.317L145.856 189.507L150.129 190.893L152.461 183.703Z" fill="#1B1B2E"/>
<path d="M229.931 103.446L223.966 122.022C223.726 122.562 223.979 123.028 224.526 123.068L234.27 123.688C234.817 123.722 235.45 123.308 235.683 122.768L241.649 104.192C241.889 103.652 241.635 103.186 241.096 103.146L231.351 102.526C230.804 102.493 230.171 102.899 229.938 103.446H229.931Z" fill="#FFD476"/>
<path d="M231.091 103.512L225.126 122.088C224.886 122.628 225.139 123.095 225.685 123.135L235.43 123.755C235.977 123.788 236.61 123.375 236.843 122.835L242.809 104.259C243.049 103.719 242.795 103.252 242.255 103.212L232.511 102.592C231.964 102.559 231.331 102.965 231.098 103.512H231.091Z" fill="white"/>
<path d="M233.711 104.545C233.671 104.999 233.271 105.339 232.811 105.299C232.358 105.259 232.018 104.859 232.058 104.399C232.098 103.945 232.498 103.606 232.957 103.646C233.411 103.686 233.751 104.085 233.711 104.545Z" fill="#FFD476"/>
<path d="M198.111 129.854C202.77 141.991 215.647 159.401 220.759 159.835C223.192 160.041 227.498 160.941 230.897 158.375C238.316 152.776 244.995 141.525 246.668 134.92C247.261 132.573 236.07 126.581 234.223 128.394C229.891 132.64 224.599 141.198 223.892 141.092C221.286 140.705 210.508 131.254 203.596 125.401C194.918 118.063 196.264 125.008 198.117 129.847L198.111 129.854Z" fill="#F9CFA7"/>
<path d="M247.84 122.662C246.967 117.743 245.987 116.616 247.454 112.077C248.413 109.098 246.927 107.205 244.601 109.485C240.795 113.211 240.588 119.789 241.175 122.089L247.84 122.662Z" fill="#F9CFA7"/>
<path d="M245.949 136.959C245.949 136.959 248.595 130.387 248.182 125.055C247.895 121.369 246.382 113.417 236.471 108.558C234.118 107.405 229.952 107.432 233.111 110.704C235.351 113.03 237.477 113.83 238.537 115.423C238.537 115.423 233.238 116.083 232.178 118.483C231.705 119.556 230.479 122.515 229.845 124.955C229.845 124.955 230.339 125.235 231.019 125.501C231.019 125.501 230.239 127.834 231.725 131.273L245.949 136.966V136.959Z" fill="#F9CFA7"/>
<path d="M247.348 121.582C245.961 120.222 242.982 117.396 239.742 115.929C236.143 114.303 228.765 112.137 227.592 114.81C226.732 116.769 229.471 117.842 229.471 117.842C229.471 117.842 226.232 117.589 225.845 119.529C225.492 121.295 227.658 122.001 227.658 122.001C227.658 122.001 225.665 122.188 225.652 123.954C225.632 126.081 229.804 125.347 231.651 127.514C232.064 128 247.348 121.582 247.348 121.582Z" fill="#F9CFA7"/>
<path d="M238.656 120.023C237.143 118.956 233.097 117.423 229.538 117.79C229.458 117.796 229.418 117.863 229.498 117.87C233.504 118.296 237.13 119.463 238.643 120.056C238.663 120.063 238.676 120.036 238.656 120.023Z" fill="#1B1B2E"/>
<path d="M236.909 123.608C235.509 122.822 231.27 121.429 227.671 121.922C227.591 121.935 227.557 122.002 227.631 122.009C231.83 122.282 235.349 123.148 236.889 123.642C236.909 123.648 236.922 123.615 236.902 123.608H236.909Z" fill="#1B1B2E"/>
<path d="M223.319 140.458L212.461 153.976C212.461 153.976 199.21 136.686 195.798 127.754C192.385 118.823 197.004 118.409 204.329 124.801C211.041 130.66 223.319 140.458 223.319 140.458Z" fill="#1B1B2E"/>
<path opacity="0.1" d="M223.319 140.458L212.461 153.976C212.461 153.976 199.21 136.686 195.798 127.754C192.385 118.823 197.004 118.409 204.329 124.801C211.041 130.66 223.319 140.458 223.319 140.458Z" fill="#FF6F55"/>
<path d="M220.187 138.745C220.187 138.745 220.167 138.699 220.153 138.719C216.867 142.491 213.748 146.397 210.815 150.47C210.782 150.516 210.862 150.583 210.902 150.536C214.181 146.757 217.267 142.824 220.187 138.745Z" fill="#FF6F55"/>
<path d="M206.13 149.37L206.723 163.387L167.258 160.461C167.258 160.461 180.535 129.307 189.513 121.442C193.599 117.869 197.145 118.829 199.951 121.675C200.591 122.322 208.263 137.332 208.916 141.891C209.449 145.63 206.123 149.376 206.123 149.376L206.13 149.37Z" fill="#FF6F55"/>
<path opacity="0.1" d="M197.512 122.528C197.332 122.521 197.179 122.661 197.172 122.835C197.166 123.015 197.306 123.161 197.479 123.175C197.659 123.181 197.812 123.041 197.819 122.861C197.825 122.688 197.685 122.535 197.512 122.528ZM193.16 122.322C192.986 122.315 192.833 122.455 192.826 122.628C192.813 122.808 192.953 122.961 193.133 122.968C193.306 122.975 193.46 122.835 193.466 122.655C193.48 122.481 193.34 122.328 193.16 122.322ZM188.807 122.115H188.794C188.794 122.115 188.787 122.122 188.781 122.122C188.687 122.222 188.581 122.322 188.474 122.421V122.441C188.481 122.615 188.614 122.755 188.781 122.761C188.961 122.768 189.114 122.628 189.127 122.455C189.134 122.268 188.987 122.122 188.807 122.115ZM195.473 119.355C195.299 119.349 195.146 119.489 195.139 119.669C195.126 119.842 195.266 119.995 195.446 120.002C195.619 120.009 195.773 119.869 195.779 119.695C195.793 119.515 195.653 119.362 195.473 119.355ZM201.565 128.774C201.391 128.767 201.238 128.907 201.231 129.08C201.218 129.26 201.358 129.413 201.538 129.42C201.711 129.427 201.865 129.287 201.871 129.107C201.885 128.934 201.745 128.78 201.565 128.774ZM197.226 128.567C197.046 128.56 196.892 128.7 196.886 128.874C196.879 129.054 197.019 129.207 197.199 129.213C197.372 129.22 197.525 129.08 197.532 128.9C197.539 128.727 197.399 128.574 197.226 128.567ZM192.873 128.36C192.7 128.354 192.547 128.494 192.54 128.667C192.533 128.847 192.673 129 192.846 129.007C193.026 129.014 193.173 128.874 193.186 128.694C193.193 128.52 193.053 128.367 192.873 128.36ZM188.534 128.154C188.354 128.147 188.201 128.287 188.194 128.46C188.187 128.64 188.327 128.794 188.507 128.8C188.681 128.807 188.834 128.667 188.841 128.494C188.847 128.314 188.707 128.16 188.534 128.154ZM184.182 127.947C184.182 127.947 184.135 127.94 184.122 127.954C184.035 128.087 183.942 128.214 183.855 128.354C183.902 128.494 184.015 128.587 184.155 128.594C184.335 128.6 184.488 128.46 184.495 128.287C184.501 128.107 184.361 127.954 184.182 127.947ZM199.538 125.594C199.358 125.588 199.205 125.728 199.198 125.907C199.192 126.081 199.332 126.234 199.505 126.241C199.685 126.247 199.838 126.107 199.845 125.934C199.852 125.754 199.712 125.601 199.538 125.594ZM195.186 125.388C195.013 125.381 194.859 125.521 194.853 125.701C194.846 125.874 194.979 126.027 195.159 126.034C195.339 126.041 195.486 125.901 195.493 125.728C195.506 125.548 195.366 125.394 195.186 125.388ZM190.847 125.181C190.667 125.174 190.514 125.314 190.507 125.494C190.5 125.668 190.64 125.821 190.82 125.827C190.993 125.834 191.147 125.694 191.153 125.521C191.16 125.341 191.02 125.194 190.847 125.181ZM186.494 124.974C186.321 124.968 186.168 125.108 186.161 125.288C186.154 125.461 186.294 125.614 186.468 125.621C186.648 125.628 186.794 125.494 186.808 125.314C186.814 125.134 186.674 124.988 186.494 124.974ZM205.624 135.006C205.444 134.999 205.291 135.139 205.284 135.312C205.277 135.492 205.417 135.646 205.597 135.652C205.771 135.659 205.924 135.519 205.93 135.339C205.937 135.166 205.797 135.012 205.624 135.006ZM201.271 134.799C201.098 134.792 200.945 134.932 200.938 135.106C200.931 135.286 201.071 135.439 201.245 135.446C201.425 135.452 201.571 135.312 201.585 135.132C201.591 134.959 201.451 134.806 201.271 134.799ZM196.932 134.592C196.752 134.586 196.599 134.726 196.592 134.899C196.586 135.079 196.726 135.232 196.906 135.239C197.079 135.246 197.232 135.106 197.239 134.932C197.246 134.752 197.106 134.599 196.932 134.592ZM192.58 134.386C192.407 134.379 192.253 134.519 192.247 134.692C192.24 134.872 192.38 135.026 192.553 135.032C192.733 135.039 192.886 134.899 192.893 134.726C192.9 134.546 192.76 134.392 192.58 134.386ZM188.241 134.179C188.061 134.172 187.914 134.312 187.901 134.492C187.894 134.666 188.034 134.819 188.214 134.826C188.387 134.832 188.541 134.692 188.547 134.519C188.554 134.339 188.414 134.186 188.241 134.179ZM183.902 133.973C183.722 133.966 183.568 134.106 183.562 134.286C183.555 134.459 183.695 134.612 183.868 134.619C184.048 134.626 184.201 134.486 184.208 134.312C184.215 134.132 184.075 133.979 183.902 133.973ZM203.598 131.826C203.424 131.82 203.271 131.96 203.264 132.14C203.258 132.313 203.391 132.466 203.571 132.473C203.751 132.479 203.898 132.34 203.904 132.166C203.918 131.986 203.778 131.833 203.598 131.826ZM199.258 131.62C199.079 131.613 198.925 131.753 198.919 131.933C198.912 132.106 199.052 132.26 199.232 132.266C199.405 132.273 199.558 132.133 199.565 131.96C199.572 131.78 199.432 131.633 199.258 131.62ZM194.906 131.413C194.733 131.406 194.579 131.546 194.573 131.726C194.566 131.9 194.706 132.053 194.879 132.06C195.059 132.066 195.206 131.926 195.219 131.753C195.226 131.573 195.086 131.426 194.906 131.413ZM190.567 131.213C190.387 131.2 190.24 131.34 190.227 131.52C190.22 131.693 190.36 131.846 190.54 131.853C190.714 131.86 190.867 131.726 190.874 131.546C190.88 131.373 190.74 131.22 190.567 131.213ZM186.214 131.006C186.041 130.993 185.888 131.133 185.881 131.313C185.875 131.486 186.014 131.64 186.188 131.646C186.368 131.66 186.521 131.52 186.528 131.34C186.534 131.166 186.394 131.013 186.214 131.006ZM182.149 130.98C182.149 130.98 182.149 130.986 182.142 130.986C182.089 131.08 182.035 131.173 181.969 131.273C181.955 131.3 181.942 131.333 181.915 131.36C181.889 131.386 181.882 131.42 181.855 131.446H181.862C182.035 131.453 182.175 131.313 182.182 131.14C182.182 131.08 182.175 131.033 182.149 130.98ZM205.344 141.031C205.164 141.024 205.011 141.164 205.004 141.338C204.997 141.518 205.137 141.671 205.317 141.678C205.491 141.684 205.644 141.544 205.651 141.371C205.657 141.191 205.517 141.038 205.344 141.031ZM200.991 140.824C200.818 140.818 200.665 140.958 200.658 141.131C200.652 141.311 200.792 141.464 200.965 141.471C201.145 141.478 201.298 141.338 201.305 141.164C201.311 140.984 201.171 140.831 200.991 140.824ZM196.652 140.618C196.472 140.611 196.326 140.751 196.312 140.931C196.306 141.104 196.446 141.258 196.626 141.264C196.799 141.271 196.952 141.131 196.959 140.958C196.966 140.778 196.826 140.625 196.652 140.618ZM192.313 140.411C192.133 140.405 191.98 140.545 191.973 140.725C191.967 140.898 192.107 141.051 192.28 141.058C192.46 141.064 192.613 140.924 192.62 140.751C192.626 140.571 192.487 140.418 192.313 140.411ZM187.961 140.205C187.787 140.198 187.634 140.338 187.627 140.518C187.614 140.691 187.754 140.844 187.934 140.851C188.107 140.858 188.261 140.718 188.267 140.545C188.281 140.365 188.141 140.211 187.961 140.205ZM183.622 139.998C183.442 139.991 183.288 140.131 183.282 140.311C183.275 140.485 183.415 140.638 183.595 140.645C183.768 140.651 183.922 140.511 183.928 140.338C183.935 140.158 183.795 140.011 183.622 139.998ZM179.269 139.791C179.096 139.785 178.943 139.925 178.936 140.105C178.929 140.278 179.069 140.431 179.242 140.438C179.422 140.445 179.569 140.305 179.582 140.131C179.589 139.951 179.449 139.805 179.269 139.791ZM207.883 138.258C207.87 138.212 207.85 138.165 207.823 138.118C207.77 138.072 207.723 138.052 207.65 138.045C207.477 138.038 207.324 138.178 207.317 138.358C207.31 138.538 207.45 138.685 207.623 138.692C207.783 138.698 207.923 138.598 207.95 138.445C207.93 138.372 207.903 138.312 207.883 138.258ZM203.311 137.845C203.138 137.838 202.984 137.978 202.978 138.158C202.971 138.332 203.111 138.485 203.284 138.492C203.464 138.498 203.611 138.358 203.624 138.185C203.631 138.005 203.491 137.858 203.311 137.845ZM198.972 137.645C198.792 137.632 198.645 137.772 198.632 137.952C198.625 138.125 198.765 138.278 198.945 138.285C199.119 138.292 199.272 138.158 199.278 137.978C199.285 137.798 199.145 137.652 198.972 137.645ZM194.619 137.438C194.446 137.425 194.293 137.565 194.286 137.745C194.279 137.918 194.419 138.072 194.593 138.078C194.773 138.092 194.926 137.952 194.933 137.772C194.939 137.598 194.799 137.445 194.619 137.438ZM190.28 137.232C190.1 137.225 189.954 137.359 189.947 137.538C189.934 137.718 190.074 137.865 190.254 137.872C190.427 137.885 190.58 137.745 190.587 137.565C190.594 137.392 190.46 137.239 190.28 137.232ZM185.941 137.025C185.761 137.019 185.608 137.159 185.601 137.332C185.595 137.512 185.735 137.658 185.908 137.672C186.088 137.678 186.241 137.538 186.248 137.359C186.254 137.185 186.114 137.032 185.941 137.025ZM181.589 136.819C181.415 136.812 181.262 136.952 181.255 137.125C181.249 137.305 181.382 137.452 181.562 137.465C181.742 137.472 181.889 137.332 181.895 137.152C181.909 136.979 181.769 136.825 181.589 136.819ZM205.064 147.05C204.884 147.043 204.737 147.183 204.724 147.357C204.717 147.536 204.857 147.69 205.037 147.696C205.211 147.703 205.364 147.563 205.371 147.39C205.377 147.21 205.237 147.057 205.064 147.05ZM200.712 146.843C200.538 146.837 200.385 146.977 200.378 147.157C200.372 147.33 200.512 147.483 200.685 147.49C200.865 147.496 201.018 147.357 201.025 147.183C201.031 147.003 200.891 146.85 200.712 146.843ZM196.372 146.637C196.199 146.63 196.046 146.77 196.039 146.95C196.026 147.123 196.166 147.277 196.346 147.283C196.519 147.29 196.672 147.15 196.679 146.977C196.692 146.797 196.552 146.643 196.372 146.637ZM192.033 146.43C191.853 146.423 191.7 146.563 191.693 146.743C191.687 146.917 191.827 147.07 192 147.077C192.18 147.083 192.333 146.943 192.34 146.77C192.347 146.59 192.207 146.443 192.033 146.43ZM187.681 146.223C187.508 146.217 187.354 146.357 187.348 146.537C187.341 146.71 187.481 146.863 187.654 146.87C187.834 146.877 187.981 146.737 187.994 146.563C188.001 146.383 187.861 146.237 187.681 146.223ZM183.342 146.023C183.162 146.01 183.008 146.15 183.002 146.33C182.995 146.503 183.135 146.657 183.315 146.663C183.488 146.67 183.642 146.537 183.648 146.357C183.655 146.177 183.515 146.03 183.342 146.023ZM178.989 145.817C178.816 145.803 178.663 145.943 178.656 146.123C178.649 146.297 178.789 146.45 178.963 146.457C179.143 146.47 179.296 146.33 179.302 146.15C179.309 145.977 179.169 145.823 178.989 145.817ZM174.65 145.61C174.47 145.604 174.323 145.737 174.31 145.917C174.303 146.097 174.443 146.243 174.623 146.25C174.797 146.263 174.95 146.123 174.957 145.943C174.963 145.77 174.823 145.617 174.65 145.61ZM207.384 144.064C207.204 144.057 207.05 144.197 207.044 144.377C207.037 144.55 207.177 144.704 207.357 144.71C207.53 144.717 207.683 144.584 207.69 144.404C207.697 144.224 207.557 144.077 207.384 144.064ZM203.031 143.864C202.858 143.851 202.704 143.991 202.698 144.17C202.691 144.344 202.831 144.497 203.004 144.504C203.184 144.517 203.338 144.377 203.344 144.197C203.351 144.024 203.211 143.871 203.031 143.864ZM198.692 143.657C198.512 143.644 198.365 143.784 198.352 143.964C198.345 144.144 198.485 144.29 198.665 144.297C198.839 144.31 198.992 144.17 198.999 143.991C199.005 143.817 198.872 143.664 198.692 143.657ZM194.353 143.451C194.173 143.444 194.02 143.584 194.013 143.757C194.006 143.937 194.146 144.084 194.319 144.097C194.499 144.104 194.653 143.964 194.659 143.784C194.666 143.611 194.526 143.457 194.353 143.451ZM190 143.244C189.827 143.237 189.674 143.377 189.667 143.551C189.654 143.731 189.794 143.877 189.974 143.891C190.147 143.897 190.3 143.757 190.307 143.577C190.32 143.404 190.18 143.251 190 143.244ZM185.661 143.037C185.481 143.031 185.328 143.171 185.321 143.344C185.315 143.524 185.455 143.677 185.635 143.684C185.808 143.691 185.961 143.551 185.968 143.371C185.974 143.197 185.835 143.044 185.661 143.037ZM181.309 142.831C181.135 142.824 180.982 142.964 180.975 143.137C180.969 143.317 181.109 143.471 181.282 143.477C181.462 143.484 181.609 143.344 181.622 143.164C181.629 142.991 181.489 142.837 181.309 142.831ZM176.97 142.624C176.79 142.617 176.643 142.757 176.63 142.931C176.623 143.111 176.763 143.264 176.943 143.271C177.116 143.277 177.27 143.137 177.276 142.964C177.283 142.784 177.143 142.631 176.97 142.624ZM204.784 153.055C204.611 153.049 204.457 153.189 204.451 153.369C204.437 153.542 204.577 153.695 204.757 153.702C204.931 153.709 205.084 153.569 205.091 153.395C205.104 153.215 204.964 153.062 204.784 153.055ZM200.445 152.849C200.265 152.842 200.112 152.982 200.105 153.162C200.098 153.335 200.238 153.489 200.412 153.495C200.592 153.502 200.745 153.362 200.752 153.189C200.758 153.009 200.618 152.862 200.445 152.849ZM196.092 152.642C195.919 152.635 195.766 152.775 195.759 152.955C195.753 153.129 195.892 153.282 196.066 153.289C196.246 153.295 196.392 153.155 196.406 152.982C196.412 152.802 196.272 152.655 196.092 152.642ZM191.753 152.442C191.573 152.429 191.42 152.569 191.413 152.749C191.407 152.922 191.547 153.075 191.727 153.082C191.9 153.089 192.053 152.955 192.06 152.775C192.067 152.595 191.927 152.449 191.753 152.442ZM187.401 152.236C187.228 152.222 187.074 152.362 187.068 152.542C187.061 152.715 187.201 152.869 187.374 152.875C187.554 152.889 187.707 152.749 187.714 152.569C187.721 152.396 187.581 152.242 187.401 152.236ZM183.062 152.029C182.882 152.022 182.735 152.156 182.722 152.336C182.715 152.515 182.855 152.662 183.035 152.669C183.208 152.682 183.362 152.542 183.368 152.362C183.375 152.189 183.235 152.036 183.062 152.029ZM178.709 151.822C178.536 151.816 178.383 151.956 178.376 152.129C178.369 152.309 178.509 152.455 178.683 152.469C178.863 152.475 179.016 152.336 179.023 152.156C179.029 151.982 178.889 151.829 178.709 151.822ZM174.37 151.616C174.197 151.609 174.044 151.749 174.037 151.922C174.024 152.102 174.164 152.249 174.343 152.262C174.517 152.269 174.67 152.129 174.677 151.949C174.69 151.776 174.55 151.622 174.37 151.616ZM202.764 149.876C202.584 149.869 202.431 150.009 202.425 150.183C202.418 150.363 202.558 150.509 202.731 150.523C202.911 150.529 203.064 150.389 203.071 150.209C203.078 150.036 202.938 149.883 202.764 149.876ZM198.412 149.669C198.239 149.663 198.085 149.803 198.079 149.976C198.065 150.156 198.205 150.303 198.385 150.316C198.559 150.323 198.712 150.183 198.719 150.003C198.732 149.829 198.592 149.676 198.412 149.669ZM194.073 149.463C193.893 149.456 193.74 149.596 193.733 149.769C193.726 149.949 193.866 150.103 194.046 150.109C194.219 150.116 194.373 149.976 194.379 149.796C194.386 149.623 194.246 149.469 194.073 149.463ZM189.72 149.256C189.547 149.249 189.394 149.389 189.387 149.563C189.38 149.743 189.52 149.896 189.694 149.903C189.874 149.909 190.02 149.769 190.034 149.589C190.04 149.416 189.9 149.263 189.72 149.256ZM185.381 149.05C185.201 149.043 185.048 149.183 185.041 149.356C185.035 149.536 185.175 149.689 185.355 149.696C185.528 149.703 185.681 149.563 185.688 149.383C185.695 149.209 185.555 149.056 185.381 149.05ZM181.029 148.843C180.856 148.836 180.702 148.976 180.696 149.149C180.689 149.329 180.829 149.483 181.002 149.489C181.182 149.496 181.335 149.356 181.342 149.183C181.349 149.003 181.209 148.85 181.029 148.843ZM176.69 148.636C176.51 148.63 176.363 148.77 176.35 148.943C176.343 149.123 176.483 149.276 176.663 149.283C176.836 149.289 176.99 149.149 176.996 148.976C177.003 148.796 176.87 148.643 176.69 148.636ZM172.624 148.643C172.551 148.79 172.484 148.936 172.411 149.07C172.55 149.036 172.644 148.91 172.65 148.77C172.657 148.716 172.65 148.683 172.624 148.636V148.643ZM204.504 159.068C204.331 159.061 204.177 159.201 204.171 159.381C204.164 159.554 204.297 159.707 204.477 159.714C204.657 159.721 204.804 159.581 204.817 159.407C204.824 159.227 204.684 159.081 204.504 159.068ZM200.165 158.861C199.985 158.854 199.832 158.994 199.825 159.174C199.818 159.347 199.958 159.501 200.138 159.507C200.312 159.514 200.465 159.374 200.472 159.201C200.478 159.021 200.338 158.874 200.165 158.861ZM195.813 158.661C195.639 158.648 195.486 158.788 195.479 158.968C195.473 159.141 195.613 159.294 195.786 159.301C195.966 159.314 196.119 159.174 196.126 158.994C196.132 158.821 195.992 158.668 195.813 158.661ZM191.473 158.454C191.293 158.441 191.147 158.581 191.133 158.761C191.127 158.934 191.267 159.087 191.447 159.094C191.62 159.107 191.773 158.968 191.78 158.788C191.787 158.614 191.647 158.461 191.473 158.454ZM187.121 158.248C186.948 158.241 186.794 158.381 186.788 158.554C186.781 158.734 186.921 158.881 187.094 158.894C187.274 158.901 187.428 158.761 187.434 158.581C187.441 158.408 187.301 158.254 187.121 158.248ZM182.782 158.041C182.608 158.034 182.455 158.174 182.449 158.348C182.435 158.528 182.575 158.674 182.755 158.688C182.928 158.694 183.082 158.554 183.088 158.374C183.102 158.201 182.962 158.048 182.782 158.041ZM178.443 157.834C178.263 157.828 178.109 157.968 178.103 158.141C178.096 158.321 178.236 158.474 178.409 158.481C178.589 158.488 178.743 158.348 178.749 158.168C178.756 157.994 178.616 157.841 178.443 157.834ZM174.09 157.628C173.917 157.621 173.764 157.761 173.757 157.934C173.75 158.114 173.89 158.268 174.064 158.274C174.243 158.281 174.39 158.141 174.403 157.961C174.41 157.788 174.27 157.634 174.09 157.628ZM169.751 157.421C169.571 157.415 169.418 157.554 169.411 157.728C169.404 157.908 169.544 158.061 169.724 158.068C169.898 158.074 170.051 157.934 170.058 157.754C170.064 157.581 169.924 157.428 169.751 157.421ZM202.485 155.881C202.305 155.875 202.151 156.015 202.145 156.188C202.138 156.368 202.278 156.515 202.458 156.528C202.631 156.535 202.784 156.395 202.791 156.215C202.798 156.041 202.658 155.888 202.485 155.881ZM198.132 155.675C197.959 155.668 197.805 155.808 197.799 155.981C197.792 156.161 197.932 156.315 198.105 156.321C198.285 156.328 198.432 156.188 198.445 156.008C198.452 155.835 198.312 155.682 198.132 155.675ZM193.793 155.468C193.613 155.462 193.46 155.602 193.453 155.775C193.446 155.955 193.586 156.108 193.766 156.115C193.94 156.121 194.093 155.981 194.1 155.801C194.106 155.628 193.966 155.475 193.793 155.468ZM189.44 155.262C189.267 155.255 189.114 155.395 189.107 155.568C189.101 155.748 189.24 155.901 189.414 155.908C189.594 155.915 189.747 155.775 189.754 155.602C189.76 155.422 189.62 155.268 189.44 155.262ZM185.101 155.055C184.921 155.048 184.775 155.188 184.761 155.362C184.755 155.542 184.895 155.695 185.075 155.702C185.248 155.708 185.401 155.568 185.408 155.395C185.415 155.215 185.275 155.062 185.101 155.055ZM180.762 154.848C180.582 154.842 180.429 154.982 180.422 155.162C180.416 155.335 180.556 155.488 180.729 155.495C180.909 155.502 181.062 155.362 181.069 155.188C181.075 155.008 180.935 154.855 180.762 154.848ZM176.41 154.642C176.236 154.635 176.083 154.775 176.076 154.955C176.063 155.128 176.203 155.282 176.383 155.288C176.556 155.295 176.71 155.155 176.716 154.982C176.73 154.802 176.59 154.648 176.41 154.642ZM172.071 154.435C171.891 154.428 171.737 154.568 171.731 154.748C171.724 154.922 171.864 155.075 172.044 155.082C172.217 155.088 172.371 154.948 172.377 154.775C172.384 154.595 172.244 154.442 172.071 154.435ZM206.704 162.174C206.704 162.174 206.697 162.174 206.697 162.167C206.65 162.14 206.604 162.114 206.544 162.114C206.37 162.107 206.217 162.247 206.21 162.42C206.204 162.593 206.344 162.747 206.517 162.753C206.597 162.76 206.664 162.733 206.724 162.687V162.633L206.71 162.167L206.704 162.174ZM202.205 161.914C202.025 161.907 201.871 162.047 201.865 162.22C201.858 162.4 201.998 162.553 202.178 162.56C202.351 162.567 202.505 162.427 202.511 162.247C202.518 162.074 202.378 161.92 202.205 161.914ZM197.852 161.707C197.679 161.7 197.526 161.84 197.519 162.014C197.512 162.194 197.652 162.347 197.825 162.354C198.005 162.36 198.159 162.22 198.165 162.047C198.172 161.867 198.032 161.714 197.852 161.707ZM193.513 161.5C193.333 161.494 193.186 161.634 193.173 161.807C193.166 161.987 193.306 162.14 193.486 162.147C193.66 162.154 193.813 162.014 193.82 161.84C193.826 161.66 193.686 161.507 193.513 161.5ZM189.174 161.294C188.994 161.287 188.841 161.427 188.834 161.6C188.827 161.707 188.881 161.814 188.967 161.867L189.314 161.894C189.407 161.84 189.474 161.74 189.48 161.634C189.487 161.454 189.347 161.3 189.174 161.294ZM184.821 161.087C184.648 161.08 184.495 161.22 184.488 161.4C184.481 161.454 184.495 161.494 184.508 161.54L185.075 161.587C185.101 161.54 185.128 161.494 185.128 161.434C185.141 161.254 185.001 161.1 184.821 161.094V161.087ZM180.482 160.88C180.302 160.874 180.149 161.014 180.142 161.194V161.214L180.782 161.26C180.782 161.26 180.789 161.24 180.789 161.227C180.796 161.047 180.656 160.894 180.482 160.887V160.88ZM176.13 160.674C175.983 160.667 175.863 160.76 175.817 160.894L176.43 160.94C176.41 160.794 176.283 160.694 176.13 160.681V160.674ZM171.777 160.474C171.684 160.467 171.597 160.501 171.531 160.567L172.024 160.601C171.971 160.527 171.884 160.474 171.777 160.467V160.474ZM167.498 160.274C167.498 160.274 167.452 160.267 167.432 160.267H167.398C167.458 160.281 167.512 160.287 167.565 160.301C167.545 160.287 167.518 160.281 167.498 160.274Z" fill="#1B1B2E"/>
<path d="M200.11 146.483C198.164 146.536 196.198 146.67 194.265 147.056C193.305 147.25 192.359 147.496 191.406 147.763C190.932 147.896 190.459 148.009 189.979 148.123C189.493 148.236 188.966 148.336 188.473 148.309C188.426 148.309 188.42 148.383 188.473 148.389C188.953 148.449 189.413 148.503 189.899 148.489C190.359 148.476 190.826 148.403 191.286 148.316C192.259 148.129 193.232 147.896 194.205 147.696C196.171 147.296 198.138 146.903 200.117 146.67C200.21 146.656 200.204 146.476 200.11 146.483Z" fill="#1B1B2E"/>
<path d="M204.703 148.909C203.137 148.576 201.53 148.329 199.931 148.203C199.131 148.143 198.324 148.136 197.518 148.149C197.131 148.156 196.751 148.176 196.365 148.196C195.938 148.223 195.518 148.309 195.098 148.329C195.052 148.329 195.045 148.409 195.098 148.409C195.498 148.409 195.898 148.483 196.291 148.509C196.691 148.536 197.091 148.556 197.491 148.583C198.291 148.636 199.091 148.696 199.891 148.736C201.497 148.816 203.09 148.923 204.69 149.069C204.776 149.076 204.783 148.936 204.703 148.916V148.909Z" fill="#1B1B2E"/>
<path d="M190.129 127.595C186.97 131.893 172.768 146.989 172.375 147.937C171.975 148.879 161.691 168.115 160.913 171.207C160.363 173.39 143.208 167.213 143.796 165.342C145.166 160.957 154.647 146.341 158.078 141.631C162.55 135.492 181.327 123.582 186.746 121.59C192.166 119.599 195.324 120.534 190.129 127.595Z" fill="#F9CFA7"/>
<path d="M153.816 178.659C154.624 177.911 155.018 178.331 154.707 180.269C154.396 182.234 151.529 189.623 154.186 190.41C156.849 191.204 160.731 180.685 161.008 177.411C161.285 174.144 160.58 168.755 160.58 168.755C159.417 170.65 156.153 174.968 153.816 178.659Z" fill="#F9CFA7"/>
<path d="M145.862 161.703C142.772 167.158 138.595 173.757 138.699 180.845C138.72 182.233 139.423 183.026 139.423 183.026C139.411 186.201 140.899 187.164 140.899 187.164C141.785 190.123 143.439 190.893 143.439 190.893C143.439 190.893 143.464 194.619 145.706 194.98C148.219 195.388 147.692 190.073 149.176 186.97C152.583 179.863 159.396 170.716 160.579 168.768L145.869 161.71L145.862 161.703Z" fill="#F9CFA7"/>
<path d="M147.54 176.994C146.581 179.109 145.583 181.157 144.908 183.386C144.172 185.835 143.872 188.318 143.499 190.834C143.486 190.913 143.38 190.906 143.381 190.826C143.333 186.163 144.964 180.883 147.441 176.947C147.5 176.854 147.586 176.887 147.533 176.994L147.54 176.994Z" fill="#1B1B2E"/>
<path d="M143.576 174.302C142.756 176.411 141.336 180.118 140.972 187.158C140.972 187.178 140.932 187.184 140.932 187.157C140.567 182.553 141.474 178.365 143.484 174.255C143.544 174.129 143.636 174.156 143.582 174.295L143.576 174.302Z" fill="#1B1B2E"/>
<path d="M141.417 172.898C140.156 176.533 139.816 178.989 139.438 183.006C139.438 183.026 139.398 183.033 139.398 183.006C139.357 178.39 139.858 176.711 141.306 172.831C141.352 172.698 141.471 172.752 141.424 172.891L141.417 172.898Z" fill="#1B1B2E"/>
<path d="M173.505 149.649L159.894 139.001C159.894 139.001 176.73 125.32 185.5 121.707C194.271 118.094 194.781 122.732 188.602 130.228C182.939 137.098 173.505 149.642 173.505 149.642L173.505 149.649Z" fill="#1B1B2E"/>
<path opacity="0.1" d="M173.505 149.649L159.894 139.001C159.894 139.001 176.73 125.32 185.5 121.707C194.271 118.094 194.781 122.732 188.602 130.228C182.939 137.098 173.505 149.642 173.505 149.642L173.505 149.649Z" fill="#FF6F55"/>
<path d="M175.135 146.466C175.135 146.466 175.18 146.444 175.159 146.431C171.353 143.205 167.417 140.147 163.333 137.279C163.284 137.241 163.223 137.325 163.271 137.363C167.083 140.582 171.044 143.605 175.135 146.46L175.135 146.466Z" fill="#FF6F55"/>
<path d="M192.938 121.815C193.104 122.502 196.41 126.967 199.563 126.801C200.59 126.747 200.543 121.135 200.543 121.135L200.636 120.722L201.909 114.91L195.071 110.564L194.084 109.991C194.084 109.991 193.838 111.604 193.558 113.617C193.544 113.71 193.531 113.803 193.518 113.903C193.498 114.017 193.478 114.123 193.464 114.23C193.418 114.53 193.371 114.836 193.331 115.143C193.298 115.376 193.271 115.603 193.244 115.85C193.218 116.096 193.191 116.336 193.158 116.583C192.918 119.016 192.871 121.528 192.938 121.822V121.815Z" fill="#F9CFA7"/>
<path d="M193.558 113.617C195.237 118.229 198.937 120.102 200.636 120.729L201.909 114.917L195.071 110.571L194.084 109.998C194.084 109.998 193.838 111.611 193.558 113.623V113.617Z" fill="#1B1B2E"/>
<path d="M210.475 107.191C210.002 117.622 203.696 118.516 201.45 118.409C199.411 118.316 192.465 117.729 191.865 107.304C191.259 96.8799 196.258 93.8005 200.944 93.7739C205.623 93.7472 210.955 96.7533 210.482 107.185L210.475 107.191Z" fill="#F9CFA7"/>
<path d="M208.422 104.579C208.175 104.539 207.962 104.465 207.722 104.399C207.455 104.325 207.235 104.299 207.042 104.079C206.942 103.959 206.962 103.732 207.062 103.626C207.302 103.372 207.655 103.379 207.982 103.452C208.335 103.532 208.588 103.685 208.808 103.965C209.022 104.239 208.742 104.625 208.422 104.579Z" fill="#304668"/>
<path d="M201.542 104.338C201.789 104.318 202.016 104.265 202.256 104.218C202.529 104.172 202.749 104.158 202.955 103.958C203.069 103.852 203.069 103.625 202.975 103.505C202.756 103.232 202.409 103.205 202.076 103.252C201.716 103.299 201.456 103.432 201.202 103.692C200.963 103.945 201.209 104.358 201.536 104.338H201.542Z" fill="#304668"/>
<path d="M202.816 107.032C202.816 107.032 202.762 107.065 202.762 107.092C202.769 107.805 202.656 108.618 202.009 108.838C201.989 108.845 201.989 108.878 202.009 108.878C202.796 108.785 202.936 107.699 202.809 107.025L202.816 107.032Z" fill="#1B1B2E"/>
<path d="M202.196 106.278C201.056 106.165 200.916 108.458 201.976 108.558C203.016 108.658 203.156 106.372 202.196 106.278Z" fill="#1B1B2E"/>
<path d="M201.743 106.372C201.536 106.492 201.323 106.705 201.083 106.718C200.803 106.732 200.603 106.478 200.436 106.232C200.416 106.205 200.396 106.232 200.396 106.258C200.363 106.698 200.503 107.158 200.97 107.252C201.396 107.338 201.729 106.965 201.863 106.532C201.889 106.452 201.823 106.325 201.743 106.372Z" fill="#1B1B2E"/>
<path d="M206.935 107.111C206.935 107.111 206.988 107.151 206.988 107.178C206.915 107.884 206.955 108.711 207.582 108.984C207.602 108.991 207.595 109.031 207.575 109.024C206.802 108.857 206.762 107.771 206.942 107.111H206.935Z" fill="#1B1B2E"/>
<path d="M207.616 106.418C208.762 106.412 208.695 108.705 207.635 108.711C206.589 108.718 206.656 106.425 207.616 106.418Z" fill="#1B1B2E"/>
<path d="M208.088 106.585C208.268 106.712 208.441 106.938 208.654 106.958C208.908 106.985 209.094 106.738 209.268 106.505C209.288 106.479 209.301 106.505 209.301 106.532C209.301 106.972 209.141 107.425 208.721 107.498C208.334 107.565 208.061 107.178 207.975 106.738C207.955 106.658 208.021 106.539 208.095 106.585H208.088Z" fill="#1B1B2E"/>
<path d="M202.709 112.737C202.863 112.923 203.003 113.163 203.263 113.217C203.509 113.263 203.809 113.183 204.043 113.117C204.063 113.117 204.083 113.137 204.069 113.157C203.856 113.41 203.449 113.536 203.129 113.443C202.816 113.35 202.689 113.057 202.643 112.757C202.643 112.717 202.689 112.703 202.716 112.73L202.709 112.737Z" fill="#1B1B2E"/>
<path d="M205.802 110.311C205.802 110.311 205.896 111.377 205.876 111.877C205.876 111.924 205.749 111.937 205.582 111.944C205.576 111.944 205.569 111.944 205.562 111.944C204.669 112.037 203.796 111.691 203.296 110.944C203.263 110.891 203.329 110.844 203.376 110.878C204.009 111.391 204.736 111.557 205.516 111.604C205.556 111.464 205.289 109.778 205.369 109.778C205.642 109.764 206.176 109.978 206.495 110.091C206.362 107.858 205.876 105.672 205.776 103.446C205.776 103.366 205.889 103.346 205.909 103.419C206.582 105.679 206.795 108.238 206.989 110.538C207.015 110.824 206.002 110.398 205.809 110.304L205.802 110.311Z" fill="#1B1B2E"/>
<path d="M205.162 111.731C205.162 111.731 204.709 112.284 204.116 112.464C203.896 112.53 203.662 112.55 203.423 112.47C202.929 112.317 202.943 111.857 203.049 111.471C203.143 111.151 203.303 110.884 203.303 110.884C203.303 110.884 203.996 111.604 205.162 111.731Z" fill="#1B1B2E"/>
<path d="M204.109 112.464C203.889 112.53 203.655 112.55 203.415 112.47C202.922 112.317 202.936 111.857 203.042 111.47C203.575 111.55 204.082 111.944 204.102 112.464H204.109Z" fill="#FF6F55"/>
<path d="M192.138 107.565C194.551 106.945 195.091 104.639 195.091 104.639C203.969 103.946 206.609 98.2801 206.609 98.2801C208.561 102.832 210.128 103.546 210.414 104.232C210.414 104.232 210.941 100.166 209.428 97.1736C208.095 94.5208 204.889 91.7747 200.117 92.6479C197.41 93.1411 195.244 95.6206 195.244 95.6206C195.244 95.6206 192.318 96.0872 191.238 98.5267C189.432 102.613 192.125 107.572 192.125 107.572L192.138 107.565Z" fill="#304668"/>
<path d="M206.722 97.9197C206.489 99.0861 205.889 100.173 205.122 101.092C204.349 102.019 203.356 102.739 202.289 103.299L201.463 103.665C201.183 103.779 200.89 103.852 200.61 103.945C200.043 104.152 199.443 104.232 198.863 104.345C198.27 104.432 197.677 104.452 197.084 104.505C196.491 104.485 195.891 104.472 195.304 104.445C195.897 104.398 196.484 104.372 197.077 104.332C197.657 104.245 198.25 104.192 198.823 104.072C199.97 103.818 201.103 103.519 202.136 102.972C203.183 102.459 204.129 101.759 204.922 100.906C205.709 100.053 206.355 99.0461 206.735 97.9197H206.722Z" fill="#304668"/>
<path d="M201.904 95.8603C201.584 96.9001 199.618 97.2133 197.512 96.5601C195.405 95.9136 193.959 94.5472 194.279 93.5074C194.599 92.4676 196.565 92.1544 198.671 92.8076C200.778 93.4541 202.224 94.8205 201.904 95.8603Z" fill="#ECF7F4"/>
<path d="M201.131 95.3934C200.891 96.1799 199.391 96.4198 197.791 95.9266C196.192 95.4334 195.092 94.3936 195.332 93.6071C195.572 92.8206 197.072 92.5806 198.671 93.0738C200.271 93.5671 201.371 94.6069 201.131 95.3934Z" fill="#1B1B2E"/>
<path d="M201.357 94.5871L200.837 94.1406C201.964 92.8208 203.763 93.2741 204.557 93.694L204.237 94.3005C204.163 94.2605 202.41 93.354 201.357 94.5871Z" fill="#ECF7F4"/>
<path d="M190.333 106.951C190.346 106.838 190.672 104.232 190.772 103.725C190.886 103.125 195.878 95.3469 195.925 95.3069L196.158 95.5535L196.431 95.7535C196.131 96.1867 191.626 103.299 191.439 103.865C191.352 104.332 191.012 107.005 191.012 107.031L190.333 106.945V106.951Z" fill="#ECF7F4"/>
<path d="M211.109 95.3937C210.789 96.4335 208.823 96.7468 206.716 96.0936C204.61 95.4471 203.164 94.0807 203.484 93.0409C203.804 92.0011 205.77 91.6878 207.876 92.341C209.982 92.9875 211.429 94.3539 211.109 95.3937Z" fill="#ECF7F4"/>
<path d="M210.302 94.9805C210.062 95.767 208.562 96.007 206.963 95.5138C205.363 95.0205 204.263 93.9807 204.503 93.1942C204.743 92.4077 206.243 92.1678 207.842 92.661C209.442 93.1542 210.542 94.194 210.302 94.9805Z" fill="#1B1B2E"/>
<path d="M193.485 108.184C193.485 108.184 191.652 104.652 190.079 105.265C188.506 105.878 189.586 110.784 191.219 111.657C192.852 112.523 193.692 111.03 193.692 111.03L193.485 108.191V108.184Z" fill="#F9CFA7"/>
<path d="M190.425 106.665C190.425 106.665 190.385 106.699 190.412 106.712C191.552 107.358 192.038 108.565 192.332 109.785C192.032 109.291 191.578 108.978 190.919 109.331C190.885 109.351 190.905 109.405 190.945 109.398C191.452 109.358 191.798 109.491 192.078 109.931C192.278 110.245 192.392 110.618 192.518 110.964C192.558 111.078 192.765 111.051 192.738 110.918C192.738 110.911 192.738 110.898 192.738 110.891C192.971 109.358 192.065 107.045 190.432 106.672L190.425 106.665Z" fill="#1B1B2E"/>
</svg>
