<svg width="20" height="16" viewBox="0 0 20 16" fill="none" xmlns="http://www.w3.org/2000/svg">
<g id="shape closed">
<path id="Subtract" fill-rule="evenodd" clip-rule="evenodd" d="M5.56747 14.6555C6.85592 15.3127 8.33756 15.75 10 15.75C14.0947 15.75 17.0926 13.0968 18.8084 11.0413C20.2929 9.26296 20.2929 6.73704 18.8084 4.95872C18.4277 4.50271 17.984 4.01729 17.4792 3.53794L16.3807 4.56319C16.8573 5.01011 17.2834 5.4726 17.6569 5.91997C18.6767 7.14168 18.6767 8.85832 17.6569 10.08C16.0354 12.0224 13.4201 14.25 10 14.25C8.81688 14.25 7.73005 13.9834 6.74736 13.5543L5.56747 14.6555ZM8.86713 11.5758C9.22455 11.689 9.60515 11.75 10 11.75C12.0711 11.75 13.75 10.0711 13.75 8C13.75 7.69558 13.7137 7.39963 13.6453 7.11625L12.2023 8.463C12.0096 9.38436 11.2533 10.0986 10.3104 10.2288L8.86713 11.5758ZM7.79898 8.46913L6.60134 9.58692C6.37592 9.10498 6.25 8.56719 6.25 8C6.25 5.92893 7.92893 4.25 10 4.25C10.6593 4.25 11.2788 4.42013 11.8171 4.71887L10.6197 5.83643C10.4229 5.78014 10.2149 5.75 10 5.75C8.75736 5.75 7.75 6.75736 7.75 8C7.75 8.16088 7.76688 8.31781 7.79898 8.46913ZM13.9109 2.76465C12.7624 2.15256 11.4539 1.75 10 1.75C6.57993 1.75 3.96459 3.97755 2.34313 5.91997C1.32329 7.14168 1.32329 8.85832 2.34313 10.08C2.84549 10.6818 3.44324 11.311 4.13076 11.8928L3.02773 12.9223C2.30851 12.2986 1.69491 11.6442 1.19161 11.0413C-0.292874 9.26296 -0.292874 6.73704 1.19161 4.95872C2.90745 2.90325 5.90529 0.25 10 0.25C11.9399 0.25 13.6336 0.845505 15.0614 1.69083L13.9109 2.76465Z" fill="#00969F"/>
<path id="Line 2" d="M3 15L18 1" stroke="#00969F" stroke-width="1.5" stroke-linecap="round"/>
</g>
</svg>
