<svg width="24" height="24" viewBox="0 0 24 24" fill="none" xmlns="http://www.w3.org/2000/svg">
<path d="M23.7612 12.2878C23.7612 11.4773 23.6828 10.6407 23.5521 9.85645H12.2319V14.4838H18.7155C18.4541 15.974 17.5913 17.2812 16.3103 18.1178L20.1795 21.1243C22.454 19.0067 23.7612 15.9217 23.7612 12.2878Z" fill="#00969F"/>
<path d="M12.2335 24C15.4753 24 18.1942 22.9281 20.1811 21.0981L16.3119 18.1177C15.24 18.8497 13.8544 19.268 12.2335 19.268C9.09625 19.268 6.45576 17.1504 5.48845 14.3269L1.51465 17.3857C3.55384 21.4379 7.68451 24 12.2335 24Z" fill="#00969F"/>
<path d="M5.48756 14.3009C4.99083 12.8107 4.99083 11.1899 5.48756 9.69967L1.51375 6.61475C-0.185573 10.0134 -0.185573 14.0133 1.51375 17.3859L5.48756 14.3009Z" fill="#00969F"/>
<path d="M12.2335 4.75857C13.9328 4.73242 15.606 5.38601 16.8347 6.56247L20.2595 3.11153C18.0896 1.07234 15.2138 -0.0256872 12.2335 0.000456279C7.68451 0.000456279 3.55384 2.56252 1.51465 6.61475L5.48845 9.69968C6.45576 6.85004 9.09625 4.75857 12.2335 4.75857Z" fill="#00969F"/>
</svg>
