<svg width="19" height="20" viewBox="0 0 19 20" fill="none" xmlns="http://www.w3.org/2000/svg">
<g id="shape">
<path d="M15.5 11.25L9.5 17.25V19.25H11.5L17.5 13.25L15.5 11.25Z" fill="#00969F" fill-opacity="0.1"/>
<path d="M14 12.75L16 14.75M12.5 0.75V4.75M6.5 0.75V4.75M6.5 9.75H1.01733M1.01733 9.75C1.00563 10.0708 1 10.404 1 10.75C1 15.6594 2.14094 18.0017 5.5 18.8541M1.01733 9.75C1.2256 4.04277 3.34596 2.25 9.5 2.25C14.8679 2.25 17.1668 3.61399 17.8048 7.75M9.5 17.25L15.5 11.25L17.5 13.25L11.5 19.25H9.5V17.25Z" stroke="#00969F" stroke-width="1.5" stroke-linecap="round" stroke-linejoin="round"/>
</g>
</svg>
