<svg xmlns="http://www.w3.org/2000/svg" width="26" height="22" viewBox="0 0 26 22" fill="none">
  <path d="M2.32248 7.01722L2.42104 7.03412C2.6425 5.74275 3.6778 4.85436 4.99159 4.85293C8.46933 4.8491 11.947 4.84968 15.4248 4.85027C16.6895 4.85048 17.9542 4.85069 19.2189 4.85069H19.3185C19.7095 5.55577 20.1826 6.06247 20.7266 6.35433C21.2857 6.65434 21.9114 6.72279 22.582 6.55679L22.582 6.55678C23.8292 6.2477 24.7046 5.13545 24.7046 3.85705C24.7046 2.57921 23.8261 1.46797 22.583 1.15663L22.583 1.15663C21.5738 0.904124 20.0589 1.21593 19.3154 2.86341H19.3143H19.3115H19.3086H19.3058H19.3029H19.3H19.2972H19.2943H19.2915H19.2886H19.2858H19.2829H19.2801H19.2772H19.2743H19.2715H19.2686H19.2658H19.2629H19.2601H19.2572H19.2543H19.2515H19.2486H19.2458H19.2429H19.2401H19.2372H19.2343H19.2315H19.2286H19.2258H19.2229H19.2201H19.2172H19.2143H19.2115H19.2086H19.2058H19.2029H19.2H19.1972H19.1943H19.1915H19.1886H19.1858H19.1829H19.18H19.1772H19.1743H19.1715H19.1686H19.1657H19.1629H19.16H19.1572H19.1543H19.1514H19.1486H19.1457H19.1428H19.14H19.1371H19.1343H19.1314H19.1285H19.1257H19.1228H19.12H19.1171H19.1142H19.1114H19.1085H19.1056H19.1028H19.0999H19.0971H19.0942H19.0913H19.0885H19.0856H19.0827H19.0799H19.077H19.0742H19.0713H19.0684H19.0656H19.0627H19.0598H19.057H19.0541H19.0512H19.0484H19.0455H19.0427H19.0398H19.0369H19.0341H19.0312H19.0283H19.0255H19.0226H19.0197H19.0169H19.014H19.0111H19.0083H19.0054H19.0025H18.9997H18.9968H18.9939H18.9911H18.9882H18.9853H18.9825H18.9796H18.9767H18.9739H18.971H18.9681H18.9653H18.9624H18.9595H18.9567H18.9538H18.9509H18.9481H18.9452H18.9423H18.9395H18.9366H18.9337H18.9309H18.928H18.9251H18.9223H18.9194H18.9165H18.9137H18.9108H18.9079H18.9051H18.9022H18.8993H18.8964H18.8936H18.8907H18.8878H18.885H18.8821H18.8792H18.8764H18.8735H18.8706H18.8678H18.8649H18.862H18.8591H18.8563H18.8534H18.8505H18.8477H18.8448H18.8419H18.8391H18.8362H18.8333H18.8304H18.8276H18.8247H18.8218H18.819H18.8161H18.8132H18.8103H18.8075H18.8046H18.8017H18.7989H18.796H18.7931H18.7902H18.7874H18.7845H18.7816H18.7787H18.7759H18.773H18.7701H18.7673H18.7644H18.7615H18.7586H18.7558H18.7529H18.75H18.7471H18.7443H18.7414H18.7385H18.7357H18.7328H18.7299H18.727H18.7242H18.7213H18.7184H18.7155H18.7127H18.7098H18.7069H18.704H18.7012H18.6983H18.6954H18.6925H18.6897H18.6868H18.6839H18.681H18.6782H18.6753H18.6724H18.6695H18.6667H18.6638H18.6609H18.658H18.6552H18.6523H18.6494H18.6465H18.6437H18.6408H18.6379H18.635H18.6322H18.6293H18.6264H18.6235H18.6207H18.6178H18.6149H18.612H18.6091H18.6063H18.6034H18.6005H18.5976H18.5948H18.5919H18.589H18.5861H18.5833H18.5804H18.5775H18.5746H18.5717H18.5689H18.566H18.5631H18.5602H18.5574H18.5545H18.5516H18.5487H18.5458H18.543H18.5401H18.5372H18.5343H18.5315H18.5286H18.5257H18.5228H18.5199H18.5171H18.5142H18.5113H18.5084H18.5055H18.5027H18.4998H18.4969H18.494H18.4912H18.4883H18.4854H18.4825H18.4796H18.4768H18.4739H18.471H18.4681H18.4652H18.4624H18.4595H18.4566H18.4537H18.4508H18.448H18.4451H18.4422H18.4393H18.4364H18.4336H18.4307H18.4278H18.4249H18.422H18.4192H18.4163H18.4134H18.4105H18.4076H18.4048H18.4019H18.399H18.3961H18.3932H18.3903H18.3875H18.3846H18.3817H18.3788H18.3759H18.3731H18.3702H18.3673H18.3644H18.3615H18.3587H18.3558H18.3529H18.35H18.3471H18.3442H18.3414H18.3385H18.3356H18.3327H18.3298H18.327H18.3241H18.3212H18.3183H18.3154H18.3125H18.3097H18.3068H18.3039H18.301H18.2981H18.2952H18.2924H18.2895H18.2866H18.2837H18.2808H18.278H18.2751H18.2722H18.2693H18.2664H18.2635H18.2607H18.2578H18.2549H18.252H18.2491H18.2462H18.2434H18.2405H18.2376H18.2347H18.2318H18.2289H18.2261H18.2232H18.2203H18.2174H18.2145H18.2116H18.2087H18.2059H18.203H18.2001H18.1972H18.1943H18.1914H18.1886H18.1857H18.1828H18.1799H18.177H18.1741H18.1713H18.1684H18.1655H18.1626H18.1597H18.1568H18.1539H18.1511H18.1482H18.1453H18.1424H18.1395H18.1366H18.1338H18.1309H18.128H18.1251H18.1222H18.1193H18.1164H18.1136H18.1107H18.1078H18.1049H18.102H18.0991H18.0963H18.0934H18.0905H18.0876H18.0847H18.0818H18.0789H18.0761H18.0732H18.0703H18.0674H18.0645H18.0616H18.0587H18.0559H18.053H18.0501H18.0472H18.0443H18.0414H18.0385H18.0357H18.0328H18.0299H18.027H18.0241H18.0212H18.0183H18.0155H18.0126H18.0097H18.0068H18.0039H18.001H17.9981H17.9953H17.9924H17.9895H17.9866H17.9837H17.9808H17.9779H17.9751H17.9722H17.9693H17.9664H17.9635H17.9606H17.9577H17.9548H17.952H17.9491H17.9462H17.9433H17.9404H17.9375H17.9346H17.9318H17.9289H17.926H17.9231H17.9202H17.9173H17.9144H17.9116H17.9087C16.6449 2.86341 15.3811 2.86252 14.1173 2.86163C11.0478 2.85948 7.97804 2.85732 4.9084 2.86788C2.03407 2.87779 -0.0981161 5.56234 0.501493 8.37221L2.32248 7.01722ZM2.32248 7.01722L2.42104 7.03412C2.16815 8.50849 3.30598 9.92555 4.80806 10.003L4.80825 10.003C4.91838 10.0089 5.02813 10.0086 5.14115 10.0082C5.16758 10.0081 5.1942 10.0081 5.22104 10.0081C6.72447 10.0081 8.22785 10.0078 9.73122 10.0076C13.491 10.007 17.2507 10.0064 21.0108 10.0096C23.2167 10.0118 25.0437 11.503 25.5014 13.6551C26.0913 16.4277 23.9584 19.1173 21.117 19.1318C18.2542 19.1461 15.3911 19.1431 12.5282 19.1402C11.3458 19.139 10.1635 19.1378 8.98119 19.1378H8.97656H8.97193H8.96731H8.96268H8.95805H8.95342H8.94879H8.94416H8.93953H8.9349H8.93027H8.92564H8.92101H8.91638H8.91176H8.90713H8.9025H8.89787H8.89324H8.88861H8.88398H8.87935H8.87472H8.87009H8.86546H8.86083H8.8562H8.85157H8.84695H8.84232H8.83769H8.83306H8.82843H8.8238H8.81917H8.81454H8.80991H8.80528H8.80065H8.79602H8.79139H8.78676H8.78213H8.7775H8.77287H8.76825H8.76362H8.75899H8.75436H8.74973H8.7451H8.74047H8.73584H8.73121H8.72658H8.72195H8.71732H8.71269H8.70806H8.70343H8.6988H8.69417H8.68954H8.68491H8.68028H8.67565H8.67102H8.66639H8.66176H8.65713H8.6525H8.64787H8.64324H8.63861H8.63398H8.62935H8.62472H8.62009H8.61546H8.61083H8.6062H8.60157H8.59694H8.59231H8.58768H8.58305H8.57842H8.57379H8.56915H8.56452H8.55989H8.55526H8.55063H8.546H8.54137H8.53674H8.53211H8.52748H8.52285H8.51822H8.51359H8.50895H8.50432H8.49969H8.49506H8.49043H8.4858H8.48117H8.47654H8.4719H8.46727H8.46264H8.45801H8.45338H8.44875H8.44412H8.43948H8.43485H8.43022H8.42559H8.42096H8.41633H8.41169H8.40706H8.40243H8.3978H8.39317H8.38853H8.3839H8.37927H8.37464H8.37H8.36537H8.36074H8.35611H8.35147H8.34684H8.34221H8.33758H8.33294H8.32831H8.32368H8.31905H8.31441H8.30978H8.30515H8.30051H8.29588H8.29125H8.28661H8.28198H8.27735H8.27271H8.26808H8.26345H8.25881H8.25418H8.24955H8.24491H8.24028H8.23564H8.23101H8.22638H8.22174H8.21711H8.21247H8.20784H8.20321H8.19857H8.19394H8.1893H8.18467H8.18003H8.1754H8.17076H8.16613H8.16149H8.15686H8.15222H8.14759H8.14295H8.13832H8.13368H8.12905H8.12441H8.11978H8.11514H8.11051H8.10587H8.10123H8.0966H8.09196H8.08733H8.08269H8.07805H8.07342H8.06878H8.06415H8.05951H8.05487H8.05024H8.0456H8.04096H8.03633H8.03169H8.02705H8.02242H8.01778H8.01314H8.0085H8.00387H7.99923H7.99459H7.98996H7.98532H7.98068H7.97604H7.9714H7.96677H7.96213H7.95749H7.95285H7.94821H7.94358H7.93894H7.9343H7.92966H7.92502H7.92038H7.91574H7.91111H7.90647H7.90183H7.89719H7.89255H7.88791H7.88327H7.87863H7.87399H7.86935H7.86471H7.86007H7.85543H7.85079H7.84615H7.84151H7.83687H7.83223H7.82759H7.82295H7.81831H7.81367H7.80903H7.80439H7.79975H7.7951H7.79046H7.78582H7.78118H7.77654H7.7719H7.76726H7.76261H7.75797H7.75333H7.74869H7.74405H7.7394H7.73476H7.73012H7.72548H7.72083H7.71619H7.71155H7.70691H7.70226H7.69762H7.69298H7.68833H7.68369H7.67905H7.6744H7.66976H7.66511H7.66047H7.65583H7.65118H7.64654H7.64189H7.63725H7.6326H7.62796H7.62331H7.61867H7.61402H7.60938H7.60473H7.60009H7.59544H7.5908H7.58615H7.58151H7.57686H7.57221H7.56757H7.56292H7.55828H7.55363H7.54898H7.54434H7.53969H7.53504H7.53039H7.52575H7.5211H7.51645H7.51181H7.50716H7.50251H7.49786H7.49321H7.48857H7.48392H7.47927H7.47462H7.46997H7.46532H7.46067H7.45603H7.45138H7.44673H7.44208H7.43743H7.43278H7.42813H7.42348H7.41883H7.41418H7.40953H7.40488H7.40023H7.39558H7.39093H7.38628H7.38163H7.37698H7.37232H7.36767H7.36302H7.35837H7.35372H7.34907H7.34441H7.33976H7.33511H7.33046H7.32581H7.32115H7.3165H7.31185H7.30719H7.30254H7.29789H7.29323H7.28858H7.28393H7.27927H7.27462H7.26997H7.26531H7.26066H7.256H7.25135H7.24669H7.24204H7.23738H7.23273H7.22807H7.22342H7.21876H7.21411H7.20945H7.20479H7.20014H7.19548H7.19083H7.18617H7.18151H7.17686H7.1722H7.16754H7.16289H7.15823H7.15357H7.14891H7.14425H7.1396H7.13494H7.13028H7.12562H7.12096H7.1163H7.11165H7.10699H7.10233H7.09767H7.09301H7.08835H7.08369H7.07903H7.07437H7.06971H7.06505H7.06039H7.05573H7.05107H7.04641H7.04175H7.03708H7.03242H7.02776H7.0231H7.01844H7.01378H7.00911H7.00445H6.99979H6.99513H6.99046H6.9858H6.98114H6.97647H6.97181H6.96715H6.96248H6.95782H6.95316H6.94849H6.94383H6.93916H6.9345H6.92983H6.92517H6.9205H6.91584H6.91117H6.90651H6.90184H6.89717H6.89251H6.88784H6.88317H6.87851H6.87384H6.86917H6.86451H6.85984H6.85517H6.8505H6.84584H6.84117H6.8365H6.83183H6.82716H6.82249H6.81783H6.81316H6.80849H6.80382H6.79915H6.79448H6.78981H6.78514H6.78047H6.7758H6.77113H6.76646H6.76179H6.75711H6.75244H6.74777H6.7431H6.73843H6.73376H6.72908H6.72441H6.71974H6.71507H6.71039H6.70572H6.70105H6.69637H6.6917H6.68703H6.68235H6.67768H6.673H6.67006C6.44984 19.6634 6.1214 20.1018 5.64914 20.4288C4.34302 21.3335 2.53932 20.9538 1.70588 19.5985C0.878559 18.2539 1.34016 16.4865 2.71947 15.7172L2.71948 15.7172C4.10845 14.9427 5.87339 15.4902 6.55824 16.9272L6.55826 16.9273C6.60636 17.0284 6.64882 17.0806 6.69563 17.1106C6.74216 17.1405 6.80672 17.1572 6.91814 17.1572C9.91168 17.152 12.905 17.1516 15.8983 17.1512C17.5823 17.151 19.2663 17.1508 20.9503 17.1498C22.5027 17.149 23.6627 15.9649 23.6096 14.4598L23.6096 14.4598C23.5644 13.1588 22.4883 12.0641 21.189 11.9982L21.1889 11.9982C21.0821 11.9927 20.9749 11.9929 20.8645 11.993C20.8443 11.9931 20.824 11.9931 20.8035 11.9931C19.3976 11.9931 17.9917 11.9933 16.5858 11.9935C12.7193 11.9941 8.85272 11.9947 4.98616 11.9909C2.79267 11.9886 0.954838 10.4972 0.501494 8.37222L2.32248 7.01722ZM21.136 3.85854V3.85839C21.1354 3.41594 21.5021 3.05639 21.9447 3.06562C22.3734 3.07487 22.7256 3.43951 22.7196 3.86908C22.7137 4.2986 22.3524 4.65259 21.9228 4.64995C21.4933 4.6473 21.136 4.28797 21.136 3.85854ZM4.07769 18.9385H4.07754C3.6483 18.9425 3.28625 18.588 3.27959 18.1591C3.27369 17.7156 3.63467 17.3516 4.0771 17.3542C4.50581 17.3569 4.86316 17.7161 4.86316 18.1456C4.86316 18.5761 4.50708 18.9352 4.07769 18.9385Z" fill="#ECF7F4" stroke="#ECF7F4" stroke-width="0.2"/>
</svg>