<svg width="184" height="66" viewBox="0 0 184 66" fill="none" xmlns="http://www.w3.org/2000/svg">
<path d="M24.2781 58.6892C19.6903 53.8187 16.4132 49.3706 14.1895 46.0455C12.0263 42.8108 10.5121 40.5204 9.1355 37.2578C11.5822 37.4559 15.6891 38.2988 19.117 41.5043C23.4435 45.5501 25.3281 52.0432 24.2781 58.6899V58.6892Z" fill="#00969F"/>
<path d="M29.6733 41.5036C33.3292 38.0854 37.7571 37.3537 40.1197 37.2258C38.7397 40.5058 37.2234 42.8003 35.0532 46.0455C32.9616 49.1725 29.9381 53.2933 25.7687 57.8254C26.1147 54.7609 25.8729 51.7451 25.087 48.9787C25.1238 48.9252 25.1537 48.8654 25.1745 48.8008C25.2593 48.5325 25.3503 48.265 25.4462 48.0044C25.9167 46.7196 26.5073 45.5299 27.2134 44.4438C27.9194 43.3583 28.7415 42.375 29.674 41.5036H29.6733Z" fill="#FF8A44"/>
<path d="M49.2173 0C47.4738 1.13686 45.656 2.24661 43.8479 3.40014C41.0981 5.15546 39.0239 6.71065 38.5312 7.07477C37.7522 7.64876 36.9718 8.32073 36.2026 9.05941C33.7044 11.4533 31.3105 14.547 29.4009 17.2745C29.314 17.3343 29.2299 17.3933 29.1466 17.4531C30.708 14.9619 32.2694 12.47 33.8316 9.97946C27.7852 7.835 21.9842 7.63417 16.1019 10.2901C17.6293 12.9585 19.156 15.6283 20.6841 18.2974C20.8355 18.5636 20.9884 18.829 21.1399 19.0951C21.1483 19.1097 21.1559 19.1236 21.1649 19.1382C21.1552 19.1222 21.1462 19.1077 21.1357 19.0917C20.9516 18.7943 20.7675 18.5045 20.5833 18.2217C18.7668 15.4247 17.0032 13.3233 15.6231 11.8369C14.6364 10.7744 13.8747 9.78975 13.1034 9.00937C12.2244 8.11782 11.3328 7.49171 10.0806 7.31452C6.15301 6.7586 2.87378 5.15338 0.0608268 1.84913C-0.417959 7.99135 1.95234 12.2872 6.3733 15.5241C6.73881 15.7923 7.11962 16.0529 7.51293 16.3065C7.48375 16.3753 7.45526 16.4434 7.42746 16.5129C7.03484 17.4712 6.72353 18.4704 6.50185 19.5003C6.32743 20.3112 6.20861 21.1423 6.15023 21.988C5.92787 25.1873 6.44001 28.4888 7.15714 31.3226C7.59145 33.0439 8.1036 34.5928 8.57265 35.8436L8.70468 35.8652C11.2452 35.9965 16.0574 36.779 20.0468 40.5099C21.9418 42.2819 23.4018 44.4833 24.3934 46.9495C25.4052 44.4305 26.8659 42.2659 28.7442 40.5099C32.7336 36.779 37.5458 35.9965 40.0864 35.8652L40.7013 35.7616C41.2788 34.2113 41.9153 32.2176 42.3941 30.0134C42.941 27.4965 43.2815 24.7051 43.0932 21.988C43.0056 20.7309 42.786 19.51 42.4483 18.3349C42.1843 17.417 41.8486 16.5282 41.447 15.6749C41.4157 15.6068 41.383 15.5393 41.3504 15.4726C41.3657 15.4608 41.3816 15.4476 41.3976 15.4358C46.5329 11.3359 48.9574 5.95459 49.2187 0.00138904L49.2173 0ZM14.3243 31.2753C10.9652 31.2753 8.24188 28.552 8.24188 25.1929C8.24188 21.8337 10.9652 19.1104 14.3243 19.1104C17.6835 19.1104 20.4068 21.8337 20.4068 25.1929C20.4068 28.552 17.6835 31.2753 14.3243 31.2753ZM27.5024 28.8613C26.5977 29.9175 25.6894 30.9772 24.7638 32.0564C24.629 32.2142 24.3295 32.2093 24.203 32.0467L21.7215 28.8627C21.5145 28.5972 21.8855 28.2873 22.2392 28.4297C22.7701 28.6438 23.2976 28.862 23.8042 29.1059C24.3552 29.3713 24.7867 29.3595 25.3364 29.1107C25.8819 28.864 26.4455 28.6424 27.0118 28.4242C27.3655 28.288 27.7213 28.6049 27.5024 28.8606V28.8613ZM34.9073 31.8195C31.5481 31.8195 28.8241 29.0961 28.8241 25.737C28.8241 22.3779 31.5474 19.6545 34.9073 19.6545C38.2671 19.6545 40.9897 22.3779 40.9897 25.737C40.9897 29.0961 38.2664 31.8195 34.9073 31.8195Z" fill="#00969F"/>
<path d="M34.9073 29.7262C37.1102 29.7262 38.896 27.9404 38.896 25.7375C38.896 23.5346 37.1102 21.7488 34.9073 21.7488C32.7044 21.7488 30.9186 23.5346 30.9186 25.7375C30.9186 27.9404 32.7044 29.7262 34.9073 29.7262Z" fill="#00969F"/>
<path d="M14.3244 29.1815C16.5273 29.1815 18.3131 27.3957 18.3131 25.1928C18.3131 22.9899 16.5273 21.2041 14.3244 21.2041C12.1215 21.2041 10.3357 22.9899 10.3357 25.1928C10.3357 27.3957 12.1215 29.1815 14.3244 29.1815Z" fill="#00969F"/>
<path d="M51.3104 33.2335C51.2673 31.4733 50.5377 29.3698 53.6286 29.3698H56.3762C58.8661 29.3698 58.9515 31.13 58.9092 32.7609C58.823 34.5211 58.6944 40.7884 58.7375 45.1239C58.8237 50.189 59.9821 52.8936 63.6741 52.8936C67.3661 52.8936 68.6106 50.3183 68.6106 45.0808C68.6106 40.3159 68.6106 34.6497 68.5676 33.2328C68.5676 31.4726 67.7948 29.3691 70.8857 29.3691H73.6334C76.1232 29.3691 76.2518 31.1293 76.1663 32.7603C76.1232 34.5204 75.9947 43.0628 75.9085 45.0801C75.5221 53.494 73.247 58.9885 63.8033 58.9885C53.844 58.9885 51.612 53.6225 51.3973 45.1232C51.2687 39.4139 51.3542 34.4774 51.3111 33.2328L51.3104 33.2335Z" fill="#FF8A44"/>
<path d="M81.8735 52.8083C82.0452 46.584 82.0452 40.4453 82.0452 37.87C82.0452 36.2815 81.0577 34.522 85.2216 34.522C88.0116 34.522 88.956 35.9389 89.2992 37.3982C89.4709 37.87 89.514 38.5142 89.514 39.3731H89.8142C90.072 37.9993 92.0893 34.5227 96.8542 34.5227C103.336 34.5227 104.324 40.3605 104.281 44.2672C104.237 47.7869 103.809 51.3504 103.98 56.0722C104.109 57.7031 104.067 58.9915 100.718 58.9915C97.3691 58.9915 96.3393 57.5322 96.3393 55.5573C96.3393 51.7798 96.7687 48.1309 96.7687 44.3965C96.7687 42.2076 95.7382 40.4905 93.5492 40.4905C91.2311 40.4905 89.9003 42.637 89.3854 43.6238C89.3423 46.5854 89.2569 50.3205 89.3423 52.8103C89.3423 53.8409 89.3854 54.7422 89.4709 55.2571C89.6425 57.0597 89.557 58.5627 87.1096 58.5627H84.3196C82.3447 58.5627 82.0014 57.1889 81.8728 55.8582C81.8298 55.0854 81.8728 54.0125 81.8728 52.8103L81.8735 52.8083Z" fill="#FF8A44"/>
<path d="M108.574 32.7617C108.187 30.9585 107.972 29.3706 110.119 29.3706H112.523C115.012 29.3706 115.27 31.2163 115.484 32.1182C116.042 34.6081 120.12 50.6199 120.807 53.7102H121.065C121.795 49.9327 125.959 33.4921 126.259 32.2037C126.603 30.4004 126.646 29.3706 128.921 29.3706H132.14C133.814 29.3706 134.029 31.0446 133.6 32.5901C132.441 36.8401 127.332 54.0104 126.946 55.5989C126.474 57.3591 126.13 58.5606 123.383 58.5606H118.06C115.742 58.5606 115.056 57.3584 114.669 55.7275C114.24 54.1389 109.218 35.4663 108.574 32.7617Z" fill="#00969F"/>
<path d="M146.95 34.5212C154.548 34.5212 158.497 39.8442 158.411 46.7126C158.325 53.6664 154.548 59.0324 146.993 59.0324C139.438 59.0324 135.574 53.6664 135.617 46.6695C135.66 39.8442 139.395 34.5212 146.95 34.5212ZM151.285 46.6695C151.285 43.2784 150.298 40.4022 146.993 40.4022C143.43 40.4022 142.7 43.3214 142.7 46.6695C142.7 50.0175 143.473 53.1515 146.95 53.1515C150.428 53.1515 151.286 50.0606 151.286 46.6695H151.285Z" fill="#00969F"/>
<path d="M164.507 59.3334C165.494 59.6336 166.782 59.8052 168.156 59.8052C170.216 59.8052 170.903 58.5606 171.59 56.2424H169.83C167.469 56.2424 166.997 54.9548 166.567 53.6241C165.794 51.3059 161.759 40.446 161.03 38.1278C160.557 36.6685 160.085 34.9514 162.446 34.9514H165.107C167.554 34.9514 167.812 36.3252 168.112 37.3551C168.67 39.7163 171.632 48.4304 172.577 52.1648H172.835C173.693 48.2157 175.668 39.3731 176.14 37.3551C176.355 35.9389 176.612 34.9514 178.93 34.9514H182.063C184.252 34.9514 184.21 36.0674 183.737 37.9992C182.707 41.9053 179.745 52.1224 178.458 56.5003C177.084 61.179 175.367 65.429 168.498 65.429C166.395 65.429 164.549 65.1712 163.519 64.7425C162.446 64.3561 162.102 63.9267 162.274 63.1115L162.574 60.407C162.703 59.3341 163.347 58.9908 164.506 59.3341L164.507 59.3334Z" fill="#00969F"/>
</svg>
