<svg width="202" height="202" viewBox="0 0 202 202" fill="none" xmlns="http://www.w3.org/2000/svg">
<path d="M101 202C45.2192 202 -2.14592e-05 156.953 -1.97347e-05 101.384C-1.80102e-05 45.8155 45.2192 0.768303 101 0.768306C156.781 0.768309 202 45.8156 202 101.384C202 156.953 156.781 202 101 202Z" fill="#ECF7F4"/>
<path d="M68.4435 40.8101C68.4435 44.1553 71.167 46.6641 74.4011 46.6641C77.8054 46.6641 80.3587 43.988 80.3587 40.8101C80.3587 37.465 77.6352 34.9562 74.4011 34.9562C71.167 34.7889 68.4435 37.465 68.4435 40.8101Z" fill="#FF8A44"/>
<path d="M50.0663 40.8101C50.0663 44.1553 52.7897 46.6641 56.0239 46.6641C59.4282 46.6641 61.9815 43.988 61.9815 40.8101C61.9815 37.465 59.258 34.9562 56.0239 34.9562C52.6195 34.7889 50.0663 37.465 50.0663 40.8101Z" fill="#FF8A44"/>
<path d="M31.5043 40.8105C31.5043 44.1556 34.2278 46.6645 37.4619 46.6645C40.696 46.6645 43.4195 43.9884 43.4195 40.8105C43.4195 37.4654 40.696 34.9565 37.4619 34.9565C34.2278 34.9565 31.5043 37.4654 31.5043 40.8105Z" fill="#FF8A44"/>
<path d="M74.4011 11.7079C71.1108 11.7079 68.4435 9.08702 68.4435 5.85396C68.4435 2.62091 71.1108 0 74.4011 0C77.6914 0 80.3587 2.62091 80.3587 5.85396C80.3587 9.08702 77.6914 11.7079 74.4011 11.7079Z" fill="#FF8A44"/>
<path d="M50.0663 5.85396C50.0663 9.19909 52.7897 11.7079 56.0239 11.7079C59.4282 11.7079 61.9815 9.03183 61.9815 5.85396C61.9815 2.6761 59.258 0 56.0239 0C52.6195 0 50.0663 2.50884 50.0663 5.85396Z" fill="#FF8A44"/>
<path d="M37.6336 11.7079C34.3433 11.7079 31.676 9.08702 31.676 5.85396C31.676 2.62091 34.3433 0 37.6336 0C40.9239 0 43.5912 2.62091 43.5912 5.85396C43.5912 9.08702 40.9239 11.7079 37.6336 11.7079Z" fill="#FF8A44"/>
<path d="M68.4435 23.248C68.4435 26.5931 71.167 29.102 74.4011 29.102C77.8054 29.102 80.3587 26.4259 80.3587 23.248C80.3587 19.9029 77.6352 17.394 74.4011 17.394C71.167 17.394 68.4435 20.0701 68.4435 23.248Z" fill="#FF8A44"/>
<path d="M50.0663 23.248C50.0663 26.5931 52.7897 29.102 56.0239 29.102C59.4282 29.102 61.9815 26.4259 61.9815 23.248C61.9815 19.9029 59.258 17.394 56.0239 17.394C52.6195 17.394 50.0663 20.0701 50.0663 23.248Z" fill="#FF8A44"/>
<path d="M31.5043 23.248C31.5043 26.5931 34.2278 29.102 37.4619 29.102C40.696 29.102 43.4195 26.4259 43.4195 23.248C43.4195 19.9029 40.696 17.394 37.4619 17.394C34.2278 17.394 31.5043 20.0701 31.5043 23.248Z" fill="#FF8A44"/>
</svg>
