<svg width="130" height="130" viewBox="0 0 130 130" fill="none" xmlns="http://www.w3.org/2000/svg">
<circle cx="65" cy="65" r="65" fill="#ECF7F4"/>
<path d="M113.063 22.9682C113.063 26.8128 116.187 29.9365 120.031 29.9365C123.876 29.9365 127 26.8128 127 22.9682C127 19.1237 123.876 16 120.031 16C116.187 16 113.063 19.1237 113.063 22.9682Z" fill="#FF8A44"/>
<path d="M92.9999 22.9682C92.9999 26.8128 96.1236 29.9365 99.9682 29.9365C103.813 29.9365 106.936 26.8128 106.936 22.9682C106.936 19.1237 103.813 16 99.9682 16C96.1236 16 92.9999 19.1237 92.9999 22.9682Z" fill="#FF8A44"/>
<path d="M113.063 43.3923C113.063 47.2369 116.187 50.3605 120.031 50.3605C123.876 50.3605 127 47.2369 127 43.3923C127 39.5478 123.876 36.4241 120.031 36.4241C116.187 36.5442 113.063 39.5478 113.063 43.3923Z" fill="#FF8A44"/>
<path d="M92.9999 43.3923C92.9999 47.2369 96.1236 50.3605 99.9682 50.3605C103.813 50.3605 106.936 47.2369 106.936 43.3923C106.936 39.5478 103.813 36.4241 99.9682 36.4241C96.1236 36.5442 92.9999 39.5478 92.9999 43.3923Z" fill="#FF8A44"/>
</svg>
