<svg width="156" height="50" viewBox="0 0 156 50" fill="none" xmlns="http://www.w3.org/2000/svg">
<g clip-path="url(#clip0_1_5340)">
<path d="M81.8387 12.8598C81.8387 14.6123 80.4319 16.0241 78.6855 16.0241C76.939 16.0241 75.5322 14.6123 75.5322 12.8598C75.5322 11.1072 76.8905 9.69544 78.6855 9.69544C80.4804 9.74412 81.8387 11.1559 81.8387 12.8598ZM68.8377 19.2371C68.8377 19.5292 68.8377 20.016 68.8377 20.016C68.8377 20.016 67.3338 18.0687 64.1321 18.0687C58.8443 18.0687 54.7209 22.1093 54.7209 27.7077C54.7209 33.2574 58.7958 37.3467 64.1321 37.3467C67.3823 37.3467 68.8377 35.3507 68.8377 35.3507V36.1783C68.8377 36.5678 69.1287 36.8599 69.5168 36.8599H73.4462V18.5555C73.4462 18.5555 69.8564 18.5555 69.5168 18.5555C69.1287 18.5555 68.8377 18.8963 68.8377 19.2371ZM68.8377 30.9694C68.11 32.0404 66.6547 32.9653 64.9082 32.9653C61.8035 32.9653 59.4265 31.0181 59.4265 27.7077C59.4265 24.3973 61.8035 22.4501 64.9082 22.4501C66.6061 22.4501 68.1585 23.4237 68.8377 24.446V30.9694ZM76.3569 18.5555H81.014V36.8599H76.3569V18.5555ZM145.922 18.0687C142.72 18.0687 141.217 20.016 141.217 20.016V9.74412H136.559V36.8599C136.559 36.8599 140.149 36.8599 140.489 36.8599C140.877 36.8599 141.168 36.5191 141.168 36.1783V35.3507C141.168 35.3507 142.672 37.3467 145.874 37.3467C151.161 37.3467 155.285 33.2574 155.285 27.7077C155.285 22.158 151.161 18.0687 145.922 18.0687ZM145.146 32.9167C143.351 32.9167 141.944 31.9917 141.217 30.9207V24.3973C141.944 23.4237 143.497 22.4014 145.146 22.4014C148.251 22.4014 150.628 24.3487 150.628 27.659C150.628 30.9694 148.251 32.9167 145.146 32.9167ZM134.134 26.0038V36.9086H129.477V26.5393C129.477 23.5211 128.507 22.304 125.887 22.304C124.48 22.304 123.025 23.0342 122.103 24.1052V36.8599H117.446V18.5555H121.133C121.521 18.5555 121.812 18.8963 121.812 19.2371V20.016C123.17 18.6042 124.965 18.0687 126.76 18.0687C128.798 18.0687 130.496 18.6529 131.854 19.8213C133.503 21.1843 134.134 22.9369 134.134 26.0038ZM106.143 18.0687C102.941 18.0687 101.437 20.016 101.437 20.016V9.74412H96.7802V36.8599C96.7802 36.8599 100.37 36.8599 100.71 36.8599C101.098 36.8599 101.389 36.5191 101.389 36.1783V35.3507C101.389 35.3507 102.893 37.3467 106.094 37.3467C111.382 37.3467 115.506 33.2574 115.506 27.7077C115.554 22.158 111.431 18.0687 106.143 18.0687ZM105.367 32.9167C103.572 32.9167 102.165 31.9917 101.437 30.9207V24.3973C102.165 23.4237 103.717 22.4014 105.367 22.4014C108.471 22.4014 110.848 24.3487 110.848 27.659C110.848 30.9694 108.471 32.9167 105.367 32.9167ZM92.7537 18.0687C94.1606 18.0687 94.8882 18.3121 94.8882 18.3121V22.6448C94.8882 22.6448 91.0073 21.3304 88.5818 24.1052V36.9086H83.9247V18.5555C83.9247 18.5555 87.5145 18.5555 87.8541 18.5555C88.2422 18.5555 88.5332 18.8963 88.5332 19.2371V20.016C89.4064 18.9937 91.2984 18.0687 92.7537 18.0687ZM44.388 35.2047C44.1454 34.6205 43.9029 33.9877 43.6603 33.4522C43.2722 32.5759 42.8841 31.7483 42.5445 30.9694L42.496 30.9207C39.1488 23.6184 35.5589 16.2188 31.775 8.91653L31.6295 8.62444C31.2414 7.89421 30.8533 7.1153 30.4652 6.33639C29.9801 5.46012 29.495 4.53517 28.7188 3.6589C27.1665 1.71162 24.9349 0.640625 22.5579 0.640625C20.1323 0.640625 17.9493 1.71162 16.3484 3.56153C15.6208 4.4378 15.0871 5.36276 14.602 6.23903C14.2139 7.01794 13.8259 7.79685 13.4378 8.52708L13.2922 8.81917C9.55686 16.1214 5.91851 23.5211 2.57123 30.8233L2.52272 30.9207C2.18314 31.6996 1.79505 32.5272 1.40696 33.4035C1.16441 33.939 0.921851 34.5232 0.679294 35.156C0.0486477 36.9572 -0.145398 38.6611 0.0971589 40.4136C0.630783 44.0648 3.05635 47.1317 6.40363 48.4948C7.66492 49.0303 8.97473 49.2737 10.333 49.2737C10.7211 49.2737 11.2062 49.225 11.5943 49.1764C13.1952 48.9816 14.8446 48.4461 16.4455 47.5212C18.4344 46.4015 20.3264 44.795 22.4609 42.4583C24.5954 44.795 26.5358 46.4015 28.4763 47.5212C30.0771 48.4461 31.7265 48.9816 33.3274 49.1764C33.7155 49.225 34.2006 49.2737 34.5887 49.2737C35.947 49.2737 37.3053 49.0303 38.5181 48.4948C41.9139 47.1317 44.2909 44.0161 44.8246 40.4136C45.2127 38.7098 45.0186 37.0059 44.388 35.2047ZM22.5094 37.7361C19.8898 34.4258 18.1919 31.3102 17.6097 28.6813C17.3672 27.5617 17.3187 26.588 17.4642 25.7117C17.5612 24.9328 17.8523 24.2513 18.2404 23.6671C19.1621 22.3527 20.7145 21.5251 22.5094 21.5251C24.3043 21.5251 25.9052 22.304 26.7784 23.6671C27.1665 24.2513 27.4575 24.9328 27.5546 25.7117C27.7001 26.588 27.6516 27.6103 27.409 28.6813C26.8269 31.2615 25.129 34.3771 22.5094 37.7361ZM41.8654 40.0242C41.5258 42.5556 39.8279 44.7463 37.4509 45.72C36.2866 46.2068 35.0253 46.3528 33.764 46.2068C32.5512 46.0607 31.3384 45.6713 30.0771 44.9411C28.3307 43.9674 26.5843 42.4583 24.5469 40.2189C27.7486 36.2757 29.689 32.6732 30.4167 29.4602C30.7563 27.9511 30.8048 26.588 30.6593 25.3223C30.4652 24.1052 30.0286 22.9856 29.3495 22.0119C27.8456 19.8213 25.323 18.5555 22.5094 18.5555C19.6957 18.5555 17.1731 19.8699 15.6693 22.0119C14.9901 22.9856 14.5535 24.1052 14.3595 25.3223C14.1654 26.588 14.2139 27.9998 14.602 29.4602C15.3297 32.6732 17.3187 36.3244 20.4719 40.2676C18.4829 42.507 16.688 44.0161 14.9416 44.9897C13.6803 45.72 12.4675 46.1094 11.2548 46.2555C9.94495 46.4015 8.68366 46.2068 7.5679 45.7686C5.19085 44.795 3.49295 42.6043 3.15337 40.0729C3.00784 38.8558 3.10486 37.6388 3.58997 36.2757C3.73551 35.7889 3.97806 35.3021 4.22062 34.7179C4.5602 33.939 4.94829 33.1114 5.33638 32.2838L5.38489 32.1864C8.73217 24.9328 12.322 17.5332 16.0574 10.3283L16.2029 10.0362C16.591 9.30598 16.9791 8.52707 17.3672 7.79685C17.7553 7.01794 18.1919 6.28771 18.7255 5.65485C19.7442 4.48649 21.1025 3.85362 22.6064 3.85362C24.1102 3.85362 25.4686 4.48649 26.4873 5.65485C27.0209 6.28771 27.4575 7.01794 27.8456 7.79685C28.2337 8.52707 28.6218 9.30598 29.0099 10.0362L29.1554 10.3283C32.8423 17.5819 36.4321 24.9815 39.7794 32.2351V32.2838C40.1675 33.0627 40.5071 33.939 40.8952 34.7179C41.1377 35.3021 41.3803 35.7889 41.5258 36.2757C41.9139 37.5414 42.0594 38.7585 41.8654 40.0242Z" fill="#FF5A5F"/>
</g>
<defs>
<clipPath id="clip0_1_5340">
<rect width="155.285" height="48.6331" fill="white" transform="translate(0 0.640625)"/>
</clipPath>
</defs>
</svg>
