<svg width="196" height="26" viewBox="0 0 196 26" fill="none" xmlns="http://www.w3.org/2000/svg">
<g id="af-logo 1" clip-path="url(#clip0_1_5343)">
<g id="Group">
<g id="Group_2">
<path id="Vector" d="M184.515 4.93628L175.789 17.63C174.642 19.2989 172.778 20.9084 170.527 21.0794V21.4695H180.232C182.808 21.4695 184.687 19.7832 185.959 17.9259L194.918 4.93628H184.516H184.515Z" fill="#FF0000"/>
<path id="Vector_2" d="M23.8327 21.4694V6.33068H28.2253V21.4694H23.8327ZM125.141 21.4694L114.586 12.48V21.4694H110.877V6.33068H114.028L124.442 15.1788V6.33068H128.151V21.4694H125.141ZM148.096 11.2145C146.111 10.2316 143.875 9.43603 140.911 9.43603C137.371 9.43603 134.732 11.2769 134.732 13.8366C134.732 16.4587 137.419 18.317 140.879 18.317C143.736 18.317 146 17.5828 148.235 16.2866V20.0329C146.264 21.0158 143.642 21.7489 140.693 21.7489C134.671 21.7489 129.935 18.6599 129.935 13.8366C129.935 9.09202 134.763 6.0481 140.676 6.0481C143.471 6.0481 146 6.57845 148.096 7.43849V11.2145ZM52.6712 21.4694V6.33068H67.3541V9.5763H57.0638V13.3379H67.1225V16.5846H57.0638V21.4704H52.6712V21.4694ZM150.751 21.4694V6.33068H165.992V9.5763H155.142V12.1994H165.821V15.445H155.142V18.2238H165.945V21.4694H150.751ZM82.6118 15.788L88.6801 21.4704H83.9929C82.9529 21.4704 82.2706 21.1428 81.7269 20.6104L77.5979 16.5836C77.5498 16.5407 77.4936 16.5077 77.4326 16.4865C77.3716 16.4652 77.3069 16.4561 77.2423 16.4597H74.4325V21.4694H70.0399V6.33068H79.5549C84.4902 6.33068 86.5702 8.56268 86.5702 11.0281C86.5702 13.9 84.0239 15.271 82.6118 15.788ZM79.1052 13.2908C80.8419 13.2908 81.6803 12.4021 81.6803 11.4029C81.6803 10.4036 80.936 9.5763 79.1052 9.5763H74.4325V13.2908H79.1052ZM44.9096 15.7891L50.9779 21.4694H46.2918C45.2518 21.4694 44.5684 21.1418 44.0257 20.6104L39.8967 16.5836C39.8485 16.5407 39.7921 16.5076 39.7309 16.4864C39.6697 16.4651 39.6049 16.456 39.5401 16.4597H36.7313V21.4694H32.3377V6.33068H41.8527C46.788 6.33068 48.869 8.56268 48.869 11.0281C48.869 13.9 46.3228 15.272 44.9096 15.7891ZM41.403 13.2908C43.1418 13.2908 43.9802 12.4021 43.9802 11.4029C43.9802 10.4036 43.2348 9.5763 41.403 9.5763H36.7313V13.2908H41.403ZM16.956 21.4694L15.0321 18.1449H6.62019L4.86586 21.4694H0.674887L9.05683 6.34604H12.8756L22.3751 21.4694H16.956ZM8.29596 14.9915H13.2013L10.6551 10.3718L8.29596 14.9915ZM104.668 21.4694L102.789 18.1449H94.5965L92.9042 21.4694H88.8207L96.9845 6.34604H100.694L109.93 21.4694H104.668ZM96.2402 14.9915H101.02L98.5373 10.3718L96.2402 14.9915Z" fill="#051039"/>
</g>
</g>
</g>
<defs>
<clipPath id="clip0_1_5343">
<rect width="195.386" height="25.5964" fill="white" transform="translate(0.284668 0.158936)"/>
</clipPath>
</defs>
</svg>
