<svg width="14" height="13" viewBox="0 0 14 13" fill="none" xmlns="http://www.w3.org/2000/svg">
<path d="M6.32521 0.945533C6.48798 0.47243 7.15707 0.47243 7.31983 0.945533L8.48336 4.32755C8.5564 4.53985 8.75615 4.68237 8.98067 4.68237H12.6791C13.1958 4.68237 13.4027 5.34958 12.9766 5.64194L10.0372 7.65887C9.8423 7.79264 9.76058 8.04005 9.83749 8.26361L10.9723 11.562C11.1372 12.0413 10.5953 12.4536 10.1774 12.1668L7.12008 10.0689C6.94079 9.94589 6.70426 9.94589 6.52497 10.0689L3.46765 12.1668C3.04972 12.4536 2.50789 12.0413 2.67279 11.562L3.80756 8.26361C3.88447 8.04005 3.80275 7.79264 3.60781 7.65887L0.668431 5.64194C0.242372 5.34958 0.449274 4.68237 0.965991 4.68237H4.66438C4.8889 4.68237 5.08865 4.53985 5.16169 4.32755L6.32521 0.945533Z" fill="#FFB61D"/>
</svg>
