<svg width="256" height="91" viewBox="0 0 256 91" fill="none" xmlns="http://www.w3.org/2000/svg">
<g id="logo_2">
<path id="Vector" d="M33.7664 81.6261C27.3857 74.852 22.8278 68.6656 19.7351 64.041C16.7264 59.542 14.6204 56.3565 12.7058 51.8188C16.1088 52.0943 21.8207 53.2666 26.5884 57.725C32.6057 63.3519 35.2268 72.3827 33.7664 81.627V81.6261Z" fill="#ECF7F4"/>
<path id="Vector_2" d="M41.2702 57.7241C46.3548 52.97 52.5132 51.9522 55.7993 51.7744C53.8798 56.3362 51.771 59.5275 48.7526 64.041C45.8435 68.3901 41.6384 74.1214 35.8395 80.4248C36.3208 76.1626 35.9845 71.9681 34.8914 68.1205C34.9426 68.0461 34.9842 67.963 35.0132 67.8731C35.1311 67.5 35.2577 67.1279 35.3911 66.7655C36.0454 64.9785 36.8669 63.3239 37.8488 61.8133C38.8308 60.3036 39.9741 58.936 41.2711 57.7241H41.2702Z" fill="#FF8A44"/>
<path id="Vector_3" d="M68.4524 0C66.0275 1.58116 63.4992 3.12463 60.9845 4.72899C57.1601 7.17032 54.2752 9.3333 53.5899 9.83974C52.5065 10.638 51.4211 11.5726 50.3512 12.6C46.8767 15.9295 43.5472 20.2323 40.8913 24.0257C40.7705 24.1089 40.6536 24.191 40.5376 24.2741C42.7093 20.8093 44.881 17.3435 47.0536 13.8796C38.6443 10.8971 30.5761 10.6178 22.3948 14.3116C24.5192 18.0229 26.6425 21.7361 28.7678 25.4484C28.9785 25.8186 29.1911 26.1878 29.4018 26.5579C29.4134 26.5782 29.424 26.5975 29.4366 26.6178C29.4231 26.5956 29.4105 26.5753 29.396 26.5531C29.1399 26.1394 28.8838 25.7364 28.6277 25.343C26.1013 21.453 23.6484 18.5303 21.7289 16.463C20.3565 14.9853 19.2973 13.6158 18.2245 12.5304C17.0019 11.2904 15.7619 10.4196 14.0203 10.1732C8.55773 9.39999 3.99691 7.16742 0.0845991 2.5718C-0.581306 11.1145 2.71536 17.0893 8.86411 21.5912C9.37247 21.9642 9.90211 22.3267 10.4491 22.6794C10.4085 22.7751 10.3689 22.8698 10.3303 22.9665C9.7842 24.2992 9.35121 25.689 9.04291 27.1214C8.80032 28.2493 8.63505 29.4052 8.55387 30.5814C8.24459 35.031 8.95689 39.6228 9.9543 43.5641C10.5583 45.9581 11.2706 48.1124 11.923 49.852L12.1066 49.882C15.6401 50.0646 22.333 51.1529 27.8815 56.3419C30.5171 58.8065 32.5477 61.8683 33.9269 65.2983C35.3341 61.7948 37.3656 58.7842 39.978 56.3419C45.5266 51.1529 52.2194 50.0646 55.7529 49.882L56.6082 49.738C57.4114 47.5818 58.2967 44.8089 58.9626 41.7433C59.7232 38.2427 60.1968 34.3603 59.9349 30.5814C59.8131 28.833 59.5077 27.1349 59.038 25.5006C58.6707 24.2239 58.2039 22.9877 57.6453 21.8009C57.6018 21.7062 57.5564 21.6124 57.5109 21.5197C57.5322 21.5032 57.5544 21.4849 57.5766 21.4684C64.7189 15.7662 68.091 8.28177 68.4544 0.0019319L68.4524 0ZM19.9226 43.4984C15.2506 43.4984 11.463 39.7107 11.463 35.0388C11.463 30.3668 15.2506 26.5792 19.9226 26.5792C24.5945 26.5792 28.3822 30.3668 28.3822 35.0388C28.3822 39.7107 24.5945 43.4984 19.9226 43.4984ZM38.2509 40.1408C36.9926 41.6099 35.7294 43.0838 34.442 44.5847C34.2545 44.8041 33.838 44.7973 33.6621 44.5712L30.2108 40.1428C29.9228 39.7736 30.4388 39.3425 30.9308 39.5406C31.6692 39.8383 32.4027 40.1418 33.1073 40.481C33.8737 40.8502 34.4739 40.8338 35.2384 40.4878C35.9971 40.1447 36.7809 39.8364 37.5686 39.5329C38.0605 39.3435 38.5554 39.7842 38.2509 40.1399V40.1408ZM48.5497 44.2551C43.8778 44.2551 40.0892 40.4675 40.0892 35.7955C40.0892 31.1236 43.8768 27.3359 48.5497 27.3359C53.2227 27.3359 57.0093 31.1236 57.0093 35.7955C57.0093 40.4675 53.2217 44.2551 48.5497 44.2551Z" fill="#ECF7F4"/>
<path id="Vector_4" d="M48.5499 41.3437C51.6138 41.3437 54.0975 38.86 54.0975 35.7961C54.0975 32.7323 51.6138 30.2485 48.5499 30.2485C45.4861 30.2485 43.0023 32.7323 43.0023 35.7961C43.0023 38.86 45.4861 41.3437 48.5499 41.3437Z" fill="#ECF7F4"/>
<path id="Vector_5" d="M19.9227 40.5862C22.9865 40.5862 25.4703 38.1024 25.4703 35.0386C25.4703 31.9747 22.9865 29.491 19.9227 29.491C16.8588 29.491 14.3751 31.9747 14.3751 35.0386C14.3751 38.1024 16.8588 40.5862 19.9227 40.5862Z" fill="#ECF7F4"/>
<path id="Vector_6" d="M71.3634 46.2218C71.3035 43.7737 70.2887 40.8481 74.5876 40.8481H78.4091C81.872 40.8481 81.9908 43.2962 81.9319 45.5646C81.812 48.0127 81.6332 56.7293 81.6932 62.7592C81.813 69.8039 83.4241 73.5654 88.559 73.5654C93.694 73.5654 95.4249 69.9837 95.4249 62.6993C95.4249 56.0721 95.4249 48.1915 95.365 46.2208C95.365 43.7727 94.2903 40.8472 98.5892 40.8472H102.411C105.874 40.8472 106.052 43.2953 105.933 45.5636C105.874 48.0117 105.695 59.8926 105.575 62.6983C105.038 74.4005 101.873 82.0424 88.7388 82.0424C74.8872 82.0424 71.7829 74.5793 71.4842 62.7582C71.3054 54.8176 71.4243 47.9518 71.3644 46.2208L71.3634 46.2218Z" fill="#FF8A44"/>
<path id="Vector_7" d="M113.871 73.4468C114.11 64.7901 114.11 56.2522 114.11 52.6704C114.11 50.461 112.737 48.0139 118.528 48.0139C122.408 48.0139 123.722 49.9846 124.199 52.0142C124.438 52.6704 124.498 53.5663 124.498 54.7609H124.915C125.274 52.8502 128.08 48.0149 134.707 48.0149C143.722 48.0149 145.096 56.1343 145.036 61.5678C144.976 66.4631 144.379 71.4192 144.618 77.9864C144.797 80.2547 144.738 82.0466 140.08 82.0466C135.423 82.0466 133.991 80.017 133.991 77.2702C133.991 72.0165 134.588 66.9415 134.588 61.7476C134.588 58.7032 133.155 56.315 130.11 56.315C126.886 56.315 125.035 59.3005 124.319 60.6729C124.259 64.792 124.14 69.9868 124.259 73.4497C124.259 74.883 124.319 76.1366 124.438 76.8527C124.677 79.3598 124.558 81.4503 121.154 81.4503H117.273C114.527 81.4503 114.049 79.5395 113.87 77.6887C113.811 76.614 113.87 75.1218 113.87 73.4497L113.871 73.4468Z" fill="#FF8A44"/>
<path id="Vector_8" d="M151.006 45.5655C150.469 43.0575 150.17 40.8491 153.156 40.8491H156.499C159.961 40.8491 160.32 43.4161 160.618 44.6706C161.394 48.1335 167.065 70.4031 168.021 74.7011H168.38C169.394 69.4473 175.186 46.5813 175.604 44.7895C176.081 42.2814 176.141 40.8491 179.306 40.8491H183.783C186.112 40.8491 186.41 43.1774 185.813 45.3268C184.201 51.2378 177.096 75.1186 176.559 77.3279C175.903 79.776 175.424 81.4471 171.604 81.4471H164.2C160.976 81.4471 160.021 79.7751 159.484 77.5068C158.887 75.2974 151.902 49.3271 151.006 45.5655Z" fill="#ECF7F4"/>
<path id="Vector_9" d="M204.38 48.0129C214.948 48.0129 220.44 55.4162 220.321 64.9689C220.202 74.6404 214.948 82.1036 204.44 82.1036C193.933 82.1036 188.559 74.6404 188.619 64.9089C188.679 55.4162 193.873 48.0129 204.38 48.0129ZM210.41 64.9089C210.41 60.1925 209.037 56.1923 204.44 56.1923C199.485 56.1923 198.47 60.2524 198.47 64.9089C198.47 69.5654 199.545 73.9243 204.381 73.9243C209.218 73.9243 210.411 69.6254 210.411 64.9089H210.41Z" fill="#ECF7F4"/>
<path id="Vector_10" d="M228.799 82.522C230.173 82.9395 231.964 83.1782 233.874 83.1782C236.74 83.1782 237.696 81.4472 238.651 78.2231H236.203C232.918 78.2231 232.262 76.4322 231.665 74.5814C230.59 71.3572 224.978 56.253 223.963 53.0289C223.306 50.9993 222.65 48.6111 225.933 48.6111H229.634C233.037 48.6111 233.396 50.5218 233.813 51.9541C234.589 55.2382 238.71 67.3579 240.023 72.5518H240.382C241.576 67.0593 244.322 54.7608 244.979 51.9541C245.278 49.9845 245.635 48.6111 248.86 48.6111H253.217C256.262 48.6111 256.203 50.1632 255.546 52.8501C254.112 58.2827 249.993 72.4928 248.202 78.5816C246.292 85.089 243.903 90.9999 234.351 90.9999C231.425 90.9999 228.858 90.6414 227.425 90.0451C225.933 89.5077 225.455 88.9104 225.694 87.7767L226.112 84.0152C226.29 82.5229 227.186 82.0455 228.798 82.5229L228.799 82.522Z" fill="#ECF7F4"/>
</g>
</svg>
