
<svg width="30" height="30" viewBox="0 0 30 30" fill="none" xmlns="http://www.w3.org/2000/svg">
<g id="3">
<circle id="BG" cx="14.6903" cy="14.6903" r="14.6903" fill="white"/>
<g id="logo-instagram 1">
<g id="Group">
<path id="Vector" d="M14.6923 8.86359C16.5902 8.86359 16.8149 8.8707 17.5647 8.90489C18.0155 8.9104 18.462 8.99318 18.8848 9.14961C19.1914 9.26786 19.4699 9.449 19.7022 9.68137C19.9346 9.91375 20.1157 10.1922 20.234 10.4988C20.3904 10.9216 20.4732 11.3681 20.4787 11.8189C20.5126 12.5687 20.52 12.7934 20.52 14.6913C20.52 16.5892 20.5129 16.8139 20.4787 17.5637C20.4732 18.0145 20.3904 18.461 20.234 18.8838C20.1157 19.1904 19.9346 19.4689 19.7022 19.7012C19.4699 19.9336 19.1914 20.1147 18.8848 20.233C18.462 20.3894 18.0155 20.4722 17.5647 20.4777C16.8153 20.5116 16.5905 20.519 14.6923 20.519C12.7941 20.519 12.5693 20.5119 11.8199 20.4777C11.3691 20.4722 10.9226 20.3894 10.4998 20.233C10.1932 20.1147 9.91475 19.9336 9.68238 19.7012C9.45001 19.4689 9.26887 19.1904 9.15062 18.8838C8.99418 18.461 8.91141 18.0145 8.90589 17.5637C8.87204 16.8139 8.8646 16.5892 8.8646 14.6913C8.8646 12.7934 8.87171 12.5687 8.90589 11.8189C8.91141 11.3681 8.99418 10.9216 9.15062 10.4988C9.26887 10.1922 9.45001 9.91375 9.68238 9.68137C9.91475 9.449 10.1932 9.26786 10.4998 9.14961C10.9226 8.99318 11.3691 8.9104 11.8199 8.90489C12.5697 8.87104 12.7944 8.86359 14.6923 8.86359ZM14.6923 7.58276C12.7629 7.58276 12.5199 7.59089 11.7617 7.62541C11.1717 7.63715 10.588 7.74885 10.0354 7.95577C9.56137 8.13438 9.132 8.41428 8.77727 8.77593C8.41529 9.13079 8.13516 9.5604 7.95644 10.0348C7.74952 10.5874 7.63781 11.1711 7.62608 11.761C7.59223 12.5186 7.58411 12.7616 7.58411 14.691C7.58411 16.6203 7.59223 16.8634 7.62676 17.6216C7.63849 18.2115 7.75019 18.7952 7.95712 19.3478C8.13564 19.8221 8.41554 20.2517 8.77727 20.6067C9.13219 20.9684 9.5618 21.2483 10.0361 21.4268C10.5887 21.6337 11.1724 21.7455 11.7624 21.7572C12.5206 21.791 12.7626 21.7998 14.693 21.7998C16.6234 21.7998 16.8654 21.7917 17.6236 21.7572C18.2136 21.7455 18.7973 21.6337 19.3499 21.4268C19.8219 21.2439 20.2506 20.9644 20.6084 20.6063C20.9663 20.2482 21.2455 19.8193 21.4282 19.3472C21.6351 18.7946 21.7468 18.2109 21.7585 17.6209C21.7924 16.8634 21.8005 16.6203 21.8005 14.691C21.8005 12.7616 21.7924 12.5186 21.7579 11.7604C21.7461 11.1704 21.6344 10.5867 21.4275 10.0341C21.249 9.55978 20.9691 9.13017 20.6073 8.77525C20.2524 8.41352 19.8228 8.13362 19.3485 7.9551C18.7959 7.74817 18.2122 7.63647 17.6222 7.62474C16.8647 7.59089 16.6217 7.58276 14.6923 7.58276Z" fill="#00565B"/>
<path id="Vector_2" d="M14.6934 11.0417C13.9715 11.0417 13.2657 11.2558 12.6655 11.6569C12.0652 12.058 11.5973 12.6281 11.321 13.2951C11.0448 13.9621 10.9725 14.696 11.1133 15.4041C11.2542 16.1122 11.6018 16.7626 12.1123 17.2731C12.6228 17.7836 13.2732 18.1312 13.9813 18.2721C14.6894 18.4129 15.4233 18.3406 16.0903 18.0643C16.7573 17.7881 17.3274 17.3202 17.7285 16.7199C18.1296 16.1197 18.3436 15.4139 18.3436 14.692C18.3436 13.7239 17.9591 12.7954 17.2745 12.1109C16.59 11.4263 15.6615 11.0417 14.6934 11.0417ZM14.6934 17.0614C14.2248 17.0614 13.7667 16.9224 13.377 16.6621C12.9874 16.4017 12.6837 16.0317 12.5044 15.5987C12.325 15.1658 12.2781 14.6893 12.3695 14.2297C12.461 13.7701 12.6866 13.3479 13.018 13.0166C13.3494 12.6852 13.7715 12.4595 14.2312 12.3681C14.6908 12.2767 15.1672 12.3236 15.6001 12.5029C16.0331 12.6823 16.4031 12.986 16.6635 13.3756C16.9239 13.7653 17.0628 14.2234 17.0628 14.692C17.0628 15.3204 16.8132 15.923 16.3688 16.3674C15.9245 16.8117 15.3218 17.0614 14.6934 17.0614Z" fill="#00565B"/>
<path id="Vector_3" d="M18.4883 11.7504C18.9594 11.7504 19.3413 11.3685 19.3413 10.8974C19.3413 10.4263 18.9594 10.0444 18.4883 10.0444C18.0172 10.0444 17.6353 10.4263 17.6353 10.8974C17.6353 11.3685 18.0172 11.7504 18.4883 11.7504Z" fill="#00565B"/>
</g>
</g>
</g>
</svg>
